<svg width="26" height="16" viewBox="0 0 26 16" fill="none" xmlns="http://www.w3.org/2000/svg"><g clip-path="url(#clip0_70_1763)"><path d="M0 0h6.5l.268.33h12.464L19.5 0H26v16h-6.5l-.268-.33H6.768L6.5 16H0V0z" fill="#D52B1E"/><path d="M6.5 0h13v16h-13V0zm6.744 14.767l-.122-2.877a.382.382 0 01.02-.138.324.324 0 01.067-.114.248.248 0 01.1-.067.211.211 0 01.114-.008l2.326.504L15.435 11a.264.264 0 01-.005-.132.225.225 0 01.059-.111l2.549-2.54-.575-.33a.204.204 0 01-.086-.11.263.263 0 01-.006-.154l.504-1.906-1.468.383a.147.147 0 01-.117-.02.205.205 0 01-.08-.107l-.285-.823-1.146 1.513a.17.17 0 01-.098.065.147.147 0 01-.11-.021.203.203 0 01-.078-.098.264.264 0 01-.014-.136l.552-3.506-.885.63a.145.145 0 01-.14.02.169.169 0 01-.063-.041.214.214 0 01-.044-.07L13 1.334l-.9 2.174a.214.214 0 01-.043.069.169.169 0 01-.064.041.145.145 0 01-.139-.02l-.885-.63.552 3.506a.263.263 0 01-.014.136.203.203 0 01-.078.098.147.147 0 01-.11.02.17.17 0 01-.098-.064L10.075 5.15l-.284.823a.206.206 0 01-.08.107.147.147 0 01-.118.02l-1.468-.383.504 1.906a.263.263 0 01-.006.153.203.203 0 01-.086.11l-.575.33 2.549 2.54c.029.03.05.068.059.112.01.043.008.09-.005.132l-.314 1.067 2.327-.504a.211.211 0 01.113.008.248.248 0 01.1.067c.03.031.052.07.067.114.015.043.022.09.02.138l-.122 2.877h.488z" fill="#fff"/></g><defs><clipPath id="clip0_70_1763"><rect width="26" height="16" rx="2" fill="#fff"/></clipPath></defs></svg>