<svg width="26" height="16" viewBox="0 0 26 16" fill="none" xmlns="http://www.w3.org/2000/svg"><g clip-path="url(#clip0_70_1764)"><path d="M26 0H0v16h26V0z" fill="#EE1C25"/><path d="M26 0H0v10.667h26V0z" fill="#0B4EA2"/><path d="M26 0H0v5.333h26V0z" fill="#fff"/><path d="M11.368 3.76H4.229l-.023.216c-.006.048-.13 1.173-.13 3.645 0 1.163.425 2.187 1.266 3.045.586.603 1.354 1.11 2.345 1.55l.113.05.113-.05c.99-.44 1.759-.947 2.345-1.55.838-.858 1.266-1.885 1.266-3.045 0-2.472-.124-3.597-.13-3.645l-.026-.216z" fill="#fff"/><path d="M7.797 12c-1.424-.635-3.464-1.89-3.464-4.381 0-2.491.13-3.62.13-3.62h6.674s.13 1.132.13 3.62c-.006 2.49-2.043 3.746-3.47 4.38z" fill="#EE1C25"/><path d="M8.103 6.968c.387.005 1.138.019 1.809-.187 0 0-.018.222-.018.48 0 .26.018.48.018.48-.616-.189-1.375-.194-1.809-.189v1.373h-.61V7.552c-.436-.005-1.192 0-1.808.19 0 0 .018-.222.018-.48a6.9 6.9 0 00-.018-.48c.67.207 1.424.191 1.809.186v-.864a4.659 4.659 0 00-1.433.19s.017-.222.017-.48a6.9 6.9 0 00-.017-.48 4.632 4.632 0 001.43.189c-.018-.547-.19-1.235-.19-1.235s.354.027.496.027c.142 0 .497-.027.497-.027s-.173.688-.19 1.235c.352.002.857-.014 1.43-.19 0 0-.018.222-.018.48 0 .26.017.48.017.48A4.649 4.649 0 008.1 6.104v.864h.003z" fill="#fff"/><path d="M7.797 8.776c-.72 0-1.103.92-1.103.92s-.214-.434-.8-.434c-.397 0-.688.325-.876.626.722 1.059 1.872 1.712 2.776 2.115.904-.403 2.057-1.056 2.776-2.115-.184-.301-.476-.626-.875-.626-.586 0-.8.434-.8.434s-.379-.92-1.098-.92z" fill="#0B4EA2"/></g><defs><clipPath id="clip0_70_1764"><rect width="26" height="16" rx="2" fill="#fff"/></clipPath></defs></svg>