<svg width="13" height="13" viewBox="0 0 13 13" fill="none" xmlns="http://www.w3.org/2000/svg">
<path d="M11.2161 3.03259L1.494 12.7547C1.33047 12.9182 1.12236 13 0.86964 13C0.616924 13 0.408805 12.9182 0.245283 12.7547C0.0817606 12.5912 0 12.3831 0 12.1304C0 11.8776 0.0817606 11.6695 0.245283 11.506L9.96741 1.78388H4.97255C4.71984 1.78388 4.50815 1.69825 4.33749 1.527C4.16684 1.35575 4.08121 1.14406 4.08062 0.891938C4.08002 0.639817 4.16565 0.42813 4.33749 0.256878C4.50934 0.0856262 4.72103 0 4.97255 0H12.1081C12.3608 0 12.5728 0.0856262 12.744 0.256878C12.9153 0.42813 13.0006 0.639817 13 0.891938V8.02744C13 8.28016 12.9144 8.49214 12.7431 8.6634C12.5719 8.83465 12.3602 8.91998 12.1081 8.91938C11.8559 8.91879 11.6443 8.83316 11.473 8.6625C11.3017 8.49185 11.2161 8.28016 11.2161 8.02744V3.03259Z" fill="#0F1A20"/>
</svg>
