<svg width="14" height="14" viewBox="0 0 14 14" fill="none" xmlns="http://www.w3.org/2000/svg">
<path d="M12.0789 3.26587L1.60892 13.7358C1.43282 13.9119 1.20869 14 0.936535 14C0.664379 14 0.440251 13.9119 0.264151 13.7358C0.0880499 13.5597 0 13.3356 0 13.0635C0 12.7913 0.0880499 12.5672 0.264151 12.3911L10.7341 1.9211H5.35506C5.0829 1.9211 4.85493 1.82888 4.67115 1.64446C4.48736 1.46003 4.39515 1.23206 4.39451 0.960549C4.39387 0.689034 4.48608 0.461064 4.67115 0.276638C4.85621 0.0922128 5.08418 0 5.35506 0H13.0394C13.3116 0 13.5399 0.0922128 13.7243 0.276638C13.9087 0.461064 14.0006 0.689034 14 0.960549V8.64494C14 8.9171 13.9078 9.14539 13.7234 9.32981C13.5389 9.51424 13.311 9.60613 13.0394 9.60549C12.7679 9.60485 12.54 9.51264 12.3555 9.32885C12.1711 9.14507 12.0789 8.9171 12.0789 8.64494V3.26587Z" fill="#FAFAFA"/>
</svg>
