<svg width="40" height="21" viewBox="0 0 40 21" fill="none" xmlns="http://www.w3.org/2000/svg">
<g clip-path="url(#clip0_134_93603)">
<path d="M0 0H10L10.4125 0.433125H29.5875L30 0H40V21H30L29.5875 20.5669H10.4125L10 21H0V0Z" fill="#D52B1E"/>
<path d="M10 0H30V21H10V0ZM20.375 19.3813L20.1875 15.6056C20.1848 15.5435 20.1953 15.4816 20.2184 15.4244C20.2415 15.3671 20.2766 15.3161 20.3209 15.2749C20.3653 15.2338 20.4179 15.2036 20.4749 15.1866C20.5318 15.1697 20.5917 15.1663 20.65 15.1769L24.2292 15.8375L23.7458 14.4375C23.7262 14.3818 23.7237 14.321 23.7387 14.2638C23.7536 14.2065 23.7853 14.1556 23.8292 14.1181L27.75 10.7844L26.8667 10.3512C26.807 10.3216 26.7597 10.2702 26.7336 10.2066C26.7075 10.1429 26.7045 10.0715 26.725 10.0056L27.5 7.50313L25.2417 8.00625C25.1805 8.01964 25.1168 8.01041 25.0613 7.98011C25.0059 7.94981 24.9621 7.90031 24.9375 7.84L24.5 6.75938L22.7375 8.74563C22.6972 8.79026 22.6442 8.81997 22.5865 8.8303C22.5287 8.84064 22.4693 8.83104 22.4172 8.80294C22.3651 8.77485 22.3231 8.72977 22.2975 8.67448C22.2718 8.61918 22.2639 8.55665 22.275 8.49625L23.125 3.89375L21.7625 4.72062C21.7305 4.74031 21.695 4.75289 21.6582 4.75758C21.6214 4.76228 21.5841 4.75898 21.5485 4.74791C21.513 4.73684 21.48 4.71822 21.4516 4.6932C21.4231 4.66819 21.3999 4.63732 21.3833 4.6025L20 1.75L18.6167 4.6025C18.6001 4.63732 18.5769 4.66819 18.5484 4.6932C18.52 4.71822 18.487 4.73684 18.4515 4.74791C18.4159 4.75898 18.3786 4.76228 18.3418 4.75758C18.305 4.75289 18.2695 4.74031 18.2375 4.72062L16.875 3.89375L17.725 8.49625C17.7361 8.55665 17.7282 8.61918 17.7025 8.67448C17.6769 8.72977 17.6349 8.77485 17.5828 8.80294C17.5307 8.83104 17.4713 8.84064 17.4135 8.8303C17.3558 8.81997 17.3028 8.79026 17.2625 8.74563L15.5 6.75938L15.0625 7.84C15.0379 7.90031 14.9941 7.94981 14.9387 7.98011C14.8832 8.01041 14.8195 8.01964 14.7583 8.00625L12.5 7.50313L13.275 10.0056C13.2955 10.0715 13.2925 10.1429 13.2664 10.2066C13.2403 10.2702 13.193 10.3216 13.1333 10.3512L12.25 10.7844L16.1708 14.1181C16.2147 14.1556 16.2464 14.2065 16.2613 14.2638C16.2763 14.321 16.2738 14.3818 16.2542 14.4375L15.7708 15.8375L19.35 15.1769C19.4083 15.1663 19.4682 15.1697 19.5251 15.1866C19.5821 15.2036 19.6347 15.2338 19.6791 15.2749C19.7234 15.3161 19.7585 15.3671 19.7816 15.4244C19.8047 15.4816 19.8152 15.5435 19.8125 15.6056L19.625 19.3813H20.375Z" fill="white"/>
</g>
<defs>
<clipPath id="clip0_134_93603">
<rect width="40" height="21" rx="2" fill="white"/>
</clipPath>
</defs>
</svg>
