<svg width="220" height="74" viewBox="0 0 220 74" fill="none" xmlns="http://www.w3.org/2000/svg">
<g clip-path="url(#clip0_121_1591)">
<path d="M219.61 63.21C219.61 68.97 214.94 73.65 209.17 73.65C203.4 73.65 198.73 68.98 198.73 63.21C198.73 57.44 203.4 52.77 209.17 52.77C214.94 52.77 219.61 57.44 219.61 63.21Z" fill="#E40425"/>
<path d="M55.0498 57.63C55.0498 59.67 55.0898 61.71 55.0498 63.74C54.9298 69.1 51.7698 72.63 46.4398 73.37C44.1598 73.68 41.8598 73.7 39.6098 73.15C34.7998 71.97 32.3998 68.86 32.0798 64.13C31.7998 59.93 31.8498 55.71 32.0498 51.51C32.3098 46.04 35.3598 42.73 40.7698 41.86C43.2098 41.47 45.6198 41.57 47.9898 42.21C51.9398 43.27 54.2098 45.88 54.8998 49.89C55.1598 51.39 55.0498 52.9 55.0798 54.41C55.0898 55.49 55.0798 56.56 55.0798 57.64H55.0598L55.0498 57.63ZM48.6798 58.08C48.6798 55.93 48.7098 54.22 48.6798 52.5C48.6198 49.11 47.3698 47.5 44.4298 46.95C42.2598 46.55 40.0198 47.57 39.0698 49.43C38.5998 50.35 38.4598 51.35 38.4498 52.36C38.4398 55.75 38.4498 59.14 38.4398 62.53C38.4398 63.18 38.4998 63.81 38.6098 64.44C38.9298 66.4 40.2898 67.76 42.2398 68.16C42.8298 68.28 43.4198 68.29 44.0198 68.27C46.6198 68.2 48.3198 66.56 48.5798 63.97C48.7898 61.87 48.6198 59.76 48.6898 58.09" fill="#26377E"/>
<path d="M131.42 70.43C130.66 71.91 129.46 72.73 127.95 73.08C125.84 73.57 123.71 73.66 121.65 72.91C119.81 72.24 118.86 70.8 118.75 68.86C118.68 67.51 118.68 66.16 118.75 64.81C118.84 63.01 119.66 61.71 121.44 61.04C123.09 60.42 124.84 60.3 126.55 60.01C127.77 59.8 129 59.65 130.21 59.43C131.19 59.25 131.48 58.86 131.51 57.88C131.57 55.74 130.94 55.1 128.77 55.08C127.99 55.08 127.21 55.04 126.45 55.24C125.49 55.48 125.08 55.96 125.08 56.94C125.08 59.02 125.14 58.81 123.16 58.82C122.01 58.82 120.87 58.8 119.72 58.82C119.12 58.83 118.83 58.62 118.85 57.99C118.88 56.82 118.78 55.65 119.2 54.53C119.98 52.43 121.63 51.35 123.68 50.86C126.66 50.15 129.69 50.13 132.67 50.86C135.93 51.65 137.7 53.99 137.73 57.42C137.76 60.69 137.73 63.97 137.73 67.24C137.73 68.28 137.78 68.35 138.79 68.39C139.36 68.41 139.55 68.66 139.54 69.2C139.52 70.25 139.52 71.31 139.54 72.36C139.54 72.91 139.32 73.15 138.76 73.14C137.43 73.12 136.1 73.14 134.77 73.12C133.23 73.1 131.85 72.29 131.58 70.74C131.57 70.66 131.5 70.59 131.4 70.43M131.54 64.63C131.54 64.63 131.52 64.63 131.51 64.63C131.51 64.29 131.51 63.94 131.51 63.6C131.52 63.25 131.37 63.19 131.04 63.24C129.89 63.42 128.73 63.63 127.57 63.73C125.22 63.92 124.86 64.55 124.97 67.03C124.97 67.1 124.99 67.17 124.99 67.23C125.07 67.93 125.46 68.34 126.14 68.52C127.17 68.78 128.19 68.72 129.2 68.45C130.47 68.11 131.32 67.39 131.42 66C131.45 65.54 131.49 65.09 131.52 64.63" fill="#26377E"/>
<path d="M174.67 63.21C172.81 63.21 170.96 63.23 169.1 63.2C168.45 63.19 168.24 63.43 168.28 64.04C168.32 64.61 168.28 65.18 168.3 65.76C168.37 67.82 169.93 69.19 171.98 69.03C172.3 69.01 172.62 68.97 172.94 68.92C174.11 68.72 174.75 67.98 174.77 66.8C174.77 66.3 174.77 65.79 174.78 65.29C174.78 64.8 174.99 64.53 175.53 64.53C177.16 64.54 178.78 64.53 180.41 64.53C180.78 64.53 181.06 64.64 181.07 65.05C181.11 66.97 181.21 68.9 179.96 70.58C179.08 71.76 177.91 72.5 176.56 72.9C173.69 73.75 170.77 73.82 167.86 73.15C164.28 72.33 162.16 69.69 162.09 66.01C162.04 63.49 162.04 60.97 162.08 58.46C162.15 54.01 164.46 51.33 168.87 50.59C170.96 50.24 173.08 50.23 175.16 50.7C177.3 51.18 179.08 52.19 180.21 54.17C180.79 55.19 181.06 56.3 181.09 57.45C181.14 59.1 181.09 60.75 181.12 62.4C181.13 63.04 180.84 63.23 180.24 63.22C178.38 63.2 176.53 63.22 174.67 63.22M171.6 59.45H173.11C175.07 59.45 175.19 59.28 174.83 57.29C174.67 56.38 174.29 55.64 173.39 55.27C170.59 54.13 168.17 55.82 168.28 58.81C168.3 59.27 168.45 59.47 168.93 59.46C169.82 59.44 170.72 59.46 171.61 59.46" fill="#26377E"/>
<path d="M74.7801 58.97C74.0001 58.97 73.2201 58.96 72.4401 58.97C71.9501 58.98 71.7201 58.75 71.7101 58.27C71.7101 57.79 71.7101 57.31 71.7001 56.83C71.6701 55.98 71.3401 55.48 70.5401 55.24C69.1701 54.82 67.7801 54.84 66.4001 55.24C65.7301 55.44 65.4001 55.89 65.3801 56.61C65.3401 58.18 65.5701 58.56 67.0401 59.13C68.1301 59.56 69.2801 59.78 70.4301 60.01C72.1201 60.34 73.7901 60.76 75.3301 61.57C76.9801 62.43 77.9201 63.78 77.9101 65.7C77.9101 66.68 77.9801 67.68 77.8601 68.65C77.5801 70.86 76.1501 72.2 74.1501 72.82C70.6101 73.91 66.9901 73.92 63.4301 72.93C60.5601 72.13 59.1901 70.17 59.1401 67.19C59.1401 66.62 59.1401 66.04 59.1401 65.47C59.1401 64.99 59.3501 64.74 59.8401 64.74C61.4201 64.74 63.0001 64.74 64.5901 64.74C65.0701 64.74 65.2901 64.98 65.2901 65.47C65.2901 66.02 65.3401 66.57 65.3401 67.11C65.3401 68.33 66.2301 68.76 67.1301 68.93C68.1801 69.12 69.2301 69.07 70.2801 68.93C71.2301 68.8 71.6801 68.31 71.7801 67.35C71.9501 65.74 71.5901 65.17 70.0701 64.57C68.5001 63.96 66.8301 63.77 65.2001 63.37C64.0101 63.08 62.8701 62.69 61.7801 62.13C60.1301 61.28 59.2401 59.93 59.2601 58.05C59.2601 57.16 59.2201 56.26 59.3301 55.37C59.6001 53.13 61.0501 51.88 63.0601 51.13C64.0601 50.76 65.1001 50.56 66.1501 50.49C68.6001 50.32 71.0501 50.25 73.4501 50.97C76.4401 51.86 77.9101 53.82 77.9201 56.94C77.9201 57.37 77.9001 57.81 77.9201 58.24C77.9401 58.76 77.7201 59 77.1901 58.98C76.3901 58.96 75.5901 58.98 74.7801 58.98" fill="#26377E"/>
<path d="M10.0102 73.12C8.98021 73.12 7.95021 73.1 6.92021 73.12C6.36021 73.14 6.10021 72.91 5.95021 72.39C4.75021 68.05 3.53021 63.71 2.31021 59.37C1.61021 56.88 0.870207 54.4 0.160207 51.92C-0.129793 50.89 -0.0597925 50.81 0.990207 50.81C2.50021 50.81 4.02021 50.81 5.53021 50.81C5.94021 50.81 6.24021 50.91 6.35021 51.36C7.27021 54.86 8.24021 58.34 9.09021 61.85C9.46021 63.38 9.58021 64.96 9.81021 66.52C9.84021 66.73 9.76021 67.05 10.0902 67.05C10.3702 67.05 10.3102 66.74 10.3402 66.56C10.5402 65.23 10.6802 63.88 10.9402 62.56C11.4902 59.68 12.3402 56.88 13.0902 54.05C13.3102 53.21 13.5502 52.37 13.7502 51.53C13.8702 51.03 14.1302 50.8 14.6602 50.81C16.2602 50.83 17.8702 50.81 19.4702 50.82C20.1802 50.82 20.2802 50.97 20.0802 51.65C18.1202 58.54 16.1602 65.42 14.2202 72.32C14.0602 72.9 13.7902 73.16 13.1702 73.14C12.1202 73.1 11.0602 73.13 10.0102 73.13" fill="#26377E"/>
<path d="M150.31 73.12C149.3 73.12 148.29 73.09 147.29 73.13C146.64 73.16 146.34 72.92 146.17 72.3C145.37 69.36 144.55 66.43 143.73 63.5C142.63 59.58 141.52 55.66 140.41 51.74C140.17 50.9 140.25 50.81 141.09 50.8C142.65 50.8 144.21 50.8 145.77 50.8C146.18 50.8 146.47 50.91 146.59 51.35C147.54 54.89 148.63 58.38 149.38 61.97C149.69 63.44 149.84 64.95 150.06 66.44C150.09 66.66 150.06 66.99 150.34 67C150.67 67.01 150.58 66.65 150.6 66.46C151.13 61.35 152.81 56.51 154.01 51.55C154.15 50.98 154.45 50.78 155.03 50.78C156.57 50.81 158.1 50.78 159.64 50.79C160.49 50.79 160.59 50.9 160.36 51.71C159.14 56 157.92 60.29 156.69 64.58C155.95 67.15 155.19 69.72 154.48 72.3C154.32 72.89 154.05 73.13 153.43 73.11C152.4 73.07 151.37 73.1 150.34 73.1" fill="#26377E"/>
<path d="M83.6601 62.24C83.6601 60.36 83.6601 58.49 83.6601 56.61C83.6601 55.64 83.6601 55.64 82.6501 55.63C81.9801 55.63 81.3201 55.63 80.6601 55.63C80.1201 55.63 79.8801 55.39 79.9001 54.83C79.9301 53.75 79.9301 52.68 79.9001 51.6C79.8801 50.98 80.1501 50.79 80.7201 50.81C81.4701 50.84 82.2301 50.8 82.9901 50.82C83.4901 50.84 83.6801 50.64 83.6801 50.14C83.6601 48.72 83.6701 47.3 83.6801 45.88C83.6801 45.05 83.8101 44.92 84.6301 44.91C86.1001 44.9 87.5601 44.92 89.0301 44.9C89.6501 44.89 89.8901 45.13 89.8801 45.75C89.8601 47.17 89.9001 48.59 89.8601 50.01C89.8401 50.65 90.0901 50.84 90.7001 50.83C91.9401 50.79 93.1801 50.83 94.4101 50.81C94.9601 50.81 95.2101 51.04 95.2101 51.58C95.2101 52.63 95.2101 53.69 95.2101 54.74C95.2101 55.39 94.8901 55.64 94.2701 55.63C93.0601 55.62 91.8401 55.65 90.6301 55.63C90.0801 55.62 89.8501 55.8 89.8501 56.38C89.8701 59.74 89.8501 63.11 89.8701 66.47C89.8701 67.93 90.2801 68.33 91.7601 68.38C92.6501 68.41 93.5501 68.4 94.4401 68.38C94.9601 68.38 95.2001 68.62 95.2001 69.12C95.2001 70.22 95.2001 71.32 95.2001 72.42C95.2001 72.89 94.9701 73.13 94.4801 73.12C92.4201 73.11 90.3501 73.16 88.2901 73.09C85.4601 72.99 83.7401 71.05 83.6601 68C83.6601 67.95 83.6601 67.91 83.6601 67.86C83.6601 65.98 83.6601 64.11 83.6601 62.23" fill="#26377E"/>
<path d="M104.88 53.08C106.57 50.47 109.09 50.21 111.74 50.42C114.28 50.62 115.89 52.39 116.16 55.05C116.37 57.15 116.24 59.26 116.28 61.36C116.29 61.91 116.06 62.14 115.5 62.13C113.96 62.11 112.43 62.1 110.89 62.13C110.27 62.14 110.09 61.86 110.08 61.3C110.08 59.97 110.07 58.65 110.05 57.32C110.05 56.73 109.88 56.18 109.45 55.76C108.32 54.63 105.77 55.16 105.19 56.65C104.95 57.28 104.87 57.93 104.87 58.6C104.87 63.09 104.87 67.57 104.87 72.06C104.87 73.09 104.85 73.11 103.84 73.11C102.44 73.11 101.04 73.11 99.6502 73.11C98.7402 73.11 98.6602 73.03 98.6602 72.14C98.6602 68.04 98.6602 63.95 98.6602 59.85C98.6602 57.2 98.6602 54.54 98.6602 51.89C98.6602 50.88 98.7401 50.81 99.7701 50.81C101.19 50.81 102.61 50.83 104.03 50.81C104.65 50.81 104.91 51.04 104.88 51.66C104.85 52.13 104.88 52.61 104.88 53.08Z" fill="#26377E"/>
<path d="M167.22 41.99C168.95 41.67 170.29 42.22 171.18 43.77C171.46 44.27 171.81 44.2 172.05 43.76C172.9 42.16 174.26 41.76 175.96 41.98C176.64 42.07 177.33 41.99 178.02 42C178.24 42 178.51 41.95 178.63 42.21C178.75 42.46 178.56 42.65 178.42 42.82C177.5 43.99 176.57 45.15 175.64 46.31C175.18 46.88 174.71 47.45 174.27 48.03C174 48.39 173.66 48.55 173.21 48.54C172.15 48.52 171.1 48.53 170.05 48.54C169.65 48.54 169.36 48.42 169.1 48.1C167.7 46.37 166.28 44.67 164.88 42.95C164.71 42.74 164.46 42.52 164.57 42.23C164.69 41.89 165.04 42.01 165.3 42.01C165.94 41.99 166.58 42.01 167.22 42.01" fill="#26377E"/>
<path d="M-1.95317e-05 15.5C-1.95317e-05 10.73 -1.95317e-05 5.96001 -1.95317e-05 1.19001C-1.95317e-05 0.0200099 0.00998044 0.0100098 1.19998 0.0100098C2.61998 0.0100098 4.04998 0.0100098 5.46998 0.0100098C6.47998 0.0100098 6.48998 0.0300099 6.48998 1.07001C6.48998 4.60001 6.48998 8.14001 6.48998 11.67C6.48998 12.58 6.50998 12.6 7.40998 12.6C9.79998 12.6 12.18 12.58 14.57 12.61C15.23 12.61 15.45 12.39 15.44 11.73C15.42 8.18001 15.43 4.62001 15.43 1.06001C15.43 0.0500097 15.48 0.0100098 16.47 0.0100098C17.96 0.0100098 19.45 0.0100098 20.94 0.0100098C21.82 0.0100098 21.88 0.0700098 21.89 0.94001C21.89 4.73001 21.89 8.51001 21.89 12.3C21.89 18.17 21.89 24.04 21.89 29.92C21.89 31.06 21.89 31.07 20.74 31.07C19.32 31.07 17.89 31.07 16.47 31.07C15.5 31.07 15.43 31 15.43 30C15.43 26.31 15.43 22.61 15.43 18.92C15.43 18.1867 15.0633 17.82 14.33 17.82C11.99 17.82 9.64998 17.84 7.30998 17.81C6.67998 17.81 6.47998 18.01 6.47998 18.64C6.49998 22.4 6.48998 26.16 6.47998 29.93C6.47998 31.05 6.45998 31.07 5.30998 31.07C3.86998 31.07 2.41998 31.07 0.96998 31.07C0.0699805 31.07 -0.0200195 30.99 -0.0200195 30.09C-1.95317e-05 25.23 -1.95317e-05 20.36 -1.95317e-05 15.5Z" fill="#26377E"/>
<path d="M112.59 11.16C115.31 7.81001 120.18 7.20001 123.35 9.80001C124.69 10.9 125.22 12.45 125.44 14.09C125.77 16.53 125.55 18.99 125.58 21.45C125.6 22.82 125.65 24.2 125.47 25.57C125 29.14 122.6 31.31 119.01 31.35C118.14 31.36 117.27 31.37 116.4 31.21C114.69 30.89 113.29 30.13 112.4 28.58C112.33 28.45 112.28 28.24 112.08 28.28C111.89 28.31 111.88 28.5 111.84 28.66C111.68 29.24 111.51 29.81 111.37 30.39C111.26 30.85 111.02 31.09 110.51 31.08C109.34 31.06 108.17 31.06 107 31.08C106.51 31.08 106.28 30.87 106.29 30.38C106.29 30.2 106.29 30.01 106.29 29.83V1.18001C106.283 0.40001 106.673 0.0100098 107.46 0.0100098C108.79 0.0100098 110.12 0.0100098 111.45 0.0100098C112.44 0.0100098 112.48 0.0600098 112.48 1.07001C112.48 4.17001 112.48 7.27001 112.48 10.36C112.48 10.6 112.42 10.86 112.58 11.15M119.36 20.11C119.36 18.61 119.4 17.46 119.35 16.32C119.29 15.03 118.96 13.79 117.55 13.36C115.1 12.61 112.63 13.17 112.49 16.64C112.49 16.69 112.49 16.73 112.49 16.78C112.49 18.77 112.49 20.77 112.49 22.76C112.49 23.38 112.6 23.99 112.81 24.58C113.33 26 114.58 26.73 116.26 26.61C117.96 26.49 118.92 25.68 119.23 24.09C119.51 22.66 119.28 21.21 119.36 20.12" fill="#26377E"/>
<path d="M50.5102 15.51C50.5102 10.67 50.5102 5.83 50.5102 0.98C50.5102 0.04 50.5402 0.01 51.4702 0C52.8702 0 54.2702 0 55.6702 0C56.6202 0 56.6402 0.02 56.6402 0.96C56.6402 5.94 56.6402 10.92 56.6402 15.9C56.6402 16.94 56.6402 16.89 57.7102 16.96C58.5302 17.01 58.9002 16.73 59.1902 15.95C60.1102 13.46 61.7002 11.32 63.0602 9.07C63.2202 8.8 63.4602 8.71 63.7502 8.71C65.5402 8.71 67.3302 8.7 69.1202 8.71C69.7902 8.71 69.8702 8.92 69.5002 9.52C67.6602 12.51 65.8302 15.5 63.9702 18.48C63.6402 19.01 63.6102 19.44 63.9302 19.99C65.8102 23.22 67.6602 26.47 69.5202 29.71C69.6202 29.89 69.7302 30.06 69.8302 30.24C70.1802 30.88 70.0902 31.04 69.3502 31.05C67.6102 31.05 65.8602 31.05 64.1202 31.05C63.7202 31.05 63.4102 30.96 63.2102 30.58C61.8902 28.14 60.4002 25.79 59.2802 23.24C59.2502 23.18 59.2202 23.12 59.1902 23.05C58.6402 21.79 58.6402 21.82 57.2902 21.81C56.7102 21.81 56.6002 22.04 56.6002 22.55C56.6202 25.03 56.6002 27.51 56.6002 29.98C56.6002 31.03 56.6002 31.03 55.5802 31.03C54.2302 31.03 52.8702 31.03 51.5202 31.03C50.4902 31.03 50.4702 31.01 50.4702 30C50.4702 25.16 50.4702 20.32 50.4702 15.47" fill="#26377E"/>
<path d="M141.65 28.32C140.36 30.54 138.42 31.21 136.22 31.33C134.92 31.41 133.61 31.41 132.32 31.06C130.27 30.49 128.91 28.81 128.87 26.69C128.84 25.41 128.84 24.12 128.87 22.84C128.91 20.92 129.93 19.56 131.75 18.92C133.67 18.24 135.7 18.14 137.69 17.8C138.59 17.65 139.51 17.54 140.4 17.36C141.34 17.18 141.63 16.79 141.65 15.84C141.7 13.64 141.1 13.02 138.87 13C138.11 13 137.36 12.96 136.61 13.15C135.61 13.4 135.21 13.86 135.21 14.89C135.21 16.98 135.28 16.73 133.34 16.74C132.15 16.74 130.95 16.74 129.76 16.74C129.36 16.74 129.01 16.67 129 16.17C128.97 14.68 128.92 13.2 129.64 11.8C130.63 9.86001 132.38 9.06001 134.32 8.65001C136.92 8.10001 139.56 8.11001 142.18 8.60001C145.91 9.31001 147.86 11.69 147.88 15.48C147.9 18.71 147.88 21.95 147.88 25.18C147.88 26.21 147.92 26.27 148.95 26.32C149.47 26.35 149.7 26.55 149.69 27.07C149.67 28.17 149.68 29.27 149.69 30.37C149.69 30.87 149.48 31.07 148.99 31.07C147.59 31.05 146.19 31.1 144.79 31.04C143.13 30.98 142.04 30.14 141.64 28.31M141.66 22.64C141.66 22.25 141.66 21.86 141.66 21.47C141.66 21.27 141.61 21.08 141.35 21.14C139.69 21.52 137.98 21.5 136.32 21.9C135.98 21.98 135.69 22.17 135.48 22.47C135.03 23.09 134.97 25.24 135.38 25.87C135.51 26.07 135.67 26.24 135.9 26.31C137.46 26.83 138.98 26.76 140.41 25.94C141.6 25.25 141.64 24.05 141.65 22.86C141.65 22.79 141.65 22.72 141.65 22.65" fill="#26377E"/>
<path d="M83.8001 21.14C81.9201 21.14 80.0401 21.16 78.1601 21.14C77.5901 21.14 77.3701 21.33 77.4101 21.9C77.4601 22.72 77.3501 23.55 77.5501 24.37C77.9901 26.11 79.3001 27.08 81.0801 26.99C81.4501 26.97 81.8101 26.93 82.1701 26.86C83.3101 26.66 83.9701 25.87 83.9901 24.71C83.9901 24.21 83.9901 23.7 83.9901 23.2C83.9901 22.73 84.1701 22.47 84.6801 22.47C86.3101 22.48 87.9401 22.47 89.5601 22.47C89.9301 22.47 90.2101 22.57 90.2101 22.99C90.2101 24.16 90.3001 25.33 90.0501 26.49C89.6301 28.42 88.4401 29.8 86.6801 30.48C82.8401 31.94 78.9101 32.1 75.1101 30.37C72.6401 29.25 71.4701 27.1 71.3001 24.42C71.1201 21.54 71.1501 18.65 71.2801 15.76C71.4401 12.26 73.3501 9.73999 76.7001 8.79999C79.4501 8.02999 82.2401 8.01999 84.9901 8.77999C88.3101 9.68999 90.2001 12.16 90.3001 15.64C90.3401 17.18 90.3201 18.71 90.3001 20.25C90.3001 21.03 90.1701 21.14 89.3501 21.14C87.4901 21.14 85.6401 21.14 83.7801 21.14M80.7501 17.36H82.4701C84.2801 17.36 84.3201 17.3 84.0901 15.47C83.9401 14.35 83.5301 13.42 82.3501 13.09C79.8901 12.41 77.3201 13.25 77.4201 16.82C77.4301 17.24 77.6201 17.37 78.0201 17.37C78.9401 17.36 79.8501 17.37 80.7701 17.37" fill="#26377E"/>
<path d="M46.0202 20.02C46.0202 21.17 46.0402 22.31 46.0202 23.46C45.9402 27.81 43.6702 30.52 39.3902 31.27C37.1202 31.67 34.8302 31.65 32.5702 31.07C29.1102 30.18 26.9902 27.56 26.8202 23.99C26.6902 21.31 26.6902 18.63 26.8202 15.95C26.9902 12.56 28.5802 10.09 31.8102 8.99004C35.1602 7.86004 38.5702 7.85004 41.8802 9.33004C44.6402 10.56 45.7602 12.91 46.0002 15.75C46.1102 17.16 46.0202 18.59 46.0202 20.01H46.0402M39.8002 19.88C39.8002 18.62 39.8302 17.36 39.8002 16.1C39.7702 15.16 39.5502 14.25 38.7202 13.68C37.5102 12.84 36.1802 12.82 34.8402 13.31C33.5702 13.77 33.0802 14.88 33.0102 16.08C32.8702 18.62 32.8502 21.17 33.0102 23.71C33.1502 25.86 34.5402 26.87 36.8602 26.75C38.7402 26.65 39.7702 25.48 39.8002 23.39C39.8202 22.22 39.8002 21.05 39.8002 19.88Z" fill="#26377E"/>
<path d="M159.34 15.55C159.34 20.39 159.34 25.23 159.34 30.07C159.34 31.04 159.31 31.07 158.33 31.07C156.88 31.07 155.44 31.05 153.99 31.08C153.36 31.09 153.11 30.83 153.13 30.23C153.13 30.05 153.13 29.86 153.13 29.68V1.45002C153.13 1.33002 153.13 1.22002 153.13 1.10002C153.14 0.0700196 153.2 1.95522e-05 154.22 1.95522e-05C155.64 1.95522e-05 157.07 0.0300196 158.49 -0.00998045C159.16 -0.0299804 159.36 0.23002 159.36 0.87002C159.34 5.76002 159.35 10.64 159.35 15.53" fill="#26377E"/>
<path d="M101.1 21.25C101.1 24.92 101.1 28.59 101.1 32.26C101.1 32.88 101.04 33.5 100.94 34.11C100.56 36.25 98.9599 37.67 96.6699 37.79C95.1099 37.88 93.5499 37.81 91.9899 37.83C91.5499 37.83 91.3799 37.63 91.3799 37.2C91.3799 36.08 91.3899 34.95 91.3799 33.83C91.3799 33.34 91.6099 33.18 92.0599 33.19C92.5199 33.2 92.9799 33.21 93.4399 33.18C94.3599 33.11 94.8099 32.66 94.8799 31.74C94.9299 31.05 94.9699 30.37 94.9699 29.68C94.9699 23.03 94.9699 16.37 94.9699 9.72003C94.9699 8.74003 94.9999 8.72003 95.9799 8.72003C97.3099 8.72003 98.6399 8.72003 99.9699 8.72003C101.07 8.72003 101.1 8.75003 101.1 9.83003C101.1 13.64 101.1 17.45 101.1 21.26" fill="#26377E"/>
<path d="M98.02 0.440038C98.8 0.440038 99.58 0.450038 100.36 0.440038C100.84 0.440038 101.09 0.620038 101.09 1.12004C101.09 2.52004 101.09 3.92004 101.09 5.31004C101.09 5.79004 100.87 6.02004 100.38 6.01004C98.8 6.00004 97.22 6.01004 95.64 6.01004C95.19 6.01004 94.96 5.84004 94.96 5.36004C94.97 3.94004 94.97 2.52004 94.96 1.10004C94.96 0.640038 95.15 0.430038 95.62 0.440038C96.42 0.450038 97.22 0.440038 98.03 0.440038" fill="#26377E"/>
</g>
<defs>
<clipPath id="clip0_121_1591">
<rect width="219.61" height="73.64" fill="white"/>
</clipPath>
</defs>
</svg>
