<svg width="107" height="40" viewBox="0 0 107 40" fill="none" xmlns="http://www.w3.org/2000/svg">
<g clip-path="url(#clip0_2201_871)">
<path d="M46.9017 20.0604L42.4927 34.7597H37.0269L41.4358 20.0604H46.9017Z" fill="#FAFAFA"/>
<path d="M59.264 24.0803C57.9859 23.581 56.6292 23.3311 55.2627 23.3434C54.4059 23.3434 52.9111 23.3668 52.6204 24.3143C52.0466 26.2287 60.0718 24.4195 58.3732 30.0848C57.1917 34.0228 53.1224 35.0132 49.963 35.0132C48.0546 35.0334 46.1516 34.8001 44.3008 34.3191L45.4332 30.5059C46.884 31.1636 48.4542 31.4933 50.0385 31.4729C51.3219 31.4729 52.5676 31.1999 52.7865 30.463C53.3791 28.4823 45.3615 30.2759 47.0715 24.5677C48.3171 20.5244 52.6015 19.807 55.8441 19.807C57.3743 19.8109 58.9 19.9795 60.3965 20.31L59.264 24.0803Z" fill="#FAFAFA"/>
<path d="M62.3745 20.0604H71.3434C73.8121 20.0604 75.9902 20.8792 75.1522 23.6826C74.5444 25.7023 73.1817 26.7784 71.1358 27.2814V27.3243C73.0232 27.6011 73.7781 29.1997 73.3365 30.6735C72.2229 34.3815 69.2144 34.7597 66.2588 34.7597H57.9656L62.3745 20.0604ZM64.0166 31.7263H65.4434C66.4437 31.7263 67.6366 31.3364 67.9801 30.2096C68.3576 28.9463 67.4063 28.7162 66.3871 28.7162H64.9263L64.0166 31.7263ZM65.8285 25.6828H67.1911C68.1499 25.6828 69.2786 25.3865 69.6146 24.2714C69.9505 23.1562 69.1465 22.8404 68.1688 22.8404H66.6778L65.8285 25.6828Z" fill="#FAFAFA"/>
<path d="M87.0805 20.0604H92.5464L88.1374 34.7597H82.6677L84.2532 29.4726H80.6029L79.0175 34.7597H73.5554L77.9644 20.0604H83.4227L81.9128 25.1291H85.563L87.0805 20.0604Z" fill="#FAFAFA"/>
<path d="M94.8074 20.0604H107L105.939 23.5968H99.2126L98.4991 25.9752H105.022L103.961 29.5155H97.4346L95.8794 34.7597H90.3984L94.8074 20.0604Z" fill="#FAFAFA"/>
<path d="M20.0253 1.71978e-05C15.1227 -0.175072 10.3395 1.58427 6.64746 4.92057C10.4562 13.2879 15.3219 22.7196 16.6091 24.8718C19.7309 30.1667 24.0756 29.4493 37.2987 27.6011C38.4874 24.6142 38.9584 21.3744 38.6714 18.1586C38.3844 14.9427 37.348 11.8465 35.6507 9.1343C33.9533 6.42214 31.6456 4.17473 28.9245 2.58407C26.2035 0.99342 23.1502 0.106817 20.0253 1.71978e-05Z" fill="#FAFAFA"/>
<path d="M49.2005 15.8495C48.9773 16.6232 48.5369 17.311 47.9349 17.8259C47.333 18.3409 46.5967 18.6597 45.8192 18.742C45.0417 18.8244 44.2581 18.6665 43.5675 18.2885C42.8769 17.9105 42.3105 17.3293 41.94 16.6185C41.5694 15.9077 41.4115 15.0993 41.486 14.2957C41.5606 13.4921 41.8644 12.7295 42.3589 12.1044C42.8535 11.4792 43.5165 11.0198 44.264 10.7841C45.0115 10.5485 45.81 10.5474 46.5581 10.7808C47.5575 11.0937 48.3964 11.8024 48.8915 12.7521C49.3867 13.7019 49.4977 14.8154 49.2005 15.8495Z" fill="#F7602B"/>
<path d="M29.0057 34.7597C21.592 34.9508 18.6741 34.2256 16.5489 31.508C14.7937 29.2699 8.99936 17.9355 4.3073 7.44324C1.24139 11.3661 -0.276594 16.3405 0.057352 21.3703C0.391298 26.4001 2.55252 31.1139 6.1082 34.5677C9.66389 38.0215 14.3515 39.9604 19.2324 39.996C24.1132 40.0316 28.8269 38.1613 32.4294 34.7597H29.0057Z" fill="#FAFAFA"/>
</g>
<defs>
<clipPath id="clip0_2201_871">
<rect width="107" height="40" fill="white"/>
</clipPath>
</defs>
</svg>
