<svg width="83" height="117" viewBox="0 0 83 117" fill="none" xmlns="http://www.w3.org/2000/svg">
<g clip-path="url(#clip0_15_83664)">
<path d="M41.2243 117C39.8329 117 38.6569 116.328 37.6188 115.738C37.2526 115.527 36.908 115.333 36.5677 115.17C22.8435 108.642 13.3236 98.6254 8.27068 85.4053C7.85284 84.3158 7.85284 83.2565 7.85284 82.2273C7.85284 78.5196 7.85284 72.5555 7.85284 65.4761C7.85284 60.7435 7.85715 55.5115 7.85715 50.1287L1.71873 47.9498H1.3095C0.585816 47.9498 -0.0043335 47.3598 -0.0043335 46.6364V19.5588C-0.0043335 18.8354 0.585816 18.2455 1.3095 18.2455H7.83561C7.82269 11.7129 7.79684 6.86842 7.77099 3.83684C7.75376 2.29952 7.99499 1.39522 8.57653 0.809569C9.13652 0.241148 9.99375 0 11.4368 0C11.5144 0 11.5962 0 11.678 0C15.5592 0.0645933 19.7635 0.0947368 24.9198 0.0947368C27.9265 0.0947368 30.9333 0.0861244 33.94 0.077512C36.4643 0.0688995 38.9929 0.0602871 41.5129 0.0602871C44.2138 0.0602871 46.9147 0.0645933 49.6156 0.0688995C52.3165 0.0732057 55.0131 0.077512 57.714 0.077512C63.2967 0.077512 67.613 0.0559809 71.701 0.00861244H71.8474C73.1656 0.00861244 73.9496 0.232536 74.4751 0.762201C75.0136 1.30478 75.2376 2.13589 75.229 3.5311C75.2031 6.50239 75.1859 11.3167 75.1816 18.2411H81.6905C82.4141 18.2411 83.0043 18.8311 83.0043 19.5545V46.6321C83.0043 47.3555 82.4141 47.9454 81.6905 47.9454H81.5569L75.1816 50.2105C75.1816 61.7426 75.1816 74.4761 75.1299 80.522C75.0739 87.3603 71.4641 92.7129 67.4493 98.0483C61.2678 106.26 53.0402 112.513 42.9947 116.638C42.4089 116.879 41.8144 117 41.2286 117" fill="white"/>
<path d="M81.6818 18.646H74.7681C74.7767 12.2383 74.7896 6.87707 74.8197 3.52683C74.8413 1.06798 74.1219 0.38329 71.7053 0.409127C61.6426 0.529701 51.5799 0.460802 41.5129 0.460802C31.5665 0.469414 21.6158 0.568457 11.6694 0.404821C8.95992 0.361759 8.15008 1.05075 8.18023 3.82396C8.2147 7.1742 8.23623 12.4019 8.24916 18.6417H1.31382C0.809827 18.6417 0.404907 19.0508 0.404907 19.5503V46.6278C0.404907 47.1316 0.814135 47.5364 1.31382 47.5364H1.79197L8.26639 49.8359C8.26639 63.3833 8.25346 76.0091 8.25777 82.2015C8.25777 83.2307 8.25777 84.2297 8.64977 85.2546C13.9094 99.0129 23.649 108.564 36.7443 114.795C38.4803 115.622 40.2981 117.297 42.8397 116.255C52.5965 112.25 60.8026 106.191 67.122 97.7986C70.9687 92.6914 74.6647 87.2871 74.7207 80.5134C74.7681 74.6957 74.7724 62.8149 74.7724 49.922L81.4837 47.5364H81.6862C82.1901 47.5364 82.5951 47.1273 82.5951 46.6278V19.5503C82.5951 19.0464 82.1858 18.6417 81.6862 18.6417" fill="white"/>
<path d="M80.9065 18.646H74.7724C74.7767 12.2383 74.7939 6.87707 74.8197 3.52683C74.8413 1.06798 74.1219 0.38329 71.7053 0.409127C61.6426 0.529701 51.5799 0.460802 41.5129 0.460802C31.5665 0.469414 21.6158 0.568457 11.6694 0.404821C8.95992 0.361759 8.15008 1.05075 8.18023 3.82396C8.2147 7.1742 8.23623 12.4019 8.24916 18.6417H2.09351C1.16306 18.6417 0.404907 19.3953 0.404907 20.3297V45.8527C0.404907 46.546 0.82275 47.1402 1.42152 47.3986H1.4129L8.26639 49.8359C8.26639 63.3833 8.25346 76.0091 8.25777 82.2015C8.25777 83.2307 8.25777 84.2297 8.64977 85.2546C13.9094 99.0129 23.649 108.564 36.7443 114.795C38.4803 115.622 40.2981 117.297 42.8397 116.255C52.5965 112.25 60.8026 106.191 67.122 97.7986C70.9687 92.6914 74.6647 87.2871 74.7207 80.5134C74.7681 74.6957 74.7724 62.8149 74.7724 49.922L81.7249 47.4546L81.6215 47.3771C82.1988 47.1101 82.5994 46.5287 82.5994 45.8527V20.3297C82.5994 19.3996 81.8455 18.6417 80.9108 18.6417" fill="white"/>
<path d="M4.62207 45.0948L1.41718 47.4115L9.26143 50.1976L9.27004 44.8105L4.62207 45.0948Z" fill="#E40425"/>
<path d="M78.5157 45.1421L81.7206 47.4588L73.8763 50.245V44.8837L78.5157 45.1421Z" fill="#E40425"/>
<path d="M41.5129 0.465074C31.5665 0.473687 21.6158 0.57273 11.6694 0.409093C8.95988 0.366031 8.15004 1.05503 8.17589 3.82823C8.31804 18.2756 8.24481 67.7584 8.25343 82.21C8.25343 83.2392 8.25343 84.2383 8.64542 85.2632C13.9051 99.0215 23.6447 108.573 36.74 114.804C38.476 115.631 40.2938 117.306 42.8353 116.264C52.5922 112.259 60.7983 106.2 67.1176 97.8072C70.9643 92.7 74.6603 87.2957 74.7163 80.522C74.8326 66.5354 74.6991 17.5177 74.8197 3.5311C74.8412 1.07225 74.1219 0.387562 71.7053 0.4134C61.6426 0.533974 51.5799 0.465074 41.5129 0.465074Z" fill="#23234A"/>
<path d="M81.2252 47.545H1.77474C1.01659 47.545 0.404907 46.9335 0.404907 46.1756V20.0153C0.404907 19.2574 1.01659 18.6459 1.77474 18.6459H81.2252C81.9834 18.6459 82.5951 19.2574 82.5951 20.0153V46.1756C82.5951 46.9335 81.9834 47.545 81.2252 47.545Z" fill="#E40425"/>
<path d="M57.21 100.589C57.21 102.613 55.5688 104.254 53.5442 104.254C51.5196 104.254 49.8784 102.613 49.8784 100.589C49.8784 98.565 51.5196 96.9244 53.5442 96.9244C55.5688 96.9244 57.21 98.565 57.21 100.589Z" fill="#E40425"/>
<mask id="mask0_15_83664" style="mask-type:luminance" maskUnits="userSpaceOnUse" x="12" y="4" width="59" height="108">
<path d="M12.7765 65.0455C12.7765 72.069 12.7722 77.9814 12.7765 81.6675C12.7765 82.2747 12.7765 82.8474 12.8713 83.0886C17.5235 95.2579 25.9665 104.112 38.6871 110.166C39.1954 110.407 39.6563 110.67 40.0655 110.902C40.4188 111.105 40.9314 111.398 41.2027 111.497C50.3824 107.712 57.8906 102.006 63.5207 94.5302C67.0229 89.8795 70.1675 85.2632 70.2105 79.9235C70.2665 73.0379 70.2622 57.2814 70.2579 42.0503C70.2579 27.3015 70.2493 12.0833 70.301 4.38379C66.6395 4.42255 62.5989 4.43977 57.7312 4.43977C55.026 4.43977 52.3208 4.43546 49.6199 4.43116C46.919 4.42685 44.2224 4.42255 41.5301 4.42255C39.0101 4.42255 36.4902 4.43116 33.9702 4.43977C30.9548 4.44838 27.9395 4.4613 24.9241 4.4613C20.2287 4.4613 16.3174 4.43546 12.7162 4.38379C12.811 16.0881 12.798 45.4221 12.7851 65.0541" fill="white"/>
</mask>
<g mask="url(#mask0_15_83664)">
<path d="M18.5358 103.991C18.0749 102.953 17.1574 102.075 17.11 100.873C17.0755 100.279 17.3641 99.7321 17.6743 99.2455C17.9629 98.8278 18.2688 98.3929 18.7081 98.1216C18.7211 98.1216 18.7297 98.113 18.7512 98.113C18.7684 98.1001 18.8288 98.1431 18.8201 98.1733C18.8201 98.2206 18.8029 98.2293 18.7943 98.2508C18.7728 98.2852 18.7512 98.3154 18.7297 98.3455C18.3549 98.8063 17.8035 99.0431 17.3125 99.3532L15.8091 100.206C14.8097 100.774 13.806 101.343 12.854 101.984C12.3888 102.312 11.9063 102.647 11.5574 103.082C11.3679 103.306 11.3593 103.556 11.4756 103.827C11.9925 105.162 12.7851 106.377 13.5389 107.595C14.1593 108.564 14.8097 109.512 15.4989 110.433C16.1106 111.204 16.6965 112.052 17.5063 112.625C18.2903 113.262 17.4374 109.645 17.4029 109.344C17.2048 107.991 16.382 105.188 17.8251 104.327C19.9014 103.28 22.2189 102.902 24.3813 102.101C24.6484 102.002 24.9155 101.898 25.1653 101.773C25.3979 101.648 25.6909 101.498 25.6435 101.308C25.4884 100.219 24.8379 99.1938 24.2004 98.3068C23.6964 97.6824 23.0718 96.9374 22.2146 97.2302C21.1937 97.4584 20.1211 97.6522 19.1691 98.0785C19.1648 98.0785 19.1604 98.0958 19.182 98.0527C19.1949 98.0312 19.1949 97.958 19.1648 97.9278C19.1432 97.8977 19.1303 97.8977 19.126 97.8934C19.1174 97.8934 19.1518 97.8977 19.1777 97.902C22.3309 97.9235 25.2773 96.4034 27.9911 94.9135C28.6631 94.5991 29.2921 94.2503 30.0028 94.0307C30.5068 93.8671 30.9677 94.2546 31.2865 94.5948C31.7991 95.1589 32.1265 95.9728 31.9757 96.7436C31.8336 97.1915 31.545 97.5489 31.2693 97.9063C30.5327 98.8149 29.7013 99.6245 28.8182 100.387C28.4348 100.692 28.073 101.037 27.6035 101.226C27.5733 101.235 27.5518 101.244 27.5044 101.244C27.4699 101.244 27.401 101.248 27.3235 101.192C27.2933 101.166 27.2588 101.119 27.2502 101.089C27.1598 100.779 27.4872 100.52 27.6939 100.395C29.0164 99.6805 30.8342 99.4565 32.1394 98.7374C32.6736 98.4704 32.8157 98.0613 32.7425 97.4972C32.6003 96.3948 32.1007 95.3312 31.601 94.3364C31.4933 94.1513 31.321 93.8025 31.2133 93.6431C30.425 93.3675 29.5807 93.6087 28.7493 93.4192C28.6416 93.3934 28.5124 93.3374 28.4435 93.2254C28.2367 92.8336 28.0902 92.1532 27.9524 91.7312C27.6293 90.6417 27.2847 89.5436 26.7764 88.5316C26.5222 88.0278 26.2336 87.5843 25.8115 87.1924C23.8041 85.1685 21.465 83.2178 20.2244 80.5522C19.5869 78.8728 19.5998 77.0297 20.0435 75.3029L20.3235 75.5872C20.2546 75.6087 20.1555 75.6604 20.1167 75.6991C20.0952 75.7206 20.0866 75.7336 20.0866 75.7379C20.0866 75.7379 20.0866 75.7422 20.0909 75.7637C20.4312 76.2159 21.1506 76.4226 21.6933 76.6422C22.5377 76.9479 23.4164 77.1848 24.2952 77.4259C26.0484 77.9039 27.8145 78.3388 29.5936 78.7135C30.9204 78.9848 32.26 79.2474 33.6083 79.3465C33.9702 79.3551 34.4483 79.4154 34.7671 79.2561C34.9308 79.1053 35.0083 78.9718 35.1203 78.7608C35.1548 78.6876 35.2926 78.5412 35.4391 78.5671C35.5726 78.5757 35.6889 78.6833 35.7536 78.7393C36.1757 79.1312 36.5763 79.523 37.0114 79.8977C39.3504 81.9647 42.9517 84.9962 45.2476 87.1063C45.3553 87.2139 45.4673 87.313 45.5707 87.4422C45.5879 87.4852 45.5966 87.4293 45.6396 87.6101C45.2606 88.1355 45.4027 87.7651 45.3467 87.8771C41.9824 87.2742 41.0692 87.8297 38.2822 89.5824C37.5369 90.0517 35.5382 91.3135 34.8059 91.7613C34.3449 92.0197 33.9099 92.347 33.3671 92.5106C33.3197 92.5235 33.225 92.5192 33.1819 92.5106C31.5622 91.8087 30.1278 90.6891 28.7148 89.6384C27.8318 88.8977 26.8238 88.1785 26.2767 87.102C26.1432 86.8307 26.1389 86.3915 26.4145 86.1805C27.6078 85.2374 31.489 88.6264 32.5271 89.4273C33.9271 90.6331 35.3659 91.8001 36.5375 93.2427C36.7615 93.6345 36.9468 94.0608 37.2052 94.4226C37.9548 95.6326 39.4754 95.4474 40.7117 95.3828C42.228 95.2494 45.0366 95.0427 45.1012 93.079C45.0409 91.9336 45.0883 89.8666 44.0889 89.1388C44.0156 89.0699 43.7744 89.0785 43.572 89.0958C42.7061 89.1905 41.8274 89.4532 40.9874 89.7503C40.0181 90.1336 37.8342 90.9431 37.7351 92.0757C37.5929 93.7637 38.2994 95.3527 38.9628 96.8814C39.3289 97.6867 39.5831 98.6168 39.9966 99.3747C40.1043 99.5513 40.2249 99.6848 40.38 99.7494C41.2243 100.124 45.8679 98.3025 46.2212 97.4326C46.2427 97.4154 46.191 97.2388 46.1867 97.213L46.0962 96.89C45.9067 96.3173 45.7387 95.6929 45.407 95.1977C45.407 95.1977 45.4156 95.2063 45.4458 95.2149C45.4716 95.2278 45.5578 95.2192 45.5922 95.1891C45.6526 95.1331 45.631 95.1331 45.6353 95.146C45.7904 96.4594 46.8156 100.946 47.087 102.333C47.4833 104.348 47.9916 106.355 48.1941 108.413C48.1941 109.916 45.0926 110.446 43.9424 110.48C43.3781 110.48 42.6157 110.48 42.1935 109.981C41.5129 108.891 41.2157 107.617 40.8926 106.39C40.6427 105.136 40.0181 102.617 40.9874 101.579C41.3061 101.265 41.612 101.442 41.7757 101.756C42.1978 102.626 42.3012 103.526 42.4649 104.452C42.6587 105.817 42.8138 107.182 42.7837 108.564C42.6717 109.946 42.1634 111.247 41.9264 112.59C41.7972 113.409 41.5861 114.421 42.1246 115.105C42.7277 115.73 43.7615 115.708 44.5886 115.734C45.4932 115.738 46.4064 115.691 47.3239 115.7C49.6027 115.743 51.8642 116.057 54.1386 115.85C54.7202 115.768 55.9349 115.7 56.0426 115.019C56.0426 114.485 56.0082 113.908 55.5817 113.538C54.914 112.961 54.0137 112.664 53.1953 112.332C51.4894 111.695 49.775 111.023 48.2328 109.99L48.4095 109.882C48.5559 110.562 48.935 111.35 49.6888 111.445C50.5331 111.428 50.6968 111.794 50.3264 112.535C50.2747 112.651 50.223 112.767 50.2058 112.87C50.1971 112.922 50.2058 112.952 50.2144 112.961C50.2101 112.961 50.2273 112.969 50.279 112.952C50.8347 112.737 51.3688 111.996 52.0537 112.212C52.2045 112.289 52.3294 112.401 52.3467 112.586C52.3467 112.78 52.2347 112.901 52.1399 112.995C51.735 113.374 51.2008 113.551 50.7442 113.839C50.7356 113.844 50.727 113.857 50.7313 113.848C50.7313 113.848 50.7442 113.835 50.7399 113.792C50.7313 113.753 50.7054 113.736 50.6968 113.732C50.6968 113.732 50.783 113.74 50.8347 113.732C51.4981 113.753 54.9614 112.965 54.7891 114.076L54.7762 114.132C54.7676 114.154 54.7546 114.184 54.7417 114.201C54.6254 114.352 54.4962 114.382 54.3713 114.438C52.1916 115.092 46.4969 115.235 44.468 114.253C43.1197 113.512 43.0163 112.199 43.1498 110.825C43.223 109.804 43.3135 108.792 43.3437 107.776C43.3437 105.748 42.8009 103.75 42.271 101.799C41.4138 98.8752 40.4231 95.9599 39.0791 93.2254C37.2225 89.5264 33.5954 87.2139 29.8994 85.612C28.9604 85.1513 27.6121 84.7249 26.8065 84.036C26.3542 83.5709 26.9142 83.2006 27.3838 83.179C28.8958 83.0025 30.4896 83.4848 31.9628 83.3513C31.9499 83.3771 31.9628 83.3943 31.9542 83.3771C31.2391 82.7958 30.2957 82.5072 29.4644 82.1111C26.897 80.9742 24.1573 80.2379 21.646 78.9632C19.8195 77.8005 19.5051 74.3125 20.4355 72.4996C20.918 71.5479 21.9475 71.0656 22.8306 70.5575C25.1136 69.3647 27.7284 68.8135 30.2957 69.0116C30.5499 69.0331 30.8471 69.0632 31.0884 69.2699C31.3339 69.4895 31.4071 69.8943 31.1616 70.1484C30.8256 70.4326 30.4034 70.5876 29.9856 70.6608C29.1068 70.8072 27.2201 70.7254 26.3241 70.7427H21.4694H21.2281C22.7789 67.7455 26.0742 66.4537 28.6416 64.5589C29.9037 63.6288 31.0668 62.5651 32.204 61.48C33.225 60.5455 34.5733 59.0383 35.7794 58.3407C36.8046 57.712 37.8988 57.1996 39.0618 56.8895C39.3634 56.7862 40.8797 56.5149 40.5394 57.2125C40.1 57.7852 39.4711 58.1599 38.9068 58.5862C38.2606 59.0427 37.5972 59.4776 36.9339 59.9082C35.6028 60.7651 34.2545 61.5876 32.889 62.38C32.204 62.7762 31.5148 63.1637 30.8127 63.5297C30.4034 63.7192 30.0416 63.969 29.5721 64.0422C29.5419 64.0379 29.5074 64.0465 29.4299 63.9948C29.3998 63.9776 29.3567 63.9087 29.3567 63.8742C29.3696 63.4781 29.529 63.1379 29.6238 62.7632C30.1148 61.2517 30.7007 59.7747 31.4631 58.3666C32.3677 56.7001 33.1733 55.7872 35.172 55.5374C36.7572 55.2919 38.3554 55.279 39.9449 55.4297C40.5006 55.5029 41.0994 55.5417 41.612 55.813C41.6981 55.8561 41.836 56.0068 41.823 56.1446C41.8187 56.3082 41.7498 56.5235 41.612 56.6312C41.4483 56.7604 41.4181 56.8895 41.4052 57.1522C41.3966 57.7206 41.4741 58.2934 41.6335 58.8403C42.0729 60.3259 42.7449 61.7599 43.4987 63.1293C44.076 64.0982 44.6618 65.179 45.5664 65.8508C48.0821 67.2029 51.0457 66.6948 52.2433 63.9087C52.5664 63.2154 52.799 62.4618 52.9282 61.7168L53.247 61.958C52.0107 62.4273 50.6538 62.2336 49.4734 61.7211C48.5645 61.368 47.647 60.8168 46.7165 60.5671C46.6864 60.5671 46.6692 60.5714 46.6864 60.5671C46.6907 60.5628 46.7079 60.5541 46.7122 60.5455C46.7209 60.5326 46.7079 60.5541 46.6993 60.5714C46.3935 61.157 45.7129 64.602 44.8212 64.2532C44.6015 64.1584 44.5412 63.9862 44.4981 63.8656C44.4033 63.5254 44.4292 63.1939 44.4507 62.8623C44.4852 62.268 44.6704 61.0709 44.4981 60.4982C44.3086 59.835 43.5849 59.2623 42.9215 59.1632C42.8397 59.1546 42.7664 59.1589 42.7147 59.1718C42.6932 59.1762 42.6587 59.1977 42.6803 59.1848C42.6113 59.3096 42.607 59.525 42.6157 59.7273C42.6501 60.1709 42.7277 60.679 42.9603 61.045C42.9732 61.0666 42.9947 61.0666 42.9473 61.045C42.9215 61.0364 42.8827 61.045 42.8612 61.0537C42.8397 61.0666 42.8397 61.0709 42.8397 61.0666C43.0981 60.6144 43.1326 59.99 43.111 59.469C43.0766 58.9996 42.9947 58.5302 42.7147 58.1771C42.676 58.1297 42.6372 58.091 42.5898 58.0565L42.5209 58.0049C42.5209 58.0049 42.5037 57.9919 42.4821 57.9704C42.4778 57.936 42.4218 57.979 42.4046 57.7551C42.5683 57.3977 42.676 57.5613 42.6803 57.5183C42.8655 57.5269 43.1197 57.6517 43.2963 57.7077C44.9159 58.3407 48.5732 59.8479 50.1627 60.3819C51.3904 60.7996 53.626 61.6651 53.8587 59.6886C54.199 57.1092 53.7811 53.7503 51.511 52.1441C48.8015 50.3269 44.0113 50.3527 42.607 53.7675C42.3744 54.5427 41.9738 55.4427 42.6329 56.08C43.1843 56.6053 44.0587 56.7302 44.7523 57.0273C45.5233 57.3072 46.2944 57.6001 47.0569 57.8972C48.7325 58.5345 50.3867 59.2192 52.0624 59.8264C52.17 59.8608 52.3251 59.8953 52.3897 59.9814C52.4931 60.0761 52.519 60.2312 52.5448 60.3388C52.6353 61.7685 51.9891 63.1723 50.9897 64.1843C50.3651 64.7958 49.5295 65.0886 48.7239 65.3771C47.8968 65.6527 47.0999 65.8465 46.2039 65.8379L46.5012 65.4762C46.7639 66.4838 47.0138 67.4828 47.1344 68.5206C47.1602 68.8781 47.2679 69.5972 46.7295 69.6661C46.2686 69.6144 45.8895 69.2656 45.5492 69.0374C44.9978 68.6111 43.46 67.3451 44.679 66.8369C45.6095 66.6948 47.5953 66.6991 48.1725 67.5561C48.4827 68.146 47.9356 68.779 47.6685 69.2484C47.087 70.1183 46.4409 70.9192 45.743 71.69C45.127 72.3618 44.343 73.1455 43.3307 72.9991C42.1504 72.6718 42.5467 71.1905 42.7578 70.3594C42.9517 69.7436 43.124 69.1106 43.5633 68.6025C43.615 68.5594 43.6667 68.4948 43.8304 68.4561C44.3129 68.4001 44.3301 68.9771 44.3603 69.2828C44.5196 71.1862 44.6618 73.0895 44.287 74.9843C44.02 76.0479 43.46 76.9522 42.788 77.7876C40.2895 80.8278 40.3197 75.1092 44.3344 77.3484L46.1522 78.2699C46.7036 78.5714 47.4618 78.8943 47.9873 79.2604C48.0778 79.3163 48.2027 79.4197 48.2888 79.5489C48.3319 79.6264 48.3535 79.7384 48.3405 79.8159C48.0907 81.1422 46.9535 84.6431 45.6138 85.1039C44.8643 85.2245 44.1449 84.7723 43.4686 84.5139C42.2107 83.9369 41.0132 83.2738 39.8372 82.5589C38.1486 81.4651 33.9659 78.9589 33.9917 76.7972C33.9917 74.0111 34.7757 71.3111 35.788 68.736C36.1025 68.0685 36.3437 67.4183 36.9339 66.8929C38.4114 65.8551 41.0218 66.5484 41.8575 68.1331C42.2064 68.835 42.2021 69.6489 41.892 70.3723C41.4009 71.4446 40.0957 71.7675 39.0834 71.9312C38.4243 72.056 37.7523 72.0647 37.1148 72.2541C35.8225 72.6417 35.4908 74.08 35.8009 75.2814C35.9388 75.9144 36.1757 76.5001 36.572 77.0254C37.7695 78.5929 39.4409 79.8589 41.1381 80.8838C41.8489 81.2843 42.5769 81.702 43.3652 81.8312C44.4981 81.8527 45.4759 81.0733 46.4581 80.5565C47.2033 80.1388 47.9658 79.6178 48.8445 79.424C50.7356 79.0838 50.1239 81.6245 49.7621 82.6364C49.3916 83.6441 49.0125 84.6474 48.2285 85.4355C47.9313 85.6852 47.5522 85.8015 47.1904 85.9092C46.7855 86.0254 46.3849 86.09 45.9799 86.1546C45.9799 86.1546 45.9584 86.1632 45.9972 86.1503C46.3676 85.4527 45.6913 85.6206 45.9369 85.6077C46.8458 85.6939 47.6384 85.3709 48.4999 84.9919C49.7621 84.445 51.063 83.8551 52.4716 83.7561C53.1608 83.7302 53.8027 83.6613 54.4531 83.5106C55.3491 83.2694 56.8525 82.8431 56.9085 81.7838C56.8266 81.3446 56.6242 80.8063 56.5251 80.3584C56.4863 80.1431 56.3614 79.747 56.2279 79.6436C56.0297 79.6092 55.6722 79.8374 55.4482 79.8891C55.2156 79.9709 54.9485 80.0484 54.7116 80.1216C54.6771 80.1302 54.634 80.1517 54.6383 80.1474C54.6383 80.1431 54.6426 80.1474 54.6857 80.1087C54.7417 80.113 54.7546 79.8202 54.6857 79.8029C54.6383 79.7556 54.634 79.7599 54.6297 79.7556L54.4359 79.7642C54.5996 79.6824 55.0993 79.4584 55.2414 79.3422C55.2586 79.3336 55.2759 79.3034 55.25 79.3465C55.2371 79.3637 55.2242 79.4541 55.25 79.5058C55.2759 79.5532 55.2931 79.5575 55.2888 79.5618C54.983 79.4283 54.5953 79.2948 54.3153 79.0752C54.1946 78.9675 54.0697 78.9116 53.8802 78.8814C53.0057 78.7781 52.002 79.0063 51.2353 79.4025C51.1104 79.4714 50.9941 79.5575 50.9381 79.635C50.8993 79.7039 50.895 79.6867 50.9467 79.747L50.9811 79.7814H50.9768C50.8519 79.7814 51.2439 79.7599 50.7011 79.79C50.5633 80.4144 50.6667 79.9709 50.6365 80.1087C50.5461 80.0226 50.2101 79.6522 50.0765 79.5144L44.7006 73.9336L44.6187 73.8474C44.7092 73.2058 44.9763 72.1206 45.855 72.3015C45.9067 72.323 45.9498 72.3403 45.9886 72.3704C52.8894 79.3766 59.7688 87.1838 66.5749 94.2632C71.1625 99.0302 75.6511 103.926 80.6308 108.289C81.1261 108.689 81.6387 109.137 82.2074 109.404C82.8147 109.563 83.4738 109.434 84.0984 109.382C86.4504 109.085 89.5476 108.284 91.8781 107.798C92.8559 107.595 93.8337 107.389 94.8331 107.281C95.307 107.264 95.8497 107.143 96.2848 107.432C97.1851 108.422 96.862 110.175 95.6343 110.747C95.4017 110.877 94.9365 111.014 94.6694 111.083C91.0855 112.009 84.331 113.628 80.8935 112.13C79.4548 111.264 78.3262 109.99 77.1157 108.857C72.4247 104.172 67.9705 99.2541 63.5121 94.3494C60.0272 90.4092 56.2451 86.4216 52.9627 82.4427C60.9232 91.3221 68.8407 100.262 77.2708 108.698C78.4683 109.813 79.5969 111.066 80.9969 111.91C83.1335 112.793 85.5544 112.466 87.7987 112.224C89.763 111.962 91.7101 111.557 93.6313 111.07C94.2516 110.898 94.9279 110.769 95.4965 110.498C96.5131 110.007 96.8233 108.629 96.1469 107.737C95.7033 107.208 92.7051 107.983 91.947 108.112L88.0658 108.982C86.2006 109.357 84.2966 109.886 82.3711 109.8C81.5957 109.628 81.0271 109.021 80.4154 108.564C79.3902 107.707 78.4209 106.803 77.4603 105.886C67.0659 95.7747 57.2272 84.7723 47.2335 74.2565C46.7467 73.757 46.2686 73.2403 45.7559 72.7838L45.7172 72.7537L45.7042 72.745C45.3726 72.7149 45.1615 73.3953 45.1055 73.8087L45.0409 73.6149C45.4156 74.0154 50.8088 79.5489 51.0328 79.8245L51.0501 79.8503L51.0587 79.8632C51.0285 80.0053 51.1362 79.5661 50.9984 80.1905C50.4556 80.2206 50.839 80.1905 50.7141 80.1991L50.7011 80.1905C50.6581 80.1604 50.671 80.1647 50.6537 80.1517L50.6021 80.1044C50.5202 80.0269 50.4341 79.902 50.4168 79.7383C50.4039 79.5747 50.4728 79.4412 50.5374 79.3508C50.6753 79.1699 50.8347 79.0709 50.9854 78.9805C51.9245 78.5025 52.9196 78.2785 53.962 78.3905C54.1731 78.4206 54.4273 78.5068 54.6211 78.6747C54.8322 78.834 55.0562 78.9245 55.3146 79.0192C55.4266 79.0752 55.6291 79.1139 55.7153 79.2991C55.8617 79.7125 55.3362 79.8761 55.0949 80.0226L54.6513 80.2379L54.5522 80.2852L54.4574 80.2465C54.4574 80.2465 54.4273 80.2336 54.4014 80.2206C54.3799 80.2077 54.3497 80.2034 54.2894 80.1388C54.199 80.1044 54.2119 79.7857 54.2894 79.7771C54.3411 79.7168 54.3626 79.7125 54.3842 79.6996C54.4617 79.6565 54.5005 79.6479 54.5479 79.6307L54.7977 79.5532C55.2328 79.4455 55.6033 79.2388 56.034 79.1226C56.6759 78.9805 56.9257 79.7383 57.0334 80.2206C57.1368 80.6513 57.2488 81.0259 57.3823 81.4436C57.8475 83.657 54.0525 84.2685 52.506 84.3072C51.175 84.4063 49.943 84.9747 48.7196 85.5087C47.9528 85.836 47.0698 86.2364 46.1609 86.1848C46.0704 86.1848 46.0015 86.1848 45.8809 86.1805C46.1178 86.1675 45.3812 86.3312 45.7861 85.6206C45.8809 85.5948 45.8593 85.5991 45.9369 85.5862C46.5787 85.4699 47.311 85.3795 47.8452 85.0092C48.4999 84.3374 48.8876 83.347 49.2107 82.4599C49.4347 81.7106 49.7147 80.901 49.4993 80.169C49.3442 79.8202 48.8661 80.0096 48.5085 80.1302C47.2765 80.6427 46.1695 81.4953 44.9203 82.0551C44.4292 82.2704 43.8606 82.49 43.292 82.4168C41.711 82.1068 40.3929 81.1422 39.1092 80.2465C37.7566 79.1958 36.3135 78.046 35.5468 76.4355C34.7973 74.7862 34.8834 72.336 36.9252 71.7073C37.5929 71.4962 38.3037 71.4876 38.9843 71.3628C39.9061 71.1905 40.9271 71.001 41.3578 70.1312C41.724 69.3173 41.5086 68.2752 40.7634 67.7283C39.8458 67.0307 38.3123 66.6948 37.3 67.3666C36.8692 67.7541 36.5806 68.4302 36.3308 68.9814C35.8096 70.213 35.4176 71.5135 35.0988 72.8226C34.8059 74.1144 34.5388 75.4623 34.5819 76.78C34.5733 77.4345 34.9523 77.9211 35.3659 78.3991C36.7271 79.8761 38.4458 81.0001 40.1474 82.0637C41.3018 82.7656 42.4907 83.4245 43.7141 83.98C44.2483 84.191 44.8858 84.5441 45.4415 84.5398C45.6267 84.4881 45.8593 84.2427 46.0402 83.9929C46.8587 82.8087 47.4402 81.0345 47.7418 79.8245C47.7418 79.846 47.7547 79.8589 47.7633 79.8762C47.759 79.8675 47.6944 79.8116 47.6341 79.7728C47.1861 79.4584 46.3676 79.0967 45.8722 78.8297L44.0458 77.9039C43.3523 77.5077 42.215 77.0814 41.7326 77.9211C41.6766 78.0202 41.6637 78.1623 41.6766 78.1795C41.6766 78.1795 41.6766 78.1666 41.6507 78.1494C41.6249 78.1192 41.5689 78.1106 41.5431 78.1106C41.8187 77.99 42.0815 77.68 42.3141 77.413C42.9172 76.668 43.4643 75.7766 43.6926 74.8551C44.0458 73.0766 43.9123 71.1647 43.7572 69.3604L43.727 69.1149C43.7184 69.0288 43.7012 68.9599 43.7012 68.9685C43.7227 69.0288 43.852 69.0761 43.9123 69.0589C43.9941 69.0374 43.9726 69.0288 43.964 69.0417C43.8304 69.1967 43.7313 69.4034 43.6452 69.6015C43.1412 70.7599 42.4046 73.5503 44.5972 71.9828C45.1055 71.5608 45.5233 71.0398 45.9541 70.5403C46.5787 69.7264 47.3498 68.8996 47.6685 67.9307C47.4962 67.3192 45.2821 67.2891 44.7867 67.4096C44.7996 67.3838 44.7867 67.3795 44.7996 67.4269C44.8126 67.4656 44.8384 67.5259 44.8729 67.5819C45.3166 68.202 46.0402 68.7747 46.7209 69.0977C46.7295 69.0977 46.7252 69.0977 46.7165 69.0977C46.6735 69.0934 46.6132 69.102 46.5787 69.1321C46.5529 69.1537 46.5442 69.1666 46.5442 69.1709C46.6089 68.0125 46.1953 66.7766 45.9326 65.6312L45.8335 65.2608L46.2298 65.2695C46.975 65.2824 47.8021 65.08 48.5258 64.8388C49.2495 64.5762 50.0205 64.3178 50.5805 63.7709C51.1319 63.2455 51.5282 62.5479 51.7694 61.8073C51.9073 61.3336 52.0537 60.8254 51.9504 60.3561C51.9504 60.369 52.0107 60.4077 52.0451 60.412C51.9633 60.3862 51.7953 60.3388 51.7177 60.3087C49.3098 59.413 46.9492 58.4312 44.5412 57.5484C43.3652 57.1264 41.6464 56.7474 41.6981 55.1628C41.6981 54.6934 41.8618 54.2628 41.9781 53.8924C42.1978 53.0441 42.7449 52.3293 43.3738 51.735C45.7387 49.8187 49.327 50.1073 51.791 51.7049C52.8679 52.4283 53.583 53.6039 53.9706 54.8096C54.4617 56.4331 54.6254 58.1297 54.354 59.8092C53.9922 62.1819 51.5584 61.4671 49.9731 60.8814C48.1553 60.2742 44.511 58.7197 42.6803 58.0479L42.6372 58.035H42.6544C42.6458 57.9919 42.7363 58.1513 42.8957 57.8111C42.8784 57.6001 42.831 57.6518 42.8353 57.6259L42.8267 57.6173L42.8784 57.6561C43.7227 58.4183 43.6926 59.7144 43.4858 60.7436C43.391 61.0494 43.2618 61.6307 42.8138 61.5446C42.5381 61.4369 42.4692 61.2474 42.3701 61.0364C42.1461 60.3733 41.991 59.7446 42.1806 59.0427C42.551 58.246 43.74 58.8661 44.188 59.2451C44.9547 59.8221 45.127 60.7824 45.0236 61.6695L44.9159 62.8967C44.903 63.168 44.8643 63.5986 44.9763 63.8096C44.9375 63.7967 44.8944 63.8096 44.9116 63.8096C44.9892 63.7623 45.0538 63.6288 45.1098 63.5384C45.6569 62.5178 45.8421 61.3422 46.3202 60.2699C46.6002 59.934 47.1085 60.1967 47.3928 60.3001C47.7805 60.4637 48.151 60.636 48.5215 60.8082C49.2538 61.1269 49.9818 61.5058 50.7658 61.6695C51.6531 61.8632 52.6267 61.7814 53.4365 61.3939C53.0617 63.9561 51.7565 66.6733 48.8919 66.9876C47.6384 67.1297 46.4322 66.7852 45.3295 66.2168C44.3258 65.4718 43.74 64.3738 43.124 63.336C42.327 61.8417 40.3197 57.9704 41.2114 56.4546C41.276 56.3685 41.3449 56.3513 41.3794 56.2781C41.3923 56.2608 41.3966 56.2307 41.4052 56.1962V56.1403L41.4138 56.1273C41.4138 56.1317 41.4138 56.1403 41.4138 56.1446C40.3326 55.757 38.8077 55.714 37.5585 55.7269C36.7788 55.7398 35.9948 55.7915 35.228 55.9163C34.4957 56.0455 33.6988 56.2006 33.1388 56.6958C32.5831 57.1953 32.1653 57.8714 31.7862 58.5431C30.9161 60.1709 30.2096 61.9149 29.7314 63.702C29.7228 63.745 29.7142 63.7924 29.7099 63.8226C29.7099 63.8355 29.7099 63.8312 29.7099 63.7924C29.7099 63.7666 29.6754 63.7149 29.6539 63.702C29.5936 63.6632 29.5893 63.6762 29.5807 63.6718C30.6662 63.2929 31.6914 62.6168 32.7123 62.0656C34.0779 61.2776 35.4219 60.4594 36.7529 59.6111C37.9375 58.7972 39.2643 58.0824 40.2551 57.036C40.2637 57.023 40.268 57.0101 40.2637 57.0187C40.2637 57.0187 40.2637 57.0704 40.2938 57.1006C40.3326 57.1307 40.3024 57.1092 40.2895 57.1049C39.9492 57.0058 39.5357 57.1049 39.148 57.1953C37.2785 57.7163 35.508 58.668 34.1339 60.0546C32.4754 61.6608 30.6791 63.4221 28.8268 64.7915C26.3327 66.6388 23.1795 67.8575 21.5986 70.6608L21.4737 70.4498C23.1278 70.4498 27.1641 70.4671 28.7536 70.4671C29.5204 70.4671 30.3647 70.4455 30.9807 69.946L30.9677 69.9546C31.0884 69.8427 31.0496 69.5843 30.9074 69.4637C30.7567 69.3302 30.5154 69.2915 30.2699 69.2699C29.7659 69.2355 29.2619 69.2139 28.7579 69.2398C26.7376 69.313 24.7346 69.8427 22.9426 70.7771C22.0983 71.268 21.1118 71.7116 20.6509 72.6116C19.9918 73.9422 20.0564 75.5915 20.513 76.991C20.6724 77.4647 20.9007 77.9168 21.2109 78.2915C21.5254 78.6833 21.9863 78.8857 22.4343 79.101C24.769 80.1216 27.2072 80.8924 29.5462 81.9044C30.2527 82.2101 30.9591 82.5159 31.6354 82.8819C31.8164 82.9939 31.993 83.0757 32.1351 83.2565C32.3203 83.5838 31.7819 83.6096 31.5924 83.601C30.201 83.5752 28.7967 83.2565 27.4096 83.3857C27.1727 83.4159 26.9142 83.4848 26.8539 83.6527C26.8281 83.7173 26.8798 83.8077 26.9573 83.8895C27.4182 84.3029 28.0213 84.5312 28.5856 84.8025C29.9511 85.4096 31.4373 86.0513 32.7339 86.7876C35.4219 88.2776 37.8428 90.3575 39.2428 93.1393C40.5911 95.8953 41.5775 98.8106 42.4433 101.747C42.9818 103.72 43.5246 105.718 43.5289 107.776C43.503 108.801 43.4126 109.817 43.3393 110.834C43.167 112.483 43.4513 113.857 45.2563 114.347C46.7295 114.718 48.2759 114.744 49.7879 114.744C51.2913 114.701 52.855 114.679 54.3023 114.248C54.4273 114.184 54.5737 114.154 54.591 114.037C54.6383 113.736 54.143 113.723 53.8845 113.702C52.8808 113.671 51.8728 113.857 50.8476 113.943C50.7744 113.943 50.7313 113.96 50.6064 113.917C50.5848 113.908 50.5461 113.878 50.5374 113.822C50.5288 113.766 50.5547 113.74 50.5633 113.723C50.9984 113.37 51.5885 113.228 51.9977 112.836C52.3294 112.556 51.9977 112.289 51.6704 112.397C51.1362 112.535 50.783 113.068 50.2187 113.172C49.831 113.112 50.0378 112.651 50.1325 112.44C50.9165 110.778 48.7498 112.905 48.1381 109.636C49.6888 110.739 51.5024 111.445 53.2814 112.108C54.4746 112.625 56.314 113.056 56.2839 114.666C56.5036 115.85 55.0002 115.988 54.1688 116.091C51.89 116.311 49.5984 116.001 47.3282 115.967C45.9627 115.945 44.5756 116.122 43.2058 115.911C42.0901 115.751 41.4526 115.049 41.487 113.917C41.5172 111.622 42.7492 109.507 42.439 107.199C42.3443 105.847 42.1849 104.491 41.892 103.164C41.7541 102.691 41.6766 102.075 41.3406 101.743C41.1252 101.834 41.0046 102.088 40.9314 102.333C40.6384 103.629 40.9572 105.012 41.2329 106.299C41.543 107.479 41.8403 108.706 42.4778 109.748C43.4126 110.614 46.8156 109.77 47.6125 108.896C47.9313 108.59 47.7676 108.151 47.7332 107.755C47.4532 105.968 47.0569 104.185 46.6821 102.402L45.5363 97.0537C45.4243 96.3776 45.2046 95.7187 45.2089 95.0254C45.2261 94.9824 45.2218 94.9264 45.3295 94.8316C45.3855 94.78 45.5061 94.7714 45.5578 94.7929C45.8335 94.9135 45.9067 95.2106 46.0316 95.4431C46.2686 95.9771 46.4495 96.5283 46.6045 97.0881L46.6476 97.2604C46.6692 97.3551 46.6605 97.4584 46.639 97.5403C46.1522 98.7718 42.2754 100.025 40.9831 100.24C39.7424 100.464 39.3763 99.2025 39.036 98.3111C38.7215 97.4584 38.3425 96.6446 37.9978 95.7876C37.4852 94.5647 37.1277 93.191 37.2785 91.8345C37.3991 91.2446 37.8729 90.8484 38.3252 90.5168C39.1049 89.9742 39.9621 89.6039 40.828 89.2809C41.8144 88.945 42.831 88.6006 43.9036 88.5833C45.2821 88.7254 45.463 90.9561 45.5535 92.0197C45.5793 92.3599 45.5879 92.7173 45.5966 93.0575C45.6526 94.2632 44.5412 95.09 43.4987 95.3958C42.1461 95.8264 40.7591 95.891 39.3677 95.9039C38.4028 95.9685 37.3388 95.5465 36.8003 94.6938C36.5634 94.3623 36.3782 93.9833 36.1929 93.6259C35.9646 93.2125 35.5726 92.8723 35.2409 92.5235C33.6256 90.9431 31.8939 89.4618 30.0674 88.1312C29.1542 87.5025 28.2453 86.8178 27.1899 86.5249C26.3542 86.3398 26.7979 87.0589 27.0865 87.4034C28.2367 88.747 29.7745 89.8063 31.2391 90.8096C31.9068 91.2317 32.5702 91.7053 33.2982 92.0068C33.6256 91.8733 34.1554 91.5675 34.5517 91.3221C35.2711 90.8785 37.2785 89.6168 38.028 89.1474C39.5917 88.1958 41.2329 87.0288 43.1627 87.145C43.908 87.145 44.6532 87.2656 45.3812 87.3776C45.3467 87.4852 45.5319 87.1364 45.1615 87.6316C45.2003 87.7867 45.1873 87.7049 45.1916 87.7264C45.1098 87.6316 45.0193 87.5412 44.9203 87.4508C42.6458 85.3537 39.0317 82.3006 36.7099 80.2465C36.2532 79.8632 35.8182 79.4025 35.3745 79.0192C35.4046 79.0364 35.4908 79.0321 35.5252 79.002C35.5726 78.9632 35.5554 78.9718 35.5468 78.9891C35.4563 79.1871 35.2797 79.4369 35.1074 79.5962C34.8231 79.8072 34.6034 79.7943 34.3062 79.8202C32.6865 79.8331 31.097 79.4671 29.5161 79.1613C26.8281 78.5714 24.1659 77.9384 21.5555 77.0642C20.9137 76.7886 20.0478 76.5819 19.6817 75.9144C19.5395 75.557 19.8884 75.2254 20.2115 75.1479L20.5949 75.0144L20.4915 75.4278C19.5051 79.4929 20.9481 81.6245 23.6835 84.445C24.6527 85.5173 25.8158 86.4173 26.7247 87.5584C27.2244 88.2905 27.5561 89.1216 27.8533 89.9484C28.185 90.8742 28.4478 91.8948 28.7536 92.8336C28.7751 92.8939 28.8053 92.9627 28.8182 92.9843C28.8311 92.9886 28.8527 92.9972 28.8785 93.0058C29.6281 93.1479 30.4853 93.0015 31.2477 93.1953C31.3296 93.2254 31.42 93.247 31.5234 93.3417C31.6139 93.445 31.6225 93.4752 31.6785 93.5656C32.2859 94.6852 33.9659 97.8029 32.7468 98.8192C31.7474 99.5814 30.2268 99.8441 29.0681 100.253C28.5899 100.438 27.9955 100.559 27.6551 100.946C27.6422 100.964 27.6379 100.981 27.6336 100.994C27.6336 101.002 27.6336 101.007 27.6336 100.994C27.6336 100.994 27.6336 100.968 27.625 100.959C27.6207 100.942 27.5992 100.912 27.5819 100.899C27.5345 100.86 27.5044 100.873 27.5044 100.869C27.8964 100.701 28.2496 100.378 28.5899 100.102C29.4514 99.3661 30.2828 98.5608 30.9979 97.6824C31.2434 97.3637 31.5191 97.0235 31.644 96.6489C31.7819 95.7704 31.2348 94.7541 30.4293 94.3709C30.2354 94.2977 29.9727 94.401 29.7142 94.5001C28.7665 94.8919 27.5388 95.5336 26.6342 96.0245C24.3426 97.2302 21.8097 98.2379 19.1604 98.212C19.1174 98.2034 19.0786 98.2077 19.0054 98.1733C18.9881 98.1647 18.958 98.1517 18.9235 98.1087C18.8848 98.0656 18.8804 97.9709 18.902 97.9321C18.9408 97.8546 18.9666 97.8503 18.9881 97.8288C19.1906 97.6953 19.4146 97.635 19.63 97.5618C20.6121 97.2647 21.59 97.0149 22.6066 96.8642C24.0626 96.8168 25.8158 99.9991 25.9278 101.308C25.9622 101.679 25.5616 101.885 25.2902 102.023C24.4976 102.402 23.6576 102.635 22.822 102.889C21.1894 103.401 19.4706 103.754 17.9457 104.534C16.6448 105.309 17.4417 108.06 17.614 109.305C18.4324 113.245 18.2214 114.356 15.3482 110.545C13.9826 108.68 12.7162 106.747 11.6737 104.68C11.454 104.18 11.006 103.5 11.4411 103.001C12.6343 101.717 14.2713 100.99 15.7488 100.107L17.2565 99.2627C17.7561 98.9484 18.3635 98.6986 18.7038 98.2034C18.7124 98.1948 18.7168 98.169 18.7168 98.1819C18.7124 98.1948 18.7512 98.2206 18.7512 98.212C18.7512 98.212 18.7469 98.212 18.7426 98.212C18.3291 98.4704 18.0189 98.8967 17.7475 99.2972C17.446 99.7752 17.1531 100.301 17.1875 100.873C17.2091 101.442 17.4503 101.98 17.7303 102.479C18.006 102.988 18.3851 103.435 18.5918 103.982L18.5358 104" fill="white"/>
</g>
<path d="M38.7258 110.106C28.4693 105.378 20.1124 98.1216 15.0983 87.8943C14.4392 86.5249 13.7371 84.9101 13.1857 83.502C12.9919 82.7785 13.1082 82.0249 13.078 81.2972C13.0952 77.0168 13.1512 69.9503 13.2029 65.657C13.246 69.1278 13.2934 76.0866 13.3106 79.5575L13.3192 81.2972C13.3494 81.9991 13.246 82.7398 13.4183 83.4158C13.9697 84.8111 14.6762 86.4173 15.3352 87.778C20.2417 97.8072 28.7536 105.291 38.7215 110.11" fill="white"/>
<path d="M69.8229 50.3226C69.9047 59.9039 70.0167 71.7202 69.8573 81.3058C69.4007 86.4388 66.2217 90.7451 63.1848 94.7025C66.101 90.6891 69.1767 86.3742 69.6075 81.2843C69.7066 71.7073 69.6376 59.8953 69.8229 50.3226Z" fill="white"/>
<path d="M13.1814 15.8771L13.0565 5.88666V5.80915C13.0565 5.80915 27.2761 5.83068 27.3149 5.83068C36.3265 5.75747 60.5485 5.82637 69.866 5.85221H69.9047V5.88666L69.8487 10.5029L69.8315 5.88235L69.8703 5.92111C61.6943 6.05029 49.8095 6.06321 41.5043 6.05891C36.5505 6.05891 25.0318 6.11489 20.2288 6.03307L13.1384 5.95556L13.2159 5.87805L13.1901 15.8685L13.1814 15.8771Z" fill="white"/>
<path d="M12.1131 25.8245C12.014 26.0269 11.9882 26.2163 11.9365 26.3972C11.747 27.0733 11.5704 27.7537 11.3851 28.4297C11.2042 29.1015 11.019 29.7733 10.8337 30.4493C10.795 30.5871 10.7519 30.7293 10.7174 30.8671C10.6959 30.9661 10.6399 30.9962 10.5451 30.9962C10.235 30.9962 9.92914 30.9962 9.61898 30.9962C9.51991 30.9962 9.46822 30.9575 9.44237 30.8627C9.2356 30.0919 9.02883 29.3211 8.82207 28.5546C8.66268 27.9776 8.5033 27.4005 8.34392 26.8278C8.26638 26.5436 8.19315 26.2594 8.11561 25.9752C8.10269 25.9321 8.10699 25.8848 8.04669 25.8331C8.05961 26.0182 8.0553 26.1862 8.08546 26.3455C8.13284 26.5738 8.13284 26.8063 8.14576 27.0345C8.20176 28.3005 8.18453 29.5666 8.18453 30.8283C8.18453 30.9489 8.14576 31.0005 8.02084 31.0005C7.62023 30.9962 7.21962 30.9962 6.82331 31.0005C6.69408 31.0005 6.63808 30.9489 6.63808 30.8283C6.63808 30.5958 6.63377 30.3675 6.63377 30.135C6.63377 29.7733 6.63377 29.4116 6.63377 29.0498C6.63377 28.701 6.63808 28.3522 6.63808 28.0077C6.63808 27.7838 6.63808 27.5556 6.63808 27.3273C6.63808 26.9742 6.63808 26.6211 6.63808 26.268C6.63808 26.0484 6.63808 25.8245 6.63808 25.6049C6.63808 25.2431 6.63808 24.8814 6.63808 24.5197C6.63808 24.3087 6.62947 24.0934 6.63377 23.8824C6.63377 23.7403 6.65101 23.6025 6.6467 23.4604C6.6467 23.3785 6.68977 23.3355 6.77162 23.3355C7.35315 23.3355 7.93469 23.3355 8.51622 23.3355C8.59807 23.3355 8.63684 23.3828 8.65838 23.456C8.79191 23.891 8.92976 24.3302 9.0633 24.7651C9.24853 25.3637 9.42945 25.9623 9.61468 26.5565C9.72668 26.9226 9.82144 27.2886 9.89467 27.6632C9.97221 28.0422 10.0411 28.4168 10.0627 28.8044C10.0627 28.8216 10.0713 28.8345 10.0799 28.8604C10.1402 28.8302 10.1273 28.7828 10.1273 28.7398C10.1833 27.9431 10.3642 27.1766 10.6011 26.4187C10.7476 25.945 10.8897 25.4671 11.0362 24.9891C11.187 24.4895 11.342 23.99 11.4885 23.4905C11.523 23.3785 11.5833 23.3312 11.7039 23.3355C12.251 23.3398 12.7937 23.3355 13.3408 23.3355C13.5045 23.3355 13.5217 23.3527 13.5217 23.5163C13.5217 25.9537 13.5217 28.3867 13.5217 30.824C13.5217 30.9532 13.4786 31.0005 13.3494 31.0005C12.9488 30.9962 12.5482 30.9962 12.1476 31.0005C12.0227 31.0005 11.9624 30.9575 11.9624 30.8283C11.971 29.9671 11.9451 29.1058 11.9796 28.2446C11.9968 27.7752 11.9968 27.3015 12.0356 26.8321C12.0614 26.5092 12.083 26.1862 12.1045 25.8288" fill="white"/>
<path d="M36.6538 27.28C36.7443 27.3101 36.8348 27.3359 36.9209 27.3661C37.3861 27.5254 37.6748 27.913 37.6834 28.3996C37.692 28.8431 37.6834 29.2867 37.6877 29.7345C37.6877 30.1135 37.6834 30.4967 37.7954 30.867C37.8212 30.9532 37.7868 30.9962 37.6963 30.9962C37.2225 30.9962 36.7529 30.9962 36.2791 30.9962C36.1886 30.9962 36.1455 30.9489 36.124 30.8714C36.0938 30.7551 36.068 30.6345 36.068 30.5096C36.068 29.8809 36.068 29.2479 36.068 28.6192C36.068 28.3608 35.9948 28.1283 35.7234 28.0292C35.5812 27.9776 35.4262 27.9431 35.2711 27.9431C34.892 27.9431 34.5172 27.9474 34.1382 27.9431C34.0132 27.9431 33.9745 27.9819 33.9745 28.1068C33.9788 28.9938 33.9745 29.8852 33.9745 30.7723C33.9745 30.9216 33.8984 30.9962 33.7462 30.9962C33.3628 30.9962 32.9837 30.9962 32.6003 30.9962C32.3979 30.9962 32.3849 30.9833 32.3849 30.7809V24.468C32.3849 24.1493 32.3849 23.8307 32.3849 23.5163C32.3849 23.357 32.4065 23.3355 32.5659 23.3355C33.6256 23.3355 34.6809 23.3269 35.7406 23.3441C36.1455 23.3484 36.5461 23.4345 36.908 23.6283C37.3517 23.8694 37.58 24.2656 37.6101 24.7565C37.6403 25.2173 37.6661 25.6824 37.5929 26.1388C37.5068 26.6814 37.2354 27.0948 36.6711 27.2498C36.6625 27.2498 36.6581 27.2627 36.6452 27.28M33.9831 25.6479C33.9831 25.945 33.9831 26.2465 33.9831 26.5436C33.9831 26.6168 33.9917 26.6814 34.0908 26.6771C34.5646 26.6642 35.0342 26.7029 35.5037 26.6556C35.8698 26.6168 36.0378 26.4316 36.0465 26.0699C36.0465 25.79 36.0465 25.5058 36.0465 25.2259C36.0422 24.8771 35.8785 24.6833 35.5295 24.6403C35.0514 24.58 34.5689 24.623 34.0865 24.6144C33.9874 24.6144 33.9831 24.679 33.9831 24.7522C33.9831 25.0493 33.9831 25.3508 33.9831 25.6479Z" fill="white"/>
<path d="M45.071 27.2584C45.0624 27.7321 45.0882 28.2876 45.0495 28.8474C44.9805 29.7561 44.5455 30.5312 43.6193 30.88C42.9947 31.1168 42.3486 31.1599 41.6895 31.0867C41.2415 31.035 40.815 30.923 40.4317 30.6819C39.7984 30.2857 39.471 29.6958 39.3978 28.9637C39.2944 27.9561 39.3504 26.9441 39.3547 25.9321C39.3547 25.48 39.4021 25.0278 39.6003 24.6058C39.876 24.0202 40.324 23.6326 40.9313 23.4173C41.5689 23.1934 42.2236 23.1718 42.8784 23.2623C43.4384 23.3398 43.9596 23.5293 44.3775 23.9384C44.679 24.2312 44.8599 24.5886 44.9633 24.9934C45.071 25.4197 45.0667 25.8546 45.0667 26.2895C45.0667 26.5824 45.0667 26.8795 45.0667 27.2584M40.9529 27.1766C40.9529 27.6202 40.9486 28.0637 40.9529 28.5116C40.9572 28.8388 41.0218 29.1532 41.2372 29.4159C41.5129 29.7517 41.892 29.8336 42.3055 29.8163C42.999 29.7905 43.3781 29.4072 43.4599 28.7226C43.4944 28.447 43.4858 28.1714 43.4815 27.8958C43.4729 27.1293 43.5246 26.3628 43.4513 25.6006C43.4126 25.1656 43.2187 24.8125 42.7879 24.6317C42.5553 24.5369 42.3098 24.524 42.0643 24.5412C41.6593 24.5714 41.3277 24.7264 41.1295 25.101C41.0089 25.3293 40.9572 25.579 40.9572 25.8331C40.9572 26.2809 40.9572 26.7331 40.9572 27.1809" fill="white"/>
<path d="M54.0568 28.1757C54.2636 28.1757 54.4747 28.1757 54.6857 28.1757C54.8365 28.1757 54.871 28.2101 54.871 28.3608C54.871 28.5805 54.8796 28.7958 54.871 29.0154C54.8494 29.5451 55.0907 29.7475 55.586 29.7991C55.9091 29.8336 56.2408 29.8336 56.5639 29.7819C56.8869 29.7302 57.0291 29.5623 57.0334 29.235C57.0334 29.0542 57.0248 28.8733 57.0334 28.6924C57.0549 28.3738 56.8913 28.1714 56.6328 28.0207C56.3011 27.8269 55.935 27.7192 55.5688 27.6073C55.0476 27.4436 54.522 27.3058 54.0482 27.0216C53.5227 26.703 53.2728 26.2336 53.2685 25.6307C53.2685 25.3207 53.2556 25.0106 53.303 24.6963C53.3891 24.1364 53.6993 23.7618 54.1904 23.525C54.6297 23.3097 55.1036 23.2321 55.5903 23.2192C56.0383 23.2106 56.4906 23.2063 56.9343 23.2967C57.4728 23.4087 57.9596 23.6025 58.3042 24.0632C58.5282 24.3604 58.61 24.7092 58.6359 25.0666C58.6531 25.3336 58.6402 25.6006 58.6402 25.8675C58.6402 26.0484 58.6143 26.0742 58.4377 26.0742C58.0414 26.0742 57.6451 26.0742 57.2531 26.0742C57.0851 26.0742 57.0463 26.0398 57.0377 25.8675C57.0291 25.6565 57.0377 25.4412 57.0377 25.2302C57.0377 24.8297 56.8611 24.6231 56.4648 24.5455C56.0943 24.4723 55.7239 24.4723 55.3577 24.5498C55.0217 24.6231 54.8839 24.7867 54.8839 25.1269C54.8839 25.2216 54.8925 25.3164 54.8839 25.4111C54.8451 25.7771 55.0519 25.9838 55.3534 26.1302C55.7282 26.3154 56.1331 26.4274 56.5294 26.5522C57.0162 26.7073 57.5116 26.8537 57.9423 27.1422C58.3946 27.4436 58.6574 27.8527 58.6531 28.4125C58.6531 28.7441 58.6531 29.0757 58.6531 29.4073C58.6445 30.0661 58.2525 30.6173 57.6408 30.8498C56.9774 31.0996 56.2839 31.1297 55.586 31.0953C55.1725 31.0738 54.7633 31.0135 54.3756 30.8542C53.807 30.6173 53.4451 30.2125 53.3245 29.601C53.2384 29.1661 53.2901 28.7312 53.2728 28.3006C53.2728 28.2015 53.3202 28.1628 53.415 28.1628C53.6347 28.1628 53.85 28.1628 54.0697 28.1628" fill="white"/>
<path d="M19.7721 28.1757C19.9875 28.1757 20.1986 28.1757 20.414 28.1757C20.5303 28.1757 20.5776 28.223 20.5776 28.3393C20.5776 28.5589 20.5776 28.7742 20.5776 28.9938C20.5647 29.558 20.8318 29.7517 21.2927 29.8034C21.6158 29.8379 21.9475 29.8422 22.2706 29.7905C22.6152 29.7345 22.753 29.5752 22.7573 29.2307C22.7573 29.0627 22.7487 28.8948 22.7573 28.7269C22.7832 28.391 22.6066 28.18 22.3395 28.0206C22.0164 27.8312 21.6546 27.7278 21.3013 27.6159C20.8361 27.4694 20.358 27.3446 19.9229 27.1163C19.3284 26.802 18.9838 26.3326 18.9924 25.6393C18.9967 25.3379 18.9666 25.0321 19.014 24.7307C19.1001 24.1623 19.4146 23.7618 19.9358 23.5206C20.3536 23.3269 20.7973 23.2407 21.2539 23.2321C21.6201 23.2235 21.9906 23.2063 22.3567 23.2623C22.8176 23.3312 23.2656 23.4345 23.6533 23.7144C24.0195 23.9771 24.2305 24.3388 24.3081 24.7737C24.377 25.1656 24.3339 25.5618 24.3425 25.9537C24.3425 26.0527 24.2908 26.0915 24.1961 26.0915C23.7696 26.0915 23.3432 26.0915 22.9124 26.0915C22.7961 26.0915 22.7487 26.0355 22.7487 25.9235C22.7487 25.6824 22.7487 25.4412 22.7487 25.2044C22.7444 24.8771 22.5549 24.6489 22.2318 24.5757C21.8312 24.4852 21.4306 24.4852 21.0299 24.5757C20.7241 24.6446 20.5776 24.8254 20.5776 25.1441C20.5776 25.2259 20.5863 25.3077 20.5776 25.3895C20.5389 25.7814 20.7543 26.0053 21.0816 26.1604C21.4564 26.3412 21.8527 26.4489 22.249 26.5737C22.6755 26.7072 23.1062 26.845 23.4982 27.069C24.0022 27.3575 24.3382 27.7537 24.3512 28.3651C24.3641 28.8087 24.3856 29.2565 24.321 29.6958C24.2348 30.2771 23.8773 30.6388 23.3518 30.8627C22.8952 31.0565 22.4127 31.0996 21.9259 31.1211C21.5038 31.1426 21.0816 31.1211 20.6638 31.0393C20.134 30.9359 19.6515 30.7508 19.3155 30.2943C19.126 30.0359 19.0226 29.7388 18.9924 29.4245C18.958 29.0671 18.9623 28.7096 18.9623 28.3522C18.9623 28.2273 19.014 28.1714 19.1432 28.1757C19.35 28.1843 19.561 28.1757 19.7721 28.1757Z" fill="white"/>
<path d="M49.1504 30.9962C48.823 30.9962 48.4956 30.9962 48.1682 30.9962C48.0476 30.9962 47.9873 30.9575 47.9572 30.8369C47.7461 29.98 47.5307 29.123 47.311 28.2661C47.0612 27.2843 46.807 26.3024 46.5572 25.3163C46.4064 24.7134 46.2556 24.1106 46.1092 23.5077C46.0704 23.3527 46.092 23.3268 46.247 23.3268C46.6778 23.3268 47.1129 23.3268 47.5436 23.3268C47.647 23.3268 47.703 23.3656 47.7289 23.4646C47.8107 23.7747 47.8926 24.0847 47.9744 24.3991C48.1338 25.0106 48.2975 25.6264 48.4569 26.2378C48.6852 27.1249 48.9307 28.0034 49.0255 28.9206C49.0427 29.1058 49.0772 29.2867 49.0987 29.4718C49.0987 29.5063 49.103 29.5493 49.1547 29.5493C49.2021 29.5493 49.2107 29.5063 49.215 29.4675C49.2409 29.2737 49.2538 29.08 49.2839 28.8862C49.3787 28.2833 49.4562 27.6761 49.6242 27.0862C49.7922 26.4876 49.9387 25.8847 50.0981 25.2862C50.2575 24.6747 50.4255 24.0589 50.5848 23.4474C50.6064 23.3613 50.6495 23.3268 50.7399 23.3268C51.1879 23.3268 51.6402 23.3268 52.0882 23.3268C52.2045 23.3268 52.2347 23.3699 52.2002 23.4862C52.0408 24.102 51.8944 24.7178 51.7393 25.3292C51.5498 26.0785 51.3559 26.8321 51.1664 27.5814C51.0199 28.167 50.8778 28.7484 50.7313 29.334C50.6021 29.8379 50.4685 30.3417 50.3436 30.8498C50.3178 30.9532 50.2661 30.9919 50.1627 30.9876C49.8267 30.9876 49.4907 30.9876 49.1547 30.9876" fill="white"/>
<path d="M69.1078 30.9962C68.7933 30.9962 68.4789 30.9876 68.1687 30.9962C68.0093 31.0048 67.9404 30.9359 67.906 30.7938C67.8241 30.4579 67.738 30.1264 67.6561 29.7905C67.5053 29.1919 67.3546 28.5977 67.2038 27.9991C67.0832 27.5297 66.9669 27.0603 66.8506 26.591C66.6524 25.8029 66.4543 25.0192 66.2518 24.2312C66.1915 23.99 66.1269 23.7489 66.0666 23.5077C66.0278 23.357 66.0494 23.3268 66.2044 23.3268C66.6266 23.3268 67.0487 23.3311 67.4709 23.3268C67.6173 23.3268 67.6777 23.3871 67.7121 23.5206C67.9232 24.356 68.1343 25.1871 68.354 26.0225C68.5133 26.6297 68.6986 27.2326 68.8149 27.8527C68.9139 28.3823 69.0087 28.912 69.0518 29.4503C69.0518 29.4934 69.0518 29.5493 69.1164 29.5493C69.181 29.5493 69.1767 29.4934 69.181 29.4503C69.2284 28.856 69.3232 28.2704 69.4395 27.689C69.5515 27.1379 69.7109 26.5996 69.853 26.057C69.9736 25.6005 70.0942 25.1484 70.2149 24.6919C70.3226 24.2785 70.4302 23.8694 70.5379 23.456C70.5638 23.3613 70.6155 23.3268 70.7146 23.3268C71.1539 23.3268 71.5976 23.3268 72.037 23.3268C72.1533 23.3268 72.1964 23.3699 72.1662 23.4862C72.0499 23.9297 71.9379 24.3733 71.8259 24.8168C71.7096 25.2819 71.5933 25.7469 71.477 26.212C71.3607 26.6685 71.2487 27.1249 71.1324 27.5814C71.0075 28.0723 70.8825 28.5632 70.7576 29.0541C70.6155 29.6268 70.4733 30.1953 70.3269 30.768C70.2709 30.9833 70.2622 30.9876 70.0382 30.9876H69.1121" fill="white"/>
<path d="M29.0466 27.801V30.712C29.0466 30.8986 28.9503 30.9919 28.7579 30.9919H27.6681C27.4441 30.9919 27.4355 30.9833 27.4355 30.7637C27.4355 28.8087 27.4355 26.8536 27.4355 24.8986C27.4355 24.5929 27.4656 24.6187 27.1598 24.6187C26.6558 24.6187 26.1518 24.6187 25.6478 24.6187C25.4626 24.6187 25.441 24.5972 25.441 24.4163C25.441 24.1149 25.441 23.8178 25.441 23.5163C25.441 23.3527 25.4712 23.3268 25.6349 23.3268C27.3709 23.3268 29.1069 23.3268 30.8428 23.3268C31.0108 23.3268 31.0367 23.3527 31.0367 23.512C31.0367 23.8134 31.0367 24.1192 31.0367 24.4249C31.0367 24.5886 31.0065 24.6144 30.8428 24.6144C30.3173 24.6144 29.7875 24.6144 29.2619 24.6144C29.1155 24.6144 29.0422 24.6862 29.0422 24.8297V27.7967" fill="white"/>
<path d="M63.3226 27.8139V30.7938C63.3226 30.9876 63.314 30.9962 63.1245 30.9962C62.7454 30.9962 62.3706 30.9962 61.9915 30.9962C61.8164 30.9962 61.7288 30.9101 61.7288 30.7378C61.7288 28.7957 61.7288 26.8579 61.7288 24.9158C61.7288 24.5972 61.7632 24.623 61.4359 24.623C60.9362 24.623 60.4365 24.623 59.9368 24.623C59.7429 24.623 59.7171 24.5972 59.7171 24.4034C59.7171 24.1106 59.7171 23.8134 59.7171 23.5206C59.7171 23.3656 59.7473 23.3354 59.9023 23.3354C61.6469 23.3354 63.3915 23.3354 65.1361 23.3354C65.274 23.3354 65.33 23.4 65.33 23.5206C65.33 23.835 65.33 24.145 65.33 24.4594C65.33 24.5886 65.2568 24.6273 65.1361 24.6273C64.6063 24.6273 64.0721 24.6273 63.5423 24.6273C63.3958 24.6273 63.3226 24.6977 63.3226 24.8383V27.8182" fill="white"/>
<path d="M17.1703 27.1766V30.768C17.1703 30.9919 17.1617 30.9962 16.942 30.9962C16.5414 30.9962 16.1408 30.9962 15.7445 30.9962C15.6153 30.9962 15.5593 30.9446 15.5636 30.8197C15.5636 30.7895 15.5636 30.7551 15.5636 30.725V23.5982C15.5636 23.3398 15.5722 23.3312 15.835 23.3312C16.2183 23.3312 16.5974 23.3312 16.9808 23.3312C17.1574 23.3312 17.1746 23.3484 17.1746 23.5293C17.1746 24.7436 17.1746 25.958 17.1746 27.1723" fill="white"/>
<path d="M75.1471 27.1766V30.7809C75.1471 30.9919 75.1471 30.9962 74.9361 30.9962C74.5398 30.9962 74.1478 30.9962 73.7515 30.9962C73.5792 30.9962 73.5576 30.979 73.5576 30.811C73.5576 28.3866 73.5576 25.9579 73.5576 23.5335C73.5576 23.357 73.5835 23.3354 73.7515 23.3354C74.1521 23.3354 74.5527 23.3354 74.949 23.3354C75.1299 23.3354 75.1428 23.3527 75.1428 23.5292C75.1428 24.7436 75.1428 25.9622 75.1428 27.1766" fill="white"/>
<path d="M75.4917 21.0273C75.72 21.0273 75.944 21.0273 76.1724 21.0273C76.2456 21.0273 76.3231 21.036 76.3576 21.1135C76.392 21.191 76.3317 21.2383 76.2843 21.29C75.8708 21.7379 75.4573 22.1814 75.0481 22.6293C74.9705 22.7111 74.8887 22.7498 74.7724 22.7455C74.4708 22.7412 74.1736 22.7455 73.8721 22.7455C73.6998 22.7455 73.6653 22.6982 73.7515 22.5517C74.0228 22.0781 74.3028 21.6044 74.5785 21.1307C74.6302 21.0446 74.7121 21.0273 74.8025 21.0273C75.0308 21.0273 75.2548 21.0273 75.4831 21.0273" fill="white"/>
<path d="M12.0744 39.9445C12.2898 39.9445 12.5094 39.9445 12.7248 39.9445C12.8497 39.9445 12.8713 39.9704 12.8756 40.0952C12.8842 40.3794 12.8713 40.6594 12.8928 40.9436C12.9187 41.2751 13.1125 41.4861 13.4399 41.555C13.7716 41.6239 14.1076 41.5981 14.4436 41.5895C14.5728 41.5895 14.7107 41.5464 14.8313 41.4861C14.9691 41.4129 15.051 41.301 15.0682 41.1416C15.0983 40.8574 15.1027 40.5775 15.0682 40.2933C15.038 40.0565 14.8743 39.9144 14.6848 39.7981C14.3876 39.6129 14.0559 39.5139 13.7242 39.4105C13.2461 39.2598 12.755 39.135 12.3027 38.911C11.9279 38.7259 11.6048 38.4804 11.4239 38.0842C11.3378 37.8948 11.2947 37.6967 11.2861 37.49C11.2775 37.2187 11.2688 36.9474 11.2861 36.6761C11.3248 36.0474 11.5747 35.5306 12.2768 35.2249C12.5784 35.0957 12.8885 35.0311 13.2159 34.9838C13.6337 34.9235 14.0516 34.9321 14.4651 34.9622C14.9648 34.9967 15.4559 35.0957 15.891 35.3713C16.3217 35.6469 16.563 36.0388 16.6491 36.5426C16.7137 36.9302 16.6706 37.3177 16.6836 37.701C16.6836 37.7914 16.6362 37.8345 16.5543 37.8345C16.1106 37.8345 15.667 37.8345 15.2233 37.8345C15.1242 37.8345 15.0897 37.7785 15.0854 37.6838C15.0811 37.4211 15.0983 37.1541 15.0725 36.8914C15.0423 36.5727 14.8528 36.3661 14.5427 36.2972C14.2067 36.2196 13.8707 36.2326 13.5304 36.2627C13.3968 36.2756 13.2676 36.3144 13.147 36.379C12.9876 36.4694 12.8885 36.5986 12.8928 36.7967C12.8928 36.9431 12.9014 37.0895 12.8928 37.2316C12.8756 37.49 13.0005 37.6665 13.203 37.8C13.4744 37.9766 13.7802 38.0756 14.086 38.1747C14.6073 38.3426 15.1371 38.4847 15.6325 38.7216C16.0073 38.9024 16.339 39.1393 16.5371 39.5225C16.6276 39.6991 16.6793 39.8842 16.6836 40.078C16.6836 40.4527 16.6922 40.823 16.6836 41.1976C16.6706 41.8737 16.3476 42.3474 15.7316 42.623C15.4214 42.7651 15.0897 42.8254 14.7494 42.8684C14.3359 42.9244 13.9224 42.9158 13.5088 42.8943C13.0048 42.8684 12.5094 42.7737 12.0701 42.4981C11.6565 42.2397 11.4067 41.8651 11.3162 41.3828C11.2344 40.9565 11.2602 40.5216 11.2602 40.0909C11.2602 39.9617 11.2861 39.9402 11.4239 39.9402C11.6393 39.9402 11.859 39.9402 12.0744 39.9402" fill="white"/>
<path d="M39.9707 35.0656C40.3067 35.0656 40.6427 35.0656 40.9787 35.0656C41.0821 35.0656 41.1381 35.0958 41.164 35.2077C41.3061 35.7891 41.4569 36.3704 41.6033 36.9474C41.724 37.4211 41.8489 37.8905 41.9695 38.3599C42.0729 38.7647 42.172 39.1738 42.2753 39.5828C42.3744 39.9661 42.4735 40.3537 42.5726 40.7369C42.676 41.1417 42.775 41.5465 42.8784 41.947C42.9344 42.1752 42.9947 42.3991 43.055 42.6273C43.0895 42.7651 43.0723 42.791 42.9301 42.791C42.4821 42.791 42.0341 42.791 41.5861 42.791C41.487 42.791 41.4353 42.7522 41.4138 42.6575C41.3018 42.2312 41.1855 41.8005 41.0778 41.3742C41.052 41.2666 41.0046 41.2149 40.8797 41.2149C40.2594 41.2235 39.639 41.2192 39.0187 41.2149C38.9154 41.2149 38.8637 41.245 38.8421 41.3484C38.7646 41.6584 38.6784 41.9685 38.5966 42.2742C38.5621 42.412 38.5234 42.5455 38.4846 42.6833C38.4674 42.7565 38.42 42.7867 38.3467 42.7867C37.8815 42.7867 37.412 42.7867 36.9468 42.7867C36.852 42.7867 36.8261 42.7393 36.8477 42.6575C36.908 42.4034 36.9726 42.1537 37.0372 41.8996C37.1061 41.6369 37.1751 41.3742 37.244 41.1116C37.3646 40.6465 37.4809 40.1814 37.5972 39.7163C37.7049 39.2986 37.8083 38.8809 37.916 38.4632C38.0538 37.9336 38.1917 37.4039 38.3295 36.8785C38.4329 36.4781 38.532 36.0776 38.6311 35.6771C38.6741 35.5135 38.7086 35.3541 38.7517 35.1905C38.7732 35.1001 38.8292 35.057 38.9283 35.057C39.2729 35.057 39.6175 35.057 39.9578 35.057M39.9535 39.9446C40.1646 39.9446 40.38 39.9446 40.591 39.9446C40.6772 39.9446 40.6944 39.9101 40.6729 39.8369C40.5781 39.4924 40.492 39.1479 40.3929 38.8034C40.2809 38.4288 40.199 38.0455 40.1517 37.6623C40.1086 37.2962 40.044 36.9345 40.031 36.5642C40.031 36.5211 40.0224 36.4694 39.9621 36.4651C39.8975 36.4608 39.8975 36.5168 39.8932 36.5599C39.8717 36.7106 39.863 36.8613 39.8458 37.012C39.7898 37.5072 39.7381 38.0025 39.6132 38.4848C39.4969 38.9283 39.3806 39.3675 39.26 39.8111C39.2255 39.936 39.2298 39.9403 39.3634 39.9403C39.5615 39.9403 39.7597 39.9403 39.9578 39.9403" fill="white"/>
<path d="M20.8577 42.7909C20.526 42.7909 20.1943 42.7909 19.8626 42.7909C19.7506 42.7909 19.6946 42.7565 19.6644 42.6445C19.5352 42.1149 19.406 41.5895 19.2724 41.0641C19.1518 40.5905 19.0269 40.1211 18.9063 39.6517C18.7857 39.178 18.6737 38.7043 18.5531 38.235C18.4152 37.6924 18.2731 37.1455 18.1352 36.6029C18.0189 36.1507 17.9026 35.6943 17.7906 35.2421C17.7518 35.0914 17.7691 35.0699 17.9198 35.0699C18.3592 35.0699 18.8029 35.0699 19.2423 35.0699C19.3457 35.0699 19.4017 35.1 19.4275 35.2034C19.518 35.5565 19.6127 35.9096 19.7032 36.2627C19.785 36.5728 19.8626 36.8828 19.9444 37.1885C20.0263 37.5029 20.1124 37.8129 20.19 38.1273C20.289 38.5019 20.3881 38.8766 20.4786 39.2512C20.5518 39.5527 20.5949 39.8584 20.6509 40.1598C20.7112 40.4828 20.737 40.8101 20.7887 41.1287C20.7973 41.1718 20.7973 41.2192 20.8017 41.2622C20.8017 41.3053 20.8189 41.3354 20.8706 41.3311C20.9137 41.3311 20.9266 41.301 20.9266 41.2622C20.9352 41.1761 20.9438 41.09 20.9524 41.0082C20.9998 40.4828 21.0946 39.9617 21.1893 39.445C21.2583 39.0704 21.3703 38.7 21.4736 38.334C21.5813 37.9421 21.6761 37.5503 21.7795 37.1584C21.9044 36.689 22.0293 36.224 22.15 35.7589C22.193 35.5952 22.2361 35.4273 22.2749 35.2637C22.3136 35.0914 22.3309 35.0742 22.5075 35.0742C22.9383 35.0742 23.3647 35.0742 23.7955 35.0742C23.9506 35.0742 23.9592 35.0828 23.9204 35.2292C23.7653 35.8751 23.6016 36.5211 23.4336 37.167C23.3259 37.5804 23.2312 37.9981 23.1278 38.4115C22.9684 39.0402 22.8047 39.6646 22.6496 40.2933C22.5463 40.7067 22.4472 41.1244 22.3438 41.5378C22.2447 41.9254 22.1413 42.3086 22.0423 42.6919C22.0207 42.778 21.969 42.8039 21.8872 42.7995C21.5426 42.7995 21.198 42.7995 20.8577 42.7995" fill="white"/>
<path d="M25.3419 38.9283V35.2809C25.3419 35.0699 25.3505 35.0613 25.5659 35.0613H29.6668C29.8563 35.0613 29.8693 35.0742 29.8693 35.2637C29.8693 35.5565 29.8693 35.8536 29.8693 36.1464C29.8693 36.3402 29.8477 36.3618 29.6496 36.3618H27.1167C26.9573 36.3618 26.953 36.3618 26.953 36.5254C26.953 37.0378 26.953 37.5546 26.953 38.067C26.953 38.179 26.9874 38.2134 27.0994 38.2134C27.8877 38.2091 28.676 38.2134 29.4644 38.2134C29.6367 38.2134 29.6496 38.222 29.6496 38.3986C29.6496 38.7086 29.6496 39.0187 29.6496 39.3287C29.6496 39.4881 29.6194 39.5182 29.46 39.5182C28.6847 39.5182 27.905 39.5182 27.1296 39.5182C26.9573 39.5182 26.9573 39.5182 26.9573 39.6948C26.9573 40.2417 26.9573 40.7929 26.9573 41.3397C26.9573 41.4517 26.9874 41.4862 27.1038 41.4862C27.961 41.4819 28.8139 41.4862 29.6668 41.4862C29.8563 41.4862 29.8736 41.5034 29.8736 41.6885C29.8736 41.9943 29.8736 42.3 29.8736 42.6058C29.8736 42.7694 29.852 42.7909 29.697 42.7909C28.3099 42.7909 26.9185 42.7909 25.5315 42.7909C25.3721 42.7909 25.3505 42.7694 25.3505 42.6101C25.3505 41.3828 25.3505 40.1555 25.3505 38.9283" fill="white"/>
<path d="M34.556 39.5699V42.6144C34.556 42.7909 34.556 42.7952 34.3708 42.7952C33.9616 42.7952 33.5566 42.7952 33.1517 42.7952C32.9622 42.7952 32.9579 42.7909 32.9579 42.6015V36.6072C32.9579 36.5728 32.9579 36.5383 32.9579 36.5082C32.9708 36.4091 32.932 36.3704 32.8243 36.3704C32.5702 36.3747 32.316 36.3704 32.0619 36.3704C31.7431 36.3704 31.4287 36.3704 31.1099 36.3704C30.9634 36.3704 30.9247 36.3316 30.9203 36.1852C30.9203 35.8751 30.9203 35.5651 30.9203 35.2551C30.9203 35.1 30.9591 35.0699 31.1142 35.0699C32.8717 35.0699 34.6292 35.0699 36.3868 35.0699C36.5462 35.0699 36.5806 35.1 36.5806 35.2594C36.5806 35.5651 36.5806 35.8708 36.5806 36.1766C36.5806 36.3359 36.5418 36.3747 36.3825 36.3747C35.8225 36.3747 35.2625 36.3747 34.7025 36.3747C34.5517 36.3747 34.5517 36.3747 34.5517 36.5254V39.5785" fill="white"/>
<path d="M27.5431 34.4671C27.3967 34.4671 27.2502 34.4671 27.1081 34.4671C27.0391 34.4671 26.9875 34.4455 26.9444 34.3896C26.5825 33.946 26.2164 33.5025 25.8545 33.0589C25.833 33.0288 25.8115 32.9986 25.7899 32.9685C25.7555 32.9039 25.777 32.8608 25.8416 32.8393C25.9105 32.8178 25.9795 32.8135 26.0527 32.8221C26.2293 32.8393 26.4102 32.8393 26.5868 32.8221C26.7204 32.8092 26.8539 32.8393 26.9875 32.8393C27.0521 32.8393 27.0865 32.8867 27.121 32.9297C27.233 33.0675 27.345 33.2053 27.457 33.3474C27.513 33.4207 27.5561 33.4163 27.6121 33.3474C27.7198 33.2097 27.8361 33.0805 27.9438 32.9384C28.0084 32.8565 28.0859 32.8178 28.185 32.8264C28.5037 32.8565 28.8182 32.8049 29.137 32.835C29.1973 32.8393 29.2619 32.8264 29.2964 32.891C29.3308 32.9556 29.2748 33.003 29.2404 33.0503C28.8957 33.4809 28.5468 33.9073 28.2065 34.3422C28.129 34.4412 28.0514 34.4886 27.9222 34.48C27.7973 34.4714 27.6681 34.48 27.5431 34.48" fill="white"/>
<path d="M71.7355 40.3493C71.7312 40.6293 71.7484 40.9049 71.7139 41.1848C71.6364 41.8049 71.3004 42.2441 70.7404 42.4982C70.0124 42.8297 69.2456 42.8685 68.4616 42.7824C68.0266 42.735 67.6174 42.623 67.2426 42.3948C66.6481 42.0288 66.3423 41.4733 66.2734 40.7929C66.1657 39.7336 66.2303 38.6699 66.2303 37.6063C66.2303 37.2403 66.2734 36.8742 66.3983 36.5211C66.6007 35.957 66.9669 35.5479 67.5097 35.2982C67.9232 35.1087 68.3626 35.0226 68.8192 35.0182C69.2672 35.0182 69.7152 35.0182 70.1589 35.1345C70.7146 35.2852 71.2013 35.5307 71.4942 36.0561C71.6278 36.2972 71.701 36.5513 71.7096 36.8269C71.7182 37.1154 71.7096 37.4039 71.7139 37.6924C71.7139 37.813 71.6752 37.869 71.5502 37.8647C71.1367 37.8647 70.7275 37.8647 70.3139 37.8647C70.189 37.8647 70.1287 37.8173 70.1373 37.6881C70.1416 37.5331 70.133 37.3738 70.1373 37.2187C70.1632 36.6805 69.8789 36.3876 69.3663 36.3187C69.0906 36.28 68.8063 36.2714 68.5349 36.3618C68.0783 36.5125 67.8973 36.8742 67.85 37.3135C67.7983 37.7656 67.8198 38.2178 67.8198 38.6742C67.8198 38.7087 67.8069 38.756 67.8543 38.7733C67.8887 38.7862 67.9146 38.7474 67.9361 38.7259C68.3109 38.3427 68.7976 38.1962 69.3103 38.1575C69.6936 38.1273 70.0813 38.1316 70.469 38.2221C71.2702 38.4116 71.7096 38.9197 71.7441 39.7508C71.7527 39.9532 71.7441 40.1556 71.7441 40.3623M70.1675 40.3924C70.1675 40.2589 70.1675 40.1297 70.1675 39.9962C70.1804 39.6819 70.0469 39.5139 69.7066 39.4235C69.25 39.3072 68.7804 39.3116 68.3281 39.4321C67.9706 39.5226 67.8241 39.6431 67.8155 39.9489C67.8112 40.19 67.8069 40.4312 67.8155 40.6723C67.837 41.1202 68.0395 41.3656 68.4746 41.4776C68.8752 41.5809 69.2801 41.5766 69.6807 41.4647C69.9952 41.3785 70.1546 41.1718 70.1632 40.8489C70.1632 40.6982 70.1632 40.5474 70.1632 40.3967" fill="#23234A"/>
<path d="M47.4575 42.7048H45.0021C44.7997 42.7048 44.7953 42.7048 44.7997 42.4981C44.8083 42.0933 44.7738 41.6842 44.8212 41.2794C44.8815 40.767 45.1184 40.3407 45.4587 39.9617C45.9283 39.445 46.5141 39.079 47.1042 38.7173C47.4316 38.5192 47.7633 38.3297 48.0692 38.0972C48.1812 38.0153 48.2802 37.9206 48.375 37.8216C48.5129 37.6751 48.5947 37.5072 48.5861 37.2962C48.5775 37.167 48.5818 37.0421 48.5861 36.9129C48.599 36.5168 48.431 36.4048 48.0993 36.3359C47.7289 36.2584 47.3455 36.267 46.9707 36.323C46.6089 36.379 46.4107 36.6115 46.4064 36.9732C46.4064 37.2101 46.4021 37.4469 46.4064 37.6838C46.4064 37.8173 46.3504 37.8775 46.2212 37.8775C45.8163 37.8775 45.407 37.8775 45.0021 37.8775C44.916 37.8775 44.8341 37.8517 44.8341 37.744C44.8341 37.3177 44.7953 36.8914 44.8556 36.4694C44.9418 35.8924 45.2821 35.5048 45.812 35.2766C46.1652 35.1216 46.5443 35.0397 46.9276 35.0182C47.5738 34.9881 48.2242 34.9751 48.8575 35.1517C49.3356 35.2852 49.7578 35.5005 50.0033 35.9613C50.1067 36.1551 50.1627 36.3661 50.1756 36.5857C50.1885 36.7795 50.1713 36.9732 50.1842 37.167C50.2316 37.856 49.9085 38.3641 49.4132 38.7905C48.9609 39.1823 48.4396 39.4794 47.927 39.7809C47.5436 40.0048 47.1516 40.2201 46.8156 40.5129C46.5873 40.711 46.3892 40.9306 46.3719 41.2579C46.3676 41.3828 46.4064 41.4216 46.5313 41.4216C47.1818 41.4172 47.8279 41.4172 48.4784 41.4216C48.6033 41.4216 48.6464 41.3828 48.6421 41.2579C48.6378 40.879 48.6421 40.5 48.6421 40.1254C48.6421 39.9531 48.6722 39.9187 48.8532 39.9187C49.2279 39.9187 49.6027 39.9187 49.9732 39.9187C50.1412 39.9187 50.1756 39.9531 50.1756 40.1211C50.1756 40.9134 50.1756 41.7101 50.1756 42.5024C50.1756 42.6747 50.1455 42.7048 49.9645 42.7048C49.1332 42.7048 48.2975 42.7048 47.4661 42.7048" fill="#23234A"/>
<path d="M51.8728 38.8077C51.8901 38.3383 51.8341 37.7527 51.903 37.1757C52.0064 36.267 52.4414 35.5867 53.3159 35.2508C54.2593 34.8891 55.2199 34.8977 56.1547 35.2723C56.8482 35.5479 57.2574 36.0862 57.4254 36.8139C57.5073 37.1627 57.5202 37.5158 57.5245 37.869C57.5288 38.6053 57.5331 39.3417 57.5245 40.0824C57.5202 40.5216 57.4857 40.9608 57.3177 41.3742C57.0722 41.9857 56.6285 42.3991 56.0082 42.6058C55.1294 42.9029 54.2377 42.9029 53.3633 42.5886C52.6741 42.3431 52.2174 41.8608 52.0021 41.1546C51.9073 40.8402 51.8728 40.5173 51.8728 40.19C51.8728 39.7637 51.8728 39.3374 51.8728 38.8034M53.4451 39.023C53.4667 39.445 53.4021 39.9876 53.4753 40.5216C53.5227 40.8532 53.6562 41.1503 53.9577 41.3355C54.3756 41.5895 54.8236 41.5895 55.2673 41.4259C55.4956 41.3441 55.6679 41.1847 55.7756 40.9565C55.9091 40.6766 55.9479 40.3752 55.9479 40.0737C55.9565 39.3891 55.9479 38.7044 55.9479 38.0197C55.9479 37.7871 55.9393 37.5589 55.9048 37.3264C55.823 36.7321 55.5085 36.3919 54.9184 36.3101C54.5651 36.2627 54.2119 36.2929 53.9147 36.5125C53.5614 36.7752 53.4494 37.1584 53.4408 37.5718C53.4279 38.0154 53.4408 38.4589 53.4408 39.0187" fill="#23234A"/>
<path d="M61.8321 42.7049C61.0094 42.7049 60.1866 42.7049 59.3639 42.7049C59.1614 42.7049 59.1485 42.6963 59.1528 42.4982C59.1657 42.0848 59.1312 41.6671 59.1915 41.2537C59.2605 40.7757 59.4672 40.3752 59.7774 40.0178C60.1866 39.5398 60.6992 39.1996 61.2291 38.868C61.6685 38.5924 62.1294 38.347 62.5386 38.0197C62.8186 37.7958 63.0124 37.5331 62.9651 37.1498C62.9564 37.0766 62.9607 36.9991 62.9651 36.9216C62.9866 36.547 62.81 36.4049 62.4826 36.336C62.0992 36.2585 61.7115 36.2628 61.3238 36.3274C60.9706 36.3833 60.7897 36.6073 60.7811 36.9647C60.7811 37.2015 60.7811 37.4384 60.7811 37.6752C60.7811 37.8302 60.7423 37.8733 60.5915 37.8776C60.1866 37.8776 59.7774 37.8776 59.3725 37.8776C59.2906 37.8776 59.2088 37.8604 59.2131 37.757C59.2131 37.3221 59.1743 36.8872 59.2346 36.4565C59.3165 35.8752 59.6783 35.4963 60.1995 35.2723C60.6217 35.0915 61.0697 35.014 61.5263 35.0097C61.9786 35.0097 62.4352 34.9881 62.8832 35.0742C63.2709 35.1475 63.6457 35.2551 63.9687 35.4963C64.309 35.7503 64.49 36.0862 64.5287 36.5039C64.5632 36.8527 64.5675 37.2015 64.5287 37.5503C64.4814 37.9982 64.2444 38.347 63.93 38.6484C63.4561 39.1049 62.8875 39.4278 62.3232 39.7594C61.9355 39.9876 61.5435 40.2073 61.1946 40.4915C61.0395 40.6207 60.9103 40.7671 60.8155 40.9436C60.7811 41.0039 60.7638 41.0771 60.7509 41.146C60.7078 41.3872 60.7337 41.4173 60.9792 41.4173C61.5995 41.4173 62.2198 41.4173 62.8401 41.4173C62.9694 41.4173 63.0167 41.3829 63.0124 41.2494C63.0038 40.8747 63.0124 40.5044 63.0124 40.1298C63.0124 39.9446 63.0426 39.9144 63.2278 39.9144C63.5983 39.9144 63.9644 39.9144 64.3349 39.9144C64.5029 39.9144 64.5287 39.9403 64.5287 40.0996C64.5287 40.9006 64.5287 41.7058 64.5287 42.5111C64.5287 42.679 64.5072 42.6963 64.3392 42.6963C63.5078 42.6963 62.6721 42.6963 61.8408 42.6963" fill="#23234A"/>
<path d="M43.3307 10.7656C43.3307 10.7656 43.3394 10.7397 43.3437 10.7225C43.3566 10.7527 43.3609 10.7742 43.3609 10.8C43.3609 10.9895 43.3609 11.179 43.3609 11.3684C43.3609 11.3857 43.3609 11.4072 43.3523 11.4201C43.3264 11.4503 43.3264 11.4847 43.3178 11.5235C43.2747 11.7904 43.1154 11.9627 42.8655 12.0531C42.8397 12.0617 42.8138 12.066 42.788 12.0919C42.8095 12.1091 42.8311 12.1134 42.8569 12.1177C42.9387 12.1393 43.0163 12.1651 43.0938 12.2038C43.2274 12.2771 43.3135 12.3804 43.3652 12.5225C43.3911 12.5914 43.3954 12.6646 43.3997 12.7335C43.4083 12.9704 43.404 13.2029 43.3997 13.4397C43.3997 13.556 43.3695 13.668 43.3221 13.7756C43.2618 13.9177 43.1584 14.0254 43.0335 14.1072C42.8827 14.2062 42.7191 14.2536 42.5424 14.2838C42.4003 14.3053 42.2581 14.3139 42.1117 14.3182C41.6465 14.3182 41.1769 14.3182 40.7117 14.3182C40.5868 14.3182 40.5954 14.3182 40.5825 14.1933C40.5825 14.1718 40.5825 14.1503 40.5825 14.1287V10.068C40.5825 10.068 40.5825 10.0378 40.5825 10.0249C40.5825 9.96031 40.5954 9.95169 40.66 9.94739C40.6858 9.94739 40.7074 9.94739 40.7332 9.94739C41.1898 9.94739 41.6464 9.94739 42.1031 9.94739C42.2021 9.94739 42.3055 9.94739 42.4003 9.96031C42.6027 9.99045 42.8052 10.0292 42.9818 10.1412C43.1111 10.223 43.2101 10.3349 43.2704 10.4771C43.3092 10.5675 43.3221 10.6622 43.3307 10.7699M41.3061 13.0608C41.3061 13.2546 41.3061 13.4483 41.3061 13.6421C41.3061 13.6981 41.3234 13.711 41.3751 13.6895C41.4268 13.6723 41.4785 13.6723 41.5301 13.6809C41.6034 13.6938 41.6809 13.6938 41.7541 13.6809C41.7628 13.6809 41.7757 13.6809 41.7843 13.6809C41.9178 13.6809 42.0514 13.6809 42.1849 13.6809C42.2194 13.6809 42.2538 13.6809 42.2883 13.6809C42.4089 13.6938 42.5123 13.655 42.5984 13.5732C42.6114 13.5603 42.6243 13.5474 42.6286 13.5302C42.6415 13.4871 42.6372 13.4354 42.676 13.401C42.6803 13.3967 42.676 13.3838 42.676 13.3794C42.676 13.1641 42.676 12.9445 42.676 12.7292C42.676 12.712 42.676 12.6948 42.6631 12.6861C42.6415 12.6646 42.6372 12.6388 42.6286 12.6129C42.6157 12.5742 42.5941 12.544 42.5597 12.5182C42.4692 12.4579 42.3658 12.4321 42.2668 12.4321C41.9695 12.4235 41.668 12.4321 41.3708 12.4321C41.3621 12.4321 41.3535 12.4321 41.3492 12.4321C41.3234 12.4321 41.3105 12.4493 41.3105 12.4751C41.3105 12.4924 41.3105 12.5053 41.3105 12.5225V13.0737M41.3061 11.1833C41.3061 11.3684 41.3061 11.5536 41.3061 11.7388C41.3061 11.8034 41.3061 11.8077 41.3751 11.8077C41.6249 11.8077 41.8704 11.8077 42.116 11.8077C42.1461 11.8077 42.1763 11.8077 42.2064 11.7948C42.2538 11.7732 42.3055 11.7732 42.3529 11.7732C42.4218 11.7732 42.4778 11.7474 42.5252 11.7043C42.5769 11.6527 42.6071 11.5924 42.6028 11.5105C42.5941 11.3426 42.5941 11.1747 42.6028 11.011C42.6071 10.9206 42.6286 10.8259 42.5597 10.744C42.5597 10.744 42.5597 10.744 42.5597 10.7397C42.5468 10.6967 42.5166 10.6751 42.4821 10.6536C42.4304 10.6235 42.3744 10.6019 42.3141 10.5976C42.2495 10.589 42.1849 10.5847 42.116 10.5847C41.9092 10.5847 41.7068 10.5847 41.5 10.5847C41.4569 10.5847 41.4138 10.5847 41.3708 10.5761C41.3191 10.5675 41.3105 10.5761 41.3061 10.6278C41.3061 10.645 41.3061 10.6579 41.3061 10.6751V11.1876" fill="white"/>
<path d="M23.9635 12.1349V14.1589C23.9635 14.1804 23.9635 14.2019 23.9635 14.2235C23.9592 14.2881 23.9333 14.3096 23.8687 14.3139C23.8558 14.3139 23.8429 14.3139 23.8343 14.3139C23.662 14.3139 23.4853 14.3139 23.313 14.3139C23.214 14.3139 23.201 14.301 23.201 14.2062C23.201 14.1201 23.201 14.034 23.2053 13.9479C23.214 13.879 23.201 13.8144 23.201 13.7455C23.201 13.5474 23.201 13.3536 23.2053 13.1555C23.214 12.9747 23.1967 12.7938 23.1967 12.6129C23.1967 12.5527 23.1967 12.4924 23.1967 12.4321C23.1967 12.389 23.1881 12.3847 23.145 12.3933C23.1149 12.4019 23.0847 12.4019 23.0546 12.4019C22.6841 12.4019 22.3137 12.4019 21.9389 12.4019C21.9087 12.4019 21.8743 12.4019 21.8441 12.389C21.8054 12.3761 21.7967 12.3847 21.7924 12.4278C21.7924 12.4536 21.7924 12.4794 21.7924 12.5053C21.7924 13.0651 21.7924 13.6206 21.7924 14.1804C21.7924 14.2062 21.7924 14.2364 21.7924 14.2622C21.7924 14.2881 21.7752 14.3053 21.7494 14.3096C21.7278 14.3096 21.7063 14.3139 21.6847 14.3139C21.5167 14.3139 21.3444 14.3139 21.1764 14.3139C21.1635 14.3139 21.1463 14.3139 21.1334 14.3139C21.0903 14.3096 21.086 14.301 21.0774 14.2579C21.0472 14.1072 21.0558 13.9522 21.0558 13.8015C21.0558 12.5742 21.0558 11.3469 21.0558 10.1196C21.0558 10.0723 21.0558 10.0292 21.0774 9.98614C21.086 9.96031 21.0989 9.95169 21.1247 9.94739C21.1463 9.94739 21.1678 9.94739 21.1894 9.94739C21.3487 9.94739 21.5081 9.94739 21.6675 9.94739C21.8183 9.94739 21.7967 9.96461 21.7967 10.0766C21.7967 10.6105 21.7967 11.1445 21.7967 11.6785C21.7967 11.7416 21.8283 11.7732 21.8915 11.7732H23.1192C23.2053 11.7732 23.2097 11.7732 23.2053 11.6828C23.1967 11.4589 23.1881 11.2349 23.1967 11.0153C23.2053 10.8 23.1881 10.5847 23.1967 10.3694C23.1967 10.2488 23.2097 10.1326 23.2053 10.012C23.2053 9.96461 23.2097 9.96031 23.257 9.95169C23.2786 9.95169 23.3044 9.94739 23.3303 9.94739C23.4853 9.94739 23.6404 9.94739 23.7955 9.94739C23.83 9.94739 23.8644 9.94739 23.8946 9.956C23.9377 9.96031 23.9506 9.97322 23.9549 10.0163C23.9592 10.0464 23.9592 10.0766 23.9592 10.1067V12.1393" fill="white"/>
<path d="M51.511 12.1264C51.511 11.7905 51.511 11.4546 51.511 11.1145C51.511 11.0154 51.5282 10.9121 51.5756 10.8216C51.5756 10.8173 51.5799 10.813 51.5799 10.8044C51.5885 10.77 51.5928 10.7355 51.6101 10.7011C51.6919 10.5633 51.7608 10.4168 51.8814 10.3049C52.0451 10.1499 52.2347 10.0465 52.4501 9.98623C52.6568 9.92594 52.8722 9.89579 53.0876 9.90871C53.359 9.92163 53.626 9.969 53.8716 10.0982C54.1387 10.2403 54.3239 10.4513 54.4316 10.7355C54.4617 10.8216 54.479 10.9078 54.5048 10.9939C54.5436 11.136 54.5393 11.2781 54.5393 11.4245C54.5393 11.8853 54.5393 12.3503 54.5393 12.8111C54.5393 12.9145 54.5436 13.0178 54.5307 13.1212C54.5091 13.2891 54.4747 13.4527 54.4014 13.6078C54.3713 13.668 54.3583 13.7326 54.3153 13.7843C54.1731 13.9695 54.0008 14.1159 53.7854 14.2106C53.695 14.2494 53.6002 14.2709 53.5097 14.3011C53.3633 14.3484 53.2168 14.3484 53.0661 14.357C52.9067 14.3657 52.7516 14.357 52.5965 14.3226C52.5147 14.3011 52.4285 14.2838 52.351 14.2494C52.2777 14.2192 52.2002 14.1934 52.1313 14.146C52.0667 14.1073 52.0064 14.0642 51.9504 14.0212C51.8556 13.9479 51.7781 13.8532 51.7134 13.7542C51.6876 13.7111 51.6618 13.6723 51.6488 13.6207C51.6488 13.6034 51.6316 13.5862 51.623 13.5733C51.6014 13.5475 51.5928 13.5173 51.5885 13.4872C51.5799 13.4226 51.5627 13.3623 51.5411 13.302C51.5196 13.246 51.5153 13.1857 51.5153 13.1255C51.5153 12.7896 51.5153 12.458 51.5153 12.1221L51.511 12.1264ZM52.2218 12.1264C52.2218 12.3503 52.2218 12.5786 52.2218 12.8025C52.2218 12.9618 52.2347 13.1168 52.2907 13.2676C52.3725 13.4872 52.519 13.6336 52.743 13.7025C52.8033 13.7197 52.8722 13.7326 52.9368 13.7326C53.0445 13.7326 53.1479 13.6939 53.2556 13.7068C53.2642 13.7068 53.2728 13.7068 53.2814 13.7025C53.5916 13.6293 53.7424 13.3795 53.7811 13.1298C53.7768 12.9834 53.7984 12.8412 53.794 12.6948C53.794 12.5829 53.794 12.4666 53.794 12.3546C53.794 12.1652 53.794 11.9714 53.794 11.7819C53.794 11.5666 53.7854 11.3513 53.7768 11.1403C53.7768 11.1058 53.7725 11.0714 53.751 11.0412C53.738 11.0197 53.7251 10.9939 53.7165 10.9723C53.6691 10.8518 53.5916 10.7527 53.4882 10.6709C53.402 10.602 53.2944 10.5719 53.1867 10.5676C53.0876 10.559 52.9842 10.5331 52.8808 10.559C52.8679 10.559 52.8507 10.559 52.8334 10.559C52.8162 10.559 52.799 10.559 52.7861 10.559C52.6741 10.5805 52.575 10.6235 52.4845 10.6968C52.3682 10.7958 52.295 10.9207 52.2519 11.0671C52.2131 11.1963 52.2045 11.3298 52.2045 11.4633C52.2045 11.6872 52.2045 11.9111 52.2045 12.1393" fill="white"/>
<path d="M25.1869 12.1177V11.166C25.1869 11.0928 25.1869 11.0196 25.2256 10.9507C25.2299 10.9378 25.2342 10.9249 25.2342 10.912C25.2558 10.7569 25.329 10.6148 25.4152 10.4857C25.5142 10.3349 25.6478 10.2187 25.8029 10.1282C25.9106 10.068 26.0269 10.0206 26.1432 9.98183C26.225 9.95599 26.3112 9.94738 26.393 9.93015C26.6558 9.87848 26.9185 9.90432 27.177 9.9603C27.4398 10.0163 27.6767 10.1325 27.8662 10.3263C27.9739 10.4383 28.0515 10.5675 28.1075 10.7096C28.1548 10.8258 28.1807 10.9464 28.2022 11.0713C28.2195 11.1703 28.2238 11.2651 28.2238 11.3598C28.2238 11.9239 28.2238 12.488 28.2238 13.0522C28.2238 13.1512 28.1936 13.2459 28.1764 13.3407C28.1247 13.5818 28.017 13.7971 27.8361 13.9694C27.681 14.1201 27.4958 14.2192 27.289 14.2751C27.2244 14.2924 27.1598 14.3096 27.0908 14.3268C27.0607 14.3354 27.0262 14.344 26.9961 14.344C26.8496 14.3483 26.7075 14.3656 26.561 14.3569C26.4275 14.3483 26.2982 14.3397 26.1733 14.2924C26.1561 14.2837 26.1345 14.2794 26.113 14.2794C26.0656 14.2708 26.0182 14.2579 25.9795 14.2321C25.9752 14.2278 25.9665 14.2235 25.9579 14.2235C25.8546 14.1933 25.7684 14.133 25.6822 14.0727C25.6047 14.0211 25.5358 13.9608 25.4798 13.8876C25.4238 13.8187 25.3721 13.7455 25.3333 13.6636C25.2946 13.5818 25.2515 13.5 25.2429 13.4053C25.2386 13.345 25.2041 13.2933 25.1955 13.233C25.1782 13.1081 25.1869 12.9876 25.1826 12.8627C25.1826 12.6172 25.1826 12.3675 25.1826 12.122L25.1869 12.1177ZM25.9106 12.122C25.9106 12.3244 25.9106 12.5268 25.9106 12.7335C25.9106 12.8713 25.9106 13.0091 25.9407 13.1469C25.9752 13.289 26.0312 13.4182 26.1345 13.5258C26.2638 13.6636 26.4318 13.7153 26.6127 13.7325C26.6558 13.7325 26.6945 13.7412 26.7376 13.7325C26.7936 13.7153 26.8539 13.6981 26.9142 13.711C26.9272 13.711 26.9444 13.711 26.9616 13.7067C27.2028 13.6421 27.3665 13.5 27.4268 13.2546C27.4268 13.2416 27.4312 13.2287 27.4398 13.2201C27.4613 13.19 27.4613 13.1598 27.4656 13.1254C27.4699 13.0565 27.4656 12.9876 27.4828 12.923C27.4958 12.8756 27.5001 12.8282 27.5001 12.7809C27.5001 12.7464 27.5001 12.712 27.5001 12.6775C27.5001 12.4407 27.5001 12.2038 27.5001 11.967C27.5001 11.7302 27.513 11.489 27.4785 11.2522C27.4699 11.1919 27.4785 11.123 27.4484 11.067C27.4268 11.0196 27.4096 10.9723 27.3924 10.9249C27.3881 10.912 27.3838 10.8947 27.3752 10.8818C27.3407 10.8388 27.3062 10.7914 27.2675 10.7483C27.1641 10.6321 27.0349 10.5804 26.8841 10.5675C26.8324 10.5675 26.785 10.5632 26.7333 10.5546C26.7075 10.5502 26.6773 10.5459 26.6515 10.5546C26.617 10.5675 26.5869 10.5675 26.5524 10.5589C26.5309 10.5589 26.5136 10.5502 26.4921 10.5589C26.2724 10.6062 26.1087 10.7225 26.0139 10.9249C25.9407 11.0713 25.9149 11.2263 25.9149 11.39C25.9149 11.6397 25.9149 11.8895 25.9149 12.1349" fill="white"/>
<path d="M45.7947 13.3537C45.5966 13.3537 45.3941 13.3537 45.1959 13.3537C45.1356 13.3537 45.1313 13.3537 45.1184 13.4096C45.0667 13.5991 45.015 13.7886 44.9633 13.9781C44.9504 14.0297 44.9375 14.0771 44.9203 14.1288C44.9073 14.1675 44.8987 14.2106 44.8987 14.2537C44.8987 14.301 44.8858 14.3096 44.8427 14.3183C44.8212 14.3183 44.8039 14.3183 44.7824 14.3183C44.6101 14.3183 44.4335 14.3183 44.2612 14.3183C44.2439 14.3183 44.2267 14.3183 44.2095 14.3183C44.1449 14.3096 44.1276 14.2838 44.1492 14.2192C44.1879 14.1288 44.1966 14.0297 44.231 13.9393C44.2439 13.9049 44.2483 13.8704 44.2483 13.836C44.2483 13.8144 44.2483 13.7972 44.2612 13.78C44.2999 13.7154 44.3043 13.6379 44.3172 13.569C44.3258 13.5345 44.3258 13.5001 44.3473 13.4699C44.3559 13.457 44.3603 13.4398 44.3603 13.4269C44.3646 13.3666 44.3818 13.3063 44.3947 13.246C44.3947 13.2374 44.3947 13.2288 44.399 13.2245C44.4421 13.1857 44.4335 13.1297 44.4421 13.0781C44.4507 13.0264 44.4809 12.979 44.4938 12.923C44.4981 12.8929 44.5067 12.8628 44.511 12.8283C44.511 12.8025 44.5153 12.7809 44.5283 12.7594C44.5627 12.6862 44.5799 12.6087 44.5843 12.5269C44.5843 12.5139 44.5843 12.4967 44.5929 12.4881C44.6359 12.4192 44.6359 12.3374 44.6532 12.2599C44.6575 12.2297 44.6532 12.1996 44.6833 12.1781C44.6919 12.1695 44.6963 12.1522 44.6963 12.1393C44.6963 12.0747 44.7221 12.0144 44.7307 11.9498C44.7307 11.9283 44.7307 11.9068 44.7566 11.8939C44.7652 11.8852 44.7695 11.8723 44.7695 11.8637C44.7695 11.7776 44.8083 11.7044 44.8298 11.6269C44.8384 11.5967 44.847 11.5666 44.847 11.5321C44.847 11.502 44.8556 11.4675 44.8686 11.4417C44.8944 11.3857 44.9073 11.3254 44.9159 11.2651C44.9202 11.2307 44.9289 11.1962 44.9461 11.1618C44.9719 11.1015 44.9806 11.0369 44.9892 10.9723C44.9935 10.9379 44.9978 10.9034 45.0193 10.8776C45.0279 10.8604 45.0323 10.8431 45.0366 10.8259C45.0409 10.7828 45.0538 10.7398 45.0667 10.6967C45.0753 10.6795 45.0839 10.6623 45.0753 10.6407C45.0753 10.6364 45.0753 10.6278 45.0753 10.6235C45.1184 10.5848 45.1012 10.5245 45.1141 10.4771C45.1227 10.447 45.1356 10.4211 45.1443 10.3953C45.1572 10.3479 45.1787 10.3006 45.1787 10.2489C45.1787 10.2187 45.183 10.1929 45.1959 10.1671C45.2132 10.124 45.2261 10.0809 45.2347 10.0379C45.2519 9.96897 45.2606 9.96036 45.3295 9.95605C45.3467 9.95605 45.3596 9.95605 45.3769 9.95605H46.2039C46.2341 9.95605 46.2599 9.95605 46.2858 9.96036C46.3159 9.96467 46.3375 9.98189 46.3375 10.0163C46.3461 10.1025 46.3805 10.1843 46.3978 10.2704C46.415 10.3436 46.4322 10.4211 46.4538 10.4943C46.4882 10.6149 46.5141 10.7398 46.5529 10.8604C46.5744 10.925 46.5787 10.9939 46.6002 11.0584C46.6218 11.1273 46.639 11.2006 46.6519 11.2738C46.6778 11.4029 46.7209 11.5278 46.751 11.657C46.7639 11.7259 46.7898 11.7905 46.807 11.8594C46.807 11.8637 46.8113 11.8723 46.8113 11.8766C46.8242 11.9886 46.8673 12.0962 46.8932 12.2082C46.9233 12.346 46.9664 12.4752 46.9965 12.613C47.0224 12.7293 47.0655 12.8455 47.087 12.9661C47.0956 13.0264 47.1172 13.0867 47.1387 13.1427C47.1516 13.1771 47.1602 13.2159 47.1645 13.2546C47.1688 13.3106 47.1904 13.3623 47.2076 13.4183C47.2292 13.4958 47.2464 13.5733 47.2679 13.6508C47.2981 13.7628 47.3239 13.8747 47.3498 13.9867C47.367 14.0513 47.3842 14.1159 47.4058 14.1805C47.4144 14.2149 47.423 14.245 47.423 14.2795C47.423 14.3183 47.4187 14.3269 47.3756 14.3312C47.3584 14.3312 47.3412 14.3312 47.3239 14.3312H46.7984C46.7984 14.3312 46.7682 14.3312 46.7553 14.3312C46.695 14.3269 46.6864 14.314 46.6735 14.258C46.6605 14.1977 46.639 14.1374 46.639 14.0728C46.639 14.0642 46.639 14.0556 46.6347 14.0513C46.5959 13.9996 46.6002 13.935 46.583 13.879C46.5701 13.8317 46.5658 13.7843 46.5399 13.7455C46.5313 13.7283 46.527 13.7068 46.527 13.6895C46.5227 13.6206 46.5055 13.5517 46.4753 13.4872C46.4667 13.4699 46.4624 13.4441 46.4581 13.4226C46.4452 13.3752 46.4452 13.3709 46.3935 13.3709C46.2987 13.3709 46.2082 13.3709 46.1135 13.3709H45.7947M45.7904 12.7379H46.0704C46.1264 12.7379 46.1824 12.7379 46.2384 12.7379C46.2729 12.7379 46.2772 12.7336 46.2729 12.6991C46.247 12.5613 46.1953 12.4235 46.1652 12.2857C46.1652 12.2728 46.1565 12.2642 46.1522 12.2513C46.1307 12.2125 46.1221 12.1738 46.1178 12.1307C46.1178 12.079 46.1006 12.0317 46.079 11.9886C46.0575 11.9455 46.0446 11.9025 46.0446 11.8551C46.0446 11.8206 46.0359 11.7905 46.0187 11.7647C46.0101 11.7517 46.0058 11.7302 46.0015 11.713C45.9799 11.6226 45.9713 11.5321 45.9412 11.446C45.9326 11.4245 45.9326 11.4029 45.9282 11.3814C45.9153 11.2867 45.9067 11.1919 45.8852 11.0972C45.8679 11.0197 45.855 10.9422 45.8507 10.8604C45.8507 10.8087 45.8421 10.7613 45.8335 10.7139C45.8249 10.6752 45.8076 10.6623 45.7775 10.6623C45.743 10.6666 45.7473 10.6967 45.7473 10.7183C45.7473 10.757 45.743 10.7915 45.7344 10.8302C45.7215 10.8905 45.7129 10.9551 45.7129 11.0197C45.7129 11.0412 45.7129 11.0628 45.7042 11.0843C45.687 11.1187 45.6827 11.1575 45.6827 11.1962C45.6741 11.3254 45.6439 11.4503 45.6138 11.5709C45.5319 11.8852 45.4415 12.1953 45.3596 12.5096C45.3424 12.5656 45.3295 12.6259 45.3122 12.6819C45.2993 12.7293 45.3036 12.7336 45.3553 12.7336C45.5018 12.7336 45.6482 12.7336 45.7904 12.7336" fill="white"/>
<path d="M30.2053 10.9292V11.8034C30.2053 11.8421 30.2053 11.8464 30.2441 11.8464C30.3604 11.8464 30.4767 11.8464 30.593 11.8464C30.6189 11.8464 30.6361 11.8335 30.6447 11.812C30.6749 11.7474 30.6964 11.6828 30.7222 11.6182C30.7782 11.4804 30.8385 11.3512 30.9075 11.2177C31.0669 10.9206 31.2219 10.6192 31.3813 10.3177C31.4373 10.2101 31.4976 10.1067 31.5493 9.99476C31.5579 9.97322 31.5752 9.96031 31.601 9.956C31.6268 9.956 31.6527 9.94739 31.6785 9.94739C31.8638 9.94739 32.049 9.94739 32.2342 9.94739C32.2428 9.94739 32.2558 9.94739 32.2644 9.94739C32.329 9.95169 32.3462 9.97753 32.3247 10.0421C32.3161 10.068 32.2945 10.0852 32.2816 10.1067C32.1998 10.223 32.1395 10.3522 32.0748 10.4771C32.0232 10.5761 31.9758 10.6751 31.9241 10.7699C31.8681 10.8689 31.8121 10.9723 31.7561 11.0713C31.657 11.2522 31.5622 11.433 31.4675 11.6139C31.4158 11.7129 31.3598 11.8034 31.321 11.9067C31.3081 11.9369 31.2822 11.9627 31.265 11.9928C31.2392 12.0359 31.2392 12.079 31.265 12.122C31.3641 12.3072 31.4589 12.4924 31.5579 12.6775C31.6915 12.9359 31.825 13.19 31.9585 13.444C32.0964 13.7067 32.2342 13.9737 32.3764 14.2364C32.3807 14.245 32.385 14.2536 32.3893 14.2622C32.4022 14.2924 32.3936 14.301 32.3635 14.3096C32.3376 14.3182 32.3118 14.3182 32.2859 14.3182H31.7001C31.7001 14.3182 31.6699 14.3182 31.6527 14.3182C31.6139 14.3182 31.5881 14.301 31.5665 14.2579C31.5192 14.1675 31.4718 14.0771 31.4244 13.9909C31.3555 13.866 31.2865 13.7455 31.2219 13.6206C31.1789 13.5345 31.1358 13.444 31.0841 13.3622C31.0281 13.2718 30.985 13.1771 30.9333 13.0866C30.8989 13.022 30.8687 12.9531 30.8342 12.8885C30.7998 12.8196 30.7739 12.7464 30.7309 12.6818C30.7222 12.6689 30.7136 12.6517 30.7136 12.6388C30.7007 12.5785 30.6533 12.5354 30.6404 12.4751C30.6404 12.4579 30.6189 12.4536 30.6016 12.4536C30.4853 12.4536 30.3647 12.4536 30.2484 12.4536C30.2226 12.4536 30.2096 12.4665 30.2096 12.4924C30.2182 12.9445 30.2096 13.401 30.2096 13.8531C30.2096 13.9651 30.2096 14.0771 30.2096 14.189C30.2096 14.3139 30.2096 14.3139 30.0847 14.3139C29.9167 14.3139 29.753 14.3139 29.5893 14.3139C29.5807 14.3139 29.5721 14.3139 29.5635 14.3139C29.4989 14.3139 29.4902 14.301 29.4902 14.2407C29.4902 14.1847 29.4989 14.1244 29.473 14.0684C29.473 14.0598 29.473 14.0469 29.4773 14.0383C29.4902 14.0082 29.4859 13.978 29.4773 13.9479C29.4644 13.922 29.4644 13.8919 29.4773 13.866C29.4946 13.8273 29.4902 13.7885 29.4902 13.7498V13.5C29.4902 13.457 29.4902 13.4182 29.473 13.3751C29.4601 13.345 29.4644 13.3062 29.473 13.2761C29.4859 13.246 29.4859 13.2201 29.4859 13.19V12.7077C29.4859 12.6775 29.4859 12.6517 29.473 12.6259C29.4601 12.5914 29.4601 12.5527 29.473 12.5139C29.4859 12.4838 29.4859 12.4536 29.473 12.4235C29.4601 12.3933 29.4601 12.3632 29.473 12.3373C29.4859 12.3072 29.4859 12.2814 29.4859 12.2512V11.9842C29.4859 11.9412 29.4859 11.8981 29.4687 11.855C29.4558 11.8206 29.4601 11.7818 29.4687 11.7517C29.4816 11.7259 29.4816 11.7 29.4687 11.6699C29.4558 11.6397 29.4558 11.6053 29.4687 11.5751C29.4816 11.545 29.4816 11.5192 29.4816 11.489V11.2263C29.4816 11.179 29.4816 11.1359 29.4644 11.0928C29.4515 11.0584 29.4558 11.0196 29.4644 10.9895C29.4773 10.9637 29.4773 10.9378 29.4644 10.9077C29.4515 10.8732 29.4515 10.8431 29.4644 10.8086C29.4773 10.7828 29.4773 10.757 29.4773 10.7311C29.4773 10.5503 29.4773 10.3694 29.4773 10.1885C29.4773 10.1584 29.4773 10.1282 29.4644 10.1024C29.4472 10.0593 29.4644 10.0206 29.4816 9.98184C29.4859 9.96892 29.5032 9.96031 29.5161 9.96031C29.5376 9.96031 29.5592 9.96031 29.5807 9.956C29.7401 9.956 29.8952 9.956 30.0546 9.956C30.201 9.956 30.1967 9.956 30.1967 10.0938C30.1967 10.3737 30.1967 10.6536 30.1967 10.9378L30.2053 10.9292Z" fill="white"/>
<path d="M56.93 14.3183H56.5122C56.5122 14.3183 56.4734 14.3183 56.4519 14.3183C56.4088 14.3183 56.3829 14.2925 56.3743 14.2537C56.3657 14.2236 56.3614 14.1934 56.3571 14.1676C56.3485 14.1159 56.3399 14.0599 56.314 14.0125C56.2925 13.9738 56.2882 13.935 56.2839 13.892C56.2796 13.8403 56.2666 13.7929 56.2494 13.7499C56.2408 13.7283 56.2322 13.7068 56.2279 13.681C56.2106 13.5518 56.1589 13.4269 56.1374 13.2977C56.1374 13.2762 56.1288 13.2503 56.1115 13.2331C56.0986 13.2159 56.0986 13.1987 56.0943 13.1771C56.0857 13.1039 56.0728 13.0307 56.0383 12.9661C56.0254 12.936 56.0211 12.9058 56.0168 12.8714C56.0125 12.8154 55.9996 12.7594 55.9737 12.7121C55.9565 12.6733 55.9479 12.6303 55.9436 12.5915C55.9436 12.5484 55.9306 12.5054 55.9091 12.4666C55.8876 12.4236 55.8746 12.3719 55.8703 12.3245C55.8703 12.2858 55.8574 12.2513 55.8402 12.2169C55.8143 12.1609 55.81 12.0963 55.7971 12.036C55.7928 12.0102 55.7885 11.98 55.7712 11.9585C55.7583 11.9369 55.7497 11.9111 55.7497 11.8853C55.7411 11.8121 55.7282 11.7432 55.6937 11.6786C55.6808 11.6484 55.6765 11.6183 55.6722 11.5838C55.6722 11.5279 55.6592 11.4762 55.6291 11.4288C55.6076 11.3901 55.6033 11.3513 55.5989 11.3082C55.5946 11.2566 55.5817 11.2092 55.5602 11.1661C55.5386 11.1188 55.53 11.0714 55.5257 11.0197C55.5257 10.981 55.5128 10.9465 55.4956 10.9121C55.4697 10.8561 55.4654 10.7958 55.4525 10.7398C55.4482 10.714 55.4439 10.6881 55.4266 10.6666C55.4094 10.6451 55.4051 10.6149 55.4051 10.5891C55.3965 10.5116 55.3879 10.4384 55.3491 10.3695C55.3362 10.3436 55.3362 10.3178 55.3319 10.2877C55.3276 10.2274 55.3146 10.1714 55.2888 10.1197C55.2716 10.0853 55.2629 10.0465 55.2629 10.0035C55.2629 9.97331 55.2759 9.95609 55.306 9.95609C55.3276 9.95609 55.3491 9.95178 55.3706 9.95178C55.5472 9.95178 55.7282 9.95178 55.9048 9.95178C55.9177 9.95178 55.9306 9.95178 55.9392 9.95178C56.0039 9.95609 56.0039 9.9647 56.0254 10.025C56.0556 10.124 56.0728 10.2274 56.0986 10.3264C56.1331 10.4513 56.1676 10.5762 56.202 10.7011C56.2365 10.8216 56.2666 10.9422 56.3011 11.0628C56.3226 11.1317 56.3356 11.2049 56.3571 11.2738C56.3916 11.3814 56.4088 11.4934 56.4432 11.6011C56.4777 11.713 56.5036 11.8293 56.5337 11.9413C56.5682 12.0661 56.6026 12.1867 56.6328 12.3116C56.6629 12.4365 56.7017 12.557 56.7319 12.6819C56.7663 12.8369 56.7879 12.9963 56.8137 13.1513C56.8266 13.2245 56.8395 13.302 56.8439 13.3752C56.8439 13.3838 56.8439 13.3968 56.8525 13.3968C56.8869 13.3968 56.874 13.4183 56.874 13.4355C56.874 13.4657 56.874 13.4958 56.874 13.5259C56.874 13.5389 56.8826 13.5518 56.8955 13.5604C56.9128 13.5733 56.9343 13.5647 56.9386 13.5475C56.9515 13.47 56.986 13.3968 56.9774 13.3149C56.9731 13.259 56.9688 13.203 57.0032 13.1513C57.0162 13.1341 57.0119 13.1125 57.0119 13.091C57.0119 13.035 57.0248 12.9791 57.042 12.9231C57.0635 12.8456 57.0722 12.768 57.0851 12.6905C57.0894 12.6561 57.098 12.6216 57.1152 12.5872C57.1411 12.5355 57.1497 12.4709 57.1583 12.4149C57.1626 12.3891 57.1669 12.359 57.1842 12.3374C57.1971 12.3202 57.2014 12.2987 57.2057 12.2771C57.21 12.2212 57.2272 12.1695 57.2402 12.1135C57.2402 12.0963 57.2488 12.0791 57.2617 12.0661C57.2703 12.0575 57.2789 12.0403 57.2789 12.0274C57.2789 11.9542 57.3134 11.8896 57.322 11.8164C57.322 11.7992 57.3263 11.7862 57.3392 11.7733C57.3435 11.7647 57.3522 11.7561 57.3522 11.7475C57.3522 11.6614 57.4038 11.5925 57.4168 11.5106C57.4168 11.4848 57.4297 11.459 57.4297 11.4331C57.4297 11.4116 57.4297 11.3944 57.4426 11.3728C57.4814 11.3039 57.49 11.2307 57.5029 11.1575C57.5029 11.1403 57.5029 11.1188 57.5159 11.1058C57.5546 11.0456 57.5503 10.9724 57.5718 10.9078C57.5805 10.8733 57.5762 10.8346 57.6106 10.8044C57.6192 10.8001 57.6192 10.7872 57.6192 10.7743C57.6192 10.6881 57.658 10.6149 57.6795 10.5374C57.6882 10.5073 57.6968 10.4814 57.6968 10.4513C57.6968 10.4212 57.7097 10.391 57.7226 10.3609C57.7442 10.3092 57.7614 10.2575 57.7657 10.2015C57.7657 10.1628 57.7743 10.1283 57.7958 10.0939C57.8088 10.0767 57.8088 10.0551 57.8131 10.0336C57.8217 9.98193 57.8303 9.97331 57.8863 9.9647C57.9078 9.9647 57.9337 9.96039 57.9595 9.96039C58.1232 9.96039 58.2869 9.96039 58.4506 9.96039C58.4808 9.96039 58.5066 9.9647 58.5325 9.96901C58.5583 9.96901 58.5669 9.98623 58.5626 10.0121C58.5626 10.025 58.5626 10.0336 58.554 10.0465C58.4937 10.2877 58.4334 10.5245 58.3688 10.7657C58.2697 11.1446 58.1706 11.5236 58.0715 11.9025C58.0242 12.0834 57.9768 12.2599 57.9337 12.4408C57.8648 12.7207 57.7915 13.0006 57.7226 13.2805C57.6882 13.414 57.6494 13.5475 57.6149 13.6853C57.5675 13.8618 57.5245 14.0341 57.4814 14.2106C57.4771 14.2322 57.4771 14.2537 57.4771 14.2752C57.4771 14.3097 57.4598 14.3269 57.4254 14.3312C57.4038 14.3312 57.378 14.3355 57.3522 14.3355C57.2057 14.3355 57.0592 14.3355 56.9128 14.3355" fill="white"/>
<path d="M34.5216 14.3182H33.449C33.337 14.3182 33.337 14.3182 33.3327 14.2062C33.3327 14.1589 33.3413 14.1158 33.3241 14.0684C33.3198 14.0555 33.3241 14.0469 33.3241 14.034C33.3327 14.0125 33.3284 13.9909 33.3198 13.9694C33.3068 13.9436 33.3068 13.9177 33.3155 13.8876C33.337 13.8144 33.337 13.7455 33.3155 13.6723C33.3025 13.6249 33.3025 13.5732 33.3155 13.5259C33.337 13.457 33.337 13.3838 33.3198 13.3149C33.3111 13.2761 33.3413 13.246 33.3198 13.2115C33.2982 13.1771 33.3198 13.1426 33.3198 13.1082C33.3284 13.0436 33.3327 12.9833 33.3155 12.9187C33.2982 12.867 33.2982 12.811 33.3155 12.7593C33.337 12.6904 33.3284 12.6216 33.3241 12.5527C33.3241 12.5527 33.3241 12.544 33.3198 12.5397C33.3025 12.5053 33.3413 12.4708 33.3198 12.4364C33.2982 12.4019 33.3198 12.3675 33.3241 12.333C33.337 12.2727 33.337 12.2125 33.3198 12.1522C33.3025 12.1005 33.3025 12.0488 33.3198 11.9971C33.3413 11.9239 33.3413 11.8507 33.3198 11.7818C33.3111 11.7474 33.3413 11.7215 33.3198 11.6871C33.3068 11.6613 33.2982 11.6311 33.3111 11.601C33.3241 11.5665 33.3284 11.5278 33.3284 11.489C33.3284 11.4503 33.3284 11.4115 33.3155 11.3727C33.3025 11.3297 33.3025 11.2823 33.3155 11.2436C33.3284 11.2005 33.3327 11.1574 33.3284 11.1144C33.3284 11.0756 33.3198 11.0369 33.3198 10.9981C33.3198 10.9593 33.3241 10.9206 33.3111 10.8818C33.3068 10.8689 33.3111 10.8517 33.3111 10.8345C33.337 10.757 33.3327 10.6838 33.3111 10.6062C33.2982 10.5675 33.2982 10.5201 33.3111 10.4814C33.3284 10.434 33.3284 10.3823 33.3284 10.3349C33.3284 10.2617 33.3413 10.1928 33.3111 10.1239C33.3111 10.1153 33.3111 10.0981 33.3111 10.0895C33.3241 10.0637 33.3241 10.0378 33.3241 10.0077C33.3241 9.96461 33.3327 9.96031 33.3758 9.95169C33.3973 9.95169 33.4231 9.94739 33.449 9.94739C34.1641 9.94739 34.8791 9.94739 35.5942 9.94739C35.7191 9.94739 35.7234 9.95169 35.7234 10.0809C35.7234 10.2101 35.7234 10.3436 35.7234 10.4771C35.7234 10.5546 35.7148 10.5632 35.6373 10.5632C35.2194 10.5632 34.8016 10.5632 34.3881 10.5632C34.2976 10.5632 34.2028 10.5632 34.1124 10.5632C34.0521 10.5632 34.0521 10.5632 34.0521 10.6321V11.7086C34.0521 11.7775 34.0521 11.7775 34.1253 11.7775H35.465C35.5813 11.7775 35.5813 11.7775 35.5813 11.8938C35.5813 12.0316 35.5813 12.1737 35.5813 12.3115C35.5813 12.3761 35.5554 12.4019 35.4908 12.4105C35.4693 12.4105 35.4477 12.4105 35.4262 12.4105H34.8404C34.6293 12.4105 34.4182 12.4105 34.2071 12.4105C34.1684 12.4105 34.1296 12.4149 34.0908 12.3976C34.0693 12.389 34.0564 12.3976 34.0564 12.4235C34.0564 12.4407 34.0564 12.4536 34.0564 12.4708V13.6163C34.0564 13.6981 34.0736 13.711 34.1511 13.6895C34.1942 13.6766 34.2373 13.6723 34.2804 13.6723C34.4096 13.6723 34.5345 13.668 34.6637 13.6938C34.681 13.6938 34.6982 13.6938 34.7154 13.6938C34.9007 13.6637 35.0902 13.668 35.2754 13.6766C35.3961 13.6809 35.5124 13.6981 35.633 13.6981C35.6416 13.6981 35.6502 13.6981 35.6545 13.6981C35.7191 13.7067 35.7277 13.7153 35.7277 13.7842C35.7277 13.9349 35.7277 14.0814 35.7277 14.2321C35.7277 14.2967 35.7148 14.3096 35.6545 14.3139C35.633 14.3139 35.6071 14.3139 35.5813 14.3139H34.513" fill="white"/>
<path d="M59.5361 12.1263V10.0593C59.5361 9.94739 59.5361 9.94739 59.6524 9.94739C60.1263 9.94739 60.6044 9.94739 61.0783 9.94739H61.802C61.9312 9.94739 61.9441 9.96031 61.9441 10.0895C61.9441 10.2101 61.9441 10.3306 61.9441 10.4555C61.9441 10.5416 61.9269 10.5589 61.8407 10.5589C61.4401 10.5589 61.0438 10.5589 60.6432 10.5589C60.5355 10.5589 60.4321 10.5589 60.3244 10.5589C60.2641 10.5589 60.2598 10.5589 60.2598 10.6235V11.7043C60.2598 11.7689 60.2598 11.7689 60.3287 11.7689H61.677C61.7546 11.7689 61.7933 11.8077 61.7933 11.8852C61.7933 12.023 61.7933 12.1608 61.7933 12.2986C61.7933 12.3675 61.7718 12.3933 61.7029 12.4062C61.6813 12.4062 61.6555 12.4062 61.6297 12.4062C61.354 12.4062 61.0783 12.4062 60.8026 12.4062C60.682 12.4062 60.5657 12.4062 60.445 12.4062C60.3977 12.4062 60.3546 12.4062 60.3115 12.389C60.277 12.3761 60.2641 12.389 60.2641 12.4235C60.2641 12.4364 60.2641 12.4536 60.2641 12.4665V13.6077C60.2641 13.6981 60.2641 13.7024 60.3546 13.6809C60.4278 13.6637 60.501 13.6723 60.5743 13.6852C60.613 13.6895 60.6518 13.6895 60.6949 13.6852C60.7638 13.6723 60.8327 13.6723 60.9017 13.6723C60.9792 13.6723 61.061 13.6723 61.1429 13.6723C61.1946 13.6723 61.242 13.6723 61.2937 13.6809C61.3497 13.6895 61.41 13.6895 61.466 13.6809C61.5995 13.6637 61.7287 13.668 61.858 13.6938C61.9312 13.711 61.9484 13.7239 61.9484 13.8015C61.9484 13.9436 61.9484 14.0857 61.9484 14.2278C61.9484 14.2924 61.9269 14.3139 61.8623 14.3139C61.845 14.3139 61.8278 14.3139 61.8106 14.3139H59.6611C59.5491 14.3139 59.5447 14.3139 59.5447 14.1976C59.5447 13.5043 59.5447 12.8153 59.5447 12.122L59.5361 12.1263Z" fill="white"/>
<path d="M39.2772 11.6785C39.2772 12.2039 39.2772 12.725 39.2772 13.2503C39.2772 13.3537 39.247 13.4527 39.2298 13.5517C39.2126 13.6508 39.1652 13.7455 39.135 13.8403C39.1178 13.8962 39.0747 13.935 39.036 13.9738C38.8594 14.1589 38.6354 14.258 38.3898 14.314C38.2907 14.3355 38.1874 14.3398 38.0883 14.3484C37.972 14.357 37.8514 14.3484 37.7351 14.3484C37.6231 14.3484 37.5154 14.3312 37.412 14.2881C37.3948 14.2795 37.3775 14.2795 37.3603 14.2752C37.2612 14.2537 37.1708 14.2063 37.0846 14.1546C37.0071 14.1116 36.9425 14.0556 36.8821 13.9953C36.8305 13.9393 36.7874 13.8747 36.7572 13.8015C36.7486 13.7757 36.74 13.7498 36.7228 13.724C36.7098 13.7068 36.7055 13.6895 36.7012 13.668C36.6797 13.5345 36.6538 13.3967 36.628 13.2632C36.628 13.246 36.628 13.2288 36.628 13.2116V12.2513C36.628 12.2125 36.628 12.1738 36.6366 12.1393C36.6452 12.1006 36.6668 12.079 36.7055 12.079C36.7228 12.079 36.74 12.079 36.7572 12.079C36.9252 12.079 37.0889 12.079 37.2526 12.079C37.3689 12.079 37.3775 12.0876 37.3775 12.2039C37.3775 12.5656 37.3775 12.9273 37.3775 13.2891C37.3775 13.3321 37.3646 13.3795 37.4077 13.4139C37.4077 13.4139 37.4077 13.4269 37.4077 13.4312C37.4206 13.5431 37.4895 13.612 37.58 13.6637C37.6618 13.7111 37.7523 13.7326 37.8471 13.7412C37.9203 13.7455 37.9892 13.7541 38.0581 13.724C38.0754 13.7154 38.0969 13.7197 38.1184 13.7197C38.2477 13.7283 38.4114 13.6293 38.476 13.4699C38.4975 13.4096 38.5104 13.3494 38.5104 13.2848C38.5104 13.1814 38.5104 13.0824 38.5104 12.979C38.5104 12.8283 38.5234 12.6776 38.5191 12.5269C38.5191 12.4063 38.5147 12.2857 38.5104 12.1651C38.5104 12.023 38.5234 11.8766 38.5191 11.7345C38.5191 11.6183 38.5147 11.502 38.5104 11.39C38.5104 11.2479 38.5234 11.1015 38.5191 10.9594C38.5191 10.8517 38.5104 10.7441 38.5104 10.6364C38.5104 10.434 38.5234 10.236 38.5191 10.0336C38.5191 9.97328 38.5277 9.96467 38.588 9.95605C38.6052 9.95605 38.6181 9.95605 38.6354 9.95605C38.8077 9.95605 38.98 9.95605 39.1523 9.95605C39.26 9.95605 39.2643 9.96467 39.2643 10.0723V11.6915L39.2772 11.6785Z" fill="white"/>
<path d="M48.3965 12.1134V10.0809C48.3965 10.0508 48.3965 10.0206 48.3965 9.99048C48.3965 9.96465 48.4138 9.95173 48.4396 9.94742C48.4612 9.94742 48.487 9.94312 48.5129 9.94312C48.6722 9.94312 48.8316 9.94312 48.991 9.94312C49.0212 9.94312 49.0513 9.94742 49.0815 9.95173C49.1073 9.95173 49.1159 9.96895 49.1202 9.99048C49.1202 10.0163 49.1202 10.0422 49.1202 10.068V13.569C49.1202 13.5991 49.1202 13.6249 49.1202 13.6508C49.1202 13.6852 49.1332 13.6981 49.1633 13.6895C49.2839 13.6637 49.4002 13.6895 49.5208 13.6766C49.6759 13.6594 49.831 13.6723 49.9861 13.6723C50.0205 13.6723 50.055 13.6766 50.0851 13.6809C50.1282 13.6852 50.167 13.6852 50.2101 13.6809C50.3781 13.6594 50.5418 13.668 50.7098 13.6938C50.7744 13.7024 50.783 13.7111 50.7916 13.7757C50.8088 13.8833 50.8002 13.991 50.7916 14.0986C50.7916 14.1374 50.7873 14.1761 50.7873 14.2192C50.7873 14.2924 50.7701 14.3096 50.6968 14.3139C50.6796 14.3139 50.6624 14.3139 50.6451 14.3139H48.5129C48.4052 14.3139 48.4009 14.3139 48.3965 14.2063C48.3965 14.1761 48.3965 14.146 48.3965 14.1158V12.1091" fill="white"/>
<path d="M60.6906 9.62449H60.501C60.501 9.62449 60.4666 9.62449 60.4494 9.61588C60.4106 9.59004 60.4063 9.5642 60.4321 9.52114C60.5743 9.29291 60.7121 9.06468 60.8543 8.83645C60.8586 8.82784 60.8672 8.81922 60.8715 8.81061C60.8974 8.74171 60.9447 8.72449 61.018 8.72449C61.2032 8.72449 61.3927 8.72449 61.578 8.72449C61.5995 8.72449 61.6167 8.72449 61.6383 8.72449C61.6813 8.7331 61.6986 8.76324 61.6727 8.802C61.6641 8.81492 61.6555 8.82353 61.6469 8.83214C61.4444 9.05607 61.2377 9.2843 61.0352 9.50822C61.0137 9.53406 60.9878 9.55989 60.9706 9.58573C60.9533 9.61157 60.9275 9.62018 60.8974 9.62018C60.8327 9.62018 60.7681 9.62018 60.6992 9.62018L60.6906 9.62449Z" fill="white"/>
</g>
<defs>
<clipPath id="clip0_15_83664">
<rect width="83" height="117" fill="white"/>
</clipPath>
</defs>
</svg>
