<svg width="24" height="24" viewBox="0 0 24 24" fill="none" xmlns="http://www.w3.org/2000/svg">
<path fill-rule="evenodd" clip-rule="evenodd" d="M14 20H19C20.105 20 21 19.105 21 18V6C21 4.895 20.105 4 19 4H5C3.895 4 3 4.895 3 6V18C3 19.105 3.895 20 5 20H10L12 22L14 20Z" stroke="#23234A" stroke-width="1.5" stroke-linecap="round" stroke-linejoin="round"/>
<path d="M12.177 11.823C12.275 11.921 12.275 12.079 12.177 12.177C12.079 12.275 11.921 12.275 11.823 12.177C11.725 12.079 11.725 11.921 11.823 11.823C11.921 11.726 12.079 11.726 12.177 11.823" stroke="#23234A" stroke-width="1.5" stroke-linecap="round" stroke-linejoin="round"/>
<path d="M16.177 11.823C16.275 11.921 16.275 12.079 16.177 12.177C16.079 12.275 15.921 12.275 15.823 12.177C15.725 12.079 15.725 11.921 15.823 11.823C15.921 11.726 16.079 11.726 16.177 11.823" stroke="#23234A" stroke-width="1.5" stroke-linecap="round" stroke-linejoin="round"/>
<path d="M8.177 11.823C8.275 11.921 8.275 12.079 8.177 12.177C8.079 12.275 7.921 12.275 7.823 12.177C7.725 12.079 7.725 11.921 7.823 11.823C7.921 11.726 8.079 11.726 8.177 11.823" stroke="#23234A" stroke-width="1.5" stroke-linecap="round" stroke-linejoin="round"/>
</svg>
