<svg width="256" height="159" viewBox="0 0 256 159" fill="none" xmlns="http://www.w3.org/2000/svg">
<path d="M49.5564 164.692C49.3628 164.54 49.1415 164.214 49.1968 163.301C49.2107 163.041 49.2107 162.758 49.1968 162.476V150.546C49.1968 149.72 49.1001 149.068 48.8788 148.46L43.5414 133.662C43.3893 133.206 43.2649 132.815 42.9745 132.532C42.9054 132.467 42.8086 132.424 42.7256 132.424C42.6565 132.424 42.5873 132.445 42.5182 132.489C42.2002 132.728 42.0481 133.141 41.9374 133.445L41.0663 135.509C39.2411 139.768 37.4159 144.027 35.6183 148.308C35.3556 148.938 35.1067 149.134 34.6504 149.134C30.1979 149.112 25.7455 149.09 21.2931 149.068H17.9468C17.4629 149.068 17.3799 148.982 17.3108 148.743C17.2555 148.547 17.2693 148.438 17.5597 147.939L25.2754 133.684C25.5243 133.271 25.7317 132.902 25.7593 132.315C25.7593 132.076 25.7179 131.859 25.6072 131.685C25.4275 131.424 25.1924 131.294 24.9297 131.294H24.6808L23.063 131.337H22.6758C22.0951 131.337 21.6802 131.663 21.3207 132.358L13.9369 146.613C13.7709 146.874 13.5359 147.265 13.5774 147.917C13.5912 148.243 13.7295 148.504 13.923 148.59C14.1858 148.699 14.3794 148.873 14.3379 149.938L14.3102 150.611C14.2687 151.524 14.2411 152.458 14.2411 153.371C14.2411 154.827 14.1996 156.283 14.1581 157.739C14.1028 159.412 14.0613 161.15 14.089 162.867C14.089 163.041 14.089 163.193 14.089 163.367V163.671C14.0752 164.04 14.0337 164.366 13.9784 164.67H-11.9204C-11.9204 164.67 -11.9204 164.605 -11.9343 164.583C-11.9757 164.323 -11.9757 164.279 -11.7822 164.171C-11.6024 164.084 -11.4088 164.062 -11.1599 164.062H10.5492C11.1161 164.062 11.6692 164.062 12.2361 164.062C13.2593 164.062 13.4667 163.779 13.5912 162.215C13.6327 161.78 13.6465 161.476 13.6465 161.172C13.6603 158.043 13.7156 154.827 13.8124 151.589C13.8124 151.415 13.8124 151.241 13.8124 151.068C13.8124 150.068 13.4667 149.525 12.9413 149.481C12.6786 149.481 12.5541 149.481 12.4159 149.416C12.3052 149.373 12.2223 149.308 12.1946 149.199C12.167 149.112 12.1808 148.96 12.2361 148.786C12.2776 148.634 12.3744 148.46 12.4435 148.308L14.7942 143.788C16.9098 139.703 19.0392 135.618 21.1548 131.511C21.4867 130.859 21.8047 130.598 22.3301 130.555C23.4363 130.468 24.5425 130.446 25.6349 130.424H26.7411H26.9623C27.2112 130.424 27.308 130.533 27.3357 130.663C27.3357 130.707 27.3772 130.816 27.2665 131.011C26.9347 131.62 25.3998 134.488 25.3998 134.488L19.1222 146.07C18.9977 146.287 18.9286 146.417 18.8594 146.591C18.735 146.917 18.7073 147.287 18.8041 147.591C18.9009 147.895 19.0945 148.112 19.3572 148.156C19.5232 148.199 19.7167 148.199 19.8827 148.199H21.8323C23.6023 148.199 25.386 148.243 27.1559 148.286C28.995 148.33 30.8202 148.373 32.6592 148.373H33.876C34.6504 148.373 35.162 147.917 35.5906 146.917C37.3329 142.745 39.1028 138.595 40.8727 134.423L42.0757 131.598C42.2555 131.142 42.3661 130.881 42.5044 130.642C42.6288 130.424 42.7256 130.359 42.7671 130.359C42.8086 130.359 42.8915 130.446 42.9883 130.685C43.3064 131.467 43.5829 132.271 43.8733 133.075L45.5879 137.813C46.8324 141.268 48.0768 144.723 49.3351 148.178C49.5979 148.916 49.7085 149.699 49.667 150.698C49.5564 153.284 49.5702 155.892 49.584 158.434C49.584 159.607 49.584 160.759 49.584 161.932C49.584 162.389 49.584 162.845 49.8191 163.193C50.068 163.584 50.4275 163.584 50.7455 163.584H56.9402C58.0464 163.584 58.2677 163.214 58.2677 161.454L58.2953 134.205C58.2953 133.988 58.2953 133.879 58.2953 133.771C58.3368 133.141 58.3368 133.141 58.724 133.119C60.6875 133.054 62.6648 132.989 64.6421 132.923C64.9601 132.923 66.5918 132.923 66.5918 132.923L75.8562 132.728C76.2018 132.728 76.7273 132.554 76.8794 131.381C77.0038 130.272 77.2527 129.273 77.5846 128.382C78.829 125.209 80.516 123.645 82.7699 123.623H83.6548C84.3739 123.623 85.2312 123.623 86.0608 123.819C86.6277 123.927 86.6277 123.949 86.6692 124.753C86.7107 125.926 86.7383 127.1 86.7245 128.273C86.6969 130.989 86.7522 133.727 86.7936 136.378C86.8351 138.356 86.8766 140.355 86.8766 142.332C86.8766 143.093 86.9043 143.832 86.9181 144.592C86.9319 145.244 86.9596 145.896 86.9596 146.57C86.9596 147.895 87.2361 148.308 88.1073 148.33H88.6742C88.8539 148.33 89.0337 148.33 89.2135 148.33C89.974 148.264 90.1399 147.721 90.1814 146.787C90.1814 146.613 90.1814 146.439 90.1814 146.244V139.681C90.1675 133.64 90.1537 127.621 90.1261 121.58C90.1261 120.733 90.1122 119.864 90.0984 119.016C90.0846 117.865 90.0569 116.735 90.0708 115.583C90.0708 114.171 90.1814 114.171 90.6377 114.171C90.7621 114.171 90.8866 114.171 91.0387 114.214C91.6056 114.301 92.1725 114.323 92.7533 114.323C92.7533 114.323 100.801 114.649 104.52 114.823C104.977 114.823 105.447 114.888 105.903 114.953H105.931C106.525 114.953 106.899 114.67 107.244 114.062C107.894 112.932 108.544 111.802 109.194 110.672L113.84 102.632C114.034 102.285 114.227 101.937 114.421 101.589L114.711 101.046C114.794 100.894 114.836 100.677 114.822 100.481C114.822 100.264 114.739 100.09 114.642 99.9595C114.435 99.6987 114.2 99.5901 113.937 99.5901H113.702H111.89C110.812 99.5901 109.733 99.5901 108.655 99.5249C105.765 99.3728 102.875 99.3511 100.165 99.3293C99.4319 99.3293 98.9065 99.6336 98.4364 100.329C97.6344 101.502 96.8324 102.676 96.0165 103.827L94.6753 105.761C93.2511 107.804 91.8268 109.868 90.4164 111.933C90.0708 112.432 89.7113 112.65 89.2411 112.65C87.485 112.65 85.8119 112.78 84.2079 112.91C82.7699 113.019 81.3318 113.128 79.8938 113.171C78.6908 113.171 77.474 113.302 76.271 113.41L74.6946 113.541C71.943 113.758 69.5094 117.126 69.0392 121.363L68.9839 121.885C68.9563 122.145 68.9286 122.406 68.8871 122.667C68.8318 122.971 68.818 123.036 68.5553 123.08H68.2372C66.2876 122.993 64.3379 122.754 62.4574 122.537L61.8351 122.471C61.5171 122.428 61.1991 122.406 60.881 122.406C60.4939 122.406 60.3141 122.232 60.1482 121.82C59.7748 120.885 59.3877 119.973 59.0005 119.06L55.7649 111.281C55.6543 110.998 55.516 110.65 55.2118 110.455C55.1565 110.411 55.0873 110.411 55.032 110.411C54.9629 110.411 54.8799 110.433 54.8246 110.498C54.7002 110.585 54.6172 110.759 54.5757 110.976C54.396 111.933 54.3545 112.845 54.313 113.736C54.2992 114.084 54.2715 114.431 54.2577 114.779C54.0779 117.148 53.9258 119.538 53.7599 121.906L53.5248 125.275C53.5248 125.427 53.4972 125.579 53.4695 125.753L53.428 126.057C53.4004 126.361 53.3174 126.47 53.1238 126.513C52.8749 126.557 52.6261 126.6 52.3772 126.6H50.1509C48.6852 126.6 47.2334 126.6 45.7676 126.665C43.9148 126.73 42.0757 126.752 40.2367 126.774C38.2732 126.774 36.2958 126.817 34.3324 126.904C32.0647 127.013 29.8108 127.013 27.5431 127.035C26.0912 127.035 24.6255 127.056 23.1736 127.1C22.5652 127.1 22.4684 126.969 22.4546 126.948C22.4269 126.904 22.3716 126.687 22.4408 125.731C22.6067 123.514 22.8003 121.32 22.9939 119.103C22.9939 119.103 23.6299 111.672 23.8926 108.782C23.9065 108.521 23.9341 108.282 23.9756 108.021C24.0171 107.717 24.1 107.608 24.3075 107.565L29.3821 106.717L30.516 106.544C31.1659 106.435 31.8158 106.348 32.4657 106.218C33.3783 106.044 33.6133 105.609 33.5995 104.175C33.5165 99.2207 33.4612 94.2663 33.4336 89.312C33.4336 88.8774 33.4059 88.4428 33.3921 88.0082C33.3644 87.5084 33.3368 87.0086 33.3506 86.5089C33.3506 86.1612 33.3506 86.0308 33.3506 85.9222C33.4059 85.2268 33.5304 85.2268 33.6548 85.2268C33.7239 85.2268 33.8069 85.2268 33.9037 85.2703C34.4983 85.4876 35.0929 85.7483 35.6874 85.9874L41.8407 88.5297C42.4214 88.7687 42.4352 88.8122 42.4629 89.7466C42.5044 91.3763 42.532 93.0277 42.5182 94.6575C42.4905 97.0477 42.532 99.4815 42.5873 101.807C42.6288 103.784 42.6703 105.761 42.6703 107.76C42.6703 109.26 42.8915 109.629 43.8456 109.694L45.5188 109.76C46.3622 109.76 46.3622 108.825 46.3761 108.13C46.3761 107.456 46.3761 105.37 46.3761 105.37V104.066C46.3899 103.002 46.4037 101.959 46.3622 100.894C46.3207 99.916 46.5143 99.199 46.9983 98.5253C47.3578 98.0256 47.6897 97.4823 48.0353 96.9391C48.2842 96.548 48.5331 96.1351 48.782 95.7657C49.2107 95.1355 49.4043 94.3967 49.4043 93.4406V85.6179C49.4043 81.7066 49.4043 77.7953 49.3766 73.8839C49.3766 72.8844 49.5287 72.2759 49.9574 71.6675C51.4231 69.538 52.8749 67.3868 54.313 65.2355L56.318 62.2586C56.4839 62.0196 56.7052 61.7153 56.7328 61.1938C56.7605 60.8244 56.8296 60.6506 57.3689 60.4767C58.6963 60.0639 65.5132 57.9126 65.5132 57.9126L70.5049 56.3264C70.7953 56.2395 70.9612 56.1743 71.1133 56.1525H71.1548C71.3484 56.1525 71.4314 56.196 71.459 56.5871C71.4867 56.8913 71.4729 57.1956 71.4729 57.4998V70.7549C71.4729 71.0591 71.4729 71.3416 71.4729 71.6241C71.5005 72.3629 71.8185 72.8626 72.2887 72.8626H72.7035C72.8694 72.8626 73.0492 72.8626 73.2289 72.8409C73.6438 72.7757 74.0724 72.754 74.4872 72.754H75.5243C76.1465 72.7975 76.1604 72.8192 76.1742 73.7753C76.188 75.8179 76.2157 77.8387 76.2433 79.8813C76.2848 83.1625 76.3263 86.4437 76.3263 89.7031C76.3263 90.7461 76.3539 91.7892 76.3954 92.8322L76.4369 94.2446C76.4369 94.5488 76.5752 94.8313 76.7549 94.94C76.8102 94.9617 76.9762 95.0269 77.0315 95.0269C77.3772 95.0269 77.5707 94.6792 77.6537 94.5054L77.9303 94.0708C79.797 91.159 81.6498 88.269 83.4612 85.2703C83.7931 84.727 83.9452 84.1186 83.959 83.3363L83.9867 81.2068C84.0143 78.3602 84.0558 75.5354 84.125 72.6888C84.2356 67.93 84.3324 63.1712 84.3877 58.4342C84.3877 57.8909 84.4706 57.4346 84.6366 57.0217C85.5768 54.6749 86.5586 52.0674 87.5956 49.047C87.969 47.9822 88.4115 47.5693 89.1305 47.5693C89.2549 47.5693 89.3794 47.5693 89.5038 47.6128C90.7621 47.8301 92.0343 48.0039 93.2926 48.1778L95.1316 48.4385L100.856 49.2642C101.312 49.3294 101.755 49.3946 102.211 49.4815C102.515 49.5395 102.672 49.8292 102.681 50.3507L102.709 51.9153C102.764 54.7401 102.806 57.5432 102.833 60.3464C102.847 62.8453 102.903 65.3659 102.944 67.8648C102.972 69.6249 103.013 71.3633 103.041 73.1234C103.069 74.927 103.069 76.7522 103.082 78.5558V81.8804C103.11 83.2059 103.124 84.3576 104.036 84.3576C104.036 84.3576 104.507 84.3359 104.645 84.3359H105.295C105.945 84.3359 106.595 84.3359 107.244 84.3142C108.005 84.2924 108.282 83.8796 108.309 82.6627C108.309 82.3368 108.309 82.0326 108.309 81.7066V13.1061C108.309 9.32516 109.18 6.26128 110.895 3.97967C112.208 2.2413 113.812 1.17655 115.79 0.741955C116.647 0.546388 117.532 0.524658 118.348 0.524658H124.404C124.556 0.546388 124.708 0.546388 124.861 0.568117C125.322 0.59709 125.557 0.988224 125.566 1.74152V13.0409C125.58 14.4751 125.732 14.7793 126.603 15.2139C128.317 16.0614 129.617 17.3869 130.585 19.3208C131.47 21.0592 131.899 22.9496 131.899 25.0792V29.8814C131.885 33.7493 131.871 37.5954 131.913 41.4633C131.982 47.8736 132.009 54.2838 132.023 60.694V67.1043C132.037 67.3868 132.037 67.5389 132.051 67.691C132.12 68.9513 132.41 69.3859 133.24 69.4076C134.471 69.4294 137.679 69.4728 137.679 69.4728C138.176 69.4728 138.688 69.4945 139.186 69.5597C139.186 69.5597 139.366 69.5597 139.379 69.5597C140.237 69.5597 140.292 68.4081 140.32 68.0387L140.734 60.0421L141.246 50.7853C141.315 49.4815 141.384 48.1778 141.426 46.874C141.454 46.1134 141.578 45.5485 141.827 45.0704C141.882 44.9618 142.103 44.4837 142.103 44.4837C142.905 42.9627 143.334 41.1374 143.458 38.7254C143.597 35.9657 143.818 33.2278 144.025 30.4681L144.247 27.5346C144.26 27.3173 144.302 27.0783 144.371 26.8393C144.413 26.7089 144.44 26.6871 144.523 26.6871C144.634 26.6871 144.675 26.7306 144.717 26.9044C144.786 27.2304 144.786 27.6215 144.786 28.0344V31.3808C144.814 34.3794 144.827 37.3781 144.814 40.3768C144.814 41.5068 145.007 42.4194 145.436 43.2017C145.505 43.3321 145.574 43.4842 145.643 43.6363C146.27 44.969 146.611 46.3597 146.666 47.8084L146.736 49.764C146.86 53.1756 146.984 56.5654 147.123 59.977V60.3681C147.289 63.8883 147.427 67.4085 147.538 70.907L147.634 73.9274C147.69 75.6658 147.759 77.4041 147.786 79.1425C147.814 80.4246 148.049 80.7722 148.893 80.8157C149.169 80.8157 149.432 80.8157 149.708 80.8157C150.441 80.8157 151.174 80.7722 151.907 80.7288C152.626 80.6853 153.359 80.6419 154.078 80.6419H154.756C155.986 80.6419 157.231 80.6201 158.461 80.5984C158.793 80.5984 159.056 80.7288 159.332 80.9895L160.784 82.402C163.854 85.3789 166.91 88.3341 170.007 91.2676C170.588 91.8109 170.795 92.3759 170.782 93.4189C170.754 96.7001 170.809 99.9812 170.878 103.262C170.906 105.218 170.947 107.195 170.961 109.173C170.989 113.084 171.058 116.996 171.155 120.907C171.155 121.233 171.155 121.58 171.141 121.928C171.113 122.145 171.072 122.406 170.961 122.406C170.92 122.406 170.851 122.406 170.726 122.298C170.201 121.885 169.675 121.45 169.15 120.994L161.489 114.518C160.964 114.084 160.439 113.627 159.913 113.171L158.655 112.085C158.351 111.824 158.116 111.454 157.936 110.976L153.884 100.438C153.58 99.6553 153.276 98.8513 152.972 98.0473C152.695 97.2868 152.322 96.9174 151.824 96.8956C151.727 96.8956 151.617 96.8739 151.506 96.8304C151.34 96.787 151.188 96.7653 151.022 96.7653H150.51C149.169 96.7653 147.814 96.6783 146.473 96.6131C145.588 96.5697 144.703 96.5045 143.818 96.4828C142.103 96.4176 140.389 96.3307 138.674 96.222L136.158 96.0699C135.826 96.0699 135.494 96.0699 135.148 96.0699H134.927C134.567 96.0699 134.388 95.8526 134.263 95.3094C134.125 94.6792 133.973 94.049 133.807 93.4406C133.572 92.4628 133.323 91.4849 133.129 90.4854C132.867 89.2251 132.397 88.269 131.94 87.3346L131.636 86.7044C130.931 85.2051 130.198 83.7275 129.451 82.2498L128.663 80.6636C128.428 80.1855 128.248 79.8161 127.903 79.8161C127.585 79.8161 127.391 80.1638 127.128 80.5984L118.458 95.6353C118.03 96.3741 117.615 97.1129 117.2 97.8517C116.744 98.6775 116.744 99.1555 117.2 100.003C117.338 100.242 117.477 100.481 117.615 100.72C117.615 100.72 122.289 108.391 123.796 110.89C124.225 111.607 124.653 112.324 125.082 113.041C125.607 113.932 126.119 114.823 126.644 115.67C126.893 116.061 126.935 116.539 126.949 117.191C126.949 117.191 126.99 122.341 126.99 124.471C126.99 125.448 126.99 126.448 126.99 127.426C126.99 128.969 126.99 130.533 126.99 132.076V132.858C127.059 137.834 127.114 142.832 127.142 147.808V148.351C127.142 149.112 127.142 149.612 127.377 150.003C127.612 150.372 127.958 150.372 128.207 150.372C128.207 150.372 130.917 150.329 131.359 150.329H132.673C133.641 150.329 134.595 150.285 135.563 150.242C136.517 150.198 137.471 150.133 138.425 150.133H138.882C140.029 150.133 140.112 149.394 140.126 148.199C140.168 145.657 140.126 143.093 140.085 140.594C140.057 138.79 140.029 136.987 140.029 135.183C140.029 128.491 140.029 121.798 140.015 115.083V106.022C140.006 105.023 140.315 104.515 140.942 104.501L147.759 104.262H148.035C148.395 104.305 148.464 104.392 148.492 104.936C148.519 105.348 148.519 105.783 148.519 106.196V107C148.547 108.26 148.754 108.63 149.57 108.738L150.441 108.847C150.925 108.912 151.409 108.977 151.893 109.064C153.442 109.347 154.548 110.737 155.267 113.302C155.585 114.453 155.793 115.713 155.862 117.039C155.945 118.451 156 119.886 156 121.298C156.014 124.71 156.028 128.121 156.028 131.533V136.291C156.028 136.661 156.028 137.009 156.152 137.4C156.221 137.595 156.346 137.747 156.484 137.769H156.525C156.996 137.769 157.189 137.4 157.286 137.226L157.908 136.226C158.143 135.857 158.364 135.487 158.6 135.14C160.452 132.337 162.872 130.816 165.389 130.816C167.629 130.816 169.758 132.011 171.542 134.249C172.012 134.836 172.468 135.444 172.939 136.031L173.934 137.313C174.155 137.639 174.404 137.986 174.805 137.986C174.985 137.986 175.179 137.813 175.262 137.552C175.414 137.052 175.4 136.574 175.386 136.183V133.184C175.386 123.015 175.386 112.823 175.386 102.654C175.386 101.893 175.414 101.133 175.455 100.372C175.483 99.8074 175.497 99.2424 175.511 98.6557C175.511 98.0908 175.621 98.0908 175.718 98.0908C175.787 98.0908 175.856 98.0908 175.939 98.1342C176.589 98.395 177.225 98.7209 177.861 99.0469L196.611 108.586C197.33 108.956 198.049 109.303 198.768 109.673C199.174 109.89 199.377 110.332 199.377 110.998V115.67C199.377 119.038 199.363 122.406 199.377 125.796C199.391 128.121 199.377 130.468 199.377 132.793C199.377 135.075 199.363 137.335 199.377 139.616C199.377 139.616 199.377 140.55 199.377 140.811C199.404 142.028 199.667 142.441 200.441 142.441H204.009C204.663 142.441 204.995 142.97 205.004 144.027C205.004 146.07 205.018 148.112 205.004 150.133C205.004 151.35 205.032 152.545 205.06 153.74C205.087 154.718 205.115 155.696 205.129 156.696C205.129 156.891 205.129 157.065 205.157 157.261C205.226 157.826 205.488 158.195 205.82 158.217C206.207 158.217 206.484 157.847 206.553 157.304C206.581 157.13 206.581 156.956 206.595 156.761C206.719 154.24 206.719 151.872 206.705 149.568C206.705 148.721 206.705 147.873 206.705 147.026C206.705 145.331 206.719 143.636 206.705 141.941C206.705 140.637 206.443 140.181 205.627 140.051C205.101 139.986 204.576 139.964 204.05 139.942H203.649C203.359 139.92 203.096 139.92 202.875 139.79C202.778 139.746 202.723 139.66 202.695 139.594C202.695 139.529 202.695 139.421 202.751 139.29C202.861 139.008 203.013 138.747 203.193 138.443L206.221 133.445C208.005 130.49 209.789 127.534 211.572 124.579C212.043 123.797 212.513 123.015 212.969 122.211C213.895 120.624 214.836 119.038 215.804 117.517L215.983 117.235C216.219 116.865 216.301 116.865 216.301 116.865C216.301 116.865 216.384 116.865 216.606 117.169C217.38 118.212 218.154 119.299 218.915 120.364C220.491 122.558 227.032 131.793 227.032 131.793L227.17 132.011C227.336 132.293 227.557 132.619 227.889 132.771C227.93 132.771 227.972 132.793 228.027 132.793C228.11 132.793 228.193 132.75 228.262 132.684C228.663 132.315 228.663 131.707 228.663 131.467L228.801 127.274C228.801 127.013 228.829 126.774 228.857 126.513C228.898 126.187 228.954 126.144 229.092 126.144L229.396 126.1C229.645 126.057 229.894 126.035 230.129 126.035H237.582C238.218 126.035 238.232 126.079 238.246 127.035C238.246 128.686 238.246 130.338 238.246 131.967C238.246 131.967 238.246 135.683 238.246 136.639C238.246 138.66 238.259 140.703 238.218 142.723C238.121 146.743 238.135 150.807 238.135 154.74C238.135 156.956 238.135 159.195 238.135 161.433C238.135 162.367 238.135 162.932 238.398 163.367C238.66 163.779 239.02 163.801 239.601 163.801H255.516C255.724 163.801 255.876 163.801 256 163.91V164.649H237.9C237.72 164.453 237.665 164.127 237.679 163.432L237.706 128.643C237.679 127.448 237.499 126.839 236.572 126.839C236.572 126.839 231.913 126.839 230.378 126.839C229.59 126.839 229.272 127.339 229.244 128.577V128.99C229.216 130.272 229.189 131.554 229.106 132.836C229.037 133.836 229.244 134.662 229.728 135.335C230.17 135.966 230.585 136.617 231.014 137.269L231.553 138.117C231.913 138.66 231.844 138.769 231.788 138.877C231.733 138.921 231.691 138.942 231.636 138.942C231.539 138.942 231.443 138.856 231.29 138.66L225.027 129.859L217.892 119.886C217.615 119.494 217.339 119.103 217.062 118.756C216.868 118.517 216.647 118.234 216.357 118.234C216.025 118.234 215.804 118.582 215.624 118.886C214.822 120.168 214.02 121.45 213.218 122.776C212.07 124.688 205.364 135.879 204.742 136.922C204.52 137.248 204.119 137.813 204.368 138.638C204.438 138.877 204.631 139.268 205.074 139.268C205.087 139.268 205.226 139.268 205.24 139.268C205.475 139.268 206 139.268 206 139.268C206.415 139.268 207.037 139.268 207.162 139.464C207.286 139.66 207.272 140.703 207.258 141.072C207.258 141.724 207.231 142.397 207.217 143.049C207.189 143.919 207.175 144.766 207.175 145.635C207.175 148.308 207.175 150.981 207.175 153.653V157.369C207.175 158.528 206.802 159.115 206.055 159.129H205.571C205.447 159.129 205.336 159.129 205.212 159.129C204.742 159.086 204.686 158.999 204.631 158.238C204.603 157.934 204.603 157.608 204.603 157.282V155.305C204.576 153.067 204.576 150.85 204.576 148.612C204.576 147.721 204.534 146.83 204.507 145.918L204.465 144.766C204.424 143.571 204.147 143.158 203.387 143.136H199.377C199.003 143.093 198.976 143.071 198.962 142.463C198.948 142.072 198.948 141.68 198.962 141.289V112.628C198.962 110.716 198.81 110.411 197.676 109.868C195.339 108.738 193.044 107.543 190.735 106.348L188.647 105.262C185.909 103.849 183.171 102.48 180.419 101.089L177.308 99.5249C177.17 99.4597 177.032 99.3945 176.893 99.3293C176.852 99.3293 176.714 99.2859 176.672 99.2859C176.34 99.2859 176.008 99.6336 175.967 100.394C175.967 100.698 175.967 100.981 175.967 101.285L175.925 138.464C175.925 139.16 175.925 139.573 175.87 139.92C175.856 140.007 175.801 140.246 175.704 140.246C175.676 140.246 175.621 140.246 175.538 140.159C175.345 139.986 175.165 139.746 174.985 139.507L173.768 137.899C173.008 136.878 172.247 135.879 171.459 134.923C169.565 132.619 167.574 131.446 165.499 131.446C164.048 131.446 162.554 132.011 161.047 133.162C160.383 133.662 159.747 134.379 159.125 135.357L156.456 139.529C156.277 139.812 156.138 140.029 155.972 140.203C155.917 140.268 155.862 140.29 155.82 140.29C155.71 140.29 155.654 140.116 155.64 140.007C155.599 139.812 155.599 139.551 155.599 139.29V137.704C155.599 136.77 155.613 135.857 155.599 134.923C155.516 131.533 155.502 128.078 155.488 124.731C155.488 122.971 155.488 121.189 155.461 119.429C155.447 117.734 155.309 116.126 155.046 114.649C154.949 114.106 154.825 113.562 154.686 113.041C154.106 110.976 153.041 109.846 151.534 109.694C150.538 109.586 149.529 109.477 148.533 109.325C148.215 109.282 148.132 109.216 148.105 109.195C148.105 109.151 148.063 108.999 148.022 108.478C147.98 107.826 147.952 107.174 147.939 106.522C147.911 105.587 147.538 105.023 146.971 105.023C146.348 105.023 145.754 105.023 145.145 105.023C144.15 105.023 143.154 105.023 142.145 105.109L141.467 105.196C140.652 105.283 140.416 105.674 140.416 106.956C140.416 108.803 140.416 114.562 140.416 114.562V115.149C140.416 115.735 140.416 116.322 140.416 116.909C140.527 125.144 140.541 133.532 140.541 141.659V147.634C140.541 148.004 140.569 148.351 140.596 148.721C140.61 148.96 140.624 149.221 140.624 149.46C140.638 150.264 140.582 150.524 140.527 150.633C140.472 150.72 140.292 150.85 139.794 150.85C138.66 150.85 135.895 150.85 135.895 150.85C134.706 150.85 133.6 150.916 132.493 150.959C131.387 151.002 130.295 151.068 129.189 151.068H127.474C126.672 151.068 126.672 151.046 126.658 150.046C126.644 147.33 126.617 144.592 126.589 141.876C126.548 138.095 126.506 134.314 126.492 130.533C126.492 128.708 126.465 126.883 126.437 125.057C126.409 122.493 126.368 119.929 126.395 117.365C126.395 116.322 126.077 115.648 125.829 115.235C123.92 112.106 122.012 108.977 120.118 105.848C119.565 104.936 119.025 104.001 118.472 103.089C118.002 102.285 117.518 101.481 117.048 100.677C116.785 100.242 116.578 99.8943 116.26 99.8943C115.942 99.8943 115.748 100.22 115.472 100.677C112.609 105.501 109.761 110.477 107.327 114.757C106.954 115.409 106.595 115.67 106.055 115.67C104.175 115.67 102.363 115.561 100.538 115.453L98.2013 115.322C97.5514 115.279 96.9015 115.279 96.2378 115.257C95.3252 115.235 94.4126 115.192 93.4861 115.149L92.7118 115.083C92.3661 115.062 92.0204 115.018 91.6609 114.996H91.4535C90.4994 114.996 90.4303 115.844 90.4303 116.865V120.212C90.4303 123.21 90.4164 126.231 90.4579 129.229C90.5271 134.032 90.5271 138.812 90.5409 143.614V147.808C90.5409 148.134 90.5547 148.265 90.5409 148.373C90.5132 148.96 90.4441 148.96 90.2229 148.96C89.573 148.982 88.9093 149.003 88.2594 149.003C87.7063 149.003 87.1532 149.003 86.6001 149.003C86.3927 149.003 86.3788 149.003 86.3097 148.569C86.2406 148.199 86.2406 147.808 86.2406 147.417C86.2544 144.375 86.2129 141.354 86.1576 138.334C86.1023 135.553 86.0608 132.771 86.0608 130.012C86.0608 129.381 86.0331 128.751 86.0055 128.121C85.9778 127.469 85.9502 126.796 85.964 126.122C85.964 125.926 85.964 125.318 85.7151 124.905C85.6045 124.731 85.4109 124.536 85.1067 124.536C84.6919 124.536 84.3047 124.471 83.9175 124.427C83.5027 124.362 83.0879 124.318 82.6731 124.318C82.3136 124.318 81.9541 124.362 81.5945 124.471C79.1471 125.231 77.3495 128.338 77.1144 132.228C77.0591 133.126 76.7411 133.575 76.1604 133.575H72.8694C71.9845 133.575 71.1133 133.575 70.2284 133.619C66.7577 133.749 63.2732 133.793 59.8025 133.836C58.8622 133.836 58.6686 134.292 58.6133 135.618C58.4889 138.117 58.5027 140.616 58.5165 143.049C58.5165 144.071 58.5165 145.092 58.5165 146.113C58.5027 149.938 58.5165 153.762 58.5165 157.587V162.28C58.5165 162.693 58.5165 162.91 58.5165 163.106C58.5857 163.997 58.4198 164.431 57.8943 164.627H49.266L49.5564 164.692ZM34.761 86.5523C34.0558 86.5523 34.042 87.5953 34.042 88.3559C34.0143 91.0503 34.0558 93.7231 34.1111 96.3089C34.1526 98.5254 34.1941 100.764 34.1941 102.98C34.1941 103.415 34.2079 103.849 34.2356 104.284C34.2632 104.783 34.2909 105.283 34.2632 105.783C34.2356 106.435 34.0189 106.797 33.6133 106.87L30.4054 107.413C28.9396 107.652 27.4601 107.891 25.9944 108.152L25.787 108.195C24.7776 108.369 24.5425 108.564 24.4181 110.064L24.3766 110.564C24.0862 113.736 23.8235 116.93 23.5608 120.103L23.2013 124.471C23.1598 125.014 23.1045 125.557 23.3395 125.97C23.5746 126.404 23.9341 126.404 24.2798 126.426H24.6946C25.2201 126.426 25.7593 126.404 26.2848 126.361C26.6443 126.339 26.99 126.318 27.3357 126.296C28.912 126.231 30.5022 126.209 32.0785 126.209C33.7516 126.209 35.4247 126.187 37.084 126.1C39.0337 126.013 40.9833 125.992 42.9468 125.992C44.9657 125.97 46.9845 125.948 49.0033 125.861C49.584 125.84 50.1648 125.84 50.7317 125.84C51.2018 125.84 51.6858 125.84 52.1559 125.818C52.9164 125.796 53.1792 125.405 53.2483 124.232C53.2483 124.232 53.2898 123.275 53.3036 123.08L54.2577 109.542C54.2992 108.956 54.3407 108.369 54.3821 107.804C54.4236 107.348 54.5342 107.304 54.6034 107.282C54.7002 107.282 54.7831 107.391 54.8799 107.608C55.0597 107.999 55.2256 108.412 55.3915 108.825L56.4424 111.346C57.7007 114.366 58.959 117.387 60.2173 120.407C60.4524 120.972 60.8672 121.754 61.6692 121.82C62.9552 121.928 67.2417 122.298 67.2417 122.298H67.6427C68.1958 122.298 68.5829 121.82 68.7074 120.972C68.7765 120.516 68.8595 120.081 68.9563 119.647C69.3711 117.886 69.9933 116.474 70.8644 115.322C72.0536 113.736 73.4917 112.889 75.1371 112.802C77.3633 112.693 79.5757 112.541 81.8019 112.367C84.0558 112.193 86.3235 112.063 88.5774 111.954L89.2549 111.911C89.7112 111.889 90.0846 111.65 90.4164 111.194L93.1266 107.304C94.9104 104.762 96.6803 102.198 98.4364 99.6118C98.9341 98.873 99.4043 98.5688 100.027 98.5688C102.211 98.6775 104.299 98.7209 106.387 98.7644C106.387 98.7644 110.466 98.8296 110.895 98.8513C112.347 98.8948 113.799 98.9382 115.264 99.0251C115.873 99.0251 116.288 98.7426 116.633 98.1125C117.601 96.3958 118.597 94.7009 119.579 92.9843L127.598 79.0773C127.764 78.7948 127.889 78.5993 128.013 78.4689C128.124 78.3602 128.165 78.3385 128.165 78.3385C128.165 78.3385 128.207 78.3385 128.317 78.4906C128.497 78.7514 128.649 79.0556 128.801 79.3381L133.199 88.1603C133.378 88.5297 133.53 88.986 133.669 89.6162C133.821 90.3115 134.484 93.1581 134.65 93.8969C134.844 94.7879 135.245 95.2442 135.853 95.2442C136.102 95.2442 136.351 95.2876 136.6 95.3094C136.863 95.3311 137.126 95.3746 137.388 95.3746C139.02 95.418 140.652 95.5049 142.283 95.5919C143.611 95.657 144.938 95.744 146.265 95.7874C146.971 95.8091 147.662 95.8526 148.367 95.8961C149.418 95.9613 150.469 96.0264 151.52 96.0264H152.211C152.778 96.0264 153.082 96.3089 153.387 97.1564C154.355 99.7639 155.336 102.328 156.318 104.914C156.954 106.587 157.604 108.282 158.24 109.955C158.572 110.824 159.001 111.454 159.554 111.867C160.923 112.91 162.278 114.106 163.591 115.235C164.352 115.909 165.112 116.561 165.873 117.213C166.523 117.756 169.426 120.233 169.426 120.233C169.731 120.494 169.924 120.624 170.132 120.624C170.795 120.624 170.809 119.473 170.809 118.908C170.809 118.408 170.809 117.886 170.809 117.387C170.809 117.387 170.726 114.345 170.712 113.606C170.685 112.237 170.671 110.868 170.671 109.499C170.671 107.695 170.643 105.913 170.602 104.11C170.546 102.393 170.546 100.677 170.533 98.9599C170.533 97.3954 170.505 95.8526 170.477 94.2881C170.45 92.8974 170.132 92.0282 169.44 91.3763C166.343 88.4211 163.246 85.4224 160.162 82.4237L159.581 81.8587C159.208 81.4893 158.821 81.3155 158.406 81.3155L157.867 81.3589C157.341 81.4024 156.816 81.4459 156.29 81.4459C156.29 81.4459 151.16 81.511 150.096 81.5328C149.791 81.5328 149.473 81.5762 149.169 81.598C148.851 81.6197 148.533 81.6631 148.201 81.6631C147.621 81.6631 147.565 81.5762 147.538 80.7505L147.233 70.2985C147.192 69.0382 147.164 67.7562 147.095 66.4959C146.929 63.3885 146.819 60.2594 146.722 57.1521L146.584 53.4581L146.321 46.6132C146.307 46.1786 146.265 45.7223 146.058 45.3095L144.869 42.7671C144.648 42.289 144.399 42.1804 144.233 42.1804C143.984 42.1804 143.749 42.3977 143.569 42.854L143.348 43.3972C143.182 43.8101 143.002 44.2447 142.795 44.6358C142.352 45.4833 142.117 46.4829 142.062 47.7866C141.951 50.3725 141.827 52.9583 141.675 55.5441C141.495 58.7384 141.329 61.9326 141.163 65.1269L140.956 69.2338C140.9 70.3637 140.859 70.3637 140.223 70.3637H138.398C136.904 70.342 135.425 70.3203 133.931 70.2985C133.364 70.2985 132.784 70.2116 132.217 70.1464C131.871 70.103 131.857 70.103 131.816 69.6032C131.802 69.4511 131.802 69.2773 131.802 69.1251C131.802 66.5393 131.774 63.9969 131.747 61.4546L131.719 58.1951C131.678 53.3712 131.678 48.5472 131.664 43.7449C131.664 37.552 131.65 31.3373 131.567 25.1443C131.525 22.2326 130.779 19.864 129.258 17.9518C128.649 17.1696 127.889 16.5829 126.879 16.1048C126.7 16.0179 126.589 15.9744 126.478 15.9744C126.064 15.9744 125.829 16.409 125.801 17.2565C125.801 17.4738 125.801 17.6911 125.801 17.9084C125.829 20.8853 125.842 23.6885 125.856 26.5133C125.898 34.4229 125.898 42.3325 125.898 50.2421V58.4993C125.898 58.8036 125.898 59.086 125.842 59.3033C125.801 59.4772 125.759 59.5206 125.663 59.5206C125.552 59.5206 125.51 59.4772 125.469 59.3685C125.4 59.173 125.372 58.9122 125.345 58.608C125.345 58.608 121.514 18.7341 121.279 16.1265C121.21 15.366 121.21 15.3443 121.708 15.0835C122.538 14.6272 123.409 14.562 124.142 14.562C125.096 14.562 125.345 14.1491 125.345 12.6498C125.345 10.1074 125.317 3.08876 125.317 3.08876C125.262 1.95881 124.985 1.52422 124.252 1.4373C123.865 1.4373 123.602 1.4373 123.34 1.4373C122.579 1.4373 121.819 1.39384 121.044 1.32866C120.27 1.2852 119.496 1.22001 118.707 1.22001C118.458 1.22001 118.196 1.22001 117.947 1.22001C116.26 1.30693 114.822 1.74152 113.564 2.54552C111.061 4.15351 109.581 7.02182 109.139 11.0853C109.028 12.15 109.028 13.193 109.042 14.2143V83.9882C109.056 85.0095 109.028 85.0747 108.378 85.0964L107.784 85.1399C107.535 85.1616 107.286 85.1833 107.051 85.1833H106.595C105.682 85.2268 104.756 85.2485 103.843 85.2485H103.29C102.972 85.2485 102.944 85.2268 102.889 84.6401C102.889 84.488 102.875 84.3576 102.875 84.2272L102.847 81.6631C102.833 80.229 102.82 78.7731 102.778 77.3389C102.723 75.3833 102.709 73.4276 102.681 71.4502C102.681 70.3637 102.668 69.2555 102.654 68.169C102.585 63.3233 102.529 58.4559 102.474 53.6102V52.0022C102.432 50.7201 102.28 50.3073 101.395 50.1552C99.6947 49.8944 98.0077 49.6337 96.3069 49.3946C95.422 49.2642 91.813 48.8079 91.813 48.8079L91.1355 48.6993C90.776 48.6341 90.4164 48.5689 90.0569 48.5472C89.1167 48.5472 89.089 49.5902 89.0613 49.9813C89.0613 50.1552 89.0613 50.329 89.0613 50.5028C89.172 52.741 89.172 55.0226 89.1581 57.239C89.1581 58.1082 89.1581 60.8027 89.1581 60.8027C89.1581 61.7588 89.1581 62.7149 89.1996 63.6927C89.2688 65.9092 89.2688 68.1038 89.2826 70.3203C89.2826 71.385 89.2826 72.4281 89.2964 73.4928C89.2964 73.7753 89.2688 74.2316 89.0475 74.2316C89.0475 74.2316 88.8816 74.2316 88.8263 73.4928C88.688 71.9717 88.6742 70.4072 88.6604 68.8861V67.9083C88.6189 65.8657 88.5497 63.8014 88.4806 61.7588C88.3976 59.1295 88.3147 56.5219 88.3008 53.8927C88.3008 53.4363 88.3285 52.7627 87.8584 52.1978C87.7754 52.0891 87.6648 52.0456 87.568 52.0456C87.5403 52.0456 87.4989 52.0456 87.4712 52.0456C87.3329 52.0891 87.2223 52.2195 87.1532 52.3933L86.7522 53.4363C86.2544 54.7618 85.7566 56.0656 85.2726 57.3477C85.1482 57.6954 85.1205 58.0648 85.1067 58.3907L85.079 58.9991C85.0376 60.0422 84.9961 61.0634 84.9961 62.1065C84.9684 64.4967 84.9408 66.8653 84.8716 69.2555C84.7334 74.123 84.6642 78.9687 84.5951 83.8361C84.5951 84.6184 84.443 85.1182 84.1111 85.6397C82.4104 88.269 80.7372 90.92 79.0503 93.571L76.8794 96.9825C76.7273 97.2216 76.6167 97.3954 76.4922 97.5475C76.3954 97.6562 76.3401 97.6562 76.3263 97.6562C76.2433 97.6562 76.188 97.4606 76.1604 97.3954C76.0912 97.1564 76.0774 96.8739 76.0774 96.4828C76.105 93.1364 76.0636 89.7466 76.0083 86.4871C75.9668 83.6623 75.9253 80.8374 75.9253 77.9908C75.9253 77.0999 75.9253 76.209 75.9253 75.3181C75.9115 74.036 75.6349 73.6232 74.8191 73.6014H72.1227C71.5143 73.6014 71.2101 73.1234 71.2101 72.1673V59.3903C71.2101 58.3907 71.2101 57.2608 70.4081 57.2608C70.256 57.2608 70.021 57.3259 69.7029 57.4346C65.9419 58.6297 62.1808 59.8466 58.4336 61.0417C57.6039 61.3025 57.3827 61.7153 57.3827 63.0408C57.3965 70.0161 57.3412 76.9913 57.2997 83.9665L57.2582 90.3767C57.2582 92.2237 57.2582 94.0925 57.2582 95.9395V99.3728C57.2582 99.6988 57.2582 99.9812 57.2168 100.242C57.1891 100.438 57.0785 100.546 57.0094 100.546C56.8849 100.546 56.8434 100.329 56.8434 100.242C56.7743 99.7422 56.7328 99.2207 56.719 98.7209C56.7051 95.983 56.6775 93.245 56.6498 90.4854L56.6222 87.3129C56.6084 85.2051 56.5669 83.0756 56.5392 80.9678C56.4839 77.0347 56.4286 73.1017 56.4286 69.1686C56.4286 68.2125 56.4286 67.2564 56.4148 66.3003C56.4148 65.9309 56.4563 65.3442 56.0829 64.9096C55.9999 64.8009 55.8893 64.7575 55.7925 64.7575C55.7096 64.7575 55.6128 64.8009 55.5436 64.8661C55.1565 65.2355 54.8523 65.7136 54.5481 66.1699L53.3727 67.9517C52.5431 69.2338 51.6996 70.4941 50.8561 71.7327C50.3445 72.4715 50.1233 73.2972 50.1233 74.4054C50.1233 77.6649 50.1233 80.9243 50.1233 84.1621C50.1233 87.3998 50.1233 90.681 50.1233 93.9404C50.1233 94.7661 49.985 95.2876 49.6393 95.8091C49.3351 96.2437 49.0586 96.7001 48.7682 97.1564C48.464 97.6562 48.146 98.1559 47.8279 98.6123C47.261 99.4163 46.9983 100.372 47.0259 101.589C47.0674 103.871 47.0536 106.152 47.0398 108.434V109.694C47.0398 110.585 46.9845 110.607 46.4728 110.607H46.2101C45.1316 110.607 44.0669 110.607 43.0022 110.52C42.4767 110.498 42.4352 110.368 42.4491 109.651C42.4491 108.717 42.4214 107.782 42.3938 106.87C42.3661 106 42.3384 105.153 42.3384 104.284C42.3384 101.524 42.297 98.7644 42.2555 96.0047C42.2278 94.375 42.2002 92.7235 42.1863 91.0721C42.1863 89.7031 41.9928 89.3554 41.1216 89.0078L35.5215 86.7044C35.2311 86.574 35.0376 86.5089 34.8578 86.5089M124.086 15.366C123.727 15.366 123.381 15.366 123.022 15.4095C122.662 15.4529 122.247 15.5398 121.998 16.0179C121.749 16.4959 121.777 17.1478 121.832 17.7563C122.012 19.7337 122.206 21.7111 122.399 23.7102L124.252 42.7671C124.28 43.0061 124.377 43.2234 124.515 43.3321C124.584 43.3755 124.653 43.419 124.736 43.419C124.819 43.419 124.888 43.3972 124.971 43.3321C125.123 43.2017 125.289 42.8757 125.289 42.615V17.2565C125.289 17.2565 125.289 16.8436 125.289 16.8219C125.289 15.931 124.916 15.3443 124.363 15.3443H124.114L124.086 15.366Z" fill="#23234A"/>
</svg>
