<svg width="208" height="173" viewBox="0 0 208 173" fill="none" xmlns="http://www.w3.org/2000/svg">
<g clip-path="url(#clip0_15_83808)">
<path d="M-8.5728 173C-8.70417 173 -8.85197 172.934 -8.91766 172.819C-9.04903 172.621 -8.98334 172.357 -8.8027 172.225C2.49562 164.774 3.46451 154.571 4.33488 145.554C4.95891 138.977 5.50084 133.306 9.91835 129.96C14.3523 126.581 22.3005 126.07 34.9454 128.361C43.1236 129.845 44.4373 129.367 44.6344 129.202C44.4209 128.328 39.363 125.411 25.7327 119.921C24.9445 119.608 23.8935 119.081 23.9756 118.24C24.1069 116.756 27.8511 115.899 33.993 114.663C36.2264 114.201 38.9524 113.657 39.8063 113.262C39.133 113.015 36.9653 112.602 30.5115 112.19C2.20002 109.306 2.28213 108.069 2.3314 107.344C2.36424 106.866 2.39709 106.207 9.27789 105.877C13.3013 105.679 17.8994 105.696 20.8554 105.762C22.6946 105.811 29.8218 105.795 36.5055 105.498C48.2965 104.97 49.7252 103.981 49.9059 103.734C49.8566 103.652 49.5774 103.338 48.1816 102.844C46.8514 102.382 45.2913 102.696 43.14 103.108C39.6914 103.784 34.4856 104.806 26.0447 103.338C22.6782 102.761 19.5252 102.366 16.7335 102.036C10.3453 101.261 5.71432 100.701 4.25277 98.3932C3.678 97.4866 3.61231 96.3657 4.0557 94.9975C4.95891 92.2282 6.73249 89.9534 8.60459 87.5632C10.9858 84.5137 13.6626 81.0685 15.0092 75.909C14.303 75.7277 13.7939 75.398 13.4983 74.8705C11.8726 71.9363 4.46625 54.9248 6.25625 51.2818C7.35652 49.04 10.5424 46.93 13.7118 45.4135C13.5312 45.3476 13.3505 45.2652 13.1699 45.1827C12.825 45.0509 12.4966 44.9025 12.1517 44.7542C10.1154 43.9135 7.70138 43.5508 5.45157 43.4519C3.05396 45.7432 0.919107 46.5509 -1.29786 45.4465C-2.38171 44.9025 -2.31602 44.3256 -2.18465 44.0289C-1.72483 42.9904 1.5103 42.4464 5.09029 42.5783C6.58469 41.0947 8.39111 38.8364 10.6409 35.5561C15.3048 28.7482 24.2219 22.4183 31.0863 23.6051C34.1736 24.1491 38.0492 25.5667 40.923 27.0173C39.3958 23.2425 38.197 17.6214 38.6897 14.0279C39.0838 11.1267 41.4485 7.40132 44.7165 4.5331C48.4115 1.30223 52.6483 -0.329692 56.3269 0.0494406C61.9103 0.642866 70.4005 6.03315 74.506 11.6048C76.3781 14.1433 77.1663 16.5005 76.7886 18.4291C76.3945 20.5061 74.9822 21.9567 73.143 22.9952C73.1101 23.7865 73.0609 24.6436 72.9952 25.5008C73.9969 25.1217 74.8344 24.7096 75.4092 24.3634C75.4913 23.7205 75.6391 23.3249 75.9018 23.1271C76.0661 22.9952 76.2796 22.9623 76.493 23.0117C76.9693 23.1436 77.1171 23.4733 77.0842 23.737C77.0514 24.0502 76.7394 24.4293 76.1974 24.825C76.1318 25.5503 76.1153 26.5228 76.1153 27.3635C76.0661 30.7592 75.984 35.3912 74.1611 38.0122C72.601 40.2705 69.9571 42.1167 67.1161 43.2211C65.9666 45.2157 64.7185 46.7817 63.4211 47.4081C61.7789 48.1828 58.1497 47.1443 53.9457 45.941C52.714 45.5948 51.4331 45.2157 50.185 44.9025C50.4314 45.941 50.4971 46.996 50.4478 48.051C54.1427 48.2817 58.2646 51.1664 61.4012 53.6555C66.1636 57.4633 68.0029 64.1888 70.5647 78.8267C70.6632 79.3377 70.7289 79.8487 70.811 80.3267C71.5336 81.052 72.2726 82.1564 72.8309 83.2774C72.9131 83.4587 72.9787 83.6565 73.028 83.8543C75.7212 85.8653 79.4654 88.3544 81.9287 90.0028C85.3938 92.3106 86.5433 93.0854 86.7404 93.415C86.8717 93.6293 86.9703 94.0249 86.5597 95.3107C85.8207 97.6185 83.3738 102.745 80.3194 104.904C81.3375 105.514 82.3064 106.124 83.1768 106.701C84.819 106.24 86.9703 105.267 88.6617 103.8C90.3203 102.349 91.1579 100.767 91.125 99.102C91.1086 98.0141 90.928 96.9756 90.6816 96.0525C89.6306 95.2283 88.8916 94.1568 88.4154 92.8216C88.1034 91.9644 88.087 91.5029 88.3497 91.2556C88.5139 91.1073 88.7274 91.0743 88.9573 91.1732C89.5485 91.4205 90.7309 93.1678 91.4206 95.5744C92.9479 96.6624 95.1484 97.2064 98.1536 97.2723C104.542 97.4042 107.695 98.0635 108.352 99.4152C108.516 99.7614 108.614 100.338 108.072 101.08C108.04 101.13 107.99 101.163 107.941 101.196C107.81 101.278 106.381 102.102 104.378 102.877C105.461 103.586 107.021 104.624 108.976 105.91C109.715 105.762 110.404 105.58 110.93 105.366C111.62 105.086 112.26 104.608 112.835 104.196C113.689 103.553 114.428 103.009 115.2 103.24C115.725 103.404 116.136 103.915 116.481 104.855C116.875 105.959 116.579 107.525 115.643 109.24C115.512 109.487 115.364 109.734 115.2 109.982C133.609 121.998 166.518 143.114 172.2 144.417C179.475 146.082 188.442 138.252 193.795 133.587C194.239 133.208 194.633 132.845 195.027 132.515C195.503 132.103 195.963 131.707 196.439 131.295C199.773 128.378 202.909 125.625 205.225 126.284C206.259 126.581 206.999 127.488 207.475 129.054C209.363 135.202 206.654 138.12 199.51 143.757C192.301 149.461 176.306 151.043 173.99 150.582C172.315 150.252 133.198 125.641 112.884 112.8C110.864 114.795 108.155 116.542 105.067 117.251C98.2029 118.817 88.9245 114.614 85.8043 110.097C85.2952 109.355 84.3099 108.514 83.029 107.624C82.1094 107.855 81.3375 107.921 80.8449 107.855C80.1716 107.74 78.7757 107.047 76.4766 105.844C73.8163 105.663 70.3676 104.657 68.6598 104.113C64.9484 102.943 60.5473 101.113 59.2664 99.9098C58.9051 99.5636 58.7737 99.2174 58.8723 98.9042C59.0365 98.4427 59.5948 98.3438 60.0054 98.2943C63.3883 97.9811 70.5154 101.739 75.7048 104.476C76.0497 104.657 76.3781 104.838 76.7065 105.003C77.4784 105.053 78.1188 105.003 78.5786 104.871C77.659 104.344 76.723 103.8 75.7869 103.272C69.8421 99.9098 66.2129 97.7503 66.607 96.069C66.7877 95.2777 67.2639 94.6843 67.8222 94.0085C68.6269 93.0359 69.6451 91.7831 70.1377 89.2116C67.231 92.0469 62.8792 94.7503 60.4159 95.7393C55.4893 97.7009 53.3545 94.7667 51.5645 91.6018C51.351 91.2227 51.0554 90.6952 50.6941 90.0523C50.5299 89.7721 50.3657 89.4754 50.2015 89.1622C49.9551 91.6842 49.1833 93.5304 47.8695 94.6678C49.2654 95.2777 50.2836 96.003 50.7598 96.7778C51.5973 98.1295 53.765 102.053 53.6172 105.992C55.1116 105.531 56.5568 105.547 57.7556 106.388C58.4289 106.866 59.6113 107.608 61.1221 108.564C65.0798 111.069 71.0574 114.828 76.5423 119.196C78.9892 121.158 79.876 123.268 79.1534 125.509C76.5095 133.719 52.4677 140.428 51.4331 140.477C51.2032 140.477 51.0061 140.312 50.9897 140.081C50.9897 139.851 51.1539 139.653 51.3838 139.636C52.402 139.57 75.9183 132.944 78.3487 125.229C78.9399 123.35 78.1681 121.603 76.0004 119.872C70.5647 115.537 64.6035 111.778 60.6623 109.289C59.1514 108.333 57.9526 107.575 57.2629 107.08C56.2776 106.388 54.9803 106.421 53.5351 106.932C53.4202 107.806 53.1574 108.679 52.7304 109.503C51.3182 112.289 46.5886 114.63 44.8315 114.63C44.7986 114.63 44.7822 114.63 44.7494 114.63C44.2074 114.614 43.994 114.35 43.9118 114.152C43.7476 113.74 43.9611 113.229 44.6344 112.52C45.9646 111.102 49.3804 107.723 52.7304 106.306C52.9604 103.24 51.6466 99.7944 50.0372 97.2064C49.5938 96.4811 48.5264 95.7887 47.0484 95.2283C46.9827 95.2613 46.9335 95.2942 46.8678 95.3272C42.516 97.635 29.247 99.9922 27.8676 97.7833C27.2764 96.8272 28.6066 95.8382 29.05 95.5085C31.4476 93.7282 36.7683 92.1128 43.8626 93.481C44.9957 93.6953 46.0467 93.9755 46.9499 94.3052C48.51 93.1843 49.3475 91.0084 49.4132 87.794C46.3587 82.3542 41.3172 73.2551 38.9852 68.0791C37.9342 65.7383 37.6222 62.4086 37.8193 58.9139C37.1624 58.2381 36.3906 57.3809 35.5202 56.3919C33.3197 53.9028 30.5936 50.8203 28.9678 50.8862C21.2002 51.2489 20.1 54.249 20.0179 56.804C19.9686 58.0238 19.788 59.1942 19.6237 60.3151C19.0161 64.2383 18.4578 67.9472 23.9756 73.7331C24.1069 73.865 24.2383 73.9968 24.3697 74.1287C28.508 73.4034 32.5971 72.8265 34.732 74.1452C36.1278 75.0024 36.2428 75.942 36.1935 76.42C36.095 77.2607 35.356 78.0025 34.2065 78.3981C31.7596 79.2223 27.769 78.464 24.1069 75.0353C23.8606 75.0848 23.6143 75.1178 23.3679 75.1672C20.4284 75.6947 17.7352 76.1727 15.8795 75.9914C14.5001 81.3652 11.7412 84.9093 9.29432 88.0248C7.47148 90.3655 5.74717 92.5743 4.89322 95.2118C4.53194 96.3327 4.56479 97.2064 4.99176 97.8822C6.23983 99.8438 10.6902 100.388 16.8648 101.13C19.6566 101.476 22.826 101.855 26.209 102.432C34.502 103.866 39.4122 102.91 43.0086 102.201C45.2913 101.756 46.9499 101.426 48.4771 101.97C49.6924 102.399 50.924 102.943 50.7598 103.8C50.6448 104.393 50.4314 105.63 36.8504 106.256C30.0681 106.569 22.7603 106.586 20.8718 106.536C12.9893 106.355 4.92607 106.734 3.3824 107.344C4.38414 107.872 9.2122 109.108 30.6265 111.284C34.1408 111.515 36.6533 111.745 38.2955 112.009C40.2005 112.306 40.8574 112.586 40.8902 113.146C40.9395 113.987 39.5929 114.35 34.2065 115.438C31.9402 115.899 29.6083 116.361 27.769 116.888C24.9773 117.68 24.8459 118.207 24.8459 118.256C24.8459 118.256 24.8459 118.57 26.0776 119.064C46.1288 127.141 45.669 128.707 45.4883 129.383C45.2584 130.158 44.2403 130.834 34.8305 129.136C22.4483 126.894 14.7136 127.356 10.4767 130.57C6.35478 133.702 5.82928 139.208 5.22166 145.571C4.33488 154.769 3.34956 165.187 -8.29362 172.868C-8.35931 172.918 -8.44142 172.934 -8.52353 172.934M113.442 112.157C136.45 126.68 172.43 149.263 174.122 149.725C176.371 150.17 191.923 148.637 198.935 143.065C206.358 137.18 208.279 134.658 206.621 129.268C206.227 127.999 205.685 127.273 204.946 127.059C203.074 126.531 199.97 129.251 196.948 131.889C196.472 132.301 196.012 132.713 195.536 133.125C195.158 133.455 194.748 133.801 194.321 134.18C189.378 138.499 181.413 145.455 174.237 145.455C173.481 145.455 172.726 145.373 171.987 145.208C166.091 143.856 133.149 122.707 114.691 110.641C114.329 111.152 113.919 111.646 113.459 112.141M84.0143 107.311C85.1146 108.119 85.9685 108.894 86.4612 109.602C89.0723 113.394 97.7266 118.042 104.837 116.41C107.695 115.751 110.224 114.168 112.112 112.322C108.319 109.932 105.248 107.987 103.277 106.734C102.423 106.487 101.734 106.091 101.372 105.465C101.274 105.3 101.307 105.086 101.438 104.954C101.569 104.822 101.783 104.789 101.964 104.904C102.505 105.251 103.08 105.613 103.671 105.976C104.788 106.256 106.283 106.256 107.711 106.091C105.806 104.838 104.312 103.849 103.359 103.223C100.88 104.047 97.7923 104.624 95.2469 103.668C94.278 103.305 93.654 102.959 93.769 102.399C93.8511 102.036 94.0153 101.196 102.505 101.707C102.571 101.707 102.653 101.739 102.719 101.772C102.752 101.789 103.015 101.97 103.474 102.283C105.494 101.575 107.071 100.701 107.432 100.503C107.728 100.058 107.629 99.8438 107.596 99.7779C107.268 99.102 105.346 98.2613 98.1372 98.0965C95.4276 98.0306 93.3091 97.5855 91.6998 96.7118C91.8476 97.4536 91.9461 98.2613 91.9625 99.0691C91.9954 100.981 91.0429 102.827 89.2201 104.426C87.6764 105.762 85.7386 106.734 84.0471 107.295M44.7165 113.806C44.8807 113.822 45.2584 113.806 45.9317 113.575C47.8038 112.982 50.9076 111.201 51.9586 109.124C52.2542 108.547 52.4513 107.954 52.5826 107.328C50.1358 108.481 47.4097 110.789 45.2256 113.097C44.8807 113.46 44.7494 113.674 44.7001 113.789M105.314 107.031C107.547 108.432 110.043 110.014 112.72 111.712C113.18 111.218 113.607 110.707 113.968 110.196C112.047 108.943 110.289 107.789 108.746 106.784C107.662 106.965 106.447 107.08 105.314 107.031ZM109.928 106.536C111.291 107.426 112.802 108.416 114.444 109.487C114.592 109.256 114.723 109.025 114.855 108.795C115.659 107.311 115.955 105.959 115.643 105.102C115.413 104.476 115.167 104.097 114.92 104.014C114.559 103.899 113.952 104.36 113.311 104.838C112.703 105.284 112.03 105.795 111.226 106.124C110.864 106.273 110.437 106.404 109.928 106.536ZM78.2009 105.778C79.4983 106.437 80.5 106.915 80.927 106.981C81.1733 107.014 81.551 107.014 81.9944 106.932C81.2061 106.421 80.3522 105.893 79.4654 105.366C79.334 105.432 79.2027 105.481 79.0713 105.547C78.825 105.646 78.5294 105.729 78.1845 105.762M59.7098 99.168C59.9397 99.4482 60.7772 100.042 62.7478 100.948C65.9009 102.399 70.6468 103.998 74.2597 104.674C69.4809 102.152 62.9778 98.8383 60.0382 99.1185C59.874 99.1185 59.7755 99.1515 59.6934 99.168M71.1231 88.1237C70.7289 91.7337 69.4316 93.3161 68.4463 94.5359C67.9372 95.1623 67.5431 95.6404 67.3953 96.2503C67.1325 97.4042 72.3547 100.355 76.1646 102.531C77.2813 103.157 78.398 103.8 79.4818 104.426C83.1932 102.185 86.0835 94.7667 85.9849 93.8601C85.6729 93.5469 83.5216 92.1128 81.4361 90.7281C78.2009 88.5687 75.2285 86.5742 72.9787 84.9258C72.9295 85.1401 72.8638 85.3708 72.7817 85.5851C72.4697 86.4093 71.8785 87.2665 71.1231 88.1566M94.8528 102.58C95.0006 102.646 95.2141 102.745 95.5261 102.86C97.6445 103.652 100.223 103.272 102.44 102.597C102.407 102.564 102.358 102.547 102.341 102.531C99.3689 102.366 96.0023 102.349 94.8692 102.58M38.7061 93.8601C35.2739 93.8601 31.7924 94.5195 29.5426 96.2008C28.6066 96.9097 28.5244 97.2723 28.5737 97.3547C29.4112 98.6735 40.8409 97.2558 45.9482 94.8656C45.2584 94.6513 44.503 94.47 43.6984 94.3217C42.1547 94.025 40.4468 93.8601 38.7061 93.8601ZM50.2671 87.5962C50.6941 88.3544 51.0882 89.0468 51.4167 89.6402C51.778 90.2831 52.0736 90.7941 52.287 91.1897C54.3234 94.8327 56.1791 96.514 60.0875 94.9481C63.0106 93.7777 67.7073 90.6622 70.3184 87.7775C70.4498 86.4258 70.4498 84.7774 70.2527 82.7334C69.4973 82.0575 69.0046 81.5136 68.8732 81.1344C68.4955 80.063 68.7911 79.6838 69.1196 79.552C69.3331 79.4695 69.5794 79.486 69.8421 79.6014C69.8093 79.3871 69.7765 79.1893 69.7272 78.9585C67.2146 64.5515 65.4246 57.9414 60.8757 54.2984C57.8377 51.8917 53.8471 49.073 50.3821 48.8752C50.0372 51.9412 48.7235 55.0072 47.6232 57.5787C47.3276 58.2711 47.0484 58.881 46.8021 59.4249C45.2256 62.8701 44.5687 64.3042 46.8842 70.9308C47.9024 73.865 49.6924 79.5684 50.1686 84.7939C50.2507 85.7829 50.3 86.706 50.2836 87.5632M89.2201 92.6568C89.4171 93.2007 89.6799 93.6953 89.9919 94.1403C89.7291 93.5469 89.4664 93.0359 89.2201 92.6568ZM71.1559 83.4917C71.238 84.662 71.2709 85.7005 71.238 86.6401C71.5829 86.1621 71.8456 85.7005 72.0098 85.2554C72.1412 84.9093 72.2069 84.5961 72.2069 84.3158C71.8292 84.0356 71.4843 83.7554 71.1559 83.4917ZM38.6404 59.7217C38.5254 62.8371 38.8539 65.7383 39.7571 67.7494C41.8919 72.4803 46.3259 80.541 49.3968 86.0302C49.3804 85.6675 49.3475 85.2884 49.3147 84.8928C48.8549 79.7498 47.0813 74.1287 46.0795 71.2275C43.6655 64.2877 44.4045 62.6558 46.0303 59.0953C46.2766 58.5513 46.5558 57.9414 46.8514 57.2655C47.9188 54.7765 49.1669 51.8258 49.5282 48.8917C48.5593 48.9741 47.6396 49.2873 46.8185 49.9137C44.1746 51.9247 43.2714 54.694 42.4831 57.1337C42.1383 58.2216 41.7934 59.2601 41.3336 60.0843C41.1037 60.4964 40.7752 60.6118 40.5289 60.6448C40.0034 60.6942 39.3958 60.3645 38.6404 59.7052M71.0409 82.3213C71.2052 82.4531 71.3858 82.6015 71.5665 82.7499C71.3694 82.4202 71.1723 82.1235 70.9917 81.8762C71.0081 82.0246 71.0245 82.1729 71.0409 82.3213ZM69.5465 80.3926C69.5465 80.4916 69.5958 80.6399 69.6615 80.8377C69.7108 80.9861 69.8586 81.1839 70.1049 81.4311C70.072 81.2004 70.0392 80.9696 70.0064 80.7223C69.8257 80.5575 69.6615 80.4421 69.5465 80.3762M25.1415 74.9035C28.4095 77.7222 31.8088 78.3486 33.9109 77.6398C34.7484 77.3596 35.2739 76.8816 35.3396 76.3705C35.3888 75.8925 35.0111 75.365 34.2721 74.9035C32.4986 73.799 28.7872 74.2771 25.1415 74.9035ZM16.0437 75.2167C17.8009 75.3485 20.5269 74.854 23.1873 74.376C23.2366 74.376 23.2858 74.3595 23.3351 74.343C17.5381 68.2604 18.1293 64.3537 18.7698 60.2162C18.934 59.1118 19.1147 57.9744 19.1475 56.804C19.1475 56.7875 19.1475 56.7545 19.1475 56.738C18.9504 57.9579 18.7698 59.2766 18.5727 60.6118C17.8666 65.3757 17.0619 70.766 16.0273 75.2002M14.7793 45.8421C11.5605 47.3092 8.09551 49.4356 7.01166 51.6445C5.5501 54.6281 12.201 70.766 14.2373 74.4584C14.4015 74.7716 14.7464 74.9694 15.2226 75.0848C16.2572 70.6671 17.0619 65.2603 17.7681 60.4964C18.6056 54.8424 19.3281 49.9466 20.2149 48.1169C20.297 47.9521 20.3956 47.7707 20.5269 47.54C18.4578 47.2103 16.6185 46.5674 14.7957 45.8421M38.6897 58.6172C39.4286 59.3425 40.0855 59.8535 40.4304 59.8041C40.4632 59.8041 40.5125 59.8041 40.5782 59.6722C41.0051 58.9304 41.3172 57.9414 41.662 56.8864C42.4503 54.4468 43.4356 51.4137 46.293 49.2378C47.3112 48.4796 48.4115 48.1004 49.5938 48.0345C49.6595 46.8806 49.561 45.7432 49.2326 44.6553C46.8349 44.0948 44.7001 43.7981 43.5998 44.2926C42.6638 44.7212 41.6292 46.2872 40.7588 48.6114C39.6914 51.4137 38.936 55.0896 38.7061 58.6172M29.0171 50.062C31.037 50.062 33.6317 52.9962 36.1442 55.8479C36.7026 56.4908 37.3102 57.1831 37.9014 57.793C38.197 54.4138 38.9524 50.9851 39.9706 48.3147C40.6603 46.5015 41.777 44.1937 43.255 43.5343C44.4866 42.9739 46.5394 43.1882 48.9041 43.7157C48.4936 42.7596 47.886 41.853 47.032 40.9958C46.293 40.254 45.1271 39.7595 43.567 39.5287C42.4174 41.3749 40.0034 43.5838 35.0111 45.4135C29.0335 47.5894 24.8624 48.0675 21.4302 47.6718C21.2331 47.985 21.0853 48.2653 20.9703 48.496C20.4284 49.6005 19.9522 51.9742 19.4431 55.0237C20.7897 50.4576 26.5867 50.1774 28.935 50.062C28.9678 50.062 29.0007 50.062 29.0335 50.062M21.9392 46.8971C25.1908 47.1938 29.1156 46.6663 34.7155 44.6223C37.8029 43.5014 41.0051 41.6716 42.6309 39.4298C38.8867 39.1331 33.2047 40.0562 25.6178 42.2156C24.0905 43.9629 22.7932 45.6278 21.9228 46.8971M49.9059 43.9464C51.2853 44.2926 52.7304 44.7047 54.1756 45.1168C57.8869 46.1718 61.7133 47.2762 63.0763 46.6333C64.0452 46.1883 64.9977 45.0838 65.9173 43.6497C63.4211 44.408 60.9086 44.5728 58.9215 43.9135C57.345 43.386 55.867 42.5783 54.5369 41.5727C54.4712 41.6552 54.4219 41.7376 54.3562 41.8035C53.8636 42.3969 53.3052 42.6607 52.714 42.5947C50.9076 42.4134 49.1669 39.2155 47.6396 36.4132C47.459 36.0836 47.2948 35.7704 47.1305 35.4736C45.7839 33.0175 44.8643 29.2427 45.8496 27.0668C45.9482 26.836 46.0795 26.6382 46.2109 26.4569C45.242 24.2315 44.2403 22.1381 43.5013 20.7369C43.452 20.7369 43.4192 20.7369 43.3699 20.7369C40.6439 20.6215 40.1019 20.3248 40.0198 19.8138C39.9377 19.1709 40.8409 18.8083 42.1383 18.3962C42.2696 18.3632 42.3682 18.3138 42.4339 18.2973C42.5652 18.2478 42.713 18.2643 42.8444 18.3302C43.0907 18.4456 43.5013 19.0391 44.0104 19.9457C45.8825 20.0611 47.9516 20.3743 50.1358 20.7204C54.6025 21.4128 59.2171 22.1216 62.7807 21.2149C63.2898 21.0831 63.7989 20.9677 64.2751 20.8358C67.5266 20.0281 71.9277 18.9237 72.4204 18.1984C72.4532 17.6214 72.5353 17.5555 72.8309 17.5225C72.9295 17.5225 73.2251 17.5225 73.3072 17.9511C73.3236 18.0995 73.3072 18.2478 73.2579 18.3962C73.2579 18.5775 73.2579 18.7918 73.2579 19.0226C73.2579 19.7479 73.2579 20.8028 73.2086 22.0227C74.5717 21.149 75.6555 19.9457 75.984 18.2808C76.3124 16.5994 75.5734 14.473 73.8491 12.1322C69.8586 6.72548 61.6476 1.48355 56.2612 0.923095C48.6742 0.131861 40.299 8.62114 39.5436 14.1927C39.248 16.3686 39.6257 19.7644 40.5618 23.2425C41.0216 24.9568 41.5635 26.5063 42.1218 27.7097C43.8626 28.6987 45.0285 29.6548 45.0614 30.3141C45.0614 30.4955 45.0285 30.924 44.3881 31.1054C43.9611 31.2208 43.5013 31.0889 43.0579 30.6768C42.5488 30.2317 42.0233 29.4075 41.4978 28.3525C38.8539 26.9019 34.6991 25.1546 30.9385 24.4953C24.419 23.3579 15.8467 29.4899 11.3306 36.0836C9.47496 38.7869 7.79992 41.0288 6.23983 42.6937C8.45679 42.8585 10.7066 43.2871 12.4638 44.0124C12.8086 44.1607 13.1535 44.2926 13.4983 44.441C13.9253 44.6223 14.3523 44.7871 14.7628 44.9685C16.0273 44.408 17.2426 43.9629 18.2771 43.6332C18.5235 43.5508 18.8355 43.4519 19.2296 43.32C20.6419 42.8585 22.7603 42.1826 25.2072 41.4738C29.7397 36.2814 36.2264 30.3966 40.2005 31.4021C42.7951 32.045 44.4702 33.8582 44.5851 36.133C44.618 36.644 44.5523 37.6166 43.9939 38.8199C45.5212 39.0836 46.7857 39.5947 47.6396 40.4518C48.7563 41.5563 49.4789 42.7596 49.9223 44.0124M15.8795 45.3641C17.5217 45.9905 19.1639 46.5179 21.0032 46.7817C21.7422 45.6937 22.8424 44.2267 24.1726 42.6277C22.6782 43.0728 21.1181 43.5508 19.4759 44.0783C19.0818 44.2102 18.7698 44.3091 18.5235 44.3915C17.7352 44.6388 16.832 44.9685 15.8795 45.3641ZM-1.41281 44.375C-1.41281 44.375 -1.26502 44.5399 -0.936577 44.7047C0.459291 45.397 1.95369 45.3311 4.17066 43.4354C1.23112 43.4354 -1.13364 43.9135 -1.41281 44.375ZM54.9474 40.831C56.2119 41.82 57.657 42.5947 59.1843 43.1058C61.2206 43.7981 63.9631 43.4849 66.5742 42.5123C68.085 39.776 69.4644 36.2484 70.614 33.3307L70.8275 32.7867C71.4679 31.1713 71.8456 28.946 72.0755 26.7041C70.8767 27.0668 69.563 27.347 68.2656 27.4624C67.0504 27.5778 65.8188 27.6767 64.6364 27.7591C61.8118 27.9734 57.9362 28.2701 57.5913 28.8141C57.4436 29.0613 57.2301 30.5614 57.033 31.8966C56.606 34.8143 56.0477 38.6551 54.9803 40.8145M72.9131 26.4239C72.6831 28.8471 72.289 31.3032 71.5829 33.0999L71.3694 33.6439C70.3512 36.2649 69.136 39.3968 67.773 42.0178C70.0885 40.9463 72.2069 39.3804 73.4714 37.5506C75.13 35.144 75.2121 30.6438 75.2614 27.3635C75.2614 26.5887 75.2942 25.9294 75.3107 25.3854C74.6374 25.7481 73.8163 26.1107 72.9131 26.4404M46.605 27.3965C46.605 27.3965 46.605 27.3965 46.605 27.4129C45.7675 29.2592 46.5886 32.7538 47.8531 35.0615C48.0173 35.3583 48.198 35.6879 48.3786 36.0176C49.6595 38.3913 51.4167 41.6387 52.7797 41.7705C53.0917 41.8035 53.4037 41.6387 53.6993 41.276C53.765 41.2101 53.8143 41.1277 53.8636 41.0452C51.5973 39.1166 49.8566 36.5451 48.9862 33.6769C48.4607 31.9461 47.5739 29.6548 46.605 27.3965ZM39.2316 32.0779C35.9308 32.0779 30.7414 36.5946 26.718 40.9958C32.0552 39.5287 38.5747 38.1441 43.14 38.6386C43.567 37.8473 43.7969 37.0067 43.7476 36.1165C43.6491 34.2373 42.2204 32.7208 40.0034 32.1604C39.7571 32.0944 39.5107 32.0779 39.248 32.0779M47.1798 26.6382C48.2965 29.2262 49.2982 31.8307 49.7909 33.4461C50.5956 36.1 52.1885 38.4902 54.2741 40.3035C55.2102 38.2265 55.7685 34.4516 56.1626 31.8142C56.4582 29.7866 56.606 28.7976 56.8359 28.4185C57.3614 27.5448 59.8412 27.3305 64.5378 26.9679C65.7202 26.869 66.9519 26.7866 68.1671 26.6712C69.6122 26.5393 70.9588 26.2261 72.1412 25.847C72.2069 25.0392 72.2562 24.2315 72.3054 23.4733C68.085 25.4184 62.2059 25.4678 60.1367 25.27C59.6934 25.2371 59.25 25.1876 58.823 25.1381C57.0494 24.9403 55.2102 24.7425 54.6518 25.2206C54.5533 25.303 54.504 25.4019 54.4876 25.5503C54.4548 25.8964 54.5204 26.6712 54.5861 27.4954C54.8325 30.4295 54.9474 32.7373 53.9621 33.4131C53.7158 33.578 53.2888 33.7099 52.6648 33.4131C51.4003 32.7867 50.8419 31.0889 50.3164 29.457C49.6267 27.3635 49.134 26.1107 47.9516 26.358C47.6725 26.4239 47.4261 26.5393 47.2127 26.6877M48.2308 25.4184C49.8566 25.4184 50.4971 27.38 51.0718 29.1273C51.5481 30.5944 52.0407 32.1109 53.0096 32.5889C53.2231 32.6878 53.3709 32.7043 53.453 32.6549C54.1099 32.2098 53.8471 29.0449 53.7158 27.5119C53.6336 26.5723 53.568 25.8305 53.6172 25.4184C53.6501 25.0392 53.8143 24.7425 54.0935 24.5118C54.931 23.8194 56.6881 24.0172 58.8887 24.248C59.3157 24.2975 59.759 24.3469 60.2024 24.3799C61.6476 24.5118 65.3261 24.5612 68.8404 23.7205C69.9735 23.4568 71.2052 23.0612 72.3383 22.4842C72.3875 21.1655 72.404 20.0116 72.404 19.1874C71.1395 19.9127 68.5448 20.5886 64.4722 21.6106C63.9795 21.726 63.4868 21.8578 62.9778 21.9897C59.25 22.9293 54.5369 22.2205 50.0044 21.5117C48.0502 21.2149 46.1781 20.9182 44.4866 20.7864C45.2092 22.171 46.0467 23.9678 46.8678 25.8305C47.1305 25.6492 47.4426 25.5338 47.771 25.4678C47.9516 25.4349 48.1159 25.4019 48.2637 25.4019M42.9101 29.1603C43.14 29.5229 43.3699 29.8031 43.5998 30.0009C43.764 30.1328 43.9775 30.2977 44.1582 30.2482C44.1582 30.2482 44.1746 30.2482 44.191 30.2482C44.0761 30.0174 43.6162 29.6218 42.9265 29.1767M41.1037 19.6654C41.3993 19.7314 41.974 19.8138 42.9922 19.8633C42.7951 19.5171 42.6309 19.2698 42.4995 19.138C42.4667 19.138 42.4174 19.1709 42.3682 19.1874C41.777 19.3852 41.35 19.5336 41.0873 19.6654" fill="#23234A"/>
</g>
<defs>
<clipPath id="clip0_15_83808">
<rect width="217" height="173" fill="white" transform="translate(-9)"/>
</clipPath>
</defs>
</svg>
