<svg width="16" height="16" viewBox="0 0 16 16" fill="none" xmlns="http://www.w3.org/2000/svg">
<path fill-rule="evenodd" clip-rule="evenodd" d="M9.33333 13.3334H12.6667C13.4033 13.3334 14 12.7367 14 12V4.00002C14 3.26335 13.4033 2.66669 12.6667 2.66669H3.33333C2.59667 2.66669 2 3.26335 2 4.00002V12C2 12.7367 2.59667 13.3334 3.33333 13.3334H6.66667L8 14.6667L9.33333 13.3334Z" stroke="#23234A" stroke-width="1.5" stroke-linecap="round" stroke-linejoin="round"/>
<path d="M8.11802 7.88201C8.18335 7.94735 8.18335 8.05268 8.11802 8.11801C8.05269 8.18335 7.94735 8.18335 7.88202 8.11801C7.81669 8.05268 7.81669 7.94735 7.88202 7.88201C7.94735 7.81735 8.05269 7.81735 8.11802 7.88201" stroke="#23234A" stroke-width="1.5" stroke-linecap="round" stroke-linejoin="round"/>
<path d="M10.7846 7.88201C10.85 7.94735 10.85 8.05268 10.7846 8.11801C10.7193 8.18335 10.614 8.18335 10.5486 8.11801C10.4833 8.05268 10.4833 7.94735 10.5486 7.88201C10.614 7.81735 10.7193 7.81735 10.7846 7.88201" stroke="#23234A" stroke-width="1.5" stroke-linecap="round" stroke-linejoin="round"/>
<path d="M5.45133 7.88201C5.51667 7.94735 5.51667 8.05268 5.45133 8.11801C5.386 8.18335 5.28067 8.18335 5.21533 8.11801C5.15 8.05268 5.15 7.94735 5.21533 7.88201C5.28067 7.81735 5.386 7.81735 5.45133 7.88201" stroke="#23234A" stroke-width="1.5" stroke-linecap="round" stroke-linejoin="round"/>
</svg>
