<svg width="21" height="18" viewBox="0 0 21 18" fill="none" xmlns="http://www.w3.org/2000/svg">
<path d="M14.006 0H6.16265C5.23475 0 4.47843 0.766406 4.51344 1.69453C4.52044 1.88086 4.52745 2.06719 4.53795 2.25H0.840361C0.374661 2.25 0 2.62617 0 3.09375C0 6.34922 1.173 8.61328 2.74868 10.1496C4.29985 11.6648 6.19066 12.4277 7.58426 12.8145C8.40361 13.043 8.96386 13.7285 8.96386 14.4176C8.96386 15.1523 8.3686 15.75 7.63679 15.75H6.72289C6.10313 15.75 5.60241 16.2527 5.60241 16.875C5.60241 17.4973 6.10313 18 6.72289 18H13.4458C14.0655 18 14.5663 17.4973 14.5663 16.875C14.5663 16.2527 14.0655 15.75 13.4458 15.75H12.5319C11.8001 15.75 11.2048 15.1523 11.2048 14.4176C11.2048 13.7285 11.7616 13.0395 12.5844 12.8145C13.9815 12.4277 15.8723 11.6648 17.4235 10.1496C18.9957 8.61328 20.1687 6.34922 20.1687 3.09375C20.1687 2.62617 19.794 2.25 19.3283 2.25H15.6307C15.6412 2.06719 15.6482 1.88437 15.6552 1.69453C15.6902 0.766406 14.9339 0 14.006 0ZM1.71224 3.9375H4.66751C4.98615 7.10508 5.68995 9.22148 6.48479 10.6383C5.61291 10.2516 4.70602 9.70664 3.92169 8.94023C2.8012 7.84688 1.89081 6.26836 1.71574 3.9375H1.71224ZM16.2505 8.94023C15.4662 9.70664 14.5593 10.2516 13.6874 10.6383C14.4822 9.22148 15.186 7.10508 15.5047 3.9375H18.4599C18.2814 6.26836 17.371 7.84688 16.254 8.94023H16.2505Z" fill="#CE2621"/>
</svg>
