<svg width="64" height="44" viewBox="0 0 64 44" fill="none" xmlns="http://www.w3.org/2000/svg">
<g clip-path="url(#clip0_193_99334)">
<path d="M64 0.5H0V43.5H64V0.5Z" fill="#EE1C25"/>
<path d="M64 0.5H0V29.1667H64V0.5Z" fill="#0B4EA2"/>
<path d="M64 0.5H0V14.8333H64V0.5Z" fill="white"/>
<path d="M27.9826 10.6044H27.4066H19.1933H10.9871H10.4111L10.3542 11.1849C10.34 11.3139 10.0342 14.3382 10.0342 20.9817C10.0342 24.1064 11.0795 26.8584 13.1488 29.1661C14.5924 30.7857 16.484 32.1474 18.9231 33.3299L19.2004 33.4661L19.4777 33.3299C21.9168 32.1474 23.8084 30.7857 25.252 29.1661C27.3142 26.8584 28.3666 24.0992 28.3666 20.9817C28.3666 14.3382 28.0608 11.3139 28.0466 11.1849L27.9826 10.6044Z" fill="white"/>
<path d="M19.1932 32.7498C15.6874 31.0441 10.667 27.6686 10.667 20.9749C10.667 14.2813 10.987 11.2498 10.987 11.2498H19.2003H27.4137C27.4137 11.2498 27.7337 14.2884 27.7337 20.9749C27.7194 27.6686 22.7061 31.0441 19.1932 32.7498Z" fill="#EE1C25"/>
<path d="M19.9471 19.2269C20.9 19.2413 22.7489 19.2771 24.3987 18.7253C24.3987 18.7253 24.356 19.3201 24.356 20.0153C24.356 20.7104 24.3987 21.3053 24.3987 21.3053C22.884 20.7964 21.0138 20.7821 19.9471 20.7964V24.4873H18.4467V20.7964C17.3729 20.7821 15.5098 20.7964 13.9951 21.3053C13.9951 21.3053 14.0378 20.7104 14.0378 20.0153C14.0378 19.3201 13.9951 18.7253 13.9951 18.7253C15.6449 19.2843 17.5009 19.2413 18.4467 19.2269V16.9049C17.5791 16.8978 16.3347 16.9408 14.9196 17.4138C14.9196 17.4138 14.9622 16.8189 14.9622 16.1238C14.9622 15.4286 14.9196 14.8338 14.9196 14.8338C16.3276 15.3068 17.572 15.3498 18.4396 15.3426C18.3969 13.8734 17.9702 12.0244 17.9702 12.0244C17.9702 12.0244 18.8449 12.0961 19.1933 12.0961C19.5418 12.0961 20.4165 12.0244 20.4165 12.0244C20.4165 12.0244 19.9898 13.8734 19.9471 15.3426C20.8147 15.3498 22.0591 15.3068 23.4671 14.8338C23.4671 14.8338 23.4245 15.4286 23.4245 16.1238C23.4245 16.8189 23.4671 17.4138 23.4671 17.4138C22.0591 16.9408 20.8076 16.8978 19.94 16.9049V19.2269H19.9471Z" fill="white"/>
<path d="M19.1924 24.0862C17.4218 24.0862 16.476 26.5587 16.476 26.5587C16.476 26.5587 15.9498 25.3905 14.5062 25.3905C13.532 25.3905 12.8138 26.2648 12.3516 27.0747C14.1293 29.9199 16.9596 31.6757 19.1853 32.7579C21.4111 31.6757 24.2484 29.9199 26.0191 27.0747C25.564 26.2648 24.8458 25.3905 23.8644 25.3905C22.4209 25.3905 21.8947 26.5587 21.8947 26.5587C21.8947 26.5587 20.9631 24.0862 19.1924 24.0862Z" fill="#0B4EA2"/>
</g>
<defs>
<clipPath id="clip0_193_99334">
<rect y="0.5" width="64" height="43" rx="5.33333" fill="white"/>
</clipPath>
</defs>
</svg>
