<svg width="128" height="40" viewBox="0 0 128 40" fill="none" xmlns="http://www.w3.org/2000/svg">
<path d="M0.00255623 8.64099C0.00255623 6.08295 -0.00319528 3.5249 0.00255623 0.966859C0.00255623 0.342283 0.00830782 0.336852 0.681234 0.336852C1.48645 0.336852 2.29741 0.336852 3.10262 0.336852C3.67202 0.336852 3.68352 0.347714 3.68352 0.901686C3.68352 2.79714 3.68352 4.68716 3.68352 6.58261C3.68352 7.07141 3.69502 7.08227 4.20691 7.08227C5.55851 7.08227 6.91587 7.07141 8.26747 7.0877C8.64132 7.0877 8.7621 6.96822 8.7621 6.6152C8.7506 4.70888 8.75635 2.80257 8.7621 0.896254C8.7621 0.353145 8.79086 0.331421 9.35451 0.331421C10.2 0.331421 11.0455 0.331421 11.8909 0.331421C12.3913 0.331421 12.4258 0.364007 12.4316 0.831081C12.4316 2.86231 12.4316 4.88811 12.4316 6.91934C12.4316 10.0694 12.4316 13.214 12.4316 16.364C12.4316 16.9777 12.4316 16.9832 11.7759 16.9832C10.9707 16.9832 10.1597 16.9832 9.35451 16.9832C8.80236 16.9832 8.7621 16.9451 8.7621 16.4129C8.7621 14.4305 8.7621 12.4536 8.7621 10.4713C8.7621 10.0802 8.55313 9.88471 8.13519 9.88471C6.80659 9.88471 5.47799 9.89557 4.14939 9.87928C3.7928 9.87928 3.67777 9.9879 3.67777 10.3246C3.68927 12.3396 3.68352 14.3599 3.68352 16.3749C3.68352 16.9777 3.67202 16.9832 3.0221 16.9832C2.19963 16.9832 1.38292 16.9832 0.560453 16.9832C0.0485683 16.9832 0.00255623 16.9397 0.00255623 16.4563C0.00255623 13.8494 0.00255623 11.2425 0.00255623 8.63556" fill="white"/>
<path d="M63.9191 6.31649C65.449 4.52423 68.2269 4.19293 70.0272 5.58872C70.7864 6.17528 71.0797 7.01167 71.212 7.8915C71.3903 9.09177 71.281 10.2975 71.2867 11.5032C71.2925 12.3396 71.3385 13.176 71.2235 14.0069C70.9532 15.973 69.6016 17.1189 67.5138 17.1461C66.7661 17.1569 66.0299 17.1352 65.3224 16.8691C64.684 16.6301 64.1721 16.2554 63.8213 15.6906C63.7753 15.6091 63.758 15.4787 63.62 15.5005C63.4935 15.5222 63.4992 15.6471 63.4762 15.7394C63.3842 16.049 63.2922 16.3531 63.2059 16.6627C63.1484 16.88 63.0218 16.9994 62.7688 16.994C62.0901 16.9886 61.4172 16.9886 60.7385 16.994C60.4567 16.994 60.3301 16.88 60.3359 16.6138C60.3359 16.5161 60.3359 16.4183 60.3359 16.3206V0.966861C60.3359 0.550477 60.5602 0.342285 61.0088 0.342285H63.1599C63.6277 0.342285 63.8616 0.570391 63.8616 1.0266C63.8616 2.6505 63.8616 4.2744 63.8616 5.89829C63.8616 6.02864 63.8213 6.16442 63.9191 6.32192M67.7611 11.1121C67.7611 10.3029 67.7841 9.68919 67.7553 9.07548C67.7208 8.3803 67.5253 7.71771 66.7258 7.4896C65.3167 7.0877 63.9363 7.40814 63.8616 9.26014C63.8616 9.29816 63.8616 9.33617 63.8616 9.36876C63.8616 10.4115 63.8616 11.4597 63.8616 12.5025C63.8616 12.8392 63.9191 13.1651 64.0341 13.4801C64.3274 14.2622 65.0464 14.6641 66.0126 14.5935C66.9789 14.5229 67.5195 14.0938 67.6921 13.2357C67.8531 12.4699 67.7208 11.6933 67.7611 11.1121Z" fill="white"/>
<path d="M28.6738 8.64106C28.6738 6.05586 28.6738 3.47609 28.6738 0.890886C28.6738 0.342345 28.6796 0.336914 29.2662 0.336914C30.06 0.336914 30.8537 0.336914 31.6474 0.336914C32.1305 0.336914 32.1535 0.358638 32.1535 0.820281C32.1535 3.50324 32.1535 6.1862 32.1535 8.86373C32.1535 9.4177 32.1535 9.38512 32.7287 9.42857C33.206 9.46115 33.4361 9.31994 33.6086 8.88003C34.1263 7.54398 35.035 6.39802 35.8057 5.19231C35.8977 5.04567 36.0358 5.00222 36.2026 5.00222C37.2206 5.00222 38.2329 4.99679 39.2509 5.00222C39.6247 5.00222 39.6707 5.11628 39.4579 5.44214C38.4227 7.03345 37.3931 8.63019 36.3406 10.2106C36.1278 10.5256 36.1278 10.77 36.3233 11.085C37.3874 12.8067 38.4284 14.5392 39.4809 16.2663C39.5615 16.3967 39.642 16.5216 39.7167 16.6519C39.8203 16.842 39.7743 16.9778 39.5327 16.9778C38.4399 16.9832 37.3471 16.9778 36.2486 16.9778C36.0703 16.9778 35.9725 16.8637 35.892 16.728C35.1558 15.4408 34.3218 14.2025 33.6949 12.861C33.6719 12.8067 33.6374 12.7524 33.6144 12.6927C33.3038 12.0246 33.3038 12.0355 32.5331 12.0355C32.2455 12.0355 32.1478 12.1278 32.1478 12.3994C32.1593 13.5562 32.1478 14.713 32.1478 15.8698C32.1478 16.1305 32.1478 16.3858 32.1478 16.6465C32.1478 16.88 32.0385 16.9832 31.7969 16.9832C30.8709 16.9832 29.9449 16.9832 29.0247 16.9832C28.7141 16.9832 28.6681 16.8094 28.6681 16.5705C28.6681 15.5983 28.6681 14.6261 28.6681 13.654V8.63563" fill="white"/>
<path d="M60.0886 31.3971C60.0886 28.801 60.0886 26.205 60.0886 23.6089C60.0886 23.0821 60.1001 23.0712 60.658 23.0712C61.4517 23.0712 62.2454 23.0712 63.0391 23.0712C63.551 23.0712 63.5682 23.093 63.5682 23.5709C63.5682 26.2538 63.5682 28.9368 63.5682 31.6143C63.5682 31.9728 63.7638 32.152 64.1549 32.152C64.7876 32.152 64.7933 32.152 65.0061 31.598C65.3109 30.8051 65.7883 30.0991 66.2484 29.3822C66.536 28.9314 66.8351 28.4806 67.1227 28.0298C67.255 27.818 67.4333 27.7257 67.6978 27.7257C68.6641 27.7365 69.6246 27.7257 70.5908 27.7311C71.0222 27.7311 71.0855 27.8343 70.8554 28.1927C70.0502 29.4419 69.2335 30.6856 68.4168 31.9293C68.1637 32.3149 67.9279 32.7114 67.6576 33.0916C67.5138 33.2925 67.5195 33.45 67.6518 33.6619C68.7906 35.5247 69.9122 37.3985 71.0394 39.2668C71.2695 39.6469 71.2292 39.7121 70.7749 39.7121C69.8086 39.7121 68.8481 39.7067 67.8819 39.7175C67.5828 39.7175 67.393 39.6306 67.255 39.3808C66.4497 37.9253 65.4375 36.5621 64.8738 34.987C64.8163 34.8295 64.7243 34.7807 64.5633 34.7698C63.574 34.6883 63.574 34.6829 63.574 35.6225C63.574 36.8282 63.5625 38.0339 63.574 39.2396C63.574 39.5872 63.459 39.723 63.0794 39.7175C62.2569 39.7012 61.4402 39.7175 60.6177 39.7121C60.1116 39.7121 60.0828 39.6849 60.0828 39.2124C60.0828 36.6055 60.0828 33.9986 60.0828 31.3917" fill="white"/>
<path d="M80.4202 15.5166C79.6495 16.7494 78.4877 17.0862 77.1821 17.135C76.5034 17.1568 75.8305 17.1622 75.1633 16.9938C73.9555 16.6897 73.179 15.7881 73.1618 14.6096C73.1503 13.9361 73.1503 13.2572 73.1618 12.5783C73.1848 11.5464 73.7599 10.8187 74.7952 10.4711C75.888 10.1072 77.0383 10.0529 78.1656 9.86823C78.6775 9.78677 79.1951 9.72703 79.707 9.6347C80.2419 9.53694 80.4087 9.33599 80.4202 8.82546C80.4489 7.64148 80.1096 7.31019 78.85 7.29933C78.4186 7.29933 77.993 7.2776 77.5674 7.38079C76.998 7.51657 76.768 7.76097 76.768 8.30951C76.768 9.43918 76.814 9.29797 75.6694 9.3034C75.008 9.3034 74.3408 9.3034 73.6794 9.3034C73.4493 9.3034 73.248 9.27081 73.2423 8.99926C73.225 8.20089 73.1963 7.40795 73.5989 6.65846C74.1568 5.62112 75.1518 5.18663 76.2503 4.96396C77.7285 4.67068 79.2296 4.67068 80.7135 4.9368C82.83 5.31698 83.9458 6.58785 83.9573 8.61908C83.9688 10.3516 83.9573 12.0896 83.9573 13.8221C83.9573 14.3815 83.9804 14.4141 84.5613 14.4412C84.8488 14.4521 84.9926 14.5553 84.9869 14.8431C84.9754 15.4351 84.9811 16.0217 84.9869 16.6137C84.9869 16.8798 84.8776 16.9938 84.5958 16.9938C83.8021 16.9884 83.0083 17.0101 82.2146 16.9775C81.2771 16.9449 80.6445 16.505 80.4202 15.5166ZM80.4202 12.4589C80.4202 12.2525 80.4202 12.0407 80.4202 11.8343C80.4202 11.7202 80.3799 11.6496 80.2304 11.6714C79.3044 11.8017 78.3784 11.9266 77.4524 12.0624C77.2281 12.095 77.0153 12.1927 76.9117 12.3937C76.6127 12.9748 76.6357 13.5777 76.8485 14.1805C76.8887 14.2946 77.0038 14.3869 77.1303 14.4249C78.0103 14.7236 78.873 14.6802 79.6955 14.2511C80.3684 13.9035 80.4144 13.279 80.4259 12.649C80.4259 12.5892 80.4259 12.524 80.4259 12.4643" fill="white"/>
<path d="M31.239 38.3055C31.0262 38.5662 30.8767 38.8758 30.5776 39.093C30.0254 39.4949 29.4043 39.7122 28.7198 39.8045C27.9146 39.9077 27.1094 39.9131 26.31 39.7828C24.8893 39.5492 24.0554 38.6314 24.0554 37.2736C24.0554 36.4372 23.9691 35.6008 24.1301 34.7699C24.2682 34.0584 24.6995 33.5804 25.4012 33.298C26.3732 32.9016 27.42 32.8418 28.4438 32.6789C29.134 32.5703 29.8356 32.4888 30.5258 32.3747C31.1182 32.2716 31.2678 32.0869 31.2735 31.5221C31.2735 31.4732 31.2735 31.4243 31.2735 31.3754C31.2735 30.3761 30.9572 30.0611 29.8874 30.0339C29.41 30.0231 28.9211 29.9851 28.4495 30.1045C27.8111 30.2675 27.6098 30.501 27.604 31.1256C27.604 32.1141 27.6731 32.0326 26.6205 32.0326C25.9419 32.0326 25.2689 32.0217 24.5903 32.0326C24.2337 32.0434 24.1014 31.9077 24.1186 31.5764C24.1474 31.1365 24.0899 30.6911 24.1646 30.2512C24.3832 28.9586 25.2632 28.2308 26.517 27.8452C27.8916 27.4162 29.318 27.4596 30.7329 27.5465C31.3195 27.5845 31.8947 27.6986 32.4468 27.8941C34.0457 28.4644 34.7704 29.6103 34.7934 31.1745C34.8164 32.9667 34.7992 34.7644 34.8049 36.5621C34.8049 37.1107 34.8279 37.1432 35.4204 37.1704C35.7137 37.1813 35.8402 37.2845 35.8345 37.5723C35.823 38.1643 35.823 38.7508 35.8345 39.3428C35.8345 39.609 35.7309 39.723 35.4434 39.723C34.6612 39.7121 33.8789 39.7393 33.1025 39.7067C32.2628 39.6741 31.5323 39.3265 31.3598 38.4576C31.3483 38.4033 31.3425 38.3327 31.239 38.3055ZM31.2678 35.2695H31.2793V35.0088C31.2793 34.3897 31.2793 34.3897 30.6178 34.482C29.8701 34.5852 29.1224 34.6612 28.3748 34.7807C27.8341 34.8676 27.6156 35.1337 27.5983 35.6443C27.5868 35.9158 27.5868 36.1874 27.5983 36.4589C27.6156 36.9423 27.7938 37.1541 28.2885 37.2573C28.9787 37.4039 29.6631 37.3659 30.3188 37.1052C30.8824 36.8826 31.216 36.4806 31.262 35.8995C31.2793 35.6931 31.262 35.4813 31.262 35.2749" fill="white"/>
<path d="M47.5675 11.6661C46.5495 11.6661 45.5373 11.6661 44.5192 11.6661C43.9498 11.6661 43.9441 11.6661 43.9498 12.2255C43.9498 12.6274 43.9211 13.0347 44.0361 13.4366C44.3007 14.3436 45.0829 14.8704 46.0779 14.7944C46.2447 14.7835 46.4172 14.7618 46.584 14.7401C47.2742 14.6477 47.6711 14.2241 47.6826 13.5724C47.6826 13.3008 47.6826 13.0293 47.6826 12.7631C47.6826 12.5079 47.7976 12.3775 48.0794 12.383C49.0054 12.3884 49.9257 12.383 50.8516 12.383C51.0645 12.383 51.214 12.4536 51.214 12.6708C51.214 13.4203 51.2773 14.1698 51.0127 14.8976C50.7021 15.7611 50.0579 16.3694 49.201 16.679C47.0442 17.4502 44.8413 17.5316 42.7018 16.6464C41.2639 16.049 40.5737 14.8867 40.4759 13.4203C40.3724 11.8724 40.3954 10.3246 40.4702 8.77672C40.5565 6.92471 41.632 5.5778 43.5185 5.06728C45.1001 4.63822 46.7106 4.63279 48.298 5.05642C50.1672 5.55608 51.214 6.87583 51.2715 8.72784C51.2945 9.54793 51.2715 10.3735 51.2773 11.199C51.2773 11.5466 51.1335 11.6769 50.7654 11.6769C49.6956 11.6606 48.6316 11.6769 47.5618 11.6769M45.8478 9.64026H46.8198C47.51 9.64026 47.8149 9.31259 47.7343 8.65723C47.6596 8.05981 47.4295 7.58188 46.7738 7.35377C45.2324 6.81609 43.8176 7.81541 43.9441 9.35784C43.9613 9.59138 44.0764 9.64569 44.2892 9.64569C44.8068 9.64026 45.3302 9.64569 45.8478 9.64569" fill="white"/>
<path d="M53.8194 34.3951C52.7497 34.3951 51.6856 34.406 50.6158 34.3951C50.2938 34.3951 50.1672 34.5037 50.1902 34.8025C50.2132 35.1337 50.1902 35.465 50.2075 35.7963C50.2593 36.8663 51.168 37.6103 52.3068 37.518C52.5138 37.5017 52.7266 37.4908 52.928 37.4528C53.5606 37.3279 53.923 36.8989 53.9345 36.2743C53.9345 36.0027 53.9345 35.7312 53.9345 35.465C53.9345 35.2261 54.0495 35.1066 54.3141 35.1066C55.2401 35.1066 56.1661 35.1066 57.0863 35.1066C57.3221 35.1066 57.4601 35.1989 57.4601 35.4325C57.4659 36.057 57.4947 36.687 57.3509 37.3062C57.092 38.4413 56.2811 39.1365 55.194 39.5058C53.3536 40.1304 51.4556 40.1466 49.5863 39.6416C47.8321 39.1636 46.7968 37.8113 46.7163 36.0842C46.6416 34.5472 46.6416 33.0156 46.7163 31.4786C46.8141 29.5723 47.9702 28.1982 49.9372 27.742C51.3981 27.4053 52.8819 27.389 54.3428 27.742C56.3443 28.2145 57.4486 29.5506 57.4716 31.5003C57.4831 32.3259 57.4716 33.146 57.4774 33.9715C57.4774 34.2919 57.3451 34.4114 57.0115 34.406C55.9417 34.3951 54.8777 34.406 53.8079 34.406M52.071 32.3748H53.0832C54.0898 32.3748 54.0898 32.3748 53.9805 31.4134C53.9172 30.8649 53.7447 30.3707 53.1408 30.1426C52.3816 29.8547 51.6166 29.8764 50.9379 30.3055C50.2708 30.7237 50.1615 31.3972 50.1902 32.1032C50.196 32.315 50.3053 32.3802 50.5123 32.3748C51.03 32.3748 51.5533 32.3748 52.071 32.3748Z" fill="white"/>
<path d="M119.444 20.6112C118.857 20.6112 118.271 20.6003 117.684 20.6112C117.362 20.6166 117.236 20.4862 117.241 20.193C117.247 19.639 117.253 19.085 117.241 18.531C117.23 18.1943 117.385 18.064 117.73 18.0694C118.512 18.0694 119.295 18.0748 120.071 18.0585C120.629 18.0423 121.02 17.7055 121.152 17.2059C121.21 16.9886 121.164 16.9234 120.911 16.9452C119.841 17.0321 120.031 16.956 119.806 16.212C118.737 12.6546 117.678 9.09181 116.609 5.53444C116.476 5.08366 116.528 5.00763 117.017 5.00763C117.903 5.00763 118.788 5.00763 119.674 5.00763C119.904 5.00763 120.077 5.06194 120.146 5.30091C120.663 7.1692 121.216 9.02664 121.699 10.9004C121.906 11.7096 121.975 12.5514 122.113 13.3769C122.13 13.491 122.073 13.6702 122.245 13.6811C122.452 13.6974 122.418 13.491 122.429 13.3715C122.538 12.47 122.648 11.563 122.884 10.6777C123.361 8.89086 123.879 7.10946 124.373 5.32806C124.436 5.10539 124.58 5.0022 124.822 5.0022C125.759 5.0022 126.697 5.0022 127.634 5.0022C127.991 5.0022 128.054 5.15427 127.962 5.44755C127.329 7.51136 126.691 9.57518 126.081 11.6499C125.512 13.567 124.851 15.4571 124.419 17.4122C124.327 17.8359 124.195 18.2432 124.034 18.6505C123.522 19.9214 122.567 20.5731 121.124 20.6057C120.566 20.6166 120.002 20.6057 119.444 20.6057V20.6112Z" fill="white"/>
<path d="M8.92313 32.1196C8.53202 32.1196 8.14092 32.1196 7.74982 32.1196C7.22643 32.1196 7.18617 32.0815 7.18042 31.6036C7.18042 31.3809 7.18042 31.1583 7.18042 30.941C7.16891 30.5228 6.94461 30.2404 6.52475 30.1209C5.7598 29.8982 4.98334 29.9145 4.21264 30.0992C3.89055 30.1752 3.63749 30.3653 3.62023 30.7075C3.59723 31.1528 3.47069 31.6362 3.98258 31.9458C4.32767 32.1521 4.70152 32.2879 5.09262 32.3911C6.18541 32.6735 7.31845 32.793 8.38248 33.1732C8.61254 33.2547 8.84836 33.3361 9.07266 33.4285C9.94114 33.7978 10.499 34.4115 10.6543 35.3076C10.7809 36.0245 10.7751 36.7523 10.6313 37.4746C10.4415 38.4251 9.81461 39.0388 8.90587 39.4352C8.24445 39.7231 7.54276 39.8534 6.82958 39.9023C5.39745 40.0001 3.96532 40.0381 2.56771 39.6525C1.49218 39.3538 0.635201 38.7889 0.232595 37.757C-0.0492286 37.0401 -0.00321648 36.2798 0.0197896 35.5303C0.0255411 35.3239 0.169329 35.2207 0.382135 35.2207C1.30813 35.2207 2.22837 35.2207 3.15436 35.2207C3.41318 35.2207 3.52821 35.3619 3.53396 35.5955C3.53396 35.8779 3.53396 36.1603 3.54546 36.4427C3.57997 37.0075 3.90206 37.3606 4.48871 37.4638C5.12138 37.5724 5.7598 37.5561 6.39246 37.4638C6.96761 37.3769 7.19192 37.1107 7.20342 36.5568C7.20342 36.421 7.19767 36.2852 7.20342 36.1494C7.23793 35.6878 6.98487 35.4217 6.55925 35.2424C5.80006 34.9274 4.99484 34.7862 4.18963 34.6287C3.16586 34.4278 2.1536 34.1888 1.25636 33.662C0.537425 33.2384 0.13482 32.6084 0.0888076 31.8046C0.0658016 31.3375 0.0600501 30.8704 0.0888076 30.4033C0.157826 29.165 1.03206 28.2092 2.51019 27.8344C4.31617 27.3728 6.1509 27.3565 7.95687 27.7747C9.82611 28.2037 10.6658 29.2519 10.7118 31.0931C10.7406 32.3205 10.7464 32.1087 9.67082 32.125C9.4235 32.125 9.17619 32.125 8.92888 32.125" fill="white"/>
<path d="M103.961 11.3402C103.978 11.9484 103.996 12.8229 103.863 13.6864C103.57 15.5927 102.195 16.8147 100.039 17.1188C98.8882 17.2818 97.7322 17.2763 96.5819 17.0591C94.4078 16.6463 93.0965 15.1691 93.0044 13.0781C92.9469 11.7366 92.9469 10.4006 93.0044 9.06454C93.0965 6.81606 94.4136 5.32251 96.7602 4.90975C98.0658 4.68164 99.3771 4.68708 100.671 5.00751C102.644 5.49088 103.835 6.93012 103.915 8.86359C103.944 9.60221 103.955 10.3354 103.961 11.3402ZM96.5359 10.9926C96.5359 11.5683 96.5359 12.1494 96.5359 12.7251C96.5474 14.1263 97.2548 14.7509 98.7329 14.6694C99.6359 14.6205 100.274 14.0992 100.355 13.2519C100.493 11.7475 100.476 10.2322 100.355 8.72781C100.32 8.27703 100.119 7.84797 99.6877 7.609C98.9515 7.20167 98.1693 7.19081 97.4043 7.5384C96.7487 7.83711 96.5589 8.4128 96.5416 9.04281C96.5244 9.69454 96.5416 10.3463 96.5416 10.998" fill="white"/>
<path d="M26.1259 11.0632C26.1259 11.6769 26.1374 12.2906 26.1259 12.9043C26.0799 15.2343 24.7915 16.6844 22.3644 17.0917C21.0761 17.309 19.7705 17.2927 18.4936 16.9831C16.5324 16.5106 15.3303 15.0985 15.2325 13.1868C15.1578 11.7475 15.1578 10.3137 15.2325 8.8799C15.3303 7.06048 16.2333 5.73529 18.0623 5.15417C19.9603 4.54589 21.9043 4.54589 23.7793 5.33882C25.3437 6.00142 25.9821 7.256 26.1144 8.78214C26.1777 9.53706 26.1259 10.3083 26.1259 11.0686H26.1374L26.1259 11.0632ZM22.5945 10.9926C22.5945 10.3191 22.6117 9.64025 22.5945 8.9668C22.5772 8.4617 22.4507 7.97291 21.9791 7.66876C21.2946 7.22341 20.5354 7.20712 19.7762 7.46781C19.0573 7.71764 18.7755 8.3042 18.741 8.9505C18.6604 10.3137 18.6489 11.6823 18.741 13.0401C18.8215 14.1915 19.6094 14.7346 20.9265 14.6694C21.9906 14.6151 22.5772 13.9906 22.6002 12.8718C22.6117 12.2472 22.6002 11.6172 22.6002 10.9926" fill="white"/>
<path d="M17.4871 39.7229C16.9005 39.7229 16.3138 39.7121 15.7272 39.7229C15.4166 39.7338 15.2556 39.6197 15.175 39.3319C14.2375 36.1601 13.2885 32.9884 12.3395 29.8166C12.1727 29.2627 12.006 28.7033 11.8219 28.1547C11.7184 27.8343 11.8334 27.7257 12.167 27.7311C13.0757 27.7365 13.9902 27.7365 14.9047 27.7311C15.1865 27.7311 15.3418 27.8343 15.4108 28.0895C16.1183 30.7725 17.0788 33.3957 17.3721 36.171C17.3836 36.2796 17.3376 36.4589 17.5274 36.4534C17.6769 36.4534 17.6539 36.2851 17.6654 36.1873C17.8495 34.8947 18.0335 33.6075 18.4074 32.3475C18.8157 30.9517 19.2126 29.5505 19.6037 28.1439C19.6842 27.8614 19.828 27.7311 20.1443 27.7365C21.0301 27.7474 21.9158 27.7365 22.8015 27.742C23.2387 27.742 23.2904 27.8017 23.1696 28.1982C22.4795 30.5281 21.7778 32.858 21.0818 35.1934C20.6792 36.5403 20.2709 37.8872 19.8855 39.245C19.782 39.598 19.6094 39.7555 19.2068 39.7338C18.6374 39.7012 18.0623 39.7284 17.4871 39.7284" fill="white"/>
<path d="M110.604 16.9886C110.017 16.9886 109.431 16.9778 108.844 16.9886C108.511 16.9995 108.355 16.8746 108.269 16.5759C107.55 14.1101 106.82 11.6499 106.089 9.18957C105.721 7.96214 105.347 6.72929 104.979 5.50186C104.847 5.06737 104.893 5.0022 105.37 5.0022C106.256 5.0022 107.142 5.0022 108.027 5.0022C108.257 5.0022 108.436 5.04021 108.505 5.28461C109.034 7.25067 109.695 9.18414 110.121 11.1719C110.288 11.9268 110.357 12.7035 110.472 13.4693C110.489 13.5725 110.455 13.7245 110.616 13.7354C110.788 13.7463 110.754 13.5833 110.771 13.4856C110.851 12.9533 110.909 12.4102 111.007 11.878C111.421 9.66208 112.168 7.51679 112.726 5.33349C112.79 5.08909 112.956 5.0022 113.215 5.00763C114.124 5.01306 115.039 5.00763 115.947 5.00763C116.373 5.00763 116.43 5.08366 116.31 5.48013C115.821 7.10946 115.32 8.73879 114.831 10.3735C114.205 12.4537 113.578 14.5338 112.962 16.6139C112.882 16.88 112.744 17.0049 112.439 16.9941C111.829 16.9778 111.214 16.9941 110.604 16.9941" fill="white"/>
<path d="M38.6124 33.8954V30.9408C38.6124 30.5317 38.3881 30.3271 37.9395 30.3271C37.6002 30.3271 37.2608 30.3217 36.9215 30.3271C36.5821 30.338 36.4154 30.2022 36.4211 29.8709C36.4326 29.2952 36.4269 28.7141 36.4211 28.1384C36.4211 27.856 36.5476 27.7365 36.8467 27.7419C37.2493 27.7528 37.6519 27.7419 38.0603 27.7419C38.4245 27.7419 38.6086 27.5736 38.6124 27.2368C38.6124 26.4982 38.6239 25.7596 38.6124 25.021C38.6067 24.6842 38.7505 24.5593 39.1013 24.5647C39.9353 24.5756 40.7692 24.5647 41.6032 24.5647C42.0691 24.5647 42.1323 24.6299 42.1381 25.0861C42.1381 25.7867 42.1381 26.4874 42.1381 27.188C42.1381 27.55 42.3356 27.7311 42.7305 27.7311C43.3689 27.7311 44.0073 27.7419 44.6458 27.7311C44.9908 27.7256 45.1461 27.8397 45.1404 28.1819C45.1231 28.7467 45.1289 29.3115 45.1404 29.8764C45.1461 30.1968 44.9966 30.3217 44.6745 30.3217C43.9958 30.3217 43.3172 30.338 42.6442 30.3217C42.2819 30.3108 42.1323 30.4195 42.1381 30.7779C42.1554 32.5593 42.1381 34.3461 42.1496 36.1275C42.1496 36.9639 42.3682 37.1594 43.2654 37.1757C43.737 37.1812 44.2029 37.1866 44.6745 37.1757C45.0024 37.1703 45.1519 37.2844 45.1461 37.6048C45.1346 38.1696 45.1346 38.7345 45.1461 39.2993C45.1519 39.6252 45.0024 39.7229 44.6745 39.7229C43.645 39.7121 42.6155 39.7229 41.586 39.7175C39.688 39.7066 38.6642 38.7508 38.6297 36.9531C38.6124 35.932 38.6297 34.911 38.6297 33.8899L38.6124 33.8954Z" fill="white"/>
<path d="M90.4565 8.67364C90.4565 11.2697 90.4565 13.8658 90.4565 16.4618C90.4565 16.9669 90.4335 16.9886 89.9101 16.9886C89.0762 16.9886 88.2422 16.9778 87.4082 16.9886C87.0746 16.9941 86.9251 16.8692 86.9309 16.5596C86.9309 16.451 86.9309 16.3369 86.9309 16.2283V1.1027C86.9309 1.0158 86.9309 0.928903 86.9309 0.842006C86.9424 0.391225 86.9941 0.336914 87.4773 0.336914C88.2825 0.336914 89.0934 0.336914 89.8986 0.336914C90.4335 0.336914 90.4508 0.353207 90.4508 0.852868C90.4508 3.45979 90.4508 6.06672 90.4508 8.67364" fill="white"/>
<path d="M57.3911 11.731C57.3911 13.6971 57.3911 15.6686 57.3911 17.6346C57.3911 17.955 57.3566 18.2755 57.3049 18.5905C57.0978 19.7636 56.1546 20.5402 54.826 20.5946C53.969 20.6271 53.1063 20.6 52.2493 20.6109C51.9847 20.6109 51.8754 20.5131 51.8754 20.2578C51.8812 19.655 51.8812 19.0521 51.8754 18.4493C51.8754 18.2103 51.9847 18.118 52.232 18.1234C52.4908 18.1288 52.7554 18.1343 53.0142 18.118C53.5606 18.0854 53.8194 17.841 53.8597 17.3359C53.8885 16.9666 53.9115 16.5973 53.9115 16.2334C53.9115 12.6815 53.9115 9.12409 53.9115 5.57216C53.9115 5.01819 53.923 5.00732 54.4924 5.00732C55.2861 5.00732 56.0798 5.00732 56.8735 5.00732C57.3336 5.00732 57.3854 5.0562 57.3854 5.50155C57.3854 7.58166 57.3854 9.65634 57.3854 11.7364" fill="white"/>
<path d="M29.4503 26.4441C29.0879 26.4441 28.7198 26.4495 28.3575 26.4441C27.9894 26.4332 27.9204 26.3354 28.0929 26.0422C28.7141 25.0211 29.3525 24.0055 29.9794 22.9899C30.0887 22.8107 30.244 22.7346 30.4568 22.7346C31.5208 22.7346 32.5906 22.7346 33.6546 22.7346C33.8157 22.7346 33.9767 22.7563 34.0515 22.9138C34.132 23.0822 34.0112 23.1963 33.902 23.2995C32.953 24.2716 31.9925 25.2438 31.0435 26.2214C30.8939 26.3789 30.7214 26.4495 30.4913 26.4441C30.1405 26.4332 29.7896 26.4441 29.4388 26.4441" fill="white"/>
<path d="M122.239 3.70944C121.877 3.70944 121.509 3.71487 121.147 3.70944C120.779 3.70401 120.715 3.60625 120.888 3.30754C121.17 2.82417 121.474 2.34623 121.768 1.8683C122.084 1.35777 122.406 0.852682 122.717 0.342159C122.855 0.114053 123.033 0 123.309 0C124.339 0 125.368 0 126.398 0C126.57 0 126.749 0 126.841 0.173795C126.938 0.353021 126.795 0.477936 126.68 0.591989C125.725 1.56959 124.764 2.53632 123.815 3.51935C123.643 3.69314 123.441 3.7203 123.217 3.71487C122.889 3.70944 122.567 3.71487 122.239 3.71487" fill="white"/>
<path d="M55.6542 3.55198C55.1998 3.55198 54.7454 3.55198 54.2853 3.55198C54.0265 3.55198 53.9057 3.44879 53.9057 3.19896C53.9115 2.43861 53.9115 1.67282 53.9057 0.912469C53.9057 0.662639 54.0207 0.559448 54.2853 0.559448C55.1825 0.559448 56.0798 0.564879 56.977 0.559448C57.2876 0.559448 57.3911 0.700657 57.3911 0.96678C57.3911 1.69455 57.3854 2.41688 57.3911 3.14465C57.3911 3.44336 57.2531 3.56284 56.9425 3.55741C56.5111 3.54655 56.0855 3.55741 55.6542 3.55741" fill="white"/>
<path d="M93.0447 34.33C93.0447 37.4583 90.3588 40.0001 87.0402 40.0001C83.7215 40.0001 81.0356 37.4638 81.0356 34.33C81.0356 31.1963 83.7215 28.66 87.0402 28.66C90.3588 28.66 93.0447 31.1963 93.0447 34.33Z" fill="#D72435"/>
</svg>
