<svg width="167" height="68" viewBox="0 0 167 68" fill="none" xmlns="http://www.w3.org/2000/svg">
<path d="M38.3369 68C38.2163 67.9377 38.0784 67.804 38.1129 67.4299C38.1215 67.3231 38.1215 67.2073 38.1129 67.0915V62.2015C38.1129 61.863 38.0525 61.5958 37.9147 61.3464L34.5882 55.2807C34.4934 55.0937 34.4159 54.9333 34.2349 54.8175C34.1918 54.7908 34.1315 54.773 34.0798 54.773C34.0367 54.773 33.9936 54.7819 33.9505 54.7997C33.7523 54.8977 33.6575 55.0669 33.5885 55.1916L33.0456 56.0378C31.9081 57.7836 30.7705 59.5294 29.6502 61.2841C29.4865 61.5424 29.3314 61.6225 29.047 61.6225C26.2721 61.6136 23.4972 61.6047 20.7222 61.5958H18.6367C18.3351 61.5958 18.2834 61.5602 18.2403 61.4622C18.2059 61.382 18.2145 61.3375 18.3954 61.1326L23.2041 55.2896C23.3593 55.1204 23.4885 54.969 23.5058 54.7285C23.5058 54.6305 23.4799 54.5414 23.411 54.4702C23.2989 54.3633 23.1524 54.3098 22.9887 54.3098H22.8336L21.8253 54.3277H21.584C21.2221 54.3277 20.9635 54.4613 20.7395 54.7463L16.1376 60.5893C16.0342 60.6962 15.8877 60.8565 15.9135 61.1237C15.9221 61.2574 16.0083 61.3642 16.129 61.3999C16.2927 61.4444 16.4134 61.5157 16.3875 61.9521L16.3703 62.2282C16.3444 62.6023 16.3272 62.9853 16.3272 63.3594C16.3272 63.9562 16.3013 64.553 16.2755 65.1497C16.241 65.8356 16.2152 66.5481 16.2324 67.2518C16.2324 67.3231 16.2324 67.3854 16.2324 67.4567V67.5814C16.2238 67.7328 16.1979 67.8664 16.1634 67.9911H0.0223907C0.0223907 67.9911 0.0223907 67.9644 0.0137729 67.9555C-0.0120804 67.8486 -0.0120804 67.8308 0.108568 67.7862C0.220599 67.7506 0.341248 67.7417 0.496367 67.7417H14.0262C14.3796 67.7417 14.7243 67.7417 15.0776 67.7417C15.7153 67.7417 15.8446 67.6259 15.9221 66.9846C15.948 66.8064 15.9566 66.6818 15.9566 66.5571C15.9652 65.2744 15.9997 63.9562 16.06 62.629C16.06 62.5578 16.06 62.4865 16.06 62.4153C16.06 62.0055 15.8446 61.7829 15.5171 61.7651C15.3534 61.7651 15.2758 61.7651 15.1896 61.7383C15.1207 61.7205 15.069 61.6938 15.0518 61.6493C15.0345 61.6136 15.0431 61.5513 15.0776 61.48C15.1035 61.4177 15.1638 61.3464 15.2069 61.2841L16.6719 59.4314C17.9904 57.7569 19.3175 56.0823 20.6361 54.3989C20.8429 54.1317 21.0411 54.0248 21.3686 54.007C22.058 53.9714 22.7474 53.9625 23.4282 53.9536H24.1176H24.2555C24.4106 53.9536 24.471 53.9981 24.4882 54.0515C24.4882 54.0694 24.514 54.1139 24.4451 54.194C24.2383 54.4435 23.2817 55.6192 23.2817 55.6192L19.3692 60.3666C19.2917 60.4557 19.2486 60.5092 19.2055 60.5804C19.128 60.714 19.1107 60.8654 19.171 60.9901C19.2314 61.1148 19.352 61.2039 19.5158 61.2217C19.6192 61.2395 19.7398 61.2395 19.8432 61.2395H21.0583C22.1614 61.2395 23.2731 61.2574 24.3762 61.2752C25.5223 61.293 26.6599 61.3108 27.806 61.3108H28.5644C29.047 61.3108 29.3658 61.1237 29.633 60.714C30.7188 59.0039 31.8219 57.3026 32.925 55.5925L33.6747 54.4345C33.7868 54.2475 33.8557 54.1406 33.9419 54.0426C34.0194 53.9536 34.0798 53.9268 34.1056 53.9268C34.1315 53.9268 34.1832 53.9625 34.2435 54.0604C34.4417 54.3811 34.6141 54.7107 34.795 55.0402L35.8636 56.982C36.6392 58.3982 37.4148 59.8144 38.199 61.2306C38.3628 61.5335 38.4317 61.8541 38.4059 62.2639C38.3369 63.3238 38.3455 64.3926 38.3542 65.4348C38.3542 65.9157 38.3542 66.3878 38.3542 66.8688C38.3542 67.0558 38.3542 67.2429 38.5007 67.3854C38.6558 67.5457 38.8798 67.5457 39.0781 67.5457H42.9388C43.6282 67.5457 43.7661 67.3943 43.7661 66.6728L43.7834 55.5034C43.7834 55.4143 43.7834 55.3698 43.7834 55.3252C43.8092 55.0669 43.8092 55.0669 44.0505 55.058C45.2742 55.0313 46.5066 55.0046 47.7389 54.9779C47.9371 54.9779 48.954 54.9779 48.954 54.9779L54.7279 54.8977C54.9433 54.8977 55.2708 54.8265 55.3656 54.3455C55.4432 53.8912 55.5983 53.4815 55.8051 53.1163C56.5807 51.8159 57.6321 51.1746 59.0368 51.1657H59.5883C60.0364 51.1657 60.5707 51.1657 61.0878 51.2458C61.4411 51.2904 61.4411 51.2993 61.467 51.6288C61.4928 52.1098 61.5101 52.5908 61.5015 53.0718C61.4842 54.1851 61.5187 55.3074 61.5445 56.3941C61.5704 57.2046 61.5962 58.0241 61.5962 58.8346C61.5962 59.1464 61.6135 59.4492 61.6221 59.761C61.6307 60.0282 61.648 60.2954 61.648 60.5715C61.648 61.1148 61.8203 61.2841 62.3632 61.293H62.7166C62.8286 61.293 62.9406 61.293 63.0526 61.293C63.5266 61.2663 63.63 61.0436 63.6559 60.6606C63.6559 60.5893 63.6559 60.5181 63.6559 60.4379V57.748C63.6473 55.2718 63.6387 52.8046 63.6214 50.3284C63.6214 49.981 63.6128 49.6247 63.6042 49.2774C63.5956 48.8053 63.5783 48.3421 63.5869 47.87C63.5869 47.2911 63.6559 47.2911 63.9403 47.2911C64.0178 47.2911 64.0954 47.2911 64.1902 47.3089C64.5435 47.3445 64.8969 47.3534 65.2588 47.3534C65.2588 47.3534 70.2743 47.487 72.5925 47.5583C72.8769 47.5583 73.1699 47.585 73.4543 47.6117H73.4715C73.8421 47.6117 74.0748 47.4959 74.2902 47.2465C74.6952 46.7834 75.1003 46.3202 75.5053 45.857L78.4009 42.5614C78.5215 42.4189 78.6422 42.2764 78.7628 42.1339L78.9438 41.9112C78.9955 41.8489 79.0213 41.7598 79.0127 41.6796C79.0127 41.5906 78.961 41.5193 78.9007 41.4659C78.7714 41.359 78.6249 41.3144 78.4612 41.3144H78.3147H77.1858C76.5136 41.3144 75.8414 41.3144 75.1692 41.2877C73.3681 41.2254 71.567 41.2165 69.8779 41.2076C69.4212 41.2076 69.0937 41.3323 68.8007 41.6173C68.3009 42.0983 67.801 42.5792 67.2926 43.0513L66.4567 43.844C65.569 44.6813 64.6814 45.5275 63.8024 46.3737C63.5869 46.5785 63.3629 46.6676 63.0699 46.6676C61.9754 46.6676 60.9327 46.721 59.933 46.7745C59.0368 46.819 58.1405 46.8635 57.2443 46.8814C56.4945 46.8814 55.7362 46.9348 54.9864 46.9793L54.004 47.0328C52.2891 47.1218 50.7724 48.5024 50.4793 50.2393L50.4449 50.4531C50.4276 50.56 50.4104 50.6669 50.3846 50.7737C50.3501 50.8984 50.3415 50.9252 50.1777 50.943H49.9795C48.7644 50.9073 47.5493 50.8094 46.3773 50.7203L45.9895 50.6936C45.7913 50.6758 45.5931 50.6669 45.3949 50.6669C45.1536 50.6669 45.0415 50.5956 44.9381 50.4264C44.7055 50.0434 44.4642 49.6693 44.2229 49.2952L42.2063 46.1064C42.1374 45.9907 42.0512 45.8481 41.8616 45.768C41.8271 45.7502 41.784 45.7502 41.7496 45.7502C41.7065 45.7502 41.6548 45.7591 41.6203 45.7858C41.5427 45.8214 41.491 45.8927 41.4652 45.9817C41.3531 46.3737 41.3273 46.7477 41.3014 47.1129C41.2928 47.2555 41.2756 47.398 41.267 47.5405C41.1549 48.5113 41.0601 49.4911 40.9567 50.462L40.8102 51.8426C40.8102 51.9049 40.793 51.9673 40.7758 52.0385L40.7499 52.1632C40.7327 52.2879 40.681 52.3325 40.5603 52.3503C40.4052 52.3681 40.2501 52.3859 40.0949 52.3859H38.7075C37.794 52.3859 36.8891 52.3859 35.9757 52.4126C34.8209 52.4394 33.6747 52.4483 32.5286 52.4572C31.3048 52.4572 30.0725 52.475 28.8488 52.5106C27.4355 52.5552 26.0308 52.5552 24.6175 52.5641C23.7126 52.5641 22.7991 52.573 21.8943 52.5908C21.5151 52.5908 21.4547 52.5373 21.4461 52.5284C21.4289 52.5106 21.3944 52.4215 21.4375 52.0296C21.5409 51.1211 21.6616 50.2215 21.7822 49.313C21.7822 49.313 22.1786 46.2668 22.3424 45.0821C22.351 44.9752 22.3682 44.8773 22.3941 44.7704C22.4199 44.6457 22.4716 44.6011 22.6009 44.5833L25.7636 44.236L26.4703 44.1647C26.8753 44.1202 27.2803 44.0845 27.6854 44.0311C28.2542 43.9598 28.4007 43.7817 28.392 43.1938C28.3403 41.163 28.3059 39.1322 28.2886 37.1014C28.2886 36.9233 28.2714 36.7451 28.2628 36.567C28.2455 36.3621 28.2283 36.1573 28.2369 35.9524C28.2369 35.8099 28.2369 35.7564 28.2369 35.7119C28.2714 35.4269 28.349 35.4269 28.4265 35.4269C28.4696 35.4269 28.5213 35.4269 28.5816 35.4447C28.9522 35.5338 29.3228 35.6406 29.6933 35.7386L33.5282 36.7808C33.8902 36.8787 33.8988 36.8965 33.916 37.2795C33.9419 37.9476 33.9591 38.6245 33.9505 39.2925C33.9333 40.2723 33.9591 41.2699 33.9936 42.223C34.0194 43.0335 34.0453 43.844 34.0453 44.6635C34.0453 45.2781 34.1832 45.4295 34.7778 45.4562L35.8205 45.4829C36.3462 45.4829 36.3462 45.0999 36.3548 44.8149C36.3548 44.5388 36.3548 43.6837 36.3548 43.6837V43.1493C36.3635 42.7129 36.3721 42.2853 36.3462 41.8489C36.3204 41.448 36.441 41.1541 36.7426 40.878C36.9667 40.6731 37.1735 40.4505 37.389 40.2278C37.5441 40.0675 37.6992 39.8982 37.8543 39.7468C38.1215 39.4885 38.2421 39.1857 38.2421 38.7937V35.5872C38.2421 33.9839 38.2421 32.3807 38.2249 30.7774C38.2249 30.3677 38.3197 30.1183 38.5868 29.8689C39.5003 28.996 40.4052 28.1142 41.3014 27.2324L42.551 26.0121C42.6544 25.9141 42.7923 25.7894 42.8095 25.5757C42.8268 25.4242 42.8699 25.353 43.206 25.2817C44.0333 25.1125 48.2818 24.2307 48.2818 24.2307L51.3928 23.5805C51.5738 23.5449 51.6772 23.5181 51.772 23.5092H51.7979C51.9185 23.5092 51.9702 23.527 51.9875 23.6874C52.0047 23.8121 51.9961 23.9368 51.9961 24.0615V29.4948C51.9961 29.6195 51.9961 29.7353 51.9961 29.8511C52.0133 30.1539 52.2115 30.3588 52.5045 30.3588H52.7631C52.8665 30.3588 52.9785 30.3588 53.0905 30.3498C53.3491 30.3231 53.6162 30.3142 53.8747 30.3142H54.5211C54.9089 30.332 54.9175 30.3409 54.9261 30.7329C54.9347 31.5701 54.952 32.3985 54.9692 33.2357C54.995 34.5807 55.0209 35.9257 55.0209 37.2617C55.0209 37.6893 55.0381 38.1168 55.064 38.5443L55.0898 39.1233C55.0898 39.248 55.176 39.3638 55.2881 39.4083C55.3225 39.4172 55.4259 39.444 55.4604 39.444C55.6758 39.444 55.7965 39.3014 55.8482 39.2302L56.0206 39.052C57.184 37.8585 58.3387 36.6739 59.4677 35.4447C59.6745 35.222 59.7693 34.9726 59.7779 34.652L59.7951 33.7791C59.8124 32.6122 59.8382 31.4543 59.8813 30.2875C59.9503 28.3369 60.0106 26.3862 60.045 24.4445C60.045 24.2218 60.0968 24.0347 60.2002 23.8655C60.7862 22.9035 61.398 21.8347 62.0444 20.5966C62.277 20.1602 62.5528 19.9909 63.0009 19.9909C63.0785 19.9909 63.1561 19.9909 63.2336 20.0088C64.0178 20.0978 64.8107 20.1691 65.5949 20.2403L66.741 20.3472L70.3088 20.6857C70.5932 20.7124 70.8689 20.7391 71.1533 20.7748C71.3429 20.7985 71.4406 20.9173 71.4463 21.131L71.4636 21.7724C71.498 22.9303 71.5239 24.0793 71.5411 25.2283C71.5498 26.2526 71.5842 27.2858 71.6101 28.3101C71.6273 29.0316 71.6532 29.7442 71.6704 30.4656C71.6876 31.2049 71.6876 31.9531 71.6963 32.6924V34.0552C71.7135 34.5985 71.7221 35.0706 72.2909 35.0706C72.2909 35.0706 72.5839 35.0617 72.6701 35.0617H73.0751C73.4801 35.0617 73.8852 35.0617 74.2902 35.0528C74.7642 35.0439 74.9365 34.8746 74.9538 34.3758C74.9538 34.2422 74.9538 34.1175 74.9538 33.9839V5.86434C74.9538 4.31451 75.4967 3.05862 76.5653 2.12338C77.384 1.41081 78.3836 0.974365 79.616 0.796224C80.1503 0.71606 80.7018 0.707153 81.2103 0.707153H84.9848C85.0796 0.71606 85.1744 0.71606 85.2692 0.724967C85.5565 0.736844 85.703 0.897171 85.7087 1.20595V5.83762C85.7173 6.42549 85.8121 6.55019 86.355 6.72833C87.4237 7.0757 88.2337 7.61903 88.837 8.41176C89.3885 9.12433 89.6557 9.89924 89.6557 10.7721V12.7406C89.647 14.326 89.6384 15.9026 89.6643 17.4881C89.7074 20.1156 89.7246 22.7432 89.7332 25.3708V27.9984C89.7418 28.1142 89.7418 28.1765 89.7505 28.2389C89.7935 28.7555 89.9745 28.9336 90.4916 28.9425C91.2586 28.9514 93.2579 28.9693 93.2579 28.9693C93.5681 28.9693 93.887 28.9782 94.1972 29.0049C94.1972 29.0049 94.3092 29.0049 94.3179 29.0049C94.8522 29.0049 94.8866 28.5328 94.9039 28.3814L95.1624 25.1036L95.4813 21.3092C95.5243 20.7748 95.5674 20.2403 95.5933 19.7059C95.6105 19.3942 95.6881 19.1626 95.8432 18.9666C95.8777 18.9221 96.0156 18.7261 96.0156 18.7261C96.5154 18.1026 96.7825 17.3545 96.8601 16.3658C96.9463 15.2346 97.0842 14.1123 97.2134 12.9811L97.3513 11.7786C97.3599 11.6896 97.3858 11.5916 97.4289 11.4936C97.4547 11.4402 97.472 11.4313 97.5237 11.4313C97.5926 11.4313 97.6185 11.4491 97.6443 11.5203C97.6874 11.6539 97.6874 11.8143 97.6874 11.9835V13.3552C97.7046 14.5844 97.7132 15.8135 97.7046 17.0427C97.7046 17.5059 97.8253 17.88 98.0924 18.2006C98.1355 18.2541 98.1786 18.3164 98.2217 18.3788C98.6124 18.9251 98.8249 19.4951 98.8594 20.0889L98.9025 20.8906C98.9801 22.289 99.0576 23.6785 99.1438 25.0769V25.2372C99.2472 26.6801 99.3334 28.1231 99.4023 29.5571L99.4627 30.7952C99.4971 31.5078 99.5402 32.2203 99.5574 32.9329C99.5747 33.4584 99.7212 33.6009 100.247 33.6187C100.419 33.6187 100.583 33.6187 100.755 33.6187C101.212 33.6187 101.669 33.6009 102.126 33.5831C102.574 33.5653 103.03 33.5475 103.479 33.5475H103.901C104.668 33.5475 105.443 33.5386 106.21 33.5297C106.417 33.5297 106.581 33.5831 106.753 33.69L107.658 34.269C109.571 35.4892 111.476 36.7006 113.406 37.903C113.768 38.1257 113.897 38.3573 113.889 38.7848C113.872 40.1298 113.906 41.4748 113.949 42.8197C113.966 43.6214 113.992 44.4319 114.001 45.2425C114.018 46.8457 114.061 48.449 114.121 50.0523C114.121 50.1859 114.121 50.3284 114.113 50.4709C114.096 50.56 114.07 50.6669 114.001 50.6669C113.975 50.6669 113.932 50.6669 113.854 50.6223C113.527 50.4531 113.199 50.2749 112.872 50.0879L108.098 47.4336C107.77 47.2555 107.443 47.0684 107.115 46.8814L106.331 46.436C106.141 46.3291 105.995 46.1777 105.883 45.9817L103.358 41.6618C103.168 41.3412 102.979 41.0116 102.789 40.682C102.617 40.3703 102.384 40.2189 102.074 40.21C102.014 40.21 101.945 40.2011 101.876 40.1832C101.772 40.1654 101.677 40.1565 101.574 40.1565H101.255C100.419 40.1565 99.5747 40.1209 98.7388 40.0942C98.1872 40.0764 97.6357 40.0496 97.0842 40.0407C96.0156 40.014 94.947 39.9784 93.8784 39.9338L92.3099 39.8715C92.1031 39.8715 91.8963 39.8715 91.6808 39.8715H91.5429C91.3189 39.8715 91.2068 39.7824 91.1293 39.5597C91.0431 39.3014 90.9483 39.0431 90.8449 38.7937C90.6984 38.3929 90.5433 37.9921 90.4226 37.5824C90.2589 37.0658 89.9659 36.6739 89.6815 36.2909L89.4919 36.0326C89.0524 35.418 88.5957 34.8123 88.1303 34.2066L87.6391 33.5564C87.4926 33.3604 87.3806 33.209 87.1651 33.209C86.9669 33.209 86.8463 33.3515 86.6825 33.5297L81.2792 39.6934C81.012 39.9962 80.7535 40.299 80.495 40.6019C80.2106 40.9403 80.2106 41.1363 80.495 41.4837C80.5812 41.5817 80.6673 41.6796 80.7535 41.7776C80.7535 41.7776 83.6663 44.9218 84.6057 45.9461C84.8728 46.24 85.14 46.534 85.4071 46.8279C85.7346 47.1931 86.0534 47.5583 86.3809 47.9057C86.536 48.066 86.5619 48.2619 86.5705 48.5292C86.5705 48.5292 86.5964 50.6401 86.5964 51.513C86.5964 51.9138 86.5964 52.3236 86.5964 52.7244C86.5964 53.3568 86.5964 53.9981 86.5964 54.6305V54.9512C86.6394 56.9909 86.6739 59.0395 86.6911 61.0792V61.3019C86.6911 61.6136 86.6911 61.8185 86.8376 61.9788C86.9841 62.1302 87.1996 62.1302 87.3547 62.1302C87.3547 62.1302 89.0438 62.1124 89.3196 62.1124H90.1382C90.7415 62.1124 91.3361 62.0946 91.9394 62.0768C92.534 62.059 93.1286 62.0323 93.7232 62.0323H94.0076C94.7229 62.0323 94.7746 61.7294 94.7832 61.2395C94.8091 60.1974 94.7832 59.1464 94.7574 58.1221C94.7401 57.3828 94.7229 56.6435 94.7229 55.9042C94.7229 53.1608 94.7229 50.4175 94.7143 47.6652V43.9509C94.7085 43.5412 94.901 43.3334 95.2917 43.3274L99.5402 43.2295H99.7126C99.9366 43.2473 99.9797 43.2829 99.997 43.5056C100.014 43.6748 100.014 43.853 100.014 44.0222V44.3517C100.031 44.8684 100.161 45.0198 100.669 45.0643L101.212 45.1088C101.514 45.1356 101.815 45.1623 102.117 45.1979C103.082 45.3137 103.772 45.8838 104.22 46.9348C104.418 47.4069 104.547 47.9235 104.59 48.4668C104.642 49.0458 104.676 49.6336 104.676 50.2126C104.685 51.611 104.694 53.0094 104.694 54.4078V56.3585C104.694 56.5099 104.694 56.6524 104.771 56.8127C104.814 56.8929 104.892 56.9552 104.978 56.9641H105.004C105.297 56.9641 105.418 56.8127 105.478 56.7415L105.866 56.3317C106.012 56.1803 106.15 56.0289 106.297 55.8864C107.451 54.7374 108.959 54.1139 110.528 54.1139C111.924 54.1139 113.251 54.6038 114.363 55.5212C114.656 55.7617 114.94 56.0111 115.233 56.2516L115.854 56.7771C115.992 56.9107 116.147 57.0532 116.397 57.0532C116.509 57.0532 116.629 56.982 116.681 56.8751C116.776 56.6702 116.767 56.4743 116.759 56.3139V55.0848C116.759 50.9163 116.759 46.7388 116.759 42.5703C116.759 42.2586 116.776 41.9468 116.802 41.6351C116.819 41.4035 116.827 41.1719 116.836 40.9314C116.836 40.6999 116.905 40.6999 116.965 40.6999C117.008 40.6999 117.051 40.6999 117.103 40.7177C117.508 40.8246 117.905 40.9582 118.301 41.0918L129.987 45.002C130.435 45.1534 130.883 45.2959 131.331 45.4473C131.584 45.5364 131.71 45.7175 131.71 45.9907V47.9057C131.71 49.2863 131.702 50.6669 131.71 52.0564C131.719 53.0094 131.71 53.9714 131.71 54.9244C131.71 55.8597 131.702 56.786 131.71 57.7212C131.71 57.7212 131.71 58.1042 131.71 58.2111C131.728 58.7099 131.891 58.8792 132.374 58.8792H134.597C135.005 58.8792 135.212 59.0959 135.218 59.5294C135.218 60.3666 135.226 61.2039 135.218 62.0323C135.218 62.5311 135.235 63.021 135.252 63.5108C135.269 63.9117 135.287 64.3125 135.295 64.7222C135.295 64.8024 135.295 64.8736 135.313 64.9538C135.356 65.1854 135.519 65.3368 135.726 65.3457C135.967 65.3457 136.14 65.1943 136.183 64.9716C136.2 64.9003 136.2 64.8291 136.209 64.7489C136.286 63.7157 136.286 62.7448 136.278 61.8007C136.278 61.4533 136.278 61.1059 136.278 60.7586C136.278 60.0638 136.286 59.3691 136.278 58.6743C136.278 58.1399 136.114 57.9528 135.606 57.8994C135.278 57.8727 134.951 57.8638 134.623 57.8549H134.373C134.192 57.846 134.028 57.8459 133.891 57.7925C133.83 57.7747 133.796 57.7391 133.779 57.7123C133.779 57.6856 133.779 57.6411 133.813 57.5876C133.882 57.4719 133.977 57.365 134.089 57.2403L135.976 55.1916C137.088 53.9803 138.199 52.7689 139.311 51.5576C139.604 51.2369 139.897 50.9163 140.182 50.5867C140.759 49.9365 141.345 49.2863 141.948 48.6628L142.06 48.547C142.207 48.3956 142.258 48.3956 142.258 48.3956C142.258 48.3956 142.31 48.3956 142.448 48.5203C142.931 48.9478 143.413 49.3931 143.887 49.8296C144.87 50.7292 148.946 54.5147 148.946 54.5147L149.032 54.6038C149.135 54.7196 149.273 54.8532 149.48 54.9155C149.506 54.9155 149.532 54.9244 149.566 54.9244C149.618 54.9244 149.67 54.9066 149.713 54.8799C149.963 54.7285 149.963 54.4791 149.963 54.3811L150.049 52.662C150.049 52.5552 150.066 52.4572 150.083 52.3503C150.109 52.2167 150.144 52.1989 150.23 52.1989L150.419 52.1811C150.575 52.1632 150.73 52.1543 150.876 52.1543H155.521C155.918 52.1543 155.926 52.1721 155.935 52.5641C155.935 53.241 155.935 53.9179 155.935 54.586C155.935 54.586 155.935 56.1091 155.935 56.501C155.935 57.3293 155.943 58.1666 155.918 58.995C155.857 60.6428 155.866 62.3084 155.866 63.9206C155.866 64.8291 155.866 65.7465 155.866 66.6639C155.866 67.0469 155.866 67.2785 156.03 67.4567C156.193 67.6259 156.417 67.6348 156.779 67.6348H166.698C166.828 67.6348 166.922 67.6348 167 67.6793V67.9822H155.719C155.607 67.902 155.573 67.7684 155.581 67.4834L155.599 53.2232C155.581 52.7333 155.469 52.4839 154.892 52.4839C154.892 52.4839 151.988 52.4839 151.031 52.4839C150.54 52.4839 150.342 52.6888 150.325 53.1965V53.3657C150.307 53.8912 150.29 54.4167 150.238 54.9422C150.195 55.352 150.325 55.6904 150.626 55.9666C150.902 56.2249 151.161 56.4921 151.428 56.7593L151.764 57.1067C151.988 57.3293 151.945 57.3739 151.91 57.4184C151.876 57.4362 151.85 57.4451 151.816 57.4451C151.755 57.4451 151.695 57.4095 151.6 57.3293L147.696 53.722L143.249 49.6336C143.077 49.4733 142.905 49.313 142.732 49.1705C142.612 49.0725 142.474 48.9567 142.293 48.9567C142.086 48.9567 141.948 49.0992 141.836 49.2239C141.336 49.7494 140.837 50.2749 140.337 50.8183C139.621 51.6021 135.442 56.1892 135.054 56.6168C134.916 56.7504 134.666 56.982 134.821 57.3204C134.864 57.4184 134.985 57.5787 135.261 57.5787C135.269 57.5787 135.356 57.5787 135.364 57.5787C135.511 57.5787 135.838 57.5787 135.838 57.5787C136.097 57.5787 136.485 57.5787 136.562 57.6589C136.64 57.7391 136.631 58.1666 136.622 58.318C136.622 58.5852 136.605 58.8613 136.597 59.1286C136.579 59.4848 136.571 59.8322 136.571 60.1885C136.571 61.2841 136.571 62.3796 136.571 63.4752V64.9983C136.571 65.4734 136.338 65.7139 135.873 65.7198H135.571C135.493 65.7198 135.425 65.7198 135.347 65.7198C135.054 65.702 135.02 65.6664 134.985 65.3546C134.968 65.2299 134.968 65.0963 134.968 64.9627V64.1521C134.951 63.2347 134.951 62.3262 134.951 61.4088C134.951 61.0436 134.925 60.6784 134.907 60.3043L134.882 59.8322C134.856 59.3423 134.683 59.1731 134.209 59.1642H131.71C131.478 59.1464 131.46 59.1375 131.452 58.8881C131.443 58.7277 131.443 58.5674 131.452 58.4071V46.6587C131.452 45.8749 131.357 45.7502 130.65 45.5275C129.194 45.0643 127.763 44.5744 126.324 44.0845L125.023 43.6392C123.317 43.0602 121.61 42.4991 119.895 41.929L117.956 41.2877C117.87 41.261 117.784 41.2343 117.698 41.2076C117.672 41.2076 117.586 41.1897 117.56 41.1897C117.353 41.1897 117.146 41.3323 117.12 41.644C117.12 41.7687 117.12 41.8845 117.12 42.0092L117.095 57.2492C117.095 57.5342 117.095 57.7034 117.06 57.8459C117.051 57.8816 117.017 57.9796 116.957 57.9796C116.939 57.9796 116.905 57.9796 116.853 57.9439C116.733 57.8727 116.621 57.7747 116.509 57.6767L115.75 57.0176C115.276 56.599 114.802 56.1892 114.311 55.7973C113.13 54.8532 111.889 54.3722 110.597 54.3722C109.692 54.3722 108.761 54.6038 107.822 55.0759C107.408 55.2807 107.012 55.5746 106.624 55.9755L104.961 57.6856C104.849 57.8014 104.763 57.8905 104.659 57.9617C104.625 57.9885 104.59 57.9974 104.564 57.9974C104.495 57.9974 104.461 57.9261 104.452 57.8816C104.426 57.8014 104.426 57.6945 104.426 57.5876V56.9374C104.426 56.5544 104.435 56.1803 104.426 55.7973C104.375 54.4078 104.366 52.9916 104.358 51.6199C104.358 50.8984 104.358 50.1681 104.34 49.4466C104.332 48.7518 104.246 48.0927 104.082 47.487C104.021 47.2644 103.944 47.0417 103.858 46.8279C103.496 45.9817 102.832 45.5186 101.893 45.4562C101.272 45.4117 100.643 45.3672 100.023 45.3048C99.8246 45.287 99.7729 45.2603 99.7557 45.2514C99.7557 45.2335 99.7298 45.1712 99.704 44.9574C99.6781 44.6902 99.6609 44.423 99.6523 44.1558C99.635 43.7728 99.4023 43.5412 99.049 43.5412C98.6612 43.5412 98.2906 43.5412 97.9115 43.5412C97.291 43.5412 96.6705 43.5412 96.0414 43.5768L95.6191 43.6125C95.1107 43.6481 94.9642 43.8084 94.9642 44.3339C94.9642 45.091 94.9642 47.4514 94.9642 47.4514V47.6919C94.9642 47.9324 94.9642 48.1729 94.9642 48.4134C95.0331 51.7891 95.0417 55.2273 95.0417 58.5585V61.0079C95.0417 61.1594 95.059 61.3019 95.0762 61.4533C95.0848 61.5513 95.0935 61.6582 95.0935 61.7561C95.1021 62.0857 95.0676 62.1926 95.0331 62.2371C94.9987 62.2728 94.8866 62.3262 94.5764 62.3262C93.8697 62.3262 92.1462 62.3262 92.1462 62.3262C91.4051 62.3262 90.7156 62.3529 90.0262 62.3707C89.3368 62.3885 88.656 62.4153 87.9666 62.4153H86.898C86.3981 62.4153 86.3981 62.4064 86.3895 61.9966C86.3809 60.8833 86.3637 59.761 86.3464 58.6476C86.3206 57.0978 86.2947 55.5479 86.2861 53.9981C86.2861 53.2499 86.2689 52.5017 86.2516 51.7535C86.2344 50.7025 86.2085 49.6515 86.2258 48.6004C86.2258 48.1729 86.0276 47.8968 85.8725 47.7275C84.6832 46.4449 83.494 45.1623 82.3133 43.8797C81.9686 43.5056 81.6325 43.1226 81.2878 42.7485C80.9948 42.4189 80.6932 42.0894 80.4002 41.7598C80.2365 41.5817 80.1072 41.4391 79.909 41.4391C79.7108 41.4391 79.5901 41.5727 79.4178 41.7598C77.6339 43.7372 75.8586 45.7769 74.3419 47.5316C74.1092 47.7988 73.8852 47.9057 73.5491 47.9057C72.3771 47.9057 71.2481 47.8611 70.1106 47.8166L68.6542 47.7632C68.2492 47.7453 67.8441 47.7453 67.4305 47.7364C66.8617 47.7275 66.2929 47.7097 65.7155 47.6919L65.2329 47.6652C65.0175 47.6563 64.8021 47.6385 64.578 47.6295H64.4487C63.8541 47.6295 63.811 47.9769 63.811 48.3956V49.7672C63.811 50.9964 63.8024 52.2345 63.8282 53.4637C63.8713 55.4321 63.8713 57.3917 63.8799 59.3601V61.0792C63.8799 61.2128 63.8886 61.2663 63.8799 61.3108C63.8627 61.5513 63.8196 61.5513 63.6817 61.5513C63.2767 61.5602 62.8631 61.5691 62.458 61.5691C62.1133 61.5691 61.7686 61.5691 61.4239 61.5691C61.2946 61.5691 61.286 61.5691 61.2429 61.391C61.1998 61.2395 61.1998 61.0792 61.1998 60.9189C61.2084 59.6719 61.1826 58.4338 61.1481 57.1957C61.1137 56.0556 61.0878 54.9155 61.0878 53.7843C61.0878 53.526 61.0706 53.2677 61.0533 53.0094C61.0361 52.7422 61.0189 52.4661 61.0275 52.19C61.0275 52.1098 61.0275 51.8604 60.8724 51.6912C60.8034 51.6199 60.6828 51.5397 60.4932 51.5397C60.2346 51.5397 59.9933 51.513 59.752 51.4952C59.4935 51.4685 59.235 51.4507 58.9764 51.4507C58.7524 51.4507 58.5283 51.4685 58.3043 51.513C56.7789 51.8248 55.6586 53.0985 55.5121 54.6928C55.4776 55.061 55.2794 55.2451 54.9175 55.2451H52.8665C52.3149 55.2451 51.772 55.2451 51.2205 55.2629C49.0574 55.3163 46.8857 55.3342 44.7227 55.352C44.1367 55.352 44.016 55.539 43.9816 56.0823C43.904 57.1067 43.9126 58.131 43.9212 59.1286C43.9212 59.5472 43.9212 59.9658 43.9212 60.3845C43.9126 61.9521 43.9212 63.5197 43.9212 65.0874V67.0113C43.9212 67.1805 43.9212 67.2696 43.9212 67.3498C43.9643 67.715 43.8609 67.8931 43.5334 67.9733H38.156L38.3369 68ZM29.1159 35.9702C28.6764 35.9702 28.6678 36.3977 28.6678 36.7095C28.6506 37.814 28.6764 38.9095 28.7109 39.9695C28.7367 40.878 28.7626 41.7954 28.7626 42.7039C28.7626 42.8821 28.7712 43.0602 28.7885 43.2384C28.8057 43.4432 28.8229 43.6481 28.8057 43.853C28.7885 44.1202 28.6534 44.2686 28.4007 44.2983L26.4013 44.521C25.4879 44.619 24.5658 44.7169 23.6523 44.8238L23.523 44.8416C22.8939 44.9129 22.7474 44.9931 22.6698 45.6076L22.644 45.8125C22.463 47.1129 22.2993 48.4223 22.1355 49.7227L21.9115 51.513C21.8856 51.7357 21.8512 51.9584 21.9977 52.1276C22.1442 52.3058 22.3682 52.3058 22.5837 52.3147H22.8422C23.1697 52.3147 23.5058 52.3058 23.8332 52.2879C24.0573 52.279 24.2728 52.2701 24.4882 52.2612C25.4706 52.2345 26.4617 52.2256 27.4441 52.2256C28.4868 52.2256 29.5296 52.2167 30.5637 52.1811C31.7788 52.1454 32.9939 52.1365 34.2176 52.1365C35.4758 52.1276 36.734 52.1187 37.9922 52.0831C38.3542 52.0742 38.7161 52.0742 39.0694 52.0742C39.3624 52.0742 39.6641 52.0742 39.9571 52.0653C40.431 52.0564 40.5948 51.896 40.6379 51.4151C40.6379 51.4151 40.6637 51.0231 40.6723 50.943L41.267 45.3939C41.2928 45.1534 41.3187 44.9129 41.3445 44.6813C41.3704 44.4943 41.4393 44.4765 41.4824 44.4675C41.5427 44.4675 41.5944 44.5121 41.6548 44.6011C41.7668 44.7615 41.8702 44.9307 41.9736 45.0999L42.6286 46.1332C43.4128 47.3712 44.197 48.6093 44.9812 49.8474C45.1277 50.079 45.3863 50.3996 45.8861 50.4264C46.6875 50.4709 49.359 50.6223 49.359 50.6223H49.609C49.9537 50.6223 50.195 50.4264 50.2725 50.079C50.3156 49.8919 50.3673 49.7138 50.4276 49.5357C50.6862 48.8142 51.074 48.2352 51.6169 47.7632C52.358 47.1129 53.2543 46.7656 54.2798 46.7299C55.6672 46.6854 57.0461 46.6231 58.4335 46.5518C59.8382 46.4805 61.2515 46.4271 62.6562 46.3826L63.0785 46.3647C63.3629 46.3558 63.5956 46.2579 63.8024 46.0708L65.4915 44.4764C66.6032 43.4343 67.7062 42.3833 68.8007 41.3233C69.1109 41.0205 69.4039 40.8958 69.7917 40.8958C71.1533 40.9403 72.4546 40.9582 73.7559 40.976C73.7559 40.976 76.2981 41.0027 76.5653 41.0116C77.4701 41.0294 78.375 41.0472 79.2885 41.0829C79.6677 41.0829 79.9262 40.9671 80.1417 40.7088C80.7449 40.0051 81.3654 39.3104 81.9772 38.6067L86.9755 32.9062C87.0789 32.7904 87.1565 32.7102 87.2341 32.6568C87.303 32.6122 87.3289 32.6033 87.3289 32.6033C87.3289 32.6033 87.3547 32.6033 87.4237 32.6657C87.5357 32.7726 87.6305 32.8973 87.7253 33.0131L90.4657 36.6293C90.5778 36.7808 90.6725 36.9678 90.7587 37.2261C90.8535 37.5111 91.2672 38.678 91.3706 38.9808C91.4912 39.346 91.7411 39.533 92.1203 39.533C92.2755 39.533 92.4306 39.5508 92.5857 39.5597C92.7494 39.5687 92.9132 39.5865 93.0769 39.5865C94.0938 39.6043 95.1107 39.6399 96.1276 39.6755C96.9549 39.7023 97.7822 39.7379 98.6095 39.7557C99.049 39.7646 99.4799 39.7824 99.9194 39.8002C100.574 39.827 101.229 39.8537 101.884 39.8537H102.315C102.668 39.8537 102.858 39.9695 103.048 40.3169C103.651 41.3857 104.263 42.4367 104.875 43.4967C105.271 44.1825 105.676 44.8773 106.072 45.5631C106.279 45.9194 106.546 46.1777 106.891 46.3469C107.744 46.7745 108.589 47.2644 109.408 47.7275C109.882 48.0036 110.356 48.2709 110.829 48.5381C111.235 48.7607 113.044 49.7761 113.044 49.7761C113.234 49.883 113.354 49.9365 113.484 49.9365C113.897 49.9365 113.906 49.4644 113.906 49.2328C113.906 49.028 113.906 48.8142 113.906 48.6093C113.906 48.6093 113.854 47.3623 113.846 47.0595C113.828 46.4984 113.82 45.9372 113.82 45.3761C113.82 44.6368 113.803 43.9064 113.777 43.1671C113.742 42.4635 113.742 41.7598 113.734 41.0561C113.734 40.4148 113.716 39.7824 113.699 39.1411C113.682 38.5711 113.484 38.2148 113.053 37.9476C111.122 36.7362 109.192 35.507 107.27 34.2779L106.908 34.0463C106.676 33.8949 106.434 33.8236 106.176 33.8236L105.84 33.8414C105.512 33.8592 105.185 33.877 104.857 33.877C104.857 33.877 101.66 33.9038 100.997 33.9127C100.807 33.9127 100.609 33.9305 100.419 33.9394C100.221 33.9483 100.023 33.9661 99.816 33.9661C99.454 33.9661 99.4196 33.9305 99.4023 33.592L99.2127 29.3077C99.1869 28.7911 99.1697 28.2656 99.1266 27.749C99.0232 26.4753 98.9542 25.1927 98.8939 23.919L98.8077 22.4048L98.644 19.599C98.6354 19.4209 98.6095 19.2338 98.4802 19.0646L97.7391 18.0225C97.6012 17.8265 97.4461 17.782 97.3427 17.782C97.1876 17.782 97.0411 17.8711 96.929 18.0581L96.7912 18.2808C96.6877 18.45 96.5757 18.6282 96.4464 18.7885C96.1707 19.1359 96.0242 19.5456 95.9897 20.08C95.9208 21.1399 95.8432 22.1999 95.7484 23.2598C95.6364 24.5692 95.533 25.8785 95.4296 27.1878L95.3003 28.8713C95.2658 29.3344 95.24 29.3344 94.8435 29.3344H93.706C92.7753 29.3255 91.8532 29.3166 90.9225 29.3077C90.5691 29.3077 90.2072 29.2721 89.8539 29.2454C89.6384 29.2276 89.6298 29.2276 89.604 29.0227C89.5953 28.9604 89.5953 28.8891 89.5953 28.8267C89.5953 27.7668 89.5781 26.7247 89.5609 25.6826L89.5436 24.3465C89.5178 22.3691 89.5178 20.3918 89.5092 18.4233C89.5092 15.8848 89.5005 13.3374 89.4488 10.7989C89.423 9.60531 88.9576 8.63444 88.0097 7.85062C87.6305 7.52996 87.1565 7.28947 86.5274 7.09352C86.4154 7.05789 86.3464 7.04007 86.2775 7.04007C86.019 7.04007 85.8725 7.21821 85.8552 7.56559C85.8552 7.65466 85.8552 7.74373 85.8552 7.8328C85.8725 9.05307 85.8811 10.2021 85.8897 11.36C85.9156 14.6022 85.9155 17.8443 85.9155 21.0865V24.4712C85.9155 24.5959 85.9156 24.7117 85.8811 24.8008C85.8552 24.872 85.8294 24.8898 85.769 24.8898C85.7001 24.8898 85.6742 24.872 85.6484 24.8275C85.6053 24.7473 85.5881 24.6404 85.5708 24.5157C85.5708 24.5157 83.1837 8.17127 83.0372 7.10242C82.9941 6.79068 82.9941 6.78177 83.3044 6.67488C83.8214 6.48784 84.3643 6.46111 84.8211 6.46111C85.4157 6.46111 85.5708 6.29188 85.5708 5.67729C85.5708 4.63517 85.5536 1.75819 85.5536 1.75819C85.5191 1.29502 85.3468 1.11688 84.89 1.08125C84.6487 1.08125 84.485 1.08125 84.3213 1.08125C83.8473 1.08125 83.3733 1.06344 82.8907 1.03671C82.4081 1.0189 81.9255 0.992179 81.4343 0.992179C81.2792 0.992179 81.1155 0.992179 80.9603 0.992179C79.909 1.02781 79.0127 1.20595 78.2285 1.53551C76.6687 2.19463 75.7466 3.37036 75.4708 5.03598C75.4019 5.47243 75.4019 5.89997 75.4105 6.3186V34.9192C75.4191 35.3378 75.4019 35.3645 74.9968 35.3734L74.6263 35.3912C74.4712 35.4002 74.316 35.4091 74.1695 35.4091H73.8852C73.3164 35.4269 72.739 35.4358 72.1702 35.4358H71.8255C71.6273 35.4358 71.6101 35.4269 71.5756 35.1864C71.5756 35.124 71.567 35.0706 71.567 35.0172L71.5498 33.9661C71.5411 33.3783 71.5325 32.7815 71.5067 32.1936C71.4722 31.392 71.4636 30.5903 71.4463 29.7798C71.4463 29.3344 71.4377 28.8802 71.4291 28.4348C71.386 26.4486 71.3515 24.4534 71.3171 22.4671V21.808C71.2912 21.2825 71.1964 21.1132 70.6449 21.0509C69.5849 20.944 68.5335 20.8371 67.4736 20.7391C66.922 20.6857 64.6728 20.4986 64.6728 20.4986L64.2505 20.4541C64.0265 20.4274 63.8024 20.4007 63.5783 20.3918C62.9923 20.3918 62.9751 20.8193 62.9578 20.9796C62.9578 21.0509 62.9578 21.1221 62.9578 21.1934C63.0268 22.1108 63.0268 23.0461 63.0182 23.9546C63.0182 24.3109 63.0182 25.4153 63.0182 25.4153C63.0182 25.8072 63.0182 26.1992 63.044 26.6C63.0871 27.5085 63.0871 28.4081 63.0957 29.3166C63.0957 29.7531 63.0957 30.1806 63.1044 30.6171C63.1044 30.7329 63.0871 30.9199 62.9492 30.9199C62.9492 30.9199 62.8458 30.9199 62.8113 30.6171C62.7252 29.9936 62.7165 29.3523 62.7079 28.7288V28.3279C62.6821 27.4907 62.639 26.6445 62.5959 25.8073C62.5442 24.7295 62.4925 23.6606 62.4839 22.5829C62.4839 22.3958 62.5011 22.1197 62.2081 21.8881C62.1564 21.8436 62.0875 21.8258 62.0271 21.8258C62.0099 21.8258 61.984 21.8258 61.9668 21.8258C61.8806 21.8436 61.8117 21.8971 61.7686 21.9683L61.5187 22.3958C61.2084 22.9392 60.8982 23.4736 60.5966 23.9991C60.519 24.1416 60.5018 24.293 60.4932 24.4267L60.4759 24.6761C60.4501 25.1036 60.4242 25.5222 60.4242 25.9498C60.407 26.9295 60.3898 27.9004 60.3467 28.8802C60.2605 30.8754 60.2174 32.8616 60.1743 34.8568C60.1743 35.1775 60.0795 35.3823 59.8727 35.5961C58.8127 36.6739 57.77 37.7605 56.7186 38.8472L55.3656 40.2456C55.2708 40.3436 55.2019 40.4148 55.1243 40.4772C55.064 40.5217 55.0295 40.5217 55.0209 40.5217C54.9692 40.5217 54.9347 40.4416 54.9175 40.4148C54.8744 40.3169 54.8658 40.2011 54.8658 40.0407C54.883 38.669 54.8572 37.2795 54.8227 35.9435C54.7968 34.7856 54.771 33.6277 54.771 32.4608C54.771 32.0956 54.771 31.7304 54.771 31.3653C54.7624 30.8397 54.59 30.6705 54.0816 30.6616H52.4011C52.0219 30.6616 51.8323 30.4656 51.8323 30.0737V24.8364C51.8323 24.4267 51.8323 23.9635 51.3325 23.9635C51.2377 23.9635 51.0912 23.9902 50.893 24.0347C48.549 24.5246 46.2049 25.0234 43.8695 25.5133C43.3525 25.6202 43.2146 25.7894 43.2146 26.3328C43.2232 29.1919 43.1887 32.0511 43.1629 34.9103L43.137 37.5378C43.137 38.2949 43.137 39.061 43.137 39.8181V41.2254C43.137 41.359 43.137 41.4748 43.1112 41.5817C43.0939 41.6618 43.025 41.7064 42.9819 41.7064C42.9043 41.7064 42.8785 41.6173 42.8785 41.5817C42.8354 41.3768 42.8095 41.163 42.8009 40.9582C42.7923 39.8359 42.7751 38.7136 42.7578 37.5824L42.7406 36.282C42.732 35.418 42.7061 34.5451 42.6889 33.6811C42.6544 32.0689 42.62 30.4567 42.62 28.8446C42.62 28.4526 42.62 28.0607 42.6113 27.6688C42.6113 27.5174 42.6372 27.2769 42.4045 27.0988C42.3528 27.0542 42.2839 27.0364 42.2235 27.0364C42.1718 27.0364 42.1115 27.0542 42.0684 27.081C41.8271 27.2324 41.6375 27.4283 41.4479 27.6154L40.7154 28.3458C40.1984 28.8713 39.6727 29.3879 39.147 29.8956C38.8281 30.1984 38.6903 30.5369 38.6903 30.9912C38.6903 32.3272 38.6903 33.6633 38.6903 34.9904C38.6903 36.3176 38.6903 37.6625 38.6903 38.9986C38.6903 39.3371 38.6041 39.5508 38.3886 39.7646C38.199 39.9428 38.0267 40.1298 37.8457 40.3169C37.6561 40.5217 37.4579 40.7266 37.2597 40.9136C36.9064 41.2432 36.7426 41.6351 36.7599 42.1339C36.7857 43.0691 36.7771 44.0044 36.7685 44.9396V45.4562C36.7685 45.8214 36.734 45.8303 36.4152 45.8303H36.2514C35.5792 45.8303 34.9157 45.8303 34.2521 45.7947C33.9246 45.7858 33.8988 45.7323 33.9074 45.4384C33.9074 45.0554 33.8902 44.6724 33.8729 44.2983C33.8557 43.942 33.8385 43.5947 33.8385 43.2384C33.8385 42.1072 33.8126 40.976 33.7868 39.8448C33.7695 39.1767 33.7523 38.4998 33.7437 37.8229C33.7437 37.2617 33.623 37.1192 33.0801 36.9767L29.5899 36.0326C29.4089 35.9791 29.2883 35.9524 29.1763 35.9524M84.7866 6.79068C84.5626 6.79068 84.3471 6.79068 84.1231 6.80849C83.899 6.8263 83.6405 6.86193 83.4853 7.05789C83.3302 7.25384 83.3475 7.52105 83.3819 7.77045C83.494 8.58099 83.6146 9.39154 83.7353 10.211L84.89 18.0225C84.9073 18.1205 84.9676 18.2095 85.0538 18.2541C85.0969 18.2719 85.14 18.2897 85.1917 18.2897C85.2434 18.2897 85.2865 18.2808 85.3382 18.2541C85.433 18.2006 85.5364 18.067 85.5364 17.9601V7.56559C85.5364 7.56559 85.5364 7.39636 85.5364 7.38745C85.5364 7.02226 85.3037 6.78177 84.959 6.78177H84.8039L84.7866 6.79068Z" fill="#23234A"/>
</svg>
