<svg width="13" height="13" viewBox="0 0 13 13" fill="none" xmlns="http://www.w3.org/2000/svg"><path d="M11.216 3.033l-9.722 9.722A.846.846 0 01.87 13a.846.846 0 01-.625-.245A.846.846 0 010 12.13c0-.252.082-.46.245-.624l9.722-9.722H4.973a.86.86 0 01-.636-.257.867.867 0 01-.256-.635C4.08.64 4.166.428 4.337.257A.865.865 0 014.973 0h7.135c.253 0 .465.086.636.257A.86.86 0 0113 .892v7.135a.864.864 0 01-.257.636.86.86 0 01-.635.256.867.867 0 01-.635-.257.86.86 0 01-.257-.635V3.033z" fill="#0F1A20"/></svg>