<svg width="40" height="21" viewBox="0 0 40 21" fill="none" xmlns="http://www.w3.org/2000/svg"><g clip-path="url(#clip0_134_93603)"><path d="M0 0h10l.412.433h19.175L30 0h10v21H30l-.413-.433H10.413L10 21H0V0z" fill="#D52B1E"/><path d="M10 0h20v21H10V0zm10.375 19.381l-.188-3.775a.434.434 0 01.134-.331.392.392 0 01.329-.098l3.58.66-.484-1.4a.297.297 0 01.083-.319l3.921-3.334-.883-.433a.279.279 0 01-.133-.144.298.298 0 01-.009-.201l.775-2.503-2.258.503a.26.26 0 01-.18-.026.28.28 0 01-.125-.14L24.5 6.76l-1.762 1.986a.26.26 0 01-.32.057.278.278 0 01-.12-.129.297.297 0 01-.023-.178l.85-4.602-1.363.827a.262.262 0 01-.379-.119L20 1.75l-1.383 2.853a.282.282 0 01-.166.145.259.259 0 01-.213-.027l-1.363-.827.85 4.602a.297.297 0 01-.023.178.278.278 0 01-.12.129.26.26 0 01-.32-.057L15.5 6.759l-.438 1.081a.28.28 0 01-.123.14.26.26 0 01-.18.026L12.5 7.503l.775 2.503a.298.298 0 01-.009.2.279.279 0 01-.133.145l-.883.433 3.92 3.334a.297.297 0 01.083.32l-.482 1.4 3.579-.661a.377.377 0 01.33.098.417.417 0 01.133.33l-.188 3.776h.75z" fill="#fff"/></g><defs><clipPath id="clip0_134_93603"><rect width="40" height="21" rx="2" fill="#fff"/></clipPath></defs></svg>