<svg width="107" height="40" viewBox="0 0 107 40" fill="none" xmlns="http://www.w3.org/2000/svg"><g clip-path="url(#clip0_2201_871)"><path d="M46.902 20.06l-4.41 14.7h-5.465l4.409-14.7h5.466zM59.264 24.08c-1.278-.499-2.635-.749-4.001-.737-.857 0-2.352.024-2.643.971-.573 1.915 7.452.105 5.753 5.77-1.181 3.939-5.25 4.93-8.41 4.93a21.597 21.597 0 01-5.662-.695l1.132-3.813a10.81 10.81 0 004.605.967c1.284 0 2.53-.273 2.748-1.01.593-1.98-7.425-.187-5.715-5.895 1.246-4.044 5.53-4.761 8.773-4.761 1.53.004 3.056.173 4.553.503l-1.133 3.77zM62.374 20.06h8.97c2.468 0 4.646.82 3.808 3.623-.608 2.02-1.97 3.095-4.016 3.598v.043c1.887.277 2.642 1.876 2.2 3.35-1.113 3.708-4.122 4.086-7.077 4.086h-8.293l4.408-14.7zm1.643 11.666h1.426c1 0 2.194-.39 2.537-1.516.378-1.264-.574-1.494-1.593-1.494h-1.46l-.91 3.01zm1.812-6.043h1.362c.959 0 2.088-.296 2.424-1.412.336-1.115-.468-1.43-1.446-1.43h-1.491l-.85 2.842zM87.08 20.06h5.466l-4.409 14.7h-5.47l1.586-5.287h-3.65l-1.585 5.287h-5.463l4.41-14.7h5.458l-1.51 5.07h3.65l1.517-5.07zM94.807 20.06H107l-1.061 3.537h-6.726l-.714 2.378h6.523l-1.061 3.54h-6.526l-1.556 5.245H90.4l4.408-14.7zM20.025 0C15.123-.175 10.34 1.584 6.647 4.92c3.81 8.368 8.675 17.8 9.962 19.952 3.122 5.295 7.467 4.577 20.69 2.73a20.603 20.603 0 001.372-9.443 20.443 20.443 0 00-3.02-9.025 19.645 19.645 0 00-6.727-6.55A18.904 18.904 0 0020.026 0z" fill="#FAFAFA"/><path d="M49.2 15.85a4.09 4.09 0 01-1.265 1.976 3.842 3.842 0 01-4.367.463 4.014 4.014 0 01-1.628-1.67 4.192 4.192 0 01.419-4.515 3.945 3.945 0 011.905-1.32 3.828 3.828 0 012.294-.003 3.983 3.983 0 012.334 1.971c.495.95.606 2.063.308 3.098z" fill="#F7602B"/><path d="M29.006 34.76c-7.414.19-10.332-.534-12.457-3.252-1.755-2.238-7.55-13.572-12.242-24.065C1.241 11.366-.277 16.34.057 21.37c.334 5.03 2.496 9.744 6.051 13.198 3.556 3.454 8.244 5.392 13.124 5.428 4.881.036 9.595-1.835 13.197-5.236h-3.423z" fill="#FAFAFA"/></g><defs><clipPath id="clip0_2201_871"><path fill="#fff" d="M0 0h107v40H0z"/></clipPath></defs></svg>