<svg width="83" height="117" viewBox="0 0 83 117" fill="none" xmlns="http://www.w3.org/2000/svg"><g clip-path="url(#clip0_15_83664)"><path d="M41.224 117c-1.391 0-2.567-.672-3.605-1.262-.366-.211-.711-.405-1.051-.568-13.724-6.528-23.244-16.545-28.297-29.765-.418-1.09-.418-2.148-.418-3.178v-16.75c0-4.734.004-9.966.004-15.348l-6.138-2.18h-.41c-.723 0-1.313-.59-1.313-1.313V19.56c0-.724.59-1.314 1.314-1.314h6.526c-.013-6.532-.04-11.377-.065-14.408-.017-1.537.224-2.442.806-3.027C9.137.24 9.994 0 11.437 0h.241c3.881.065 8.085.095 13.242.095 3.006 0 6.013-.009 9.02-.017a2222.138 2222.138 0 0115.676-.01c2.7.005 5.397.01 8.098.01 5.583 0 9.899-.022 13.987-.07h.146c1.319 0 2.103.225 2.628.754.539.543.763 1.374.754 2.77-.026 2.97-.043 7.785-.047 14.71h6.508c.724 0 1.314.59 1.314 1.313v27.077c0 .724-.59 1.313-1.314 1.313h-.133l-6.375 2.266c0 11.532 0 24.265-.052 30.311-.056 6.838-3.666 12.19-7.68 17.526-6.182 8.212-14.41 14.465-24.455 18.59a4.631 4.631 0 01-1.766.362" fill="#fff"/><path d="M81.682 18.646h-6.914c.009-6.408.022-11.769.052-15.12.021-2.458-.698-3.143-3.115-3.117C61.643.53 51.58.461 41.513.461 31.567.469 21.616.568 11.669.405 8.96.362 8.15 1.05 8.18 3.824c.035 3.35.056 8.578.07 14.818H1.313a.909.909 0 00-.91.908v27.078c0 .504.41.908.91.908h.478l6.474 2.3c0 13.547-.013 26.173-.008 32.365 0 1.03 0 2.029.392 3.054 5.26 13.758 14.999 23.309 28.094 29.54 1.736.827 3.554 2.502 6.096 1.46 9.756-4.005 17.963-10.064 24.282-18.456 3.847-5.108 7.543-10.512 7.599-17.286.047-5.817.051-17.698.051-30.591l6.712-2.386h.202c.504 0 .91-.409.91-.908V19.55a.909.909 0 00-.91-.908" fill="#fff"/><path d="M80.906 18.646h-6.134c.005-6.408.022-11.769.048-15.12.021-2.458-.698-3.143-3.115-3.117C61.643.53 51.58.461 41.513.461 31.567.469 21.616.568 11.669.405 8.96.362 8.15 1.05 8.18 3.824c.035 3.35.056 8.578.07 14.818H2.093c-.93 0-1.69.753-1.69 1.688v25.523c0 .693.419 1.287 1.018 1.546h-.01l6.854 2.437c0 13.547-.013 26.173-.008 32.365 0 1.03 0 2.029.392 3.054 5.26 13.758 14.999 23.309 28.094 29.54 1.736.827 3.554 2.502 6.096 1.46 9.756-4.005 17.963-10.064 24.282-18.456 3.847-5.108 7.543-10.512 7.599-17.286.047-5.817.051-17.698.051-30.591l6.953-2.467-.103-.078a1.68 1.68 0 00.977-1.524V20.33c0-.93-.754-1.688-1.688-1.688" fill="#fff"/><path d="M4.622 45.095L1.417 47.41l7.844 2.787.009-5.388-4.648.285zM78.516 45.142l3.205 2.317-7.845 2.786v-5.361l4.64.258z" fill="#E40425"/><path d="M41.513.465C31.567.474 21.616.573 11.669.41 8.96.366 8.15 1.055 8.176 3.83c.142 14.447.069 63.93.077 78.381 0 1.03 0 2.028.392 3.053 5.26 13.758 15 23.31 28.095 29.541 1.736.827 3.554 2.502 6.095 1.46 9.757-4.005 17.963-10.064 24.283-18.457 3.846-5.107 7.542-10.511 7.598-17.285.117-13.987-.017-63.004.104-76.99.021-2.46-.698-3.144-3.115-3.119C61.643.534 51.58.465 41.513.465z" fill="#23234A"/><path d="M81.225 47.545H1.775c-.758 0-1.37-.611-1.37-1.37v-26.16c0-.758.612-1.37 1.37-1.37h79.45c.758 0 1.37.612 1.37 1.37v26.16c0 .759-.612 1.37-1.37 1.37zM57.21 100.589a3.665 3.665 0 11-7.33 0 3.665 3.665 0 017.33 0z" fill="#E40425"/><mask id="a" style="mask-type:luminance" maskUnits="userSpaceOnUse" x="12" y="4" width="59" height="108"><path d="M12.777 65.046c0 7.023-.005 12.935 0 16.621 0 .608 0 1.18.094 1.422 4.652 12.169 13.095 21.023 25.816 27.077.508.241.97.504 1.379.736.353.203.865.496 1.137.595 9.18-3.785 16.688-9.491 22.318-16.967 3.502-4.65 6.647-9.267 6.69-14.606.055-6.886.051-22.643.047-37.874 0-14.748-.009-29.967.043-37.666-3.662.039-7.702.056-12.57.056-2.705 0-5.41-.005-8.111-.009-2.701-.004-5.398-.008-8.09-.008-2.52 0-5.04.008-7.56.017-3.015.008-6.03.021-9.046.021-4.695 0-8.607-.026-12.208-.077.095 11.704.082 41.038.07 60.67" fill="#fff"/></mask><g mask="url(#a)"><path d="M18.536 103.991c-.461-1.038-1.379-1.916-1.426-3.118-.034-.594.254-1.14.564-1.627.289-.418.595-.853 1.034-1.124.013 0 .022-.009.043-.009.017-.013.078.03.07.06 0 .048-.018.056-.027.078-.021.034-.043.064-.064.094-.375.461-.927.698-1.418 1.008l-1.503.853c-1 .568-2.003 1.137-2.955 1.778-.465.328-.948.663-1.297 1.098-.19.224-.198.474-.081.745.516 1.335 1.31 2.55 2.063 3.768.62.969 1.27 1.917 1.96 2.838.612.771 1.197 1.619 2.007 2.192.784.637-.069-2.98-.103-3.281-.198-1.353-1.021-4.156.422-5.017 2.076-1.047 4.394-1.425 6.556-2.226.267-.099.535-.203.784-.328.233-.125.526-.275.479-.465-.156-1.089-.806-2.114-1.444-3.001-.504-.625-1.128-1.37-1.985-1.077-1.021.228-2.094.422-3.046.849-.004 0-.009.017.013-.026.013-.022.013-.095-.017-.125-.022-.03-.035-.03-.039-.035-.009 0 .026.005.052.009 3.153.022 6.1-1.499 8.813-2.989.672-.314 1.301-.663 2.012-.882.504-.164.965.224 1.284.564.512.564.84 1.378.689 2.149-.142.448-.431.805-.707 1.162-.736.909-1.568 1.718-2.45 2.481-.384.305-.746.65-1.215.839-.03.009-.052.018-.1.018-.034 0-.103.004-.18-.052a.27.27 0 01-.074-.103c-.09-.31.237-.569.444-.694 1.322-.715 3.14-.938 4.445-1.658.535-.267.677-.676.603-1.24-.142-1.102-.641-2.166-1.141-3.16-.108-.186-.28-.535-.388-.694-.788-.275-1.632-.034-2.464-.224-.107-.026-.237-.082-.305-.194-.207-.391-.354-1.072-.492-1.494-.323-1.09-.667-2.187-1.176-3.2-.254-.503-.542-.947-.965-1.339-2.007-2.023-4.346-3.974-5.587-6.64-.637-1.68-.624-3.522-.18-5.25l.28.285a.63.63 0 00-.207.112c-.022.022-.03.035-.03.039l.004.026c.34.452 1.06.659 1.602.878.845.306 1.723.543 2.602.784a93.08 93.08 0 005.299 1.287c1.326.272 2.666.534 4.014.634.362.008.84.068 1.16-.09.163-.152.24-.285.352-.496.035-.073.173-.22.32-.194.133.009.249.116.314.172.422.392.822.784 1.257 1.159 2.34 2.067 5.94 5.098 8.237 7.208.107.108.22.207.323.336.017.043.026-.013.069.168-.38.525-.237.155-.293.267-3.365-.603-4.278-.047-7.065 1.705-.745.47-2.744 1.732-3.476 2.18-.461.258-.896.585-1.439.749a.536.536 0 01-.185 0c-1.62-.702-3.054-1.822-4.467-2.873-.883-.74-1.891-1.46-2.438-2.536-.134-.271-.138-.71.137-.922 1.194-.943 5.075 2.446 6.113 3.247 1.4 1.206 2.839 2.373 4.01 3.816.224.392.41.818.668 1.18.75 1.21 2.27 1.024 3.507.96 1.516-.134 4.325-.34 4.39-2.304-.061-1.145-.014-3.212-1.013-3.94-.073-.07-.315-.06-.517-.043-.866.094-1.745.357-2.585.654-.969.384-3.153 1.193-3.252 2.326-.142 1.688.564 3.277 1.228 4.805.366.806.62 1.736 1.034 2.494.107.176.228.31.383.374.844.375 5.488-1.447 5.841-2.316.022-.018-.03-.194-.034-.22l-.09-.323c-.19-.573-.358-1.197-.69-1.692 0 0 .009.008.039.017.026.013.112.004.146-.026.06-.056.039-.056.043-.043.155 1.313 1.18 5.8 1.452 7.187.396 2.015.905 4.022 1.107 6.08 0 1.503-3.101 2.033-4.252 2.067-.564 0-1.326 0-1.748-.499-.681-1.09-.978-2.364-1.301-3.591-.25-1.254-.875-3.773.094-4.811.32-.314.625-.137.789.177.422.87.525 1.77.689 2.696.194 1.365.349 2.73.319 4.112-.112 1.382-.62 2.683-.858 4.026-.129.819-.34 1.831.199 2.515.603.625 1.636.603 2.464.629.904.004 1.817-.043 2.735-.034 2.279.043 4.54.357 6.815.15.581-.082 1.796-.15 1.904-.831 0-.534-.035-1.111-.461-1.481-.668-.577-1.568-.874-2.387-1.206-1.706-.637-3.42-1.309-4.962-2.342l.177-.108c.146.68.525 1.468 1.279 1.563.844-.017 1.008.349.637 1.09-.051.116-.103.232-.12.335-.009.052 0 .082.008.091-.004 0 .013.008.065-.009.556-.215 1.09-.956 1.775-.74.15.077.275.189.293.374 0 .194-.112.315-.207.409-.405.379-.94.556-1.396.844-.008.005-.017.018-.013.009 0 0 .013-.013.009-.056a.086.086 0 00-.043-.06s.086.008.138 0c.663.021 4.126-.767 3.954.344l-.013.056a.327.327 0 01-.034.069c-.117.151-.246.181-.37.237-2.18.654-7.875.797-9.904-.185-1.348-.741-1.452-2.054-1.318-3.428.073-1.021.163-2.033.194-3.049 0-2.028-.543-4.026-1.073-5.977-.857-2.924-1.848-5.84-3.192-8.574-1.857-3.699-5.484-6.011-9.18-7.613-.939-.46-2.287-.887-3.093-1.576-.452-.465.108-.835.578-.857 1.512-.177 3.106.306 4.579.172-.013.026 0 .043-.009.026-.715-.581-1.658-.87-2.49-1.266-2.567-1.137-5.307-1.873-7.818-3.148-1.826-1.162-2.14-4.65-1.21-6.463.482-.952 1.512-1.434 2.395-1.942a13.912 13.912 0 017.465-1.546c.254.021.551.051.792.258.246.22.32.624.074.878-.336.285-.759.44-1.176.513-.88.146-2.766.064-3.662.082H21.23c1.55-2.997 4.845-4.29 7.413-6.184 1.262-.93 2.425-1.994 3.562-3.079 1.021-.934 2.37-2.442 3.575-3.14 1.026-.628 2.12-1.14 3.283-1.45.301-.104 1.818-.375 1.477.322-.439.573-1.068.948-1.632 1.374-.646.457-1.31.892-1.973 1.322-1.331.857-2.68 1.68-4.045 2.472a54.11 54.11 0 01-2.076 1.15c-.41.19-.771.439-1.24.512-.031-.004-.066.004-.143-.047-.03-.017-.073-.086-.073-.12.013-.397.172-.737.267-1.112.49-1.511 1.077-2.988 1.84-4.396.904-1.667 1.71-2.58 3.708-2.83 1.585-.245 3.183-.258 4.773-.107.556.073 1.154.112 1.667.383.086.043.224.194.211.332-.004.163-.073.378-.211.486-.164.13-.194.258-.207.521a5.743 5.743 0 00.228 1.688c.44 1.486 1.112 2.92 1.866 4.29.577.968 1.163 2.049 2.067 2.72 2.516 1.353 5.48.845 6.677-1.941a8.805 8.805 0 00.685-2.192l.319.241c-1.236.47-2.593.276-3.774-.237-.908-.353-1.826-.904-2.756-1.154-.03 0-.048.004-.03 0 .004-.004.02-.013.025-.022.009-.012-.004.01-.013.026-.305.586-.986 4.031-1.878 3.682-.22-.095-.28-.267-.323-.387-.095-.34-.069-.672-.047-1.004.034-.594.22-1.791.047-2.364-.19-.663-.913-1.236-1.576-1.335a.626.626 0 00-.207.009c-.022.004-.056.026-.035.013-.069.125-.073.34-.064.542.034.444.112.952.344 1.318.013.022.035.022-.013 0-.026-.009-.064 0-.086.009-.021.013-.021.017-.021.013.258-.453.293-1.077.271-1.598-.034-.47-.116-.939-.396-1.292a.659.659 0 00-.125-.12l-.07-.052s-.016-.013-.038-.035c-.004-.034-.06.009-.077-.215.163-.357.271-.194.275-.237.185.009.44.134.616.19 1.62.633 5.277 2.14 6.867 2.674 1.227.418 3.463 1.283 3.696-.693.34-2.58-.078-5.939-2.348-7.545-2.71-1.817-7.5-1.791-8.904 1.623-.233.776-.633 1.676.026 2.313.551.525 1.426.65 2.12.947.77.28 1.541.573 2.304.87 1.675.638 3.33 1.322 5.005 1.93.108.034.263.068.328.154.103.095.129.25.155.358.09 1.43-.556 2.833-1.555 3.845-.625.612-1.46.905-2.266 1.193-.827.276-1.624.47-2.52.46l.297-.36c.263 1.007.513 2.006.633 3.044.026.357.134 1.076-.404 1.145-.461-.052-.84-.4-1.18-.629-.552-.426-2.09-1.692-.871-2.2.93-.142 2.916-.138 3.493.72.31.589-.236 1.222-.503 1.691-.582.87-1.228 1.671-1.926 2.442-.616.672-1.4 1.456-2.412 1.31-1.18-.328-.784-1.81-.573-2.64.194-.616.366-1.25.805-1.757.052-.044.104-.108.267-.147.483-.056.5.521.53.827.16 1.903.302 3.806-.073 5.701-.267 1.064-.827 1.968-1.499 2.804-2.498 3.04-2.468-2.679 1.546-.44l1.818.922c.552.301 1.31.624 1.835.99.09.056.216.16.302.289.043.077.064.19.051.267-.25 1.326-1.387 4.827-2.726 5.288-.75.12-1.47-.332-2.145-.59a35.411 35.411 0 01-3.632-1.955c-1.688-1.094-5.871-3.6-5.845-5.762 0-2.786.784-5.486 1.796-8.061.315-.668.556-1.318 1.146-1.843 1.477-1.038 4.088-.345 4.924 1.24.348.702.344 1.516.034 2.24-.491 1.072-1.796 1.394-2.809 1.558-.659.125-1.33.134-1.968.323-1.293.388-1.624 1.826-1.314 3.027.138.633.375 1.22.771 1.744 1.197 1.568 2.869 2.834 4.566 3.859.71.4 1.439.818 2.227.947 1.133.022 2.11-.758 3.093-1.275.745-.417 1.508-.938 2.386-1.132 1.892-.34 1.28 2.2.918 3.212-.37 1.008-.75 2.011-1.534 2.8-.297.25-.676.365-1.038.473-.404.116-.805.181-1.21.246 0 0-.022.008.017-.005.37-.697-.306-.53-.06-.542.909.086 1.701-.237 2.563-.616 1.262-.547 2.563-1.137 3.972-1.236.689-.026 1.33-.095 1.981-.245.896-.242 2.4-.668 2.455-1.727-.081-.44-.284-.978-.383-1.426-.039-.215-.164-.611-.297-.714-.198-.035-.556.193-.78.245-.232.082-.5.16-.736.233-.035.008-.078.03-.074.025 0-.004.005 0 .048-.038.056.004.069-.289 0-.306-.048-.047-.052-.043-.056-.047l-.194.008c.164-.082.663-.306.805-.422.018-.008.035-.039.009.005a.22.22 0 000 .159c.026.047.043.052.039.056-.306-.134-.694-.267-.974-.487a.782.782 0 00-.435-.194c-.874-.103-1.878.125-2.645.522a.964.964 0 00-.297.232c-.039.069-.043.052.009.112l.034.034h-.004c-.125 0 .267-.021-.276.009-.138.624-.034.18-.065.319-.09-.086-.426-.457-.56-.595l-5.375-5.58-.082-.087c.09-.641.357-1.726 1.236-1.545.052.021.095.038.134.068 6.9 7.007 13.78 14.814 20.586 21.893 4.587 4.767 9.076 9.663 14.056 14.026.495.4 1.008.848 1.576 1.115.608.159 1.267.03 1.891-.022 2.352-.297 5.45-1.098 7.78-1.584.978-.203 1.956-.409 2.955-.517.474-.017 1.017-.138 1.452.151.9.99.577 2.743-.65 3.315-.233.13-.699.267-.966.336-3.584.926-10.338 2.545-13.775 1.047-1.44-.866-2.568-2.14-3.778-3.273-4.691-4.685-9.145-9.603-13.604-14.508-3.485-3.94-7.267-7.927-10.55-11.906 7.961 8.88 15.879 17.819 24.309 26.255 1.197 1.115 2.326 2.368 3.726 3.212 2.136.883 4.557.556 6.802.314 1.964-.262 3.911-.667 5.832-1.154.62-.172 1.297-.301 1.865-.572 1.017-.491 1.327-1.869.65-2.761-.443-.529-3.44.246-4.199.375l-3.881.87c-1.865.375-3.77.904-5.695.818-.775-.172-1.344-.779-1.956-1.236-1.025-.857-1.994-1.761-2.955-2.678-10.394-10.111-20.233-21.114-30.226-31.63-.487-.499-.965-1.016-1.478-1.472l-.039-.03-.013-.009c-.331-.03-.543.65-.599 1.064l-.064-.194c.375.4 5.768 5.934 5.992 6.21l.017.025.009.013c-.03.142.077-.297-.06.328-.543.03-.16 0-.285.008l-.013-.008c-.043-.03-.03-.026-.047-.04l-.052-.047a.595.595 0 01-.185-.366.587.587 0 01.12-.387c.138-.181.298-.28.448-.37.94-.478 1.935-.703 2.977-.59.211.03.465.116.66.284.21.159.434.25.693.344.112.056.314.095.4.28.147.413-.379.577-.62.724l-.444.215-.099.047-.095-.038-.056-.026c-.021-.013-.051-.018-.112-.082-.09-.035-.077-.353 0-.362.052-.06.074-.064.095-.077.078-.044.117-.052.164-.07l.25-.077c.435-.108.805-.314 1.236-.43.642-.142.892.615 1 1.098.103.43.215.805.348 1.223.465 2.213-3.33 2.825-4.876 2.863-1.331.1-2.563.668-3.786 1.202-.767.327-1.65.727-2.56.676-.09 0-.158 0-.28-.005.238-.013-.499.151-.094-.56.095-.025.073-.02.15-.034.643-.116 1.375-.207 1.91-.577.654-.672 1.042-1.662 1.365-2.55.224-.748.504-1.558.288-2.29-.155-.349-.633-.16-.99-.039-1.233.513-2.34 1.365-3.589 1.925-.49.215-1.06.435-1.628.362-1.581-.31-2.9-1.275-4.183-2.17-1.352-1.051-2.796-2.201-3.562-3.811-.75-1.65-.664-4.1 1.378-4.729.668-.21 1.379-.22 2.06-.344.921-.172 1.942-.362 2.373-1.232.366-.814.15-1.856-.595-2.403-.917-.697-2.45-1.033-3.463-.361-.43.387-.72 1.063-.97 1.614-.52 1.232-.912 2.532-1.231 3.842-.293 1.291-.56 2.64-.517 3.957-.009.654.37 1.141.784 1.62 1.361 1.476 3.08 2.6 4.781 3.664 1.155.702 2.344 1.36 3.567 1.916.534.211 1.172.564 1.727.56.186-.052.418-.297.6-.547.818-1.184 1.4-2.959 1.7-4.168 0 .021.014.034.022.051a.733.733 0 00-.129-.103c-.448-.315-1.266-.676-1.762-.943l-1.826-.926c-.694-.396-1.831-.823-2.313.017-.056.1-.07.241-.056.258 0 0 0-.012-.026-.03-.026-.03-.082-.038-.108-.038.276-.121.538-.431.771-.698.603-.745 1.15-1.636 1.379-2.558.353-1.778.22-3.69.064-5.495l-.03-.245a.716.716 0 00-.026-.146c.022.06.151.107.211.09.082-.022.06-.03.052-.017-.134.155-.233.361-.319.56-.504 1.158-1.24 3.948.952 2.38.508-.421.926-.942 1.357-1.442.625-.814 1.396-1.64 1.715-2.61-.173-.61-2.387-.64-2.882-.52.013-.026 0-.03.013.017a.807.807 0 00.073.155c.444.62 1.167 1.193 1.848 1.516h-.004c-.044-.005-.104.004-.138.034-.026.022-.035.035-.035.039.065-1.159-.349-2.394-.611-3.54l-.1-.37.397.008c.745.013 1.572-.189 2.296-.43.723-.263 1.494-.521 2.054-1.068.552-.526.948-1.223 1.19-1.964.137-.473.284-.982.18-1.45 0 .012.06.05.095.055-.082-.026-.25-.073-.327-.103-2.408-.896-4.769-1.878-7.177-2.76-1.176-.423-2.895-.802-2.843-2.386 0-.47.164-.9.28-1.27.22-.849.767-1.564 1.396-2.158 2.365-1.916 5.953-1.628 8.417-.03 1.077.723 1.792 1.899 2.18 3.105.49 1.623.654 3.32.383 5-.362 2.372-2.796 1.657-4.38 1.071-1.819-.607-5.463-2.161-7.294-2.833l-.043-.013h.017c-.008-.043.082.116.242-.224-.018-.21-.065-.16-.06-.185l-.01-.009.052.04c.845.761.815 2.057.608 3.087-.095.305-.224.887-.672.8-.276-.107-.345-.297-.444-.508-.224-.663-.379-1.291-.19-1.993.371-.797 1.56-.177 2.008.202.767.577.939 1.537.836 2.425l-.108 1.227c-.013.271-.052.702.06.913-.038-.013-.082 0-.064 0 .077-.048.142-.181.198-.272.547-1.02.732-2.196 1.21-3.268.28-.336.788-.073 1.073.03.388.164.758.336 1.129.508.732.319 1.46.698 2.244.861.887.194 1.86.112 2.67-.275-.374 2.562-1.68 5.28-4.544 5.594-1.254.142-2.46-.203-3.563-.771-1.003-.745-1.589-1.843-2.205-2.881-.797-1.494-2.804-5.366-1.913-6.881.065-.087.134-.104.168-.177.013-.017.018-.047.026-.082v-.056l.009-.013v.018c-1.081-.388-2.606-.431-3.855-.418-.78.013-1.564.065-2.331.19-.732.128-1.53.284-2.09.779-.555.5-.973 1.175-1.352 1.847a24.377 24.377 0 00-2.055 5.159c-.008.043-.017.09-.021.12v-.03c0-.025-.035-.077-.056-.09-.06-.039-.065-.026-.073-.03 1.085-.38 2.11-1.055 3.131-1.606 1.366-.788 2.71-1.607 4.04-2.455 1.185-.814 2.512-1.529 3.503-2.575.009-.013.013-.026.009-.017 0 0 0 .051.03.082.039.03.008.008-.005.004-.34-.1-.753 0-1.141.09-1.87.521-3.64 1.473-5.014 2.86-1.659 1.606-3.455 3.367-5.307 4.736-2.494 1.848-5.648 3.067-7.228 5.87l-.125-.211c1.654 0 5.69.017 7.28.017.766 0 1.61-.022 2.227-.521l-.013.009c.12-.112.082-.37-.06-.491-.151-.134-.393-.172-.638-.194a12.656 12.656 0 00-1.512-.03c-2.02.073-4.023.603-5.815 1.537-.845.491-1.831.935-2.292 1.835-.66 1.33-.595 2.98-.138 4.379.16.474.388.926.698 1.3.314.392.775.595 1.223.81 2.335 1.02 4.773 1.791 7.112 2.803.707.306 1.413.612 2.09.978.18.112.357.194.5.374.184.328-.354.354-.544.345-1.391-.026-2.795-.344-4.182-.215-.237.03-.496.099-.556.267-.026.064.026.155.103.236.461.414 1.064.642 1.629.913 1.365.608 2.851 1.25 4.148 1.986 2.688 1.49 5.109 3.57 6.509 6.351 1.348 2.756 2.334 5.672 3.2 8.608.539 1.973 1.082 3.971 1.086 6.029-.026 1.025-.116 2.041-.19 3.058-.172 1.649.112 3.023 1.917 3.513 1.474.371 3.02.397 4.532.397 1.503-.043 3.067-.065 4.514-.496.125-.064.272-.094.289-.211.047-.301-.448-.314-.706-.335-1.004-.031-2.012.155-3.037.241-.074 0-.117.017-.242-.026a.124.124 0 01-.069-.095c-.008-.056.018-.082.026-.099.435-.353 1.026-.495 1.435-.887.331-.28 0-.547-.328-.439-.534.138-.887.671-1.451.775-.388-.06-.181-.521-.087-.732.785-1.662-1.382.465-1.994-2.804 1.55 1.103 3.364 1.809 5.143 2.472 1.194.517 3.033.948 3.003 2.558.22 1.184-1.284 1.322-2.115 1.425-2.279.22-4.57-.09-6.84-.124-1.366-.022-2.753.155-4.123-.056-1.116-.16-1.753-.862-1.719-1.994.03-2.295 1.262-4.41.952-6.718-.095-1.352-.254-2.708-.547-4.035-.138-.473-.215-1.089-.551-1.421-.216.091-.336.345-.41.59-.293 1.296.026 2.679.302 3.966.31 1.18.607 2.407 1.245 3.449.935.866 4.338.022 5.134-.852.32-.306.156-.745.121-1.141-.28-1.787-.676-3.57-1.05-5.353l-1.147-5.348c-.112-.676-.331-1.335-.327-2.029.017-.043.013-.099.12-.193.056-.052.177-.06.229-.04.276.121.349.419.474.651.237.534.418 1.085.573 1.645l.043.172a.609.609 0 01-.009.28c-.487 1.232-4.364 2.485-5.656 2.7-1.24.224-1.607-1.037-1.947-1.929-.315-.853-.694-1.666-1.038-2.523-.513-1.223-.87-2.597-.72-3.953.121-.59.595-.987 1.047-1.318.78-.543 1.637-.913 2.503-1.236.986-.336 2.003-.68 3.076-.698 1.378.142 1.559 2.373 1.65 3.437.025.34.034.697.043 1.038.056 1.205-1.056 2.032-2.098 2.338-1.353.43-2.74.495-4.131.508-.965.065-2.03-.358-2.568-1.21-.237-.332-.422-.71-.607-1.068-.228-.413-.62-.754-.952-1.103a46.994 46.994 0 00-5.174-4.392c-.913-.629-1.822-1.313-2.877-1.606-.836-.185-.392.534-.104.878 1.15 1.344 2.689 2.403 4.153 3.407.668.422 1.331.895 2.06 1.197.327-.134.856-.44 1.253-.685.72-.444 2.727-1.705 3.476-2.175 1.564-.951 3.205-2.118 5.135-2.002.745 0 1.49.12 2.218.233-.034.107.15-.242-.22.254.04.155.026.073.03.094a3.25 3.25 0 00-.27-.275c-2.275-2.097-5.89-5.15-8.211-7.204-.457-.384-.892-.844-1.336-1.228.03.017.117.013.151-.017.048-.039.03-.03.022-.013a2.12 2.12 0 01-.44.607c-.284.211-.504.198-.8.224-1.62.013-3.21-.353-4.79-.659-2.689-.59-5.351-1.223-7.962-2.097-.641-.275-1.507-.482-1.873-1.15-.142-.357.206-.689.53-.766l.383-.134-.104.414c-.986 4.065.457 6.197 3.192 9.017.97 1.072 2.133 1.972 3.042 3.113.5.732.831 1.564 1.128 2.39.332.926.595 1.947.9 2.886.022.06.052.129.065.15l.06.022c.75.142 1.607-.005 2.37.19.082.03.172.051.275.146.09.103.1.133.155.224.608 1.12 2.288 4.237 1.069 5.253-1 .762-2.52 1.025-3.679 1.434-.478.185-1.073.306-1.413.693-.013.018-.017.035-.021.048 0 .008 0 .013 0 0 0 0 0-.026-.009-.035a.143.143 0 00-.043-.06c-.047-.039-.078-.026-.078-.03.392-.168.746-.491 1.086-.767.861-.736 1.693-1.541 2.408-2.42.245-.318.521-.659.646-1.033.138-.879-.41-1.895-1.215-2.278-.194-.073-.456.03-.715.13-.947.39-2.175 1.033-3.08 1.523-2.291 1.206-4.824 2.214-7.474 2.188-.043-.009-.081-.004-.155-.039-.017-.008-.047-.021-.081-.064-.04-.043-.044-.138-.022-.177.039-.077.065-.082.086-.103.203-.134.427-.194.642-.267.982-.297 1.96-.547 2.977-.698 1.456-.047 3.209 3.135 3.32 4.444.035.371-.365.577-.637.715-.792.379-1.632.612-2.468.866-1.633.512-3.351.865-4.876 1.645-1.301.775-.504 3.526-.332 4.771.818 3.94.607 5.051-2.266 1.24-1.365-1.865-2.632-3.798-3.674-5.865-.22-.5-.668-1.18-.233-1.679 1.193-1.284 2.83-2.011 4.308-2.894l1.507-.844c.5-.315 1.107-.564 1.448-1.06.008-.008.013-.034.013-.021-.005.013.034.039.034.03h-.008c-.414.258-.724.685-.995 1.085-.302.478-.595 1.004-.56 1.576.021.569.262 1.107.542 1.606.276.509.655.956.862 1.503l-.056.018" fill="#fff"/></g><path d="M38.726 110.106c-10.257-4.728-18.614-11.984-23.628-22.212a67.013 67.013 0 01-1.912-4.392c-.194-.724-.078-1.477-.108-2.205.017-4.28.073-11.347.125-15.64.043 3.47.09 10.43.108 13.9l.008 1.74c.03.702-.073 1.443.1 2.119a67.333 67.333 0 001.916 4.362c4.907 10.03 13.419 17.513 23.386 22.332M69.823 50.323c.082 9.58.194 21.397.034 30.983-.456 5.133-3.635 9.44-6.672 13.397 2.916-4.014 5.992-8.329 6.422-13.419.1-9.577.03-21.389.216-30.961zM13.181 15.877l-.124-9.99v-.078l14.258.022c9.012-.074 33.233-.005 42.551.021h.039v.035l-.056 4.616-.017-4.62.038.038c-8.176.13-20.06.142-28.366.138-4.953 0-16.472.056-21.275-.026l-7.09-.077.077-.078-.026 9.99-.009.01zM12.113 25.825c-.099.202-.125.391-.176.572-.19.676-.367 1.357-.552 2.033-.18.672-.366 1.343-.551 2.02-.039.137-.082.28-.117.417-.021.1-.077.13-.172.13H9.62c-.1 0-.15-.04-.177-.134-.206-.771-.413-1.542-.62-2.308l-.478-1.727c-.078-.284-.15-.569-.228-.853-.013-.043-.009-.09-.07-.142.014.185.01.353.04.513.047.228.047.46.06.689.056 1.265.039 2.532.039 3.793 0 .12-.04.172-.164.172-.4-.004-.801-.004-1.198 0-.129 0-.185-.051-.185-.172 0-.232-.004-.46-.004-.693V29.05c0-.349.004-.698.004-1.042v-.68-1.06-.663-1.085c0-.211-.009-.427-.004-.638 0-.142.017-.28.013-.422 0-.082.043-.125.125-.125h1.744c.082 0 .12.048.142.121.134.435.272.874.405 1.31.186.598.366 1.196.552 1.79.112.367.206.733.28 1.107.077.38.146.754.168 1.141 0 .018.008.03.017.056.06-.03.047-.077.047-.12.056-.797.237-1.563.474-2.321.147-.474.289-.952.435-1.43.151-.5.306-.999.453-1.498.034-.113.094-.16.215-.155.547.004 1.09 0 1.637 0 .164 0 .18.017.18.18v7.308c0 .13-.042.176-.172.176-.4-.004-.8-.004-1.201 0-.125 0-.186-.043-.186-.172.009-.86-.017-1.722.018-2.583.017-.47.017-.944.056-1.413.025-.323.047-.646.069-1.003M36.654 27.28c.09.03.18.056.267.086.465.16.754.547.762 1.034.009.443 0 .887.005 1.335 0 .378-.005.762.107 1.132.026.086-.008.13-.099.13H36.28c-.09 0-.134-.048-.155-.126a1.44 1.44 0 01-.056-.361v-1.89c0-.26-.073-.492-.345-.59a1.34 1.34 0 00-.452-.087c-.379 0-.754.004-1.133 0-.125 0-.163.039-.163.164.004.887 0 1.778 0 2.665 0 .15-.077.224-.229.224H32.6c-.202 0-.215-.013-.215-.215v-6.313-.952c0-.159.022-.18.18-.18 1.06 0 2.116-.01 3.176.008.404.004.805.09 1.167.284.444.241.672.638.702 1.128.03.461.056.926-.017 1.383-.086.542-.358.956-.922 1.11-.008 0-.013.014-.026.031m-2.662-1.632v.896c0 .073.009.137.108.133.474-.013.943.026 1.413-.021.366-.04.534-.224.543-.586v-.844c-.005-.349-.168-.543-.517-.586-.479-.06-.961-.017-1.444-.026-.099 0-.103.065-.103.138v.896zM45.071 27.258c-.009.474.017 1.03-.021 1.59-.07.908-.505 1.683-1.43 2.032-.625.237-1.271.28-1.93.207-.448-.052-.875-.164-1.258-.405-.634-.396-.961-.986-1.034-1.718-.104-1.008-.048-2.02-.043-3.032 0-.452.047-.904.245-1.326.276-.586.724-.973 1.331-1.189.638-.224 1.293-.245 1.947-.155.56.078 1.082.267 1.5.676.301.293.482.65.585 1.055.108.427.104.862.104 1.297v.968m-4.114-.081c0 .443-.004.887 0 1.335.004.327.069.641.284.904.276.336.655.418 1.069.4.693-.025 1.072-.409 1.154-1.093.034-.276.026-.552.021-.827-.008-.767.044-1.533-.03-2.295-.038-.435-.232-.788-.663-.97-.233-.094-.478-.107-.724-.09-.405.03-.736.185-.934.56-.121.228-.173.478-.173.732v1.348M54.057 28.176h.629c.15 0 .185.034.185.185 0 .22.009.435 0 .654-.022.53.22.732.715.784.323.035.655.035.978-.017.323-.052.465-.22.47-.547 0-.18-.01-.362 0-.543.02-.318-.143-.52-.401-.671-.332-.194-.698-.302-1.064-.414-.521-.163-1.047-.301-1.52-.585-.526-.319-.776-.788-.78-1.391 0-.31-.013-.62.034-.935.086-.56.396-.934.887-1.171.44-.215.914-.293 1.4-.306.448-.008.9-.013 1.344.078.539.112 1.026.305 1.37.766.224.297.306.646.332 1.004.017.267.004.534.004.8 0 .181-.026.207-.202.207h-1.185c-.168 0-.207-.034-.215-.207-.009-.21 0-.426 0-.637 0-.4-.177-.607-.573-.684a2.74 2.74 0 00-1.107.004c-.336.073-.474.237-.474.577 0 .095.008.19 0 .284-.039.366.168.573.47.72.374.184.78.296 1.175.421.487.155.983.302 1.413.59.453.302.715.71.711 1.27v.995a1.54 1.54 0 01-1.012 1.443c-.664.25-1.357.28-2.055.245-.413-.021-.823-.081-1.21-.24-.569-.238-.93-.643-1.051-1.254-.087-.435-.035-.87-.052-1.3 0-.1.047-.138.142-.138h.655M19.772 28.176h.642c.116 0 .164.047.164.163v.655c-.013.564.254.758.715.81.323.034.655.038.978-.013.344-.056.482-.216.486-.56 0-.168-.008-.336 0-.504.026-.336-.15-.547-.418-.706-.323-.19-.684-.293-1.038-.405-.465-.147-.943-.271-1.378-.5-.595-.314-.94-.783-.93-1.477.004-.301-.026-.607.021-.908.086-.569.4-.97.922-1.21.418-.194.861-.28 1.318-.289.366-.008.737-.026 1.103.03.46.07.909.172 1.296.452.367.263.578.625.655 1.06.069.392.026.788.035 1.18 0 .099-.052.137-.147.137h-1.284c-.116 0-.163-.056-.163-.168v-.719c-.005-.327-.194-.555-.517-.628-.4-.09-.801-.09-1.202 0-.306.069-.452.25-.452.568 0 .082.008.164 0 .246-.04.391.176.615.504.77.374.181.77.289 1.167.414.427.133.857.271 1.25.495.503.289.84.685.852 1.296.013.444.035.892-.03 1.33-.086.582-.444.944-.97 1.168-.456.194-.938.237-1.425.258-.422.022-.844 0-1.262-.082-.53-.103-1.013-.288-1.349-.745a1.732 1.732 0 01-.323-.87c-.034-.357-.03-.714-.03-1.072 0-.125.052-.18.181-.176.207.008.418 0 .63 0zM49.15 30.996h-.982c-.12 0-.18-.038-.21-.16-.212-.856-.427-1.713-.647-2.57-.25-.982-.504-1.964-.754-2.95-.15-.603-.301-1.205-.448-1.808-.039-.155-.017-.181.138-.181h1.297c.103 0 .159.039.185.138.082.31.164.62.245.934.16.612.324 1.227.483 1.839.228.887.474 1.765.569 2.683.017.185.051.366.073.55 0 .035.004.078.056.078.047 0 .056-.043.06-.081.026-.194.039-.388.069-.582.095-.603.172-1.21.34-1.8.168-.598.315-1.201.474-1.8.16-.611.328-1.227.487-1.839.021-.086.065-.12.155-.12h1.348c.117 0 .147.043.112.16-.16.615-.306 1.23-.46 1.842-.19.75-.384 1.503-.574 2.252-.146.586-.288 1.167-.435 1.753-.129.504-.263 1.008-.387 1.516-.026.103-.078.142-.181.138h-1.008M69.108 30.996c-.315 0-.63-.008-.94 0-.159.009-.228-.06-.262-.202-.082-.336-.168-.668-.25-1.003-.15-.6-.301-1.193-.452-1.792a471.256 471.256 0 00-.952-3.768c-.06-.241-.125-.482-.185-.723-.04-.151-.018-.181.137-.181.423 0 .845.004 1.267 0 .146 0 .207.06.241.194.211.835.422 1.666.642 2.502.16.607.345 1.21.46 1.83.1.53.195 1.059.238 1.597 0 .043 0 .1.064.1.065 0 .06-.057.065-.1.047-.594.142-1.18.258-1.761.113-.551.272-1.09.414-1.632l.362-1.365.323-1.236c.026-.095.078-.13.177-.13h1.322c.116 0 .16.044.13.16-.117.444-.23.887-.341 1.33l-.349 1.396c-.116.457-.228.913-.345 1.37l-.374 1.472c-.142.573-.285 1.141-.431 1.714-.056.215-.065.22-.289.22h-.926M29.047 27.801v2.911c0 .187-.097.28-.29.28h-1.089c-.224 0-.232-.009-.232-.228v-5.865c0-.306.03-.28-.276-.28h-1.512c-.185 0-.207-.022-.207-.203v-.9c0-.163.03-.19.194-.19h5.208c.168 0 .194.027.194.186v.913c0 .164-.03.19-.194.19h-1.581c-.146 0-.22.071-.22.215v2.967M63.323 27.814v2.98c0 .194-.009.202-.199.202h-1.133c-.175 0-.262-.086-.262-.258v-5.822c0-.319.034-.293-.293-.293h-1.5c-.193 0-.219-.026-.219-.22v-.882c0-.155.03-.186.185-.186h5.234c.138 0 .194.065.194.186v.938c0 .13-.073.168-.194.168h-1.594c-.146 0-.22.07-.22.211v2.98M17.17 27.177v3.591c0 .224-.008.228-.228.228h-1.197c-.13 0-.186-.051-.181-.176V23.598c0-.258.008-.267.271-.267h1.146c.176 0 .194.017.194.198v3.643M75.147 27.177v3.604c0 .21 0 .215-.21.215H73.75c-.172 0-.193-.017-.193-.185v-7.277c0-.177.025-.199.193-.199h1.198c.18 0 .194.018.194.194v3.648M75.492 21.027h.68c.074 0 .151.009.186.086.034.078-.026.125-.074.177-.413.448-.827.891-1.236 1.34a.334.334 0 01-.276.116c-.301-.005-.598 0-.9 0-.172 0-.207-.048-.12-.194.27-.474.55-.948.827-1.421.051-.086.133-.104.224-.104h.68M12.074 39.944h.65c.126 0 .147.026.152.151.008.284-.005.564.017.849.026.331.22.542.547.611.332.069.668.043 1.004.035.129 0 .267-.044.387-.104a.42.42 0 00.237-.344c.03-.285.035-.565 0-.849-.03-.236-.194-.379-.383-.495-.297-.185-.63-.284-.96-.388-.479-.15-.97-.275-1.422-.499-.375-.185-.698-.43-.88-.827a1.577 1.577 0 01-.137-.594c-.008-.271-.017-.543 0-.814.039-.629.289-1.145.99-1.451a3.67 3.67 0 01.94-.241c.418-.06.836-.052 1.25-.022.499.035.99.134 1.425.41.43.275.672.667.758 1.17.065.388.022.776.035 1.159 0 .09-.048.133-.13.133h-1.33c-.1 0-.134-.056-.139-.15-.004-.263.013-.53-.013-.793-.03-.318-.22-.525-.53-.594-.335-.077-.671-.064-1.012-.034a1.015 1.015 0 00-.383.116c-.16.09-.258.22-.254.418 0 .146.008.293 0 .435-.017.258.107.434.31.568.271.177.577.276.883.375.521.168 1.051.31 1.546.547.375.18.707.417.905.8.09.177.142.362.147.556 0 .375.008.745 0 1.12-.013.676-.336 1.15-.952 1.425-.31.142-.642.202-.983.245a6.638 6.638 0 01-1.24.026c-.504-.026-1-.12-1.439-.396a1.61 1.61 0 01-.754-1.115c-.082-.427-.056-.861-.056-1.292 0-.13.026-.15.164-.15h.65M39.97 35.066h1.009c.103 0 .16.03.185.142.142.581.293 1.162.44 1.74.12.473.245.943.365 1.412.104.405.203.814.306 1.223.1.383.199.77.298 1.154.103.405.202.81.305 1.21.056.228.117.452.177.68.035.138.017.164-.125.164h-1.344c-.099 0-.15-.039-.172-.133-.112-.427-.229-.858-.336-1.284-.026-.107-.073-.16-.198-.16-.62.01-1.241.005-1.861 0-.104 0-.155.031-.177.134-.077.31-.164.62-.245.926-.035.138-.074.271-.112.41-.018.073-.065.103-.138.103h-1.4c-.095 0-.12-.048-.1-.13.061-.254.126-.503.19-.757l.207-.788c.12-.465.237-.93.353-1.396.108-.417.211-.835.319-1.253.138-.53.276-1.06.414-1.584.103-.4.202-.801.301-1.202.043-.163.078-.323.12-.486.022-.09.078-.134.177-.134h1.03m-.005 4.888h.638c.086 0 .103-.035.082-.108-.095-.345-.181-.69-.28-1.034a6.98 6.98 0 01-.241-1.14c-.043-.367-.108-.728-.121-1.099 0-.043-.009-.095-.069-.099-.065-.004-.065.052-.069.095-.021.15-.03.301-.047.452-.056.495-.108.99-.233 1.473-.116.443-.232.883-.353 1.326-.035.125-.03.13.103.13h.595M20.858 42.79h-.995c-.112 0-.168-.033-.199-.145-.129-.53-.258-1.056-.392-1.58-.12-.474-.245-.944-.366-1.413-.12-.474-.232-.948-.353-1.417-.138-.543-.28-1.09-.418-1.632-.116-.452-.232-.909-.344-1.36-.04-.152-.022-.173.129-.173h1.322c.104 0 .16.03.185.133.091.353.186.707.276 1.06.082.31.16.62.241.925.082.315.168.625.246.94.099.374.198.749.289 1.123.073.302.116.607.172.909.06.323.086.65.138.969.008.043.008.09.013.133 0 .043.017.073.069.07.043 0 .056-.031.056-.07l.025-.254c.048-.525.143-1.046.237-1.563.07-.375.181-.745.285-1.111.107-.392.202-.784.305-1.176.125-.469.25-.934.371-1.4.043-.163.086-.33.125-.494.039-.173.056-.19.233-.19h1.288c.155 0 .163.009.124.155a106.36 106.36 0 01-.486 1.938c-.108.413-.203.831-.306 1.244-.16.63-.323 1.254-.478 1.882-.104.414-.203.831-.306 1.245-.1.387-.203.77-.302 1.154-.021.086-.073.112-.155.108h-1.03M25.342 38.928v-3.647c0-.211.009-.22.224-.22h4.1c.19 0 .203.013.203.203v.882c0 .194-.021.216-.22.216h-2.532c-.16 0-.164 0-.164.163v1.542c0 .112.034.146.146.146.789-.004 1.577 0 2.365 0 .173 0 .186.009.186.186v.93c0 .16-.03.19-.19.19h-2.33c-.173 0-.173 0-.173.176v1.645c0 .112.03.146.147.146.857-.004 1.71 0 2.563 0 .19 0 .207.017.207.203v.917c0 .163-.022.185-.177.185h-4.165c-.16 0-.181-.022-.181-.18v-3.683M34.556 39.57v3.044c0 .177 0 .181-.185.181h-1.22c-.189 0-.193-.004-.193-.194v-5.994-.099c.013-.099-.026-.138-.134-.138-.254.005-.508 0-.762 0h-.952c-.147 0-.185-.038-.19-.185v-.93c0-.155.04-.185.194-.185h5.273c.16 0 .194.03.194.19v.917c0 .159-.04.198-.199.198h-1.68c-.15 0-.15 0-.15.15v3.053M27.543 34.467h-.435a.189.189 0 01-.164-.077c-.361-.444-.728-.888-1.09-1.331l-.064-.09c-.034-.065-.013-.108.052-.13a.498.498 0 01.21-.017c.177.017.358.017.535 0 .133-.013.267.017.4.017.065 0 .1.048.134.09.112.139.224.276.336.418.056.074.1.07.155 0 .108-.137.224-.267.332-.409.064-.082.142-.12.241-.112.319.03.633-.021.952.009.06.004.125-.009.16.056.034.065-.022.112-.057.16-.344.43-.693.856-1.034 1.291-.077.1-.155.147-.284.138-.125-.009-.254 0-.379 0" fill="#fff"/><path d="M71.736 40.35c-.005.28.012.555-.022.835-.078.62-.414 1.06-.974 1.313-.728.332-1.494.37-2.278.284-.435-.047-.845-.159-1.22-.387-.594-.366-.9-.922-.969-1.602-.107-1.06-.043-2.123-.043-3.187 0-.366.043-.732.168-1.085a2.051 2.051 0 011.112-1.223c.413-.19.853-.275 1.31-.28.447 0 .895 0 1.339.117.556.15 1.042.396 1.335.921.134.241.207.495.216.77.008.29 0 .578.004.866 0 .121-.039.177-.164.173h-1.236c-.125 0-.185-.048-.177-.177.005-.155-.004-.314 0-.47.026-.538-.258-.83-.77-.9-.276-.038-.56-.047-.832.044-.457.15-.638.512-.685.951-.052.453-.03.905-.03 1.361 0 .035-.013.082.034.1.035.012.06-.027.082-.048.375-.383.862-.53 1.374-.569.384-.03.771-.025 1.159.065.801.19 1.24.698 1.275 1.529.009.202 0 .405 0 .611m-1.576.03v-.396c.012-.314-.121-.482-.461-.573a2.72 2.72 0 00-1.379.01c-.357.09-.504.21-.513.516-.004.241-.008.482 0 .723.022.448.225.694.66.806.4.103.805.099 1.206-.013.314-.087.474-.293.482-.616v-.452M47.458 42.705h-2.456c-.202 0-.207 0-.202-.207.008-.405-.026-.814.021-1.219.06-.512.297-.938.638-1.317.47-.517 1.055-.883 1.645-1.245.328-.198.66-.387.965-.62.112-.082.211-.176.306-.275a.698.698 0 00.211-.526c-.008-.129-.004-.254 0-.383.013-.396-.155-.508-.487-.577a3.205 3.205 0 00-1.128-.013c-.362.056-.56.288-.565.65 0 .237-.004.474 0 .71 0 .134-.056.194-.185.194h-1.219c-.086 0-.168-.025-.168-.133 0-.426-.039-.853.022-1.275.086-.577.426-.964.956-1.192a3.22 3.22 0 011.116-.259c.646-.03 1.296-.043 1.93.134.478.133.9.349 1.145.81.104.193.16.404.173.624.012.194-.005.387.008.581.048.689-.276 1.197-.77 1.623-.453.392-.974.69-1.487.99-.383.225-.775.44-1.111.733-.229.198-.427.418-.444.745-.004.125.034.164.16.164.65-.005 1.296-.005 1.946 0 .125 0 .168-.04.164-.164-.004-.379 0-.758 0-1.133 0-.172.03-.206.211-.206h1.12c.168 0 .203.034.203.202v2.381c0 .173-.03.203-.212.203h-2.498M51.873 38.808c.017-.47-.039-1.055.03-1.632.103-.909.538-1.59 1.413-1.925a3.786 3.786 0 012.839.021c.693.276 1.102.814 1.27 1.542.082.349.095.702.1 1.055.004.736.008 1.473 0 2.213-.005.44-.04.879-.207 1.292a2.056 2.056 0 01-1.31 1.232 3.929 3.929 0 01-2.645-.017c-.689-.246-1.146-.728-1.36-1.434a3.318 3.318 0 01-.13-.965v-1.387m1.572.22c.022.422-.043.965.03 1.499.048.331.181.628.483.814.418.254.866.254 1.31.09a.878.878 0 00.508-.47c.133-.28.172-.58.172-.882.008-.685 0-1.37 0-2.054 0-.233-.009-.461-.043-.694-.082-.594-.397-.934-.987-1.016-.353-.047-.706-.017-1.003.203-.354.262-.466.645-.474 1.059-.013.443 0 .887 0 1.447M61.832 42.705h-2.468c-.203 0-.215-.009-.211-.207.013-.413-.022-.83.038-1.244.07-.478.276-.879.586-1.236.41-.478.922-.818 1.452-1.15.44-.276.9-.521 1.31-.848.28-.224.473-.487.426-.87a1.327 1.327 0 010-.228c.022-.375-.155-.517-.482-.586a3.176 3.176 0 00-1.16-.009c-.352.056-.533.28-.542.638v.71c0 .155-.039.198-.19.203h-1.218c-.082 0-.164-.018-.16-.121 0-.435-.039-.87.022-1.3.081-.582.443-.96.965-1.185.422-.18.87-.258 1.326-.262.453 0 .91-.022 1.357.064.388.074.763.181 1.086.422.34.254.521.59.56 1.008.034.349.038.698 0 1.046-.048.448-.285.797-.599 1.098-.474.457-1.042.78-1.607 1.111-.388.229-.78.448-1.128.733a1.53 1.53 0 00-.38.452.656.656 0 00-.064.202c-.043.241-.017.271.228.271h1.861c.13 0 .177-.034.172-.168-.008-.374 0-.745 0-1.12 0-.184.03-.215.216-.215h1.107c.168 0 .194.026.194.186v2.411c0 .168-.022.185-.19.185h-2.498" fill="#23234A"/><path d="M43.33 10.766s.01-.026.014-.043c.013.03.017.051.017.077v.568c0 .018 0 .04-.009.052-.026.03-.026.065-.034.104-.043.266-.203.439-.453.53-.025.008-.051.012-.077.038a.135.135 0 00.069.026c.082.021.16.047.237.086.133.073.22.176.271.319.026.068.03.142.035.21.008.237.004.47 0 .707 0 .116-.03.228-.078.336a.746.746 0 01-.289.331c-.15.1-.314.147-.49.177-.143.021-.285.03-.431.034h-1.4c-.125 0-.117 0-.13-.125v-4.125-.043c0-.065.013-.073.078-.078h1.443c.1 0 .203 0 .297.013.203.03.405.07.582.181a.73.73 0 01.349.629m-2.025 2.29v.582c0 .056.017.069.07.048a.317.317 0 01.154-.01c.073.014.15.014.224 0h.534a.375.375 0 00.31-.107c.013-.013.026-.026.03-.043.014-.043.01-.095.048-.129.004-.004 0-.017 0-.022v-.65c0-.017 0-.034-.013-.043-.021-.021-.026-.047-.034-.073a.188.188 0 00-.07-.095.527.527 0 00-.292-.086c-.298-.008-.599 0-.896 0h-.022c-.026 0-.038.017-.038.043V13.073m-.005-1.89v.556c0 .064 0 .069.07.069h.74c.03 0 .06 0 .09-.013.048-.022.1-.022.147-.022a.248.248 0 00.172-.069.241.241 0 00.078-.194 4.783 4.783 0 010-.499c.004-.09.026-.185-.043-.267v-.004c-.013-.043-.043-.065-.078-.086a.39.39 0 00-.168-.056 1.484 1.484 0 00-.198-.013H41.5c-.043 0-.086 0-.13-.009-.05-.008-.06 0-.064.052v.56M23.963 12.135v2.088c-.004.065-.03.087-.094.09h-.556c-.099 0-.112-.012-.112-.107 0-.086 0-.172.004-.258.009-.069-.004-.134-.004-.203 0-.198 0-.391.004-.59.009-.18-.008-.361-.008-.542v-.18c0-.044-.009-.048-.052-.04-.03.009-.06.009-.09.009h-1.116c-.03 0-.065 0-.095-.013-.039-.013-.047-.004-.052.039v1.834c0 .026-.017.043-.043.048-.021 0-.043.004-.064.004h-.552c-.043-.004-.047-.013-.056-.056-.03-.15-.021-.306-.021-.456V10.12c0-.048 0-.09.021-.134.009-.026.022-.034.048-.039H21.668c.15 0 .129.018.129.13v1.601c0 .064.031.095.095.095h1.227c.086 0 .09 0 .086-.09a8.668 8.668 0 01-.008-.668c.008-.215-.009-.43 0-.646 0-.12.013-.236.008-.357 0-.047.005-.052.052-.06.022 0 .047-.005.073-.005h.466a.37.37 0 01.099.009c.043.004.056.017.06.06.004.03.004.06.004.09v2.033M51.511 12.126v-1.011c0-.1.017-.203.065-.293 0-.005.004-.009.004-.018.009-.034.013-.069.03-.103.082-.138.15-.284.271-.396.164-.155.354-.258.57-.319.206-.06.421-.09.637-.077.271.013.538.06.784.19.267.141.452.352.56.636.03.087.047.173.073.259.039.142.034.284.034.43v1.387c0 .104.005.207-.008.31a1.597 1.597 0 01-.13.487c-.03.06-.043.125-.086.176a1.346 1.346 0 01-.53.427c-.09.038-.185.06-.275.09-.147.047-.293.047-.444.056-.16.009-.314 0-.47-.034-.081-.022-.167-.04-.245-.074-.073-.03-.15-.056-.22-.103a1.913 1.913 0 01-.18-.125 1.081 1.081 0 01-.238-.267c-.025-.043-.051-.082-.064-.133 0-.018-.017-.035-.026-.048a.166.166 0 01-.034-.086.894.894 0 00-.048-.185.489.489 0 01-.026-.176v-1.004l-.004.004zm.71 0v.677c0 .159.014.314.07.465.082.22.228.366.452.434.06.018.13.03.194.03.108 0 .21-.038.319-.025.008 0 .017 0 .025-.005.31-.073.461-.322.5-.572-.004-.147.017-.289.013-.435v-.34-.573c0-.215-.009-.43-.017-.642a.164.164 0 00-.026-.099.498.498 0 01-.034-.069.713.713 0 00-.229-.301.51.51 0 00-.301-.103c-.1-.009-.203-.035-.306-.009h-.095a.664.664 0 00-.302.138.747.747 0 00-.232.37c-.039.13-.047.263-.047.396v.676M25.187 12.118v-.952c0-.073 0-.146.039-.215a1.04 1.04 0 01.19-.465c.098-.151.232-.267.387-.358.108-.06.224-.107.34-.146.082-.026.168-.035.25-.052.263-.052.526-.026.784.03.263.056.5.172.69.366.107.112.184.242.24.384.048.116.074.236.095.361.017.1.022.194.022.289v1.692c0 .1-.03.194-.048.289-.051.24-.159.456-.34.628-.155.151-.34.25-.547.306l-.198.052a.366.366 0 01-.095.017c-.146.004-.288.022-.435.013a1.308 1.308 0 01-.388-.065.136.136 0 00-.06-.013.353.353 0 01-.133-.047.957.957 0 01-.297-.16 1.114 1.114 0 01-.349-.41c-.04-.08-.082-.162-.091-.257-.004-.06-.039-.112-.047-.172-.018-.125-.01-.245-.013-.37v-.741l.004-.004zm.724.004v.611c0 .138 0 .276.03.414.034.142.09.271.194.379.129.138.297.19.478.207.043 0 .082.008.125 0a.353.353 0 01.176-.022c.013 0 .03 0 .048-.004.24-.065.404-.207.465-.452 0-.013.004-.026.013-.035.021-.03.021-.06.026-.095.004-.069 0-.137.017-.202a.532.532 0 00.017-.142v-.104-.71c0-.237.013-.478-.021-.715-.01-.06 0-.129-.03-.185a1.9 1.9 0 01-.057-.142c-.004-.013-.008-.03-.017-.043-.034-.043-.069-.09-.108-.134a.548.548 0 00-.383-.18.893.893 0 01-.15-.013.173.173 0 00-.083 0 .157.157 0 01-.099.004c-.021 0-.038-.009-.06 0a.644.644 0 00-.478.366 1.016 1.016 0 00-.1.465v.745M45.795 13.354h-.6c-.06 0-.064 0-.077.056l-.155.568a1.994 1.994 0 01-.043.15.397.397 0 00-.021.126c0 .047-.013.056-.056.064H44.209c-.064-.008-.081-.034-.06-.099.039-.09.048-.19.082-.28a.29.29 0 00.017-.103c0-.022 0-.039.013-.056.039-.065.043-.142.056-.211.009-.035.009-.069.03-.1a.083.083 0 00.013-.042c.005-.06.022-.12.035-.181 0-.009 0-.017.004-.021.043-.04.035-.095.043-.147.009-.052.039-.099.052-.155.004-.03.013-.06.017-.095 0-.025.004-.047.017-.069a.617.617 0 00.056-.232c0-.013 0-.03.009-.039.043-.069.043-.15.06-.228.005-.03 0-.06.03-.082.009-.009.013-.026.013-.039 0-.064.026-.125.035-.19 0-.02 0-.042.026-.055a.047.047 0 00.013-.03c0-.086.038-.16.06-.237.008-.03.017-.06.017-.095 0-.03.009-.065.022-.09a.632.632 0 00.047-.177.314.314 0 01.03-.103.714.714 0 00.043-.19c.005-.034.009-.069.03-.094a.244.244 0 00.018-.052c.004-.043.017-.086.03-.13.008-.016.017-.034.008-.055v-.018c.043-.038.026-.098.04-.146.008-.03.02-.056.03-.082.012-.047.034-.094.034-.146 0-.03.004-.056.017-.082a.732.732 0 00.039-.13c.017-.068.026-.077.095-.081h.874c.03 0 .056 0 .082.004.03.005.051.022.051.056.01.086.043.168.06.254.018.074.035.151.057.224.034.12.06.246.099.366.021.065.026.134.047.198.022.07.039.143.052.216.026.129.069.254.099.383.013.069.039.133.056.202 0 .005.004.013.004.018.013.112.056.22.082.331.03.138.073.267.103.405.026.116.07.232.091.353.009.06.03.12.052.177a.472.472 0 01.025.112c.005.056.026.107.044.163.021.078.038.155.06.233.03.112.056.224.082.336.017.064.034.129.056.194.008.034.017.064.017.099 0 .038-.004.047-.047.051H46.798h-.043c-.06-.004-.069-.017-.082-.073-.013-.06-.034-.12-.034-.185 0-.009 0-.017-.004-.022-.04-.051-.035-.116-.052-.172-.013-.047-.017-.095-.043-.133a.133.133 0 01-.013-.056.56.56 0 00-.052-.203c-.008-.017-.013-.043-.017-.064-.013-.048-.013-.052-.064-.052H45.794m-.004-.633H46.238c.035 0 .04-.004.035-.039-.026-.138-.078-.275-.108-.413 0-.013-.008-.022-.013-.035a.3.3 0 01-.034-.12.317.317 0 00-.039-.142.293.293 0 01-.034-.134.16.16 0 00-.026-.09c-.009-.013-.013-.035-.017-.052-.022-.09-.03-.18-.06-.267-.01-.021-.01-.043-.014-.065-.013-.094-.021-.19-.043-.284a1.418 1.418 0 01-.034-.237c0-.051-.009-.099-.017-.146-.01-.039-.026-.052-.056-.052-.035.005-.03.035-.03.056a.497.497 0 01-.014.112.914.914 0 00-.021.19c0 .021 0 .043-.009.064a.248.248 0 00-.021.112c-.009.13-.04.254-.07.375-.081.314-.172.624-.253.939-.018.056-.03.116-.048.172-.013.047-.008.052.043.052h.435M30.205 10.93v.873c0 .04 0 .043.04.043h.348a.052.052 0 00.052-.034c.03-.065.051-.13.077-.194.056-.138.116-.267.185-.4.16-.297.315-.599.474-.9.056-.108.117-.211.168-.323.009-.022.026-.035.052-.039.026 0 .052-.009.078-.009H32.264c.065.005.082.03.06.095-.008.026-.03.043-.042.065-.082.116-.142.245-.207.37-.052.1-.1.198-.15.293-.057.099-.113.202-.169.301-.099.181-.194.362-.288.543-.052.099-.108.19-.147.293-.013.03-.039.056-.056.086a.118.118 0 000 .129c.1.185.194.37.293.556l.4.766c.138.263.276.53.418.792l.013.026c.013.03.005.039-.026.048-.025.008-.051.008-.077.008H31.7h-.047c-.04 0-.065-.017-.086-.06-.048-.09-.095-.18-.143-.267-.069-.125-.137-.245-.202-.37-.043-.087-.086-.177-.138-.259-.056-.09-.099-.185-.15-.275-.035-.065-.065-.134-.1-.198-.034-.07-.06-.143-.103-.207a.09.09 0 01-.017-.043c-.013-.06-.06-.104-.074-.164 0-.017-.021-.021-.038-.021h-.354c-.025 0-.038.012-.038.038.008.452 0 .909 0 1.361v.336c0 .125 0 .125-.125.125h-.521c-.065 0-.074-.013-.074-.073 0-.056.009-.117-.017-.173 0-.008 0-.021.004-.03a.13.13 0 000-.09.091.091 0 010-.082c.018-.039.013-.077.013-.116v-.25c0-.043 0-.082-.017-.125a.156.156 0 010-.099c.013-.03.013-.056.013-.086v-.482c0-.03 0-.056-.013-.082a.167.167 0 010-.112.11.11 0 000-.09.1.1 0 010-.087c.013-.03.013-.056.013-.086v-.267c0-.043 0-.086-.017-.129a.17.17 0 010-.103.091.091 0 000-.082.12.12 0 010-.095c.013-.03.013-.056.013-.086v-.263c0-.047 0-.09-.018-.133a.17.17 0 010-.104.091.091 0 000-.081.132.132 0 010-.1.164.164 0 00.013-.077v-.543c0-.03 0-.06-.013-.086-.017-.043 0-.081.018-.12.004-.013.021-.022.034-.022.022 0 .043 0 .065-.004h.474c.146 0 .142 0 .142.138v.844l.008-.009zM56.93 14.318h-.418-.06c-.043 0-.07-.025-.078-.064-.008-.03-.013-.06-.017-.086-.008-.052-.017-.108-.043-.155a.293.293 0 01-.03-.121.49.49 0 00-.035-.142c-.008-.022-.017-.043-.021-.069-.017-.13-.07-.254-.09-.383a.095.095 0 00-.026-.065c-.013-.017-.013-.034-.018-.056a.588.588 0 00-.056-.21.338.338 0 01-.021-.096.397.397 0 00-.043-.159.414.414 0 01-.03-.12.26.26 0 00-.035-.125.41.41 0 01-.039-.143.238.238 0 00-.03-.107c-.026-.056-.03-.12-.043-.181-.004-.026-.008-.056-.026-.077a.146.146 0 01-.021-.074.566.566 0 00-.056-.206.339.339 0 01-.022-.095.282.282 0 00-.043-.155.295.295 0 01-.03-.12.387.387 0 00-.039-.143.426.426 0 01-.034-.146.238.238 0 00-.03-.108c-.026-.056-.03-.116-.044-.172-.004-.026-.008-.052-.025-.073a.125.125 0 01-.022-.078.551.551 0 00-.056-.22c-.013-.025-.013-.051-.017-.081a.44.44 0 00-.043-.168.256.256 0 01-.026-.116c0-.03.013-.048.043-.048.022 0 .043-.004.065-.004H55.939c.065.004.065.013.086.073.03.099.048.202.074.301l.103.375c.035.12.065.241.1.362.02.069.034.142.055.21.035.108.052.22.086.328.035.112.06.228.09.34.035.125.07.246.1.37.03.126.069.246.099.37.034.156.056.315.082.47.013.074.026.151.03.224 0 .009 0 .022.008.022.035 0 .022.021.022.038v.09c0 .014.009.027.021.035.018.013.04.005.044-.013.013-.077.047-.15.038-.232-.004-.056-.008-.112.026-.164.013-.017.009-.038.009-.06 0-.056.013-.112.03-.168.021-.077.03-.155.043-.232a.314.314 0 01.03-.104c.026-.051.035-.116.043-.172.005-.026.009-.056.026-.078a.144.144 0 00.022-.06c.004-.056.021-.107.034-.163a.07.07 0 01.022-.048.064.064 0 00.017-.039c0-.073.034-.137.043-.21 0-.018.004-.03.017-.044.005-.008.013-.017.013-.025 0-.087.052-.155.065-.237 0-.026.013-.052.013-.078 0-.021 0-.039.013-.06.038-.07.047-.142.06-.215 0-.018 0-.04.013-.052.039-.06.034-.134.056-.198.008-.035.004-.073.039-.104.008-.004.008-.017.008-.03 0-.086.039-.16.06-.237.01-.03.018-.056.018-.086 0-.03.013-.06.026-.09a.513.513 0 00.043-.16c0-.038.008-.073.03-.107.013-.017.013-.039.017-.06.009-.052.017-.06.073-.07.022 0 .048-.004.073-.004h.492c.03 0 .056.005.081.009.026 0 .035.017.03.043 0 .013 0 .022-.008.034-.06.242-.12.479-.185.72l-.297 1.136c-.048.181-.095.358-.138.539-.07.28-.142.56-.211.84-.035.133-.074.266-.108.404-.047.177-.09.35-.134.526-.004.021-.004.043-.004.064 0 .035-.017.052-.052.056-.021 0-.047.005-.073.005h-.44M34.522 14.318h-1.073c-.112 0-.112 0-.116-.112 0-.047.008-.09-.009-.138-.004-.012 0-.021 0-.034.009-.022.004-.043-.004-.065a.106.106 0 01-.005-.081.367.367 0 000-.216.28.28 0 010-.146.391.391 0 00.005-.211c-.009-.039.021-.069 0-.104-.022-.034 0-.068 0-.103a.47.47 0 00-.005-.19.251.251 0 010-.159c.022-.069.013-.137.01-.206 0 0 0-.009-.005-.013-.017-.035.021-.07 0-.104-.022-.034 0-.069.004-.103a.368.368 0 00-.004-.18.238.238 0 010-.156.367.367 0 000-.215c-.009-.035.021-.06 0-.095-.013-.026-.022-.056-.009-.086a.32.32 0 00.017-.112c0-.039 0-.078-.013-.116a.218.218 0 010-.13.332.332 0 00.013-.129c0-.038-.008-.077-.008-.116 0-.039.004-.077-.009-.116-.004-.013 0-.03 0-.047a.375.375 0 000-.229.206.206 0 010-.125c.017-.047.017-.099.017-.146 0-.073.013-.142-.017-.211v-.035c.013-.025.013-.051.013-.081 0-.043.009-.048.052-.056.021 0 .047-.005.073-.005h2.145c.125 0 .13.005.13.134v.396c0 .078-.01.086-.087.086H34.112c-.06 0-.06 0-.06.07v1.076c0 .069 0 .069.073.069h1.34c.116 0 .116 0 .116.116v.418c0 .064-.026.09-.09.099h-1.284c-.039 0-.077.004-.116-.013-.022-.009-.035 0-.035.026v1.192c0 .082.018.095.095.074a.446.446 0 01.13-.018c.129 0 .254-.004.383.022h.051c.186-.03.375-.026.56-.017.121.004.237.021.358.021h.021c.065.009.074.017.074.086v.448c0 .065-.013.078-.074.082h-1.141M59.536 12.126V10.06c0-.112 0-.112.116-.112h2.15c.13 0 .142.013.142.143v.366c0 .086-.017.103-.103.103h-1.517c-.06 0-.064 0-.064.065v1.08c0 .065 0 .065.069.065h1.348c.078 0 .116.039.116.116v.414c0 .069-.021.094-.09.107h-1.258c-.047 0-.09 0-.133-.017-.035-.013-.048 0-.048.035V13.607c0 .091 0 .095.09.074a.54.54 0 01.22.004.565.565 0 00.12 0c.07-.013.139-.013.208-.013h.24c.053 0 .1 0 .152.009a.579.579 0 00.172 0c.133-.017.263-.013.392.013.073.017.09.03.09.107v.427c0 .064-.021.086-.086.086h-2.201c-.112 0-.116 0-.116-.116v-2.076l-.009.004zM39.277 11.678v1.572c0 .104-.03.203-.047.302-.017.099-.065.194-.095.288-.017.056-.06.095-.099.134-.177.185-.4.284-.646.34-.1.021-.203.026-.302.034-.116.009-.237 0-.353 0a.828.828 0 01-.323-.06c-.017-.008-.035-.008-.052-.013a.925.925 0 01-.275-.12.92.92 0 01-.203-.16.654.654 0 01-.125-.193c-.008-.026-.017-.052-.034-.078a.126.126 0 01-.022-.056 13.331 13.331 0 00-.073-.405v-1.011c0-.04 0-.078.009-.113.008-.038.03-.06.069-.06h.547c.116 0 .124.009.124.125v1.085c0 .043-.012.09.03.125v.017c.014.112.083.181.173.233a.638.638 0 00.267.077c.073.005.142.013.211-.017.017-.009.039-.004.06-.004.13.008.293-.09.358-.25a.543.543 0 00.034-.185v-.306c0-.15.013-.301.01-.452 0-.12-.005-.241-.01-.362 0-.142.013-.288.01-.43 0-.117-.005-.233-.01-.345 0-.142.013-.289.01-.43 0-.108-.01-.216-.01-.324 0-.202.013-.4.01-.602 0-.06.008-.07.068-.078H39.152c.108 0 .112.009.112.116v1.62l.013-.014zM48.397 12.113v-2.032-.09c0-.026.017-.04.043-.044.021 0 .047-.004.073-.004h.478c.03 0 .06.004.09.009.026 0 .035.017.04.038V13.651c0 .034.012.047.042.039.12-.026.237 0 .358-.013.155-.018.31-.005.465-.005.035 0 .069.005.1.009a.607.607 0 00.124 0 1.77 1.77 0 01.5.013c.064.008.073.017.082.082.017.107.008.215 0 .323 0 .038-.005.077-.005.12 0 .073-.017.09-.09.095h-2.184c-.108 0-.112 0-.116-.108V12.11M60.69 9.624h-.189s-.034 0-.052-.008c-.038-.026-.043-.052-.017-.095.142-.228.28-.456.422-.685.005-.008.013-.017.017-.025.026-.07.074-.087.147-.087H61.638c.043.01.06.04.035.078a.187.187 0 01-.026.03l-.612.676c-.021.026-.047.052-.064.078-.018.026-.043.034-.074.034H60.7l-.008.004z" fill="#fff"/></g><defs><clipPath id="clip0_15_83664"><path fill="#fff" d="M0 0h83v117H0z"/></clipPath></defs></svg>