<svg width="24" height="24" viewBox="0 0 24 24" fill="none" xmlns="http://www.w3.org/2000/svg"><path clip-rule="evenodd" d="M14 20h5a2 2 0 002-2V6a2 2 0 00-2-2H5a2 2 0 00-2 2v12a2 2 0 002 2h5l2 2 2-2z" stroke="#23234A" stroke-width="1.5" stroke-linecap="round" stroke-linejoin="round"/><path d="M12.177 11.823a.25.25 0 11-.354.354.25.25 0 11.354-.354M16.177 11.823a.25.25 0 11-.354.354.25.25 0 11.354-.354M8.177 11.823a.25.25 0 11-.354.354.25.25 0 11.354-.354" stroke="#23234A" stroke-width="1.5" stroke-linecap="round" stroke-linejoin="round"/></svg>