<svg width="208" height="173" viewBox="0 0 208 173" fill="none" xmlns="http://www.w3.org/2000/svg"><g clip-path="url(#clip0_15_83808)"><path d="M-8.573 173c-.131 0-.279-.066-.345-.181a.442.442 0 01.115-.594c11.299-7.451 12.268-17.654 13.138-26.671.624-6.577 1.166-12.248 5.583-15.594 4.434-3.379 12.383-3.89 25.027-1.599 8.179 1.484 9.492 1.006 9.69.841-.214-.874-5.272-3.791-18.902-9.281-.788-.313-1.84-.84-1.757-1.681.13-1.484 3.875-2.341 10.017-3.577 2.233-.462 4.96-1.006 5.813-1.401-.673-.247-2.84-.66-9.294-1.072-28.312-2.884-28.23-4.121-28.18-4.846.032-.478.065-1.137 6.946-1.467 4.023-.198 8.621-.181 11.577-.115 1.84.049 8.967.033 15.65-.264 11.791-.528 13.22-1.517 13.4-1.764-.048-.082-.328-.396-1.723-.89-1.33-.462-2.89-.148-5.042.264-3.449.676-8.654 1.698-17.095.23-3.367-.577-6.52-.972-9.312-1.302-6.388-.775-11.019-1.335-12.48-3.643-.575-.906-.64-2.027-.197-3.395.903-2.77 2.676-5.045 4.549-7.435 2.38-3.05 5.058-6.495 6.404-11.654-.706-.181-1.215-.511-1.51-1.038-1.626-2.935-9.033-19.946-7.243-23.59 1.1-2.241 4.286-4.351 7.456-5.867a7.574 7.574 0 01-.542-.231c-.345-.132-.673-.28-1.018-.429-2.037-.84-4.45-1.203-6.7-1.302-2.398 2.291-4.533 3.099-6.75 1.995-1.084-.544-1.018-1.121-.887-1.418.46-1.039 3.695-1.583 7.275-1.45 1.495-1.484 3.301-3.743 5.55-7.023 4.665-6.808 13.582-13.138 20.446-11.95 3.088.543 6.963 1.96 9.837 3.411-1.527-3.774-2.726-9.396-2.233-12.99.394-2.9 2.759-6.626 6.027-9.494C48.41 1.303 52.648-.33 56.327.05 61.91.643 70.4 6.033 74.506 11.605c1.872 2.538 2.66 4.895 2.283 6.824-.395 2.077-1.807 3.528-3.646 4.566a72.733 72.733 0 01-.148 2.506c1.002-.38 1.84-.791 2.414-1.138.082-.642.23-1.038.493-1.236a.68.68 0 01.591-.115c.476.132.624.461.591.725-.033.313-.345.692-.887 1.088-.065.725-.082 1.698-.082 2.538-.049 3.396-.131 8.028-1.954 10.65-1.56 2.258-4.204 4.104-7.045 5.208-1.15 1.995-2.397 3.56-3.695 4.187-1.642.775-5.271-.264-9.475-1.467-1.232-.346-2.513-.725-3.761-1.038.246 1.038.312 2.093.263 3.148 3.695.23 7.817 3.115 10.953 5.605 4.763 3.807 6.602 10.533 9.164 25.17.098.512.164 1.023.246 1.5.723.726 1.462 1.83 2.02 2.951.082.182.148.38.197.577 2.693 2.011 6.437 4.5 8.9 6.149 3.466 2.308 4.615 3.082 4.812 3.412.132.214.23.61-.18 1.896-.74 2.307-3.186 7.434-6.24 9.593 1.018.61 1.986 1.22 2.857 1.797 1.642-.461 3.793-1.434 5.485-2.901 1.658-1.451 2.496-3.033 2.463-4.698a12.63 12.63 0 00-.443-3.05c-1.051-.824-1.79-1.895-2.267-3.23-.312-.858-.328-1.32-.065-1.566.164-.149.377-.182.607-.083.592.248 1.774 1.995 2.464 4.401 1.527 1.088 3.727 1.632 6.733 1.698 6.388.132 9.541.791 10.198 2.143.164.346.262.923-.28 1.665-.032.05-.082.083-.131.116-.131.082-1.56.906-3.563 1.681 1.083.709 2.643 1.747 4.598 3.033.739-.148 1.428-.33 1.954-.544.69-.28 1.33-.758 1.905-1.17.854-.643 1.593-1.187 2.365-.956.525.164.936.675 1.281 1.615.394 1.104.098 2.67-.838 4.385a8.95 8.95 0 01-.443.742c18.409 12.016 51.318 33.132 57 34.435 7.275 1.665 16.242-6.165 21.595-10.83.444-.379.838-.742 1.232-1.072l1.412-1.22c3.334-2.917 6.47-5.67 8.786-5.011 1.034.297 1.774 1.204 2.25 2.77 1.888 6.148-.821 9.066-7.965 14.703-7.209 5.704-23.204 7.286-25.52 6.825-1.675-.33-40.792-24.941-61.106-37.782-2.02 1.995-4.729 3.742-7.817 4.451-6.864 1.566-16.142-2.637-19.263-7.154-.509-.742-1.494-1.583-2.775-2.473-.92.231-1.691.297-2.184.231-.673-.115-2.07-.808-4.368-2.011-2.66-.181-6.11-1.187-7.817-1.731-3.712-1.17-8.113-3-9.394-4.203-.36-.346-.492-.693-.394-1.006.164-.461.723-.56 1.133-.61 3.383-.313 10.51 3.445 15.7 6.182.345.181.673.362 1.002.527.771.05 1.412 0 1.872-.132-.92-.527-1.856-1.071-2.792-1.599-5.945-3.362-9.574-5.522-9.18-7.203.18-.791.657-1.385 1.215-2.06.805-.973 1.823-2.226 2.316-4.797-2.907 2.835-7.259 5.538-9.722 6.527-4.927 1.962-7.061-.972-8.851-4.137l-.87-1.55c-.165-.28-.33-.577-.493-.89-.247 2.522-1.019 4.368-2.332 5.506 1.395.61 2.414 1.335 2.89 2.11.837 1.351 3.005 5.275 2.857 9.214 1.495-.461 2.94-.445 4.139.396.673.478 1.855 1.22 3.366 2.176 3.958 2.505 9.935 6.264 15.42 10.632 2.447 1.962 3.334 4.072 2.611 6.313-2.644 8.21-26.685 14.919-27.72 14.968a.434.434 0 01-.443-.396c0-.23.164-.428.394-.445 1.018-.066 24.534-6.692 26.965-14.407.59-1.879-.18-3.626-2.349-5.357-5.435-4.335-11.397-8.094-15.338-10.583-1.51-.956-2.71-1.714-3.4-2.209-.984-.692-2.282-.659-3.727-.148a7.792 7.792 0 01-.805 2.571c-1.412 2.786-6.141 5.127-7.898 5.127h-.083c-.542-.016-.755-.28-.837-.478-.164-.412.05-.923.722-1.632 1.33-1.418 4.746-4.797 8.096-6.214.23-3.066-1.083-6.512-2.693-9.1-.443-.725-1.51-1.417-2.989-1.978-.065.033-.114.066-.18.1-4.352 2.307-17.621 4.664-19 2.455-.592-.956.739-1.945 1.182-2.275 2.398-1.78 7.718-3.395 14.813-2.027a19.92 19.92 0 013.087.824c1.56-1.12 2.397-3.297 2.463-6.511-3.054-5.44-8.096-14.539-10.428-19.715-1.05-2.34-1.363-5.67-1.166-9.165a72.455 72.455 0 01-2.299-2.522c-2.2-2.49-4.926-5.572-6.552-5.506-7.768.363-8.868 3.363-8.95 5.918-.05 1.22-.23 2.39-.394 3.511-.608 3.923-1.166 7.632 4.352 13.418l.394.396c4.138-.726 8.227-1.303 10.362.016 1.396.857 1.51 1.797 1.462 2.275-.099.84-.838 1.582-1.988 1.978-2.446.824-6.437.066-10.1-3.363-.245.05-.492.083-.738.132-2.94.528-5.633 1.006-7.488.824-1.38 5.374-4.139 8.918-6.586 12.034-1.823 2.34-3.547 4.55-4.4 7.187-.362 1.12-.33 1.994.098 2.67 1.248 1.962 5.698 2.506 11.873 3.248 2.792.346 5.961.725 9.344 1.302 8.293 1.434 13.203.478 16.8-.231 2.282-.445 3.94-.775 5.468-.231 1.215.429 2.447.973 2.283 1.83-.115.593-.329 1.83-13.91 2.456-6.782.313-14.09.33-15.978.28-7.883-.181-15.946.198-17.49.808 1.002.528 5.83 1.764 27.244 3.94 3.515.231 6.027.461 7.67.725 1.904.297 2.561.577 2.594 1.137.05.841-1.297 1.204-6.684 2.292-2.266.461-4.598.923-6.437 1.45-2.792.792-2.923 1.319-2.923 1.368 0 0 0 .314 1.232.808 20.05 8.077 19.591 9.643 19.41 10.319-.23.775-1.248 1.451-10.657-.247-12.383-2.242-20.117-1.78-24.354 1.434-4.122 3.132-4.648 8.638-5.255 15.001-.887 9.198-1.872 19.616-13.516 27.297a.372.372 0 01-.23.066m121.966-60.777c23.008 14.523 58.988 37.106 60.68 37.568 2.249.445 17.801-1.088 24.813-6.66 7.423-5.885 9.344-8.407 7.686-13.797-.394-1.269-.936-1.995-1.675-2.209-1.872-.528-4.976 2.192-7.998 4.83-.476.412-.936.824-1.412 1.236-.378.33-.788.676-1.215 1.055-4.943 4.319-12.908 11.275-20.084 11.275-.756 0-1.511-.082-2.25-.247-5.896-1.352-38.838-22.501-57.296-34.567a14.634 14.634 0 01-1.232 1.5m-29.445-4.83c1.1.808 1.955 1.583 2.447 2.291 2.611 3.792 11.266 8.44 18.376 6.808 2.858-.659 5.387-2.242 7.275-4.088-3.793-2.39-6.864-4.335-8.835-5.588-.854-.247-1.543-.643-1.905-1.269a.418.418 0 01.592-.561c.541.347 1.116.709 1.707 1.072 1.117.28 2.612.28 4.04.115-1.905-1.253-3.399-2.242-4.352-2.868-2.479.824-5.567 1.401-8.112.445-.969-.363-1.593-.709-1.478-1.269.082-.363.246-1.203 8.736-.692.066 0 .148.032.214.065.033.017.296.198.755.511 2.02-.708 3.597-1.582 3.958-1.78.296-.445.197-.66.164-.725-.328-.676-2.25-1.517-9.459-1.681-2.71-.066-4.828-.511-6.437-1.385.148.742.246 1.55.263 2.357.032 1.912-.92 3.758-2.743 5.357-1.544 1.336-3.481 2.308-5.173 2.869m-39.33 6.511c.164.016.541 0 1.215-.231 1.872-.593 4.976-2.374 6.027-4.451.295-.577.492-1.17.624-1.796-2.447 1.153-5.173 3.461-7.357 5.769-.345.363-.477.577-.526.692m60.614-6.758c2.233 1.401 4.729 2.983 7.406 4.681.46-.494.887-1.005 1.248-1.516-1.921-1.253-3.679-2.407-5.222-3.412-1.084.181-2.299.296-3.432.247zm4.614-.495c1.363.89 2.874 1.88 4.516 2.951.148-.231.279-.462.411-.692.804-1.484 1.1-2.836.788-3.693-.23-.626-.476-1.005-.723-1.088-.361-.115-.968.346-1.609.824-.608.446-1.281.957-2.085 1.286-.362.149-.789.28-1.298.412zm-31.727-.758c1.297.659 2.299 1.137 2.726 1.203.246.033.624.033 1.067-.049a77.068 77.068 0 00-2.529-1.566c-.131.066-.262.115-.394.181a3.18 3.18 0 01-.886.215M59.71 99.168c.23.28 1.067.874 3.038 1.78 3.153 1.451 7.899 3.05 11.512 3.726-4.78-2.522-11.282-5.836-14.222-5.556-.164 0-.262.034-.345.05m11.43-11.044c-.394 3.61-1.691 5.192-2.677 6.412-.509.626-.903 1.104-1.05 1.714-.264 1.154 4.959 4.105 8.769 6.281 1.116.626 2.233 1.269 3.317 1.895 3.711-2.241 6.602-9.66 6.503-10.566-.312-.313-2.463-1.747-4.549-3.132-3.235-2.16-6.208-4.154-8.457-5.802-.05.214-.115.445-.197.66-.312.823-.903 1.68-1.659 2.57m23.73 14.424c.148.066.361.165.673.28 2.118.792 4.697.412 6.914-.263-.033-.033-.082-.05-.099-.066-2.972-.165-6.339-.182-7.472.049m-56.163-8.72c-3.432 0-6.914.66-9.163 2.34-.936.71-1.019 1.072-.97 1.155.838 1.319 12.268-.1 17.375-2.49a19.595 19.595 0 00-2.25-.543 26.762 26.762 0 00-4.992-.462zm11.561-6.264c.427.758.821 1.45 1.15 2.044.361.643.657 1.154.87 1.55 2.036 3.643 3.892 5.324 7.8 3.758 2.924-1.17 7.62-4.286 10.231-7.17.132-1.352.132-3-.065-5.045-.756-.675-1.248-1.22-1.38-1.599-.377-1.071-.082-1.45.247-1.582.213-.083.46-.066.722.05a10.655 10.655 0 00-.115-.644c-2.512-14.406-4.302-21.017-8.851-24.66-3.038-2.406-7.029-5.225-10.494-5.423-.345 3.066-1.658 6.132-2.759 8.704-.295.692-.575 1.302-.82 1.846-1.577 3.445-2.234 4.88.081 11.506 1.018 2.934 2.808 8.637 3.285 13.863.082.989.131 1.912.115 2.77m38.936 5.093c.197.544.46 1.038.772 1.483-.263-.593-.526-1.104-.772-1.483zm-18.064-9.165c.082 1.17.115 2.209.082 3.148.345-.478.608-.94.772-1.385.131-.346.197-.659.197-.94-.378-.28-.723-.56-1.051-.823zM38.64 59.722c-.115 3.115.214 6.016 1.117 8.027 2.135 4.731 6.569 12.792 9.64 18.281-.017-.362-.05-.742-.082-1.137-.46-5.143-2.234-10.764-3.235-13.665-2.414-6.94-1.675-8.572-.05-12.133.247-.544.526-1.154.821-1.83 1.068-2.489 2.316-5.44 2.677-8.373-.969.082-1.888.395-2.71 1.022-2.643 2.01-3.547 4.78-4.335 7.22-.345 1.088-.69 2.126-1.15 2.95a1.04 1.04 0 01-.804.56c-.526.05-1.133-.28-1.889-.939m32.4 22.616c.165.132.346.28.526.429-.197-.33-.394-.626-.574-.874l.049.445zm-1.494-1.928c0 .099.05.247.115.445.05.148.198.346.444.593-.033-.23-.066-.461-.099-.709a2.743 2.743 0 00-.46-.346m-44.405-5.473c3.269 2.82 6.668 3.446 8.77 2.737.837-.28 1.363-.758 1.429-1.27.049-.478-.329-1.005-1.068-1.467-1.773-1.104-5.485-.626-9.13 0zm-9.097.314c1.757.132 4.483-.363 7.143-.841.05 0 .099-.017.148-.033-5.797-6.083-5.206-9.99-4.565-14.127.164-1.104.345-2.242.378-3.412v-.066c-.198 1.22-.378 2.539-.575 3.874-.706 4.764-1.511 10.154-2.546 14.588M14.78 45.842c-3.219 1.467-6.683 3.594-7.767 5.803-1.462 2.983 5.189 19.121 7.225 22.813.165.314.51.511.986.627 1.034-4.418 1.839-9.825 2.545-14.589.838-5.654 1.56-10.55 2.447-12.38.082-.164.18-.345.312-.576-2.07-.33-3.909-.973-5.731-1.698M38.69 58.617c.739.726 1.396 1.236 1.74 1.187.033 0 .083 0 .148-.132.427-.742.74-1.73 1.084-2.786.788-2.44 1.774-5.472 4.631-7.648a5.953 5.953 0 013.3-1.203c.066-1.154-.032-2.292-.36-3.38-2.398-.56-4.533-.857-5.633-.362-.936.428-1.97 1.994-2.841 4.318-1.068 2.803-1.823 6.479-2.053 10.006m-9.689-8.555c2.02 0 4.615 2.934 7.127 5.786a49.306 49.306 0 001.757 1.945c.296-3.38 1.051-6.808 2.07-9.478.69-1.813 1.806-4.121 3.284-4.78 1.232-.561 3.284-.347 5.65.18-.411-.955-1.019-1.862-1.873-2.72-.739-.741-1.905-1.235-3.465-1.466-1.15 1.846-3.564 4.055-8.556 5.884-5.978 2.176-10.149 2.655-13.58 2.259a9.36 9.36 0 00-.46.824c-.543 1.104-1.019 3.478-1.528 6.528 1.347-4.566 7.144-4.847 9.492-4.962h.099m-7.095-3.165c3.252.297 7.177-.23 12.776-2.275 3.088-1.12 6.29-2.95 7.916-5.192-3.744-.297-9.426.626-17.013 2.786-1.527 1.747-2.825 3.412-3.695 4.681m27.983-2.95c1.38.346 2.824.758 4.27 1.17 3.71 1.055 7.537 2.16 8.9 1.516.97-.445 1.922-1.55 2.841-2.983-2.496.758-5.008.923-6.995.264-1.577-.528-3.055-1.336-4.385-2.341-.066.082-.115.165-.18.23-.493.594-1.052.858-1.643.792-1.806-.182-3.547-3.38-5.074-6.182-.181-.33-.345-.643-.51-.94-1.346-2.456-2.266-6.23-1.28-8.406.098-.231.23-.429.36-.61-.968-2.226-1.97-4.319-2.709-5.72h-.131c-2.726-.115-3.268-.412-3.35-.923-.082-.643.82-1.006 2.118-1.418.132-.033.23-.082.296-.099a.513.513 0 01.41.033c.247.116.657.71 1.166 1.616 1.873.115 3.942.428 6.126.774 4.466.693 9.081 1.402 12.645.495.509-.132 1.018-.247 1.494-.38 3.252-.807 7.653-1.911 8.145-2.637.033-.577.115-.643.41-.675.1 0 .395 0 .477.428.017.148 0 .297-.05.445v.627c0 .725 0 1.78-.048 3 1.363-.874 2.447-2.077 2.775-3.742.328-1.682-.41-3.808-2.135-6.149C69.86 6.725 61.648 1.484 56.261.923 48.674.132 40.3 8.621 39.544 14.193c-.296 2.176.082 5.571 1.018 9.05.46 1.714 1.002 3.263 1.56 4.467 1.74.989 2.907 1.945 2.94 2.604 0 .181-.033.61-.674.791-.427.116-.887-.016-1.33-.428-.51-.445-1.035-1.27-1.56-2.325-2.644-1.45-6.799-3.197-10.56-3.857-6.519-1.137-15.091 4.995-19.607 11.589-1.856 2.703-3.531 4.945-5.091 6.61 2.217.164 4.467.593 6.224 1.318.345.149.69.28 1.034.429.427.181.854.346 1.265.527a35.044 35.044 0 013.514-1.335c.246-.082.558-.181.953-.313 1.412-.462 3.53-1.137 5.977-1.846C29.74 36.28 36.227 30.397 40.2 31.402c2.595.643 4.27 2.456 4.385 4.731.033.511-.033 1.484-.591 2.687 1.527.264 2.792.775 3.646 1.632 1.116 1.104 1.839 2.308 2.282 3.56M15.88 45.364c1.642.627 3.284 1.154 5.123 1.418.74-1.088 1.84-2.555 3.17-4.154-1.495.445-3.055.923-4.697 1.45-.394.132-.706.231-.953.313a31.99 31.99 0 00-2.643.973zm-17.293-.989s.148.165.476.33c1.396.692 2.89.626 5.108-1.27-2.94 0-5.305.478-5.584.94zm56.36-3.544a14.237 14.237 0 004.237 2.275c2.037.692 4.78.379 7.39-.594 1.511-2.736 2.89-6.264 4.04-9.181l.213-.544c.64-1.616 1.019-3.841 1.249-6.083a19.262 19.262 0 01-3.81.758 146.26 146.26 0 01-3.63.297c-2.824.214-6.7.511-7.045 1.055-.147.247-.36 1.747-.558 3.083-.427 2.917-.985 6.758-2.053 8.918m17.933-14.391c-.23 2.423-.624 4.88-1.33 6.676l-.214.544c-1.018 2.62-2.233 5.753-3.596 8.374 2.316-1.072 4.434-2.638 5.698-4.467 1.659-2.407 1.741-6.907 1.79-10.188 0-.774.033-1.434.05-1.978a18.59 18.59 0 01-2.398 1.055m-26.308.956v.017c-.837 1.846-.016 5.34 1.248 7.649l.526.956c1.28 2.373 3.038 5.62 4.4 5.752.313.033.625-.131.92-.494.066-.066.115-.148.165-.23-2.267-1.93-4.007-4.5-4.878-7.37-.525-1.73-1.412-4.021-2.381-6.28zm-7.373 4.682c-3.301 0-8.49 4.517-12.514 8.918 5.337-1.467 11.857-2.852 16.422-2.357.427-.792.657-1.632.608-2.523-.099-1.879-1.528-3.395-3.745-3.956a2.869 2.869 0 00-.755-.082m7.932-5.44c1.117 2.588 2.118 5.193 2.61 6.808.806 2.654 2.398 5.044 4.484 6.858.936-2.078 1.495-5.852 1.889-8.49.295-2.027.443-3.016.673-3.395.525-.874 3.005-1.088 7.702-1.451 1.182-.099 2.414-.181 3.63-.297a18.617 18.617 0 003.973-.824c.066-.808.115-1.616.164-2.374-4.22 1.945-10.1 1.995-12.168 1.797a32.024 32.024 0 01-1.314-.132c-1.774-.198-3.613-.396-4.171.083a.458.458 0 00-.164.33c-.033.345.032 1.12.098 1.944.247 2.934.361 5.242-.624 5.918-.246.165-.673.297-1.297 0-1.265-.626-1.823-2.324-2.349-3.956-.69-2.094-1.182-3.346-2.364-3.099-.28.066-.526.181-.74.33m1.019-1.27c1.626 0 2.266 1.962 2.84 3.71.477 1.466.97 2.983 1.939 3.46.213.1.36.116.443.067.657-.445.394-3.61.263-5.143-.082-.94-.148-1.681-.099-2.094.033-.379.197-.675.477-.906.837-.693 2.594-.495 4.795-.264.427.05.87.099 1.313.132 1.446.132 5.124.181 8.638-.66 1.133-.263 2.365-.659 3.498-1.236.05-1.319.066-2.472.066-3.297-1.264.726-3.86 1.402-7.932 2.424-.492.115-.985.247-1.494.379-3.728.94-8.441.23-12.974-.478-1.954-.297-3.826-.594-5.517-.726.722 1.385 1.56 3.182 2.38 5.044.264-.18.576-.296.904-.362.18-.033.345-.066.493-.066M42.91 29.16c.23.363.46.643.69.84.164.133.377.298.558.248h.033c-.115-.23-.575-.626-1.265-1.071m-1.822-9.512c.295.066.87.149 1.888.198-.197-.346-.361-.593-.492-.725-.033 0-.083.033-.132.05-.591.197-1.018.346-1.28.477" fill="#23234A"/></g><defs><clipPath id="clip0_15_83808"><path fill="#fff" transform="translate(-9)" d="M0 0h217v173H0z"/></clipPath></defs></svg>