<svg width="256" height="159" viewBox="0 0 256 159" fill="none" xmlns="http://www.w3.org/2000/svg"><path d="M49.556 164.692c-.193-.152-.414-.478-.36-1.391.015-.26.015-.543 0-.825v-11.93c0-.826-.096-1.478-.317-2.086l-5.338-14.798c-.152-.456-.276-.847-.566-1.13a.388.388 0 00-.25-.108.382.382 0 00-.207.065c-.318.239-.47.652-.58.956l-.872 2.064c-1.825 4.259-3.65 8.518-5.448 12.799-.262.63-.511.826-.968.826l-13.357-.066h-3.346c-.484 0-.567-.086-.636-.325-.055-.196-.042-.305.249-.804l7.715-14.255c.25-.413.457-.782.484-1.369 0-.239-.041-.456-.152-.63-.18-.261-.415-.391-.677-.391h-.25l-1.617.043h-.387c-.58 0-.996.326-1.355 1.021l-7.384 14.255c-.166.261-.401.652-.36 1.304.014.326.152.587.346.673.263.109.456.283.415 1.348l-.028.673a61.25 61.25 0 00-.069 2.76c0 1.456-.041 2.912-.083 4.368a104.899 104.899 0 00-.069 5.128v.804a6.953 6.953 0 01-.11.999h-25.9s0-.065-.013-.087c-.042-.26-.042-.304.152-.412.18-.087.373-.109.622-.109h23.396c1.023 0 1.23-.283 1.355-1.847.042-.435.056-.739.056-1.043.013-3.129.069-6.345.165-9.583v-.521c0-1-.345-1.543-.87-1.587-.263 0-.388 0-.526-.065-.11-.043-.194-.108-.221-.217-.028-.087-.014-.239.041-.413.042-.152.138-.326.207-.478l2.351-4.52c2.116-4.085 4.245-8.17 6.36-12.277.333-.652.65-.913 1.176-.956 1.106-.087 2.213-.109 3.305-.131H26.962c.25 0 .346.109.374.239 0 .044.041.153-.07.348-.331.609-1.866 3.477-1.866 3.477l-6.278 11.582a3.763 3.763 0 00-.263.521c-.124.326-.152.696-.055 1 .097.304.29.521.553.565.166.043.36.043.526.043h1.95c1.77 0 3.553.044 5.323.087 1.839.044 3.664.087 5.503.087h1.217c.774 0 1.286-.456 1.715-1.456 1.742-4.172 3.512-8.322 5.282-12.494l1.203-2.825c.18-.456.29-.717.428-.956.125-.218.222-.283.263-.283.042 0 .124.087.221.326.318.782.595 1.586.885 2.39l1.715 4.738c1.244 3.455 2.489 6.91 3.747 10.365.263.738.373 1.521.332 2.52-.11 2.586-.097 5.194-.083 7.736v3.498c0 .457 0 .913.235 1.261.249.391.608.391.926.391h6.195c1.106 0 1.328-.37 1.328-2.13l.027-27.249v-.434c.042-.63.042-.63.429-.652l5.918-.196h1.95l9.264-.195c.346 0 .871-.174 1.023-1.347.125-1.109.374-2.108.706-2.999 1.244-3.173 2.931-4.737 5.185-4.759h.885c.719 0 1.576 0 2.406.196.567.108.567.13.608.934.042 1.173.07 2.347.056 3.52-.028 2.716.027 5.454.069 8.105.041 1.978.083 3.977.083 5.954 0 .761.027 1.5.041 2.26.014.652.042 1.304.042 1.978 0 1.325.276 1.738 1.147 1.76h1.107c.76-.066.926-.609.967-1.543v-7.106c-.013-6.041-.027-12.06-.055-18.101 0-.847-.014-1.716-.028-2.564-.013-1.151-.041-2.281-.027-3.433 0-1.412.11-1.412.567-1.412.124 0 .249 0 .4.043.568.087 1.135.109 1.715.109 0 0 8.048.326 11.767.5.457 0 .927.065 1.383.13h.028c.594 0 .968-.283 1.313-.891l1.95-3.39 4.646-8.04.581-1.043.29-.543c.083-.152.125-.369.111-.565a.865.865 0 00-.18-.521c-.207-.261-.442-.37-.705-.37h-2.047c-1.078 0-2.157 0-3.235-.065-2.89-.152-5.78-.174-8.49-.196-.733 0-1.259.305-1.729 1-.802 1.173-1.604 2.347-2.42 3.498l-1.34 1.934a785.81 785.81 0 00-4.26 6.172c-.345.499-.705.717-1.175.717-1.756 0-3.43.13-5.033.26-1.438.109-2.876.218-4.314.261-1.203 0-2.42.131-3.623.239l-1.576.131c-2.752.217-5.186 3.585-5.656 7.822l-.055.522c-.028.26-.055.521-.097.782-.055.304-.069.369-.332.413h-.318c-1.95-.087-3.9-.326-5.78-.543l-.622-.066a7.113 7.113 0 00-.954-.065c-.387 0-.567-.174-.733-.586-.373-.935-.76-1.847-1.148-2.76l-3.235-7.779c-.11-.283-.249-.631-.553-.826-.056-.044-.125-.044-.18-.044a.27.27 0 00-.207.087c-.125.087-.208.261-.25.478-.179.957-.22 1.869-.262 2.76-.014.348-.041.695-.055 1.043-.18 2.369-.332 4.759-.498 7.127l-.235 3.369c0 .152-.028.304-.056.478l-.041.304c-.028.304-.11.413-.304.456a4.317 4.317 0 01-.747.087h-2.226c-1.466 0-2.918 0-4.383.065-1.853.065-3.692.087-5.531.109-1.964 0-3.941.043-5.905.13-2.267.109-4.521.109-6.789.131-1.452 0-2.918.021-4.37.065-.608 0-.705-.131-.718-.152-.028-.044-.083-.261-.014-1.217.166-2.217.36-4.411.553-6.628 0 0 .636-7.431.899-10.321.014-.261.041-.5.083-.761.041-.304.124-.413.332-.456l5.074-.848 1.134-.173c.65-.109 1.3-.196 1.95-.326.912-.174 1.147-.609 1.133-2.043-.082-4.954-.138-9.909-.165-14.863 0-.435-.028-.87-.042-1.304-.028-.5-.055-1-.041-1.5v-.586c.055-.695.18-.695.304-.695.069 0 .152 0 .249.043.594.218 1.189.478 1.783.717l6.154 2.543c.58.239.594.282.622 1.217.041 1.63.069 3.28.055 4.91-.028 2.39.014 4.825.07 7.15.04 1.977.082 3.954.082 5.953 0 1.5.221 1.869 1.176 1.934l1.673.066c.843 0 .843-.935.857-1.63v-4.064c.014-1.064.028-2.107-.014-3.172-.041-.978.152-1.695.636-2.369.36-.5.692-1.043 1.037-1.586.25-.391.498-.804.747-1.173.429-.63.622-1.37.622-2.325v-7.823c0-3.911 0-7.823-.027-11.734 0-1 .152-1.608.58-2.216 1.466-2.13 2.918-4.281 4.356-6.433l2.005-2.976c.166-.24.387-.544.415-1.065.028-.37.097-.543.636-.717 1.327-.413 8.144-2.564 8.144-2.564l4.992-1.587c.29-.087.456-.152.608-.173h.042c.193 0 .276.043.304.434.028.304.014.609.014.913v14.125c.028.738.346 1.238.816 1.238h.415c.165 0 .345 0 .525-.022a8.166 8.166 0 011.258-.087h1.037c.623.043.636.065.65 1.021.014 2.043.042 4.064.07 6.106.04 3.281.082 6.563.082 9.822 0 1.043.028 2.086.07 3.13l.04 1.412c0 .304.14.586.319.695.055.022.221.087.276.087.346 0 .54-.348.623-.522l.276-.434c1.867-2.912 3.72-5.802 5.531-8.8.332-.544.484-1.152.498-1.935l.028-2.13c.027-2.846.069-5.67.138-8.517.11-4.759.207-9.518.263-14.255 0-.543.083-1 .249-1.412.94-2.347 1.922-4.955 2.959-7.975.373-1.065.816-1.478 1.534-1.478.125 0 .25 0 .374.044 1.258.217 2.53.39 3.789.565l1.839.26 5.724.826c.456.065.899.13 1.355.217.304.058.461.348.47.87l.028 1.564c.055 2.825.097 5.628.124 8.431.014 2.5.07 5.02.111 7.519.028 1.76.069 3.498.097 5.258.028 1.804.028 3.63.041 5.433v3.324c.028 1.326.042 2.478.954 2.478 0 0 .471-.022.609-.022h.65c.65 0 1.3 0 1.949-.022.761-.022 1.038-.434 1.065-1.651V13.107c0-3.782.871-6.846 2.586-9.127 1.313-1.739 2.917-2.803 4.895-3.238.857-.196 1.742-.217 2.558-.217h6.056c.152.021.304.021.457.043.461.03.696.42.705 1.174V13.04c.014 1.434.166 1.738 1.037 2.173 1.714.847 3.014 2.173 3.982 4.107.885 1.738 1.314 3.629 1.314 5.758v4.802c-.014 3.868-.028 7.714.014 11.582.069 6.41.096 12.82.11 19.231v6.41c.014.283.014.435.028.587.069 1.26.359 1.695 1.189 1.717 1.231.021 4.439.065 4.439.065.497 0 1.009.022 1.507.087h.193c.858 0 .913-1.152.941-1.521l.414-7.997.512-9.257c.069-1.303.138-2.607.18-3.911.028-.76.152-1.326.401-1.804.055-.108.276-.586.276-.586.802-1.521 1.231-3.347 1.355-5.759.139-2.76.36-5.497.567-8.257l.222-2.933c.013-.218.055-.457.124-.696.042-.13.069-.152.152-.152.111 0 .152.044.194.217.069.326.069.718.069 1.13v3.347c.028 2.998.041 5.997.028 8.996 0 1.13.193 2.042.622 2.825.069.13.138.282.207.434a10.657 10.657 0 011.023 4.172l.07 1.956c.124 3.412.248 6.801.387 10.213v.391c.166 3.52.304 7.04.415 10.539l.096 3.02c.056 1.739.125 3.477.152 5.215.028 1.283.263 1.63 1.107 1.674h.815c.733 0 1.466-.044 2.199-.087a36.212 36.212 0 012.171-.087h.678c1.23 0 2.475-.022 3.705-.044.332 0 .595.13.871.392l1.452 1.412a1091.1 1091.1 0 009.223 8.866c.581.543.788 1.108.775 2.15-.028 3.282.027 6.563.096 9.844.028 1.956.069 3.933.083 5.911.028 3.911.097 7.823.194 11.734 0 .326 0 .673-.014 1.021-.028.217-.069.478-.18.478-.041 0-.11 0-.235-.108a42.1 42.1 0 01-1.576-1.304l-7.661-6.476c-.525-.434-1.05-.891-1.576-1.347l-1.258-1.086c-.304-.261-.539-.631-.719-1.109l-4.052-10.538c-.304-.783-.608-1.587-.912-2.39-.277-.761-.65-1.13-1.148-1.152a.888.888 0 01-.318-.066 1.856 1.856 0 00-.484-.065h-.512c-1.341 0-2.696-.087-4.037-.152-.885-.043-1.77-.109-2.655-.13a203.555 203.555 0 01-5.144-.261l-2.516-.152h-1.231c-.36 0-.539-.217-.664-.76a38.11 38.11 0 00-.456-1.87c-.235-.977-.484-1.955-.678-2.955-.262-1.26-.732-2.216-1.189-3.15l-.304-.63c-.705-1.5-1.438-2.977-2.185-4.455l-.788-1.586c-.235-.478-.415-.848-.76-.848-.318 0-.512.348-.775.782l-8.67 15.037c-.428.74-.843 1.478-1.258 2.217-.456.825-.456 1.303 0 2.151l.415.717s4.674 7.671 6.181 10.17l1.286 2.151c.525.891 1.037 1.782 1.562 2.629.249.391.291.869.305 1.521 0 0 .041 5.15.041 7.28v8.387c.069 4.976.124 9.974.152 14.95v.543c0 .761 0 1.261.235 1.652.235.369.581.369.83.369 0 0 2.71-.043 3.152-.043h1.314c.968 0 1.922-.044 2.89-.087.954-.044 1.908-.109 2.862-.109h.457c1.147 0 1.23-.739 1.244-1.934.042-2.542 0-5.106-.041-7.605-.028-1.804-.056-3.607-.056-5.411 0-6.692 0-13.385-.014-20.1v-9.061c-.009-.999.3-1.507.927-1.521l6.817-.239h.276c.36.043.429.13.457.674.027.412.027.847.027 1.26V107c.028 1.26.235 1.63 1.051 1.738l.871.109c.484.065.968.13 1.452.217 1.549.283 2.655 1.673 3.374 4.238.318 1.151.526 2.411.595 3.737.083 1.412.138 2.847.138 4.259.014 3.412.028 6.823.028 10.235v4.758c0 .37 0 .718.124 1.109.069.195.194.347.332.369h.041c.471 0 .664-.369.761-.543l.622-1c.235-.369.456-.739.692-1.086 1.852-2.803 4.272-4.324 6.789-4.324 2.24 0 4.369 1.195 6.153 3.433.47.587.926 1.195 1.397 1.782l.995 1.282c.221.326.47.673.871.673.18 0 .374-.173.457-.434.152-.5.138-.978.124-1.369v-2.999-30.53c0-.761.028-1.521.069-2.282.028-.565.042-1.13.056-1.716 0-.565.11-.565.207-.565a.43.43 0 01.221.043c.65.261 1.286.587 1.922.913l18.75 9.539c.719.37 1.438.717 2.157 1.087.406.217.609.659.609 1.325v4.672c0 3.368-.014 6.736 0 10.126.014 2.325 0 4.672 0 6.997 0 2.282-.014 4.542 0 6.823v1.195c.027 1.217.29 1.63 1.064 1.63h3.568c.654 0 .986.529.995 1.586 0 2.043.014 4.085 0 6.106 0 1.217.028 2.412.056 3.607.027.978.055 1.956.069 2.956 0 .195 0 .369.028.565.069.565.331.934.663.956.387 0 .664-.37.733-.913.028-.174.028-.348.042-.543.124-2.521.124-4.889.11-7.193v-2.542c0-1.695.014-3.39 0-5.085 0-1.304-.262-1.76-1.078-1.89a19.425 19.425 0 00-1.577-.109h-.401c-.29-.022-.553-.022-.774-.152a.37.37 0 01-.18-.196c0-.065 0-.173.056-.304.11-.282.262-.543.442-.847l3.028-4.998 5.351-8.866c.471-.782.941-1.564 1.397-2.368a143.056 143.056 0 012.835-4.694l.179-.282c.236-.37.318-.37.318-.37s.083 0 .305.304c.774 1.043 1.548 2.13 2.309 3.195 1.576 2.194 8.117 11.429 8.117 11.429l.138.218c.166.282.387.608.719.76.041 0 .083.022.138.022a.352.352 0 00.235-.109c.401-.369.401-.977.401-1.217l.138-4.193c0-.261.028-.5.056-.761.041-.326.097-.369.235-.369l.304-.044c.249-.043.498-.065.733-.065h7.453c.636 0 .65.044.664 1v9.604c0 2.021.013 4.064-.028 6.084-.097 4.02-.083 8.084-.083 12.017v6.693c0 .934 0 1.499.263 1.934.262.412.622.434 1.203.434h15.915c.208 0 .36 0 .484.109v.739h-18.1c-.18-.196-.235-.522-.221-1.217l.027-34.789c-.027-1.195-.207-1.804-1.134-1.804h-6.194c-.788 0-1.106.5-1.134 1.738v.413c-.028 1.282-.055 2.564-.138 3.846-.069 1 .138 1.826.622 2.499.442.631.857 1.282 1.286 1.934l.539.848c.36.543.291.652.235.76-.055.044-.097.065-.152.065-.097 0-.193-.086-.346-.282l-6.263-8.801-7.135-9.973c-.277-.392-.553-.783-.83-1.13-.194-.239-.415-.522-.705-.522-.332 0-.553.348-.733.652-.802 1.282-1.604 2.564-2.406 3.89a19849.45 19849.45 0 00-8.476 14.146c-.222.326-.623.891-.374 1.716.07.239.263.63.706.63H206c.415 0 1.037 0 1.162.196.124.196.11 1.239.096 1.608 0 .652-.027 1.325-.041 1.977-.028.87-.042 1.717-.042 2.586V157.369c0 1.159-.373 1.746-1.12 1.76h-.843c-.47-.043-.526-.13-.581-.891-.028-.304-.028-.63-.028-.956v-1.977c-.027-2.238-.027-4.455-.027-6.693 0-.891-.042-1.782-.069-2.694l-.042-1.152c-.041-1.195-.318-1.608-1.078-1.63h-4.01c-.374-.043-.401-.065-.415-.673a16.413 16.413 0 010-1.174v-28.661c0-1.912-.152-2.217-1.286-2.76-2.337-1.13-4.632-2.325-6.941-3.52l-2.088-1.086c-2.738-1.413-5.476-2.782-8.228-4.173l-3.111-1.564-.415-.196c-.041 0-.179-.043-.221-.043-.332 0-.664.348-.705 1.108v.891l-.042 37.179c0 .696 0 1.109-.055 1.456-.014.087-.069.326-.166.326-.028 0-.083 0-.166-.087-.193-.173-.373-.413-.553-.652l-1.217-1.608a76.328 76.328 0 00-2.309-2.976c-1.894-2.304-3.885-3.477-5.96-3.477-1.451 0-2.945.565-4.452 1.716-.664.5-1.3 1.217-1.922 2.195l-2.669 4.172c-.179.283-.318.5-.484.674-.055.065-.11.087-.152.087-.11 0-.166-.174-.18-.283-.041-.195-.041-.456-.041-.717v-1.586c0-.934.014-1.847 0-2.781-.083-3.39-.097-6.845-.111-10.192 0-1.76 0-3.542-.027-5.302-.014-1.695-.152-3.303-.415-4.78a19.773 19.773 0 00-.36-1.608c-.58-2.065-1.645-3.195-3.152-3.347-.996-.108-2.005-.217-3.001-.369-.318-.043-.401-.109-.428-.13 0-.044-.042-.196-.083-.717a44.1 44.1 0 01-.083-1.956c-.028-.935-.401-1.499-.968-1.499h-1.826c-.995 0-1.991 0-3 .086l-.678.087c-.815.087-1.051.478-1.051 1.76v9.953c.111 8.235.125 16.623.125 24.75v5.975c0 .37.028.717.055 1.087.014.239.028.5.028.739.014.804-.042 1.064-.097 1.173-.055.087-.235.217-.733.217h-3.899c-1.189 0-2.295.066-3.402.109-1.106.043-2.198.109-3.304.109h-1.715c-.802 0-.802-.022-.816-1.022-.014-2.716-.041-5.454-.069-8.17-.041-3.781-.083-7.562-.097-11.343 0-1.825-.027-3.65-.055-5.476-.028-2.564-.069-5.128-.042-7.692 0-1.043-.318-1.717-.566-2.13a3140.441 3140.441 0 01-5.711-9.387c-.553-.912-1.093-1.847-1.646-2.759-.47-.804-.954-1.608-1.424-2.412-.263-.435-.47-.783-.788-.783-.318 0-.512.326-.788.783-2.863 4.824-5.711 9.8-8.145 14.08-.373.652-.732.913-1.272.913-1.88 0-3.692-.109-5.517-.217l-2.337-.131c-.65-.043-1.3-.043-1.963-.065-.913-.022-1.825-.065-2.752-.108l-.774-.066c-.346-.021-.692-.065-1.051-.087h-.207c-.955 0-1.024.848-1.024 1.869v3.347c0 2.998-.014 6.019.028 9.017.07 4.803.07 9.583.083 14.385v4.194c0 .326.014.457 0 .565-.028.587-.097.587-.318.587a58.46 58.46 0 01-1.964.043H86.6c-.207 0-.221 0-.29-.434-.07-.37-.07-.761-.07-1.152.014-3.042-.027-6.063-.082-9.083a419.489 419.489 0 01-.097-8.322c0-.631-.028-1.261-.056-1.891a31.773 31.773 0 01-.041-1.999c0-.196 0-.804-.249-1.217-.11-.174-.304-.369-.608-.369-.415 0-.802-.065-1.19-.109a8.045 8.045 0 00-1.244-.109c-.36 0-.719.044-1.079.153-2.447.76-4.244 3.867-4.48 7.757-.055.898-.373 1.347-.954 1.347h-3.29c-.886 0-1.757 0-2.642.044-3.47.13-6.955.174-10.425.217-.94 0-1.134.456-1.19 1.782-.124 2.499-.11 4.998-.096 7.431v3.064c-.014 3.825 0 7.649 0 11.474V163.106c.069.891-.097 1.325-.623 1.521h-8.628l.29.065zm-14.795-78.14c-.705 0-.719 1.043-.719 1.804a251.18 251.18 0 00.07 7.953c.04 2.216.082 4.455.082 6.671 0 .435.014.869.042 1.304.027.499.055.999.027 1.499-.027.652-.244 1.014-.65 1.087l-3.208.543c-1.465.239-2.945.478-4.41.739l-.208.043c-1.01.174-1.244.369-1.369 1.869l-.041.5c-.29 3.172-.553 6.366-.816 9.539l-.36 4.368c-.041.543-.096 1.086.139 1.499.235.434.594.434.94.456h.415c.525 0 1.064-.022 1.59-.065l1.05-.065c1.577-.065 3.167-.087 4.743-.087a95.75 95.75 0 005.006-.109c1.95-.087 3.9-.108 5.863-.108 2.019-.022 4.037-.044 6.056-.131.581-.021 1.162-.021 1.729-.021.47 0 .954 0 1.424-.022.76-.022 1.023-.413 1.092-1.586 0 0 .042-.957.056-1.152l.954-13.538.124-1.738c.042-.456.152-.5.221-.522.097 0 .18.109.277.326.18.391.346.804.511 1.217l1.051 2.521 3.775 9.061c.235.565.65 1.347 1.452 1.413 1.286.108 5.573.478 5.573.478h.4c.554 0 .94-.478 1.065-1.326.07-.456.153-.891.25-1.325.414-1.761 1.036-3.173 1.907-4.325 1.19-1.586 2.628-2.433 4.273-2.52 2.226-.109 4.439-.261 6.665-.435 2.254-.174 4.521-.304 6.775-.413l.678-.043c.456-.022.83-.261 1.161-.717l2.71-3.89a607.897 607.897 0 005.31-7.692c.498-.739.968-1.043 1.591-1.043 2.184.108 4.272.152 6.36.195 0 0 4.079.066 4.508.087 1.452.044 2.904.087 4.369.174.609 0 1.024-.282 1.369-.913.968-1.716 1.964-3.411 2.946-5.128l8.019-13.907c.166-.282.291-.478.415-.608a.87.87 0 01.152-.13s.042 0 .152.152c.18.26.332.565.484.847l4.398 8.822c.179.37.331.826.47 1.456.152.695.815 3.542.981 4.28.194.892.595 1.348 1.203 1.348.249 0 .498.044.747.065.263.022.526.066.788.066 1.632.043 3.264.13 4.895.217 1.328.065 2.655.152 3.982.195.706.022 1.397.066 2.102.11 1.051.064 2.102.13 3.153.13h.691c.567 0 .871.282 1.176 1.13.968 2.607 1.949 5.171 2.931 7.757.636 1.673 1.286 3.368 1.922 5.041.332.869.761 1.499 1.314 1.912 1.369 1.043 2.724 2.239 4.037 3.368.761.674 1.521 1.326 2.282 1.978.65.543 3.553 3.02 3.553 3.02.305.261.498.391.706.391.663 0 .677-1.151.677-1.716v-1.521s-.083-3.042-.097-3.781a208.276 208.276 0 01-.041-4.107 236.1 236.1 0 00-.069-5.389c-.056-1.717-.056-3.433-.069-5.15 0-1.565-.028-3.107-.056-4.672-.027-1.39-.345-2.26-1.037-2.912a1373.922 1373.922 0 01-9.278-8.952l-.581-.565c-.373-.37-.76-.543-1.175-.543l-.539.043c-.526.043-1.051.087-1.577.087 0 0-5.13.065-6.194.087-.305 0-.623.043-.927.065-.318.022-.636.065-.968.065-.58 0-.636-.087-.663-.912l-.305-10.453c-.041-1.26-.069-2.542-.138-3.802a422.817 422.817 0 01-.373-9.344l-.138-3.694-.263-6.845c-.014-.434-.056-.89-.263-1.303l-1.189-2.543c-.221-.478-.47-.587-.636-.587-.249 0-.484.218-.664.674l-.221.543c-.166.413-.346.848-.553 1.239-.443.847-.678 1.847-.733 3.15a491.034 491.034 0 01-.387 7.758c-.18 3.194-.346 6.389-.512 9.583l-.207 4.107c-.056 1.13-.097 1.13-.733 1.13h-1.825l-4.467-.066c-.567 0-1.147-.086-1.714-.152-.346-.043-.36-.043-.401-.543-.014-.152-.014-.326-.014-.478 0-2.586-.028-5.128-.055-7.67l-.028-3.26c-.041-4.824-.041-9.648-.055-14.45 0-6.193-.014-12.408-.097-18.6-.042-2.912-.788-5.281-2.309-7.193-.609-.782-1.369-1.37-2.379-1.847-.179-.087-.29-.13-.401-.13-.414 0-.649.434-.677 1.281v.652c.028 2.977.041 5.78.055 8.605.042 7.91.042 15.82.042 23.73v8.256c0 .305 0 .587-.056.804-.041.174-.083.218-.179.218-.111 0-.153-.044-.194-.153-.069-.195-.097-.456-.124-.76 0 0-3.831-39.874-4.066-42.481-.069-.761-.069-.783.429-1.043.83-.457 1.701-.522 2.434-.522.954 0 1.203-.413 1.203-1.912 0-2.543-.028-9.561-.028-9.561-.055-1.13-.332-1.565-1.065-1.652h-.912c-.761 0-1.521-.043-2.296-.108-.774-.044-1.548-.109-2.337-.109h-.76c-1.687.087-3.125.522-4.383 1.326-2.503 1.608-3.983 4.476-4.425 8.54-.111 1.064-.111 2.107-.097 3.128v69.774c.014 1.022-.014 1.087-.664 1.108l-.594.044a8.628 8.628 0 01-.733.043h-.456c-.913.044-1.839.066-2.752.066h-.553c-.318 0-.346-.022-.401-.609 0-.152-.014-.282-.014-.413l-.028-2.564c-.014-1.434-.027-2.89-.069-4.324-.055-1.956-.069-3.911-.097-5.889 0-1.086-.013-2.195-.027-3.281-.069-4.846-.125-9.713-.18-14.559v-1.608c-.042-1.282-.194-1.695-1.079-1.847-1.7-.26-3.387-.521-5.088-.76-.885-.13-4.494-.587-4.494-.587l-.678-.109a9.19 9.19 0 00-1.078-.152c-.94 0-.968 1.043-.996 1.434v.522c.111 2.238.111 4.52.097 6.736v3.564c0 .956 0 1.912.042 2.89.069 2.216.069 4.41.083 6.627 0 1.065 0 2.108.013 3.173 0 .282-.027.739-.249.739 0 0-.165 0-.22-.74-.139-1.52-.153-3.085-.167-4.606v-.978a457.31 457.31 0 00-.18-6.15c-.082-2.629-.165-5.236-.18-7.865 0-.457.029-1.13-.442-1.695a.366.366 0 00-.29-.152h-.097c-.138.043-.249.173-.318.347l-.4 1.043c-.499 1.326-.996 2.63-1.48 3.912-.125.347-.152.717-.166 1.043l-.028.608c-.041 1.043-.083 2.064-.083 3.107-.028 2.39-.055 4.76-.124 7.15-.139 4.867-.208 9.713-.277 14.58 0 .782-.152 1.282-.484 1.804-1.7 2.629-3.374 5.28-5.06 7.931l-2.172 3.412c-.152.239-.262.412-.387.564-.097.11-.152.11-.166.11-.083 0-.138-.196-.166-.262-.069-.239-.083-.521-.083-.912.028-3.347-.013-6.736-.069-9.996-.041-2.825-.083-5.65-.083-8.496v-2.673c-.013-1.282-.29-1.695-1.106-1.717h-2.696c-.609 0-.913-.478-.913-1.434V59.39c0-1 0-2.13-.802-2.13-.152 0-.387.066-.705.175-3.761 1.195-7.522 2.412-11.27 3.607-.83.26-1.05.673-1.05 1.999.014 6.975-.042 13.95-.083 20.925l-.042 6.41v8.997c0 .326 0 .608-.041.869-.028.196-.139.304-.208.304-.124 0-.166-.217-.166-.304-.069-.5-.11-1.021-.124-1.521-.014-2.738-.041-5.476-.07-8.236l-.027-3.172c-.014-2.108-.055-4.237-.083-6.345-.055-3.933-.11-7.866-.11-11.8 0-.956 0-1.912-.014-2.868 0-.37.041-.956-.332-1.39a.366.366 0 00-.29-.153.389.389 0 00-.25.11c-.386.368-.69.847-.995 1.303l-1.175 1.782a192.76 192.76 0 01-2.517 3.78c-.512.74-.733 1.565-.733 2.673V93.94c0 .826-.138 1.348-.484 1.87-.304.434-.58.89-.87 1.346-.305.5-.623 1-.941 1.456-.567.804-.83 1.76-.802 2.977.041 2.282.028 4.563.014 6.845v1.26c0 .891-.056.913-.567.913h-.263c-1.078 0-2.143 0-3.208-.087-.525-.022-.567-.152-.553-.869 0-.934-.028-1.869-.055-2.781-.028-.87-.056-1.717-.056-2.586 0-2.76-.041-5.52-.083-8.28-.027-1.629-.055-3.28-.069-4.932 0-1.369-.193-1.717-1.064-2.064l-5.6-2.304c-.29-.13-.484-.195-.664-.195m89.228-71.143c-.359 0-.705 0-1.064.043-.36.044-.775.13-1.024.609-.249.478-.221 1.13-.166 1.738.18 1.978.374 3.955.567 5.954l1.853 19.057c.028.24.125.456.263.565.069.044.138.087.221.087a.353.353 0 00.235-.087c.152-.13.318-.456.318-.717V17.256v-.434c0-.891-.373-1.478-.926-1.478h-.249l-.028.022z" fill="#23234A"/></svg>