<svg width="16" height="16" viewBox="0 0 16 16" fill="none" xmlns="http://www.w3.org/2000/svg"><path clip-rule="evenodd" d="M9.333 13.333h3.334c.736 0 1.333-.596 1.333-1.333V4c0-.737-.597-1.333-1.333-1.333H3.333C2.597 2.667 2 3.263 2 4v8c0 .737.597 1.333 1.333 1.333h3.334L8 14.667l1.333-1.334z" stroke="#23234A" stroke-width="1.5" stroke-linecap="round" stroke-linejoin="round"/><path d="M8.118 7.882a.167.167 0 11-.235.236.167.167 0 01.235-.236M10.785 7.882a.166.166 0 11-.236.236.167.167 0 11.236-.236M5.451 7.882a.167.167 0 11-.236.236.167.167 0 11.236-.236" stroke="#23234A" stroke-width="1.5" stroke-linecap="round" stroke-linejoin="round"/></svg>