<svg width="21" height="18" viewBox="0 0 21 18" fill="none" xmlns="http://www.w3.org/2000/svg"><path d="M14.006 0H6.163c-.928 0-1.685.766-1.65 1.695.007.186.014.372.025.555H.84a.84.84 0 00-.84.844c0 3.255 1.173 5.52 2.749 7.056 1.55 1.515 3.442 2.278 4.835 2.665.82.228 1.38.914 1.38 1.603 0 .734-.595 1.332-1.327 1.332h-.914c-.62 0-1.12.503-1.12 1.125S6.102 18 6.722 18h6.723c.62 0 1.12-.503 1.12-1.125s-.5-1.125-1.12-1.125h-.914a1.331 1.331 0 01-1.327-1.332c0-.69.557-1.378 1.38-1.603 1.396-.387 3.287-1.15 4.838-2.665 1.573-1.537 2.746-3.8 2.746-7.056a.84.84 0 00-.84-.844H15.63c.01-.183.017-.366.024-.555A1.644 1.644 0 0014.006 0zM1.712 3.938h2.956c.318 3.167 1.022 5.283 1.817 6.7-.872-.386-1.779-.931-2.563-1.698-1.12-1.093-2.031-2.672-2.206-5.002h-.004zM16.25 8.94c-.784.767-1.69 1.312-2.563 1.698.795-1.417 1.499-3.533 1.818-6.7h2.955c-.179 2.33-1.089 3.909-2.206 5.002h-.004z" fill="#CE2621"/></svg>