<svg width="64" height="44" viewBox="0 0 64 44" fill="none" xmlns="http://www.w3.org/2000/svg"><g clip-path="url(#clip0_193_99334)"><path d="M64 .5H0v43h64V.5z" fill="#EE1C25"/><path d="M64 .5H0v28.667h64V.5z" fill="#0B4EA2"/><path d="M64 .5H0v14.333h64V.5z" fill="#fff"/><path d="M27.983 10.604H10.41l-.057.58c-.014.13-.32 3.154-.32 9.798 0 3.124 1.045 5.876 3.115 8.184 1.443 1.62 3.335 2.981 5.774 4.164l.277.136.278-.136c2.439-1.183 4.33-2.544 5.774-4.164 2.062-2.308 3.115-5.067 3.115-8.184 0-6.644-.306-9.668-.32-9.797l-.064-.58z" fill="#fff"/><path d="M19.193 32.75c-3.506-1.706-8.526-5.081-8.526-11.775s.32-9.725.32-9.725h16.427s.32 3.038.32 9.725c-.015 6.694-5.028 10.07-8.54 11.775z" fill="#EE1C25"/><path d="M19.947 19.227c.953.014 2.802.05 4.452-.502 0 0-.043.595-.043 1.29 0 .695.043 1.29.043 1.29-1.515-.509-3.385-.523-4.452-.509v3.691h-1.5v-3.69c-1.074-.015-2.937 0-4.452.508 0 0 .043-.595.043-1.29 0-.695-.043-1.29-.043-1.29 1.65.56 3.506.516 4.452.502v-2.322c-.868-.007-2.112.036-3.527.509 0 0 .042-.595.042-1.29 0-.695-.042-1.29-.042-1.29 1.408.473 2.652.516 3.52.509-.043-1.47-.47-3.319-.47-3.319s.875.072 1.223.072c.349 0 1.223-.072 1.223-.072s-.426 1.85-.469 3.319c.868.007 2.112-.036 3.52-.51 0 0-.043.596-.043 1.29 0 .696.043 1.29.043 1.29-1.408-.472-2.66-.515-3.527-.508v2.322h.007z" fill="#fff"/><path d="M19.192 24.086c-1.77 0-2.716 2.473-2.716 2.473s-.526-1.169-1.97-1.169c-.974 0-1.692.875-2.154 1.685 1.777 2.845 4.608 4.6 6.833 5.683 2.226-1.082 5.063-2.838 6.834-5.683-.455-.81-1.173-1.684-2.155-1.684-1.443 0-1.97 1.168-1.97 1.168s-.93-2.473-2.702-2.473z" fill="#0B4EA2"/></g><defs><clipPath id="clip0_193_99334"><rect y=".5" width="64" height="43" rx="5.33" fill="#fff"/></clipPath></defs></svg>