<svg width="128" height="40" viewBox="0 0 128 40" fill="none" xmlns="http://www.w3.org/2000/svg"><path d="M.003 8.641c0-2.558-.006-5.116 0-7.674 0-.625.005-.63.678-.63h2.422c.569 0 .58.01.58.565v5.68c0 .49.012.5.524.5 1.352 0 2.709-.01 4.06.006.374 0 .495-.12.495-.473-.011-1.906-.006-3.812 0-5.719 0-.543.029-.565.593-.565h2.536c.5 0 .535.033.54.5V16.364c0 .614 0 .62-.655.62H9.355c-.553 0-.593-.039-.593-.571V10.47c0-.39-.209-.586-.627-.586-1.328 0-2.657.01-3.986-.006-.356 0-.471.109-.471.446.011 2.015.006 4.035.006 6.05 0 .603-.012.608-.662.608H.56c-.511 0-.557-.043-.557-.527v-7.82M63.92 6.316c1.529-1.792 4.307-2.123 6.107-.727.76.586 1.053 1.423 1.185 2.302.178 1.2.069 2.406.075 3.612.005.837.051 1.673-.064 2.504-.27 1.966-1.621 3.112-3.71 3.14-.747.01-1.483-.012-2.19-.278-.639-.239-1.15-.614-1.502-1.178-.046-.082-.063-.212-.201-.19-.127.021-.12.146-.144.238-.092.31-.184.614-.27.924-.058.217-.184.336-.437.331-.679-.005-1.352-.005-2.03 0-.282 0-.409-.114-.403-.38V.967c0-.417.224-.625.673-.625h2.15c.469 0 .703.228.703.685v4.871c0 .13-.04.266.057.424m3.842 4.79c0-.81.023-1.423-.006-2.037-.034-.695-.23-1.357-1.03-1.585-1.408-.402-2.789-.082-2.863 1.77v3.242c0 .337.057.663.172.978.293.782 1.012 1.184 1.979 1.114.966-.071 1.506-.5 1.68-1.358.16-.766.028-1.543.068-2.124zM28.674 8.641V.891c0-.549.006-.554.592-.554h2.381c.483 0 .507.022.507.483v8.044c0 .554 0 .521.575.565.477.032.707-.11.88-.549.517-1.336 1.426-2.482 2.197-3.688.092-.146.23-.19.397-.19 1.018 0 2.03-.005 3.048 0 .374 0 .42.114.207.44-1.035 1.591-2.065 3.188-3.117 4.769-.213.315-.213.559-.018.874 1.064 1.722 2.105 3.454 3.158 5.181.08.13.161.256.236.386.103.19.057.326-.184.326-1.093.005-2.186 0-3.284 0-.179 0-.277-.114-.357-.25-.736-1.287-1.57-2.526-2.197-3.867-.023-.054-.058-.109-.08-.168-.311-.668-.311-.657-1.082-.657-.288 0-.385.092-.385.363.011 1.157 0 2.314 0 3.47v.777c0 .234-.11.337-.351.337h-2.772c-.31 0-.357-.174-.357-.413V8.636M60.089 31.397V23.61c0-.527.011-.538.569-.538h2.381c.512 0 .53.022.53.5v8.043c0 .359.195.538.586.538.633 0 .638 0 .851-.554.305-.793.782-1.499 1.242-2.216.288-.45.587-.901.875-1.352.132-.212.31-.304.575-.304.966.01 1.927 0 2.893.005.431 0 .495.103.264.462a525.174 525.174 0 01-2.438 3.736c-.253.386-.49.782-.76 1.163-.143.2-.138.358-.005.57 1.139 1.863 2.26 3.736 3.387 5.605.23.38.19.445-.264.445-.966 0-1.927-.005-2.893.005-.3 0-.489-.086-.627-.336-.805-1.456-1.817-2.819-2.381-4.394-.058-.157-.15-.206-.31-.217-.99-.082-.99-.087-.99.852 0 1.206-.011 2.412 0 3.618 0 .347-.115.483-.495.477-.822-.016-1.639 0-2.461-.005-.506 0-.535-.027-.535-.5v-7.82M80.42 15.517c-.77 1.232-1.932 1.57-3.238 1.618-.679.022-1.352.027-2.019-.141-1.207-.304-1.984-1.206-2.001-2.384a59.804 59.804 0 010-2.032c.023-1.032.598-1.76 1.633-2.107 1.093-.364 2.243-.418 3.37-.603.512-.081 1.03-.141 1.542-.233.535-.098.702-.299.713-.81.029-1.184-.31-1.515-1.57-1.526-.431 0-.857-.021-1.283.082-.569.136-.799.38-.799.929 0 1.13.046.988-1.099.993h-1.99c-.23 0-.431-.032-.437-.304-.017-.798-.046-1.591.357-2.34.558-1.038 1.553-1.472 2.651-1.695a11.975 11.975 0 014.463-.027c2.117.38 3.233 1.65 3.244 3.682.012 1.733 0 3.47 0 5.203 0 .56.023.592.604.62.288.01.432.113.426.401a60.408 60.408 0 000 1.77c0 .267-.11.38-.391.38-.794-.005-1.588.017-2.381-.015-.938-.033-1.57-.473-1.795-1.461zm0-3.058v-.625c0-.114-.04-.184-.19-.163-.926.13-1.852.256-2.778.391-.224.033-.437.13-.54.332-.3.58-.276 1.184-.064 1.787.04.114.156.206.282.244.88.299 1.743.255 2.566-.174.672-.348.718-.972.73-1.602v-.185M31.239 38.306c-.213.26-.362.57-.661.787-.553.402-1.174.62-1.858.711a8.333 8.333 0 01-2.41-.021c-1.42-.234-2.255-1.152-2.255-2.51 0-.836-.086-1.672.075-2.503.138-.712.57-1.19 1.271-1.472.972-.396 2.019-.456 3.043-.62.69-.108 1.392-.19 2.082-.303.592-.103.742-.288.747-.853v-.147c0-.999-.316-1.314-1.386-1.341-.477-.01-.966-.049-1.438.07-.638.163-.84.397-.845 1.022 0 .988.07.907-.983.907-.68 0-1.352-.011-2.03 0-.357.01-.49-.125-.472-.457.028-.44-.03-.885.046-1.325.218-1.292 1.098-2.02 2.352-2.406 1.375-.429 2.801-.385 4.216-.298a6.354 6.354 0 011.714.347c1.599.57 2.323 1.716 2.346 3.28.023 1.793.006 3.59.012 5.388 0 .549.023.581.615.608.294.011.42.114.414.402a45.434 45.434 0 000 1.77c0 .267-.103.381-.39.381-.783-.01-1.565.016-2.342-.016-.84-.033-1.57-.38-1.742-1.25-.012-.054-.017-.124-.121-.151zm.029-3.036h.011v-.261c0-.62 0-.62-.661-.527-.748.103-1.496.18-2.243.299-.54.087-.76.353-.777.863a9.621 9.621 0 000 .815c.018.483.196.695.69.798.69.147 1.375.109 2.03-.152.564-.222.898-.624.944-1.205.017-.207 0-.419 0-.625M47.568 11.666h-3.049c-.57 0-.575 0-.57.56 0 .401-.028.809.087 1.21.265.908 1.047 1.434 2.042 1.358.167-.01.34-.032.506-.054.69-.092 1.087-.516 1.099-1.168v-.809c0-.255.115-.386.396-.38.926.005 1.847 0 2.773 0 .213 0 .362.07.362.288 0 .75.063 1.499-.201 2.227-.31.863-.955 1.471-1.812 1.781-2.157.771-4.36.853-6.5-.033-1.437-.597-2.127-1.76-2.225-3.226-.104-1.548-.08-3.095-.006-4.643.087-1.852 1.162-3.2 3.049-3.71a9.09 9.09 0 014.779-.01c1.87.5 2.916 1.819 2.974 3.67.023.82 0 1.646.005 2.472 0 .348-.144.478-.512.478-1.07-.016-2.133 0-3.203 0M45.848 9.64h.972c.69 0 .995-.327.914-.983-.074-.597-.305-1.075-.96-1.303-1.542-.538-2.956.461-2.83 2.004.017.233.132.288.345.288.518-.006 1.041 0 1.559 0M53.82 34.395c-1.07 0-2.134.011-3.204 0-.322 0-.449.109-.426.407.023.332 0 .663.018.994.051 1.07.96 1.814 2.099 1.722.207-.016.42-.027.621-.065.633-.125.995-.554 1.007-1.179v-.809c0-.239.114-.358.38-.358h2.771c.236 0 .374.092.374.325.006.625.035 1.255-.11 1.874-.258 1.135-1.069 1.83-2.156 2.2-1.84.624-3.738.64-5.608.136-1.754-.478-2.79-1.83-2.87-3.558a47.354 47.354 0 010-4.605c.098-1.907 1.254-3.28 3.221-3.737 1.461-.337 2.945-.353 4.406 0 2.001.473 3.106 1.809 3.129 3.758.011.826 0 1.646.005 2.471 0 .32-.132.44-.465.435-1.07-.01-2.134 0-3.204 0m-1.737-2.031h1.012c1.007 0 1.007 0 .898-.962-.064-.548-.236-1.042-.84-1.27-.76-.288-1.524-.267-2.203.162-.667.419-.777 1.092-.748 1.798.006.212.115.277.322.272h1.559zM119.444 20.611c-.587 0-1.173-.01-1.76 0-.322.006-.448-.125-.443-.418.006-.554.012-1.108 0-1.662-.011-.337.144-.467.489-.462.782 0 1.565.006 2.341-.01.558-.017.949-.354 1.081-.853.058-.217.012-.283-.241-.26-1.07.086-.88.01-1.105-.734-1.069-3.557-2.128-7.12-3.197-10.678-.133-.45-.081-.526.408-.526h2.657c.23 0 .403.054.472.293.517 1.868 1.07 3.726 1.553 5.6.207.809.276 1.65.414 2.476.017.114-.04.293.132.304.207.016.173-.19.184-.31.109-.901.219-1.808.455-2.693.477-1.787.995-3.569 1.489-5.35.063-.223.207-.326.449-.326h2.812c.357 0 .42.152.328.446-.633 2.063-1.271 4.127-1.881 6.202-.569 1.917-1.23 3.807-1.662 5.762a7.935 7.935 0 01-.385 1.239c-.512 1.27-1.467 1.922-2.91 1.955-.558.01-1.122 0-1.68 0v.005zM8.923 32.12H7.75c-.524 0-.564-.038-.57-.516v-.663c-.011-.418-.235-.7-.655-.82-.765-.223-1.542-.206-2.312-.022-.322.076-.576.266-.593.608-.023.446-.15.93.363 1.239.345.206.719.342 1.11.445 1.092.282 2.225.402 3.29.782.23.082.465.163.69.255.868.37 1.426.983 1.581 1.88.127.717.121 1.444-.023 2.167-.19.95-.816 1.564-1.725 1.96-.662.288-1.363.418-2.076.467-1.433.098-2.865.136-4.262-.25-1.076-.298-1.933-.863-2.335-1.895C-.05 37.04-.003 36.28.02 35.53c.006-.206.15-.31.362-.31h2.772c.26 0 .374.142.38.376 0 .282 0 .564.011.847.035.565.357.918.944 1.02a6.051 6.051 0 001.903 0c.576-.086.8-.352.811-.906 0-.136-.005-.272 0-.408.035-.461-.218-.727-.644-.907-.759-.315-1.564-.456-2.37-.613-1.023-.201-2.035-.44-2.933-.967C.537 33.238.135 32.608.09 31.805a12.655 12.655 0 010-1.402c.069-1.238.943-2.194 2.421-2.569a11.407 11.407 0 015.447-.06c1.87.43 2.709 1.478 2.755 3.32.029 1.227.034 1.015-1.041 1.031h-.742M103.961 11.34c.017.608.035 1.483-.098 2.346-.293 1.907-1.668 3.129-3.824 3.433-1.15.163-2.307.157-3.457-.06-2.174-.413-3.485-1.89-3.578-3.98a46.713 46.713 0 010-4.014c.093-2.249 1.41-3.742 3.756-4.155 1.306-.228 2.617-.223 3.911.098 1.973.483 3.164 1.922 3.244 3.856.029.738.04 1.471.046 2.476zm-7.425-.347v1.732c.011 1.401.719 2.026 2.197 1.944.903-.049 1.541-.57 1.622-1.417a26.39 26.39 0 000-4.524c-.035-.451-.236-.88-.667-1.119-.737-.407-1.519-.418-2.284-.07-.655.298-.845.874-.862 1.504-.018.652 0 1.303 0 1.955M26.126 11.063c0 .614.011 1.228 0 1.841-.046 2.33-1.335 3.78-3.762 4.188-1.288.217-2.594.2-3.87-.109-1.962-.472-3.164-1.885-3.261-3.796a41.414 41.414 0 010-4.307c.097-1.82 1-3.145 2.83-3.726 1.897-.608 3.841-.608 5.716.185 1.565.662 2.203 1.917 2.335 3.443.064.755.012 1.526.012 2.287h.011l-.011-.006zm-3.532-.07c0-.674.018-1.353 0-2.026-.017-.505-.143-.994-.615-1.298-.684-.446-1.444-.462-2.203-.201-.719.25-1 .836-1.035 1.482a32.313 32.313 0 000 4.09c.08 1.152.868 1.695 2.186 1.63 1.064-.055 1.65-.68 1.673-1.798.012-.625 0-1.255 0-1.88M17.487 39.723c-.586 0-1.173-.01-1.76 0-.31.01-.471-.103-.552-.391-.938-3.172-1.886-6.344-2.836-9.515-.166-.554-.333-1.114-.517-1.662-.104-.32.011-.43.345-.424.909.005 1.823.005 2.738 0 .282 0 .437.103.506.358.707 2.684 1.668 5.307 1.961 8.082.012.109-.034.288.155.282.15 0 .127-.168.138-.266.184-1.292.369-2.58.742-3.84.409-1.395.806-2.797 1.197-4.203.08-.283.224-.413.54-.407.886.01 1.772 0 2.658.005.437 0 .488.06.368.456-.69 2.33-1.392 4.66-2.088 6.995-.403 1.347-.811 2.694-1.197 4.052-.103.353-.276.51-.678.489-.57-.033-1.145-.006-1.72-.006M110.604 16.989c-.587 0-1.173-.011-1.76 0-.333.01-.489-.114-.575-.413-.719-2.466-1.449-4.926-2.18-7.386-.368-1.228-.742-2.46-1.11-3.688-.132-.435-.086-.5.391-.5h2.657c.23 0 .409.038.478.283.529 1.966 1.19 3.9 1.616 5.887.167.755.236 1.531.351 2.297.017.104-.017.256.144.266.172.011.138-.152.155-.25.08-.532.138-1.075.236-1.607.414-2.216 1.161-4.361 1.719-6.545.064-.244.23-.33.489-.325.909.005 1.824 0 2.732 0 .426 0 .483.076.363.472-.489 1.63-.99 3.259-1.479 4.893-.626 2.08-1.253 4.16-1.869 6.24-.08.267-.218.392-.523.381-.61-.016-1.225 0-1.835 0M38.612 33.895v-2.954c0-.41-.224-.614-.672-.614-.34 0-.68-.005-1.018 0-.34.011-.507-.125-.5-.456.01-.576.005-1.157 0-1.733 0-.282.126-.402.425-.396.402.01.805 0 1.213 0 .364 0 .549-.168.552-.505 0-.739.012-1.477 0-2.216-.005-.337.139-.462.49-.456.833.01 1.667 0 2.501 0 .466 0 .53.065.535.521v2.102c0 .362.198.543.593.543.638 0 1.276.01 1.915 0 .345-.005.5.109.494.45-.017.566-.011 1.13 0 1.695.006.32-.143.446-.465.446-.68 0-1.358.016-2.03 0-.363-.011-.513.098-.507.456.017 1.781 0 3.568.012 5.35 0 .836.218 1.031 1.115 1.048.472.005.938.01 1.41 0 .327-.006.477.108.471.429-.011.565-.011 1.13 0 1.694.006.326-.144.424-.471.424-1.03-.01-2.06 0-3.089-.005-1.898-.011-2.922-.967-2.956-2.765-.018-1.021 0-2.042 0-3.063l-.018.005zM90.457 8.674v7.788c0 .505-.023.527-.547.527-.834 0-1.668-.011-2.502 0-.333.005-.483-.12-.477-.43V1.104.842c.011-.45.063-.505.546-.505H89.9c.534 0 .552.016.552.516v7.82M57.391 11.731v5.904c0 .32-.034.64-.086.955-.207 1.174-1.15 1.95-2.479 2.005-.857.032-1.72.005-2.577.016-.264 0-.374-.098-.374-.353.006-.603.006-1.206 0-1.809 0-.239.11-.331.357-.326.259.006.523.011.782-.005.547-.033.805-.277.846-.782.029-.37.051-.739.051-1.103V5.573c0-.555.012-.566.581-.566h2.382c.46 0 .511.05.511.495v6.234M29.45 26.444c-.362 0-.73.006-1.092 0-.369-.01-.438-.109-.265-.402.621-1.02 1.26-2.037 1.886-3.052.11-.18.265-.255.478-.255h3.198c.16 0 .322.021.396.179.081.168-.04.282-.149.385-.949.973-1.91 1.945-2.858 2.922a.686.686 0 01-.553.223c-.35-.01-.701 0-1.052 0M122.239 3.71c-.362 0-.73.005-1.092 0-.368-.006-.432-.104-.259-.402.282-.484.586-.962.88-1.44.316-.51.638-1.015.949-1.526.138-.228.316-.342.592-.342h3.089c.172 0 .351 0 .443.174.097.179-.046.304-.161.418-.955.978-1.916 1.944-2.865 2.927-.172.174-.374.201-.598.196-.328-.006-.65 0-.978 0M55.654 3.552h-1.369c-.258 0-.38-.103-.38-.353.006-.76.006-1.526 0-2.287 0-.25.116-.353.38-.353.898 0 1.795.006 2.692 0 .31 0 .414.142.414.408 0 .728-.006 1.45 0 2.178 0 .298-.138.418-.448.412-.432-.01-.857 0-1.289 0" fill="#fff"/><path d="M93.045 34.33c0 3.128-2.686 5.67-6.005 5.67s-6.004-2.536-6.004-5.67 2.686-5.67 6.004-5.67c3.319 0 6.005 2.536 6.005 5.67z" fill="#D72435"/></svg>