<svg width="167" height="68" viewBox="0 0 167 68" fill="none" xmlns="http://www.w3.org/2000/svg"><path d="M38.337 68c-.12-.062-.259-.196-.224-.57a2.222 2.222 0 000-.339v-4.89c0-.338-.06-.605-.198-.855l-3.327-6.065c-.095-.187-.172-.348-.353-.463a.315.315 0 00-.155-.045.336.336 0 00-.13.027c-.198.098-.293.267-.361.392l-.543.846c-1.138 1.746-2.276 3.491-3.396 5.246-.163.258-.319.339-.603.339l-8.325-.027h-2.085c-.302 0-.354-.036-.397-.134-.034-.08-.025-.125.155-.33l4.81-5.842c.154-.17.284-.321.3-.562a.355.355 0 00-.094-.258.597.597 0 00-.422-.16h-.155l-1.009.018h-.241c-.362 0-.62.133-.845.418l-4.601 5.843c-.104.107-.25.267-.225.535.01.133.095.24.216.276.164.044.284.116.258.552l-.017.276a16.51 16.51 0 00-.043 1.131c0 .597-.026 1.194-.052 1.79-.034.687-.06 1.4-.043 2.103V67.58a1.922 1.922 0 01-.069.41H.023s0-.027-.01-.035c-.025-.107-.025-.125.096-.17.112-.035.232-.044.387-.044H15.078c.637 0 .767-.116.844-.757.026-.179.035-.303.035-.428.008-1.283.043-2.6.103-3.928v-.214c0-.41-.215-.632-.543-.65-.164 0-.241 0-.327-.027-.07-.017-.121-.044-.138-.089-.018-.035-.009-.098.026-.169.026-.062.086-.134.129-.196l1.465-1.853c1.318-1.674 2.645-3.349 3.964-5.032.207-.267.405-.374.733-.392.689-.036 1.378-.044 2.06-.053h.827c.155 0 .215.044.232.097 0 .018.026.063-.043.143-.207.25-1.163 1.425-1.163 1.425l-3.913 4.748a1.46 1.46 0 00-.163.213.438.438 0 00-.035.41.42.42 0 00.345.232c.103.017.224.017.327.017h1.215c1.103 0 2.215.018 3.318.036 1.146.018 2.284.036 3.43.036h.758c.483 0 .802-.187 1.069-.597 1.086-1.71 2.189-3.411 3.292-5.121l.75-1.159c.112-.186.18-.293.267-.391.077-.09.138-.116.164-.116.026 0 .077.035.137.133.199.321.371.65.552.98l1.069 1.942c.775 1.416 1.55 2.832 2.335 4.249.164.302.233.623.207 1.033-.07 1.06-.06 2.129-.052 3.17v1.435c0 .187 0 .374.147.516.155.16.379.16.577.16h3.86c.69 0 .828-.15.828-.872l.017-11.17v-.178c.026-.258.026-.258.267-.267l3.689-.08h1.215l5.774-.08c.215 0 .543-.072.638-.553.077-.454.232-.864.44-1.229.775-1.3 1.826-1.941 3.23-1.95h.552c.448 0 .983 0 1.5.08.353.044.353.053.379.383.026.48.043.962.035 1.443-.018 1.113.017 2.235.042 3.322.026.81.052 1.63.052 2.44 0 .312.018.615.026.927.009.267.026.534.026.81 0 .544.172.713.715.722h.69c.474-.027.577-.25.603-.632v-2.913c-.009-2.476-.017-4.943-.035-7.42 0-.347-.008-.703-.017-1.05-.008-.473-.026-.936-.017-1.408 0-.579.069-.579.353-.579.078 0 .155 0 .25.018.353.035.707.044 1.069.044 0 0 5.015.134 7.334.205.284 0 .577.027.861.054h.018c.37 0 .603-.116.818-.366l1.215-1.389 2.896-3.296.362-.427.18-.223a.321.321 0 00.07-.231c0-.09-.052-.16-.112-.214a.663.663 0 00-.44-.152H77.185c-.671 0-1.344 0-2.016-.026-1.8-.063-3.602-.071-5.291-.08-.457 0-.784.124-1.077.41-.5.48-1 .961-1.508 1.433l-.836.793c-.888.837-1.776 1.684-2.655 2.53a.99.99 0 01-.732.294 57.9 57.9 0 00-3.137.107 90.81 90.81 0 01-2.689.106c-.75 0-1.508.054-2.258.098l-.982.054c-1.715.089-3.232 1.47-3.525 3.206l-.034.214c-.017.107-.035.214-.06.32-.035.125-.043.152-.207.17h-.198c-1.216-.036-2.43-.134-3.603-.223l-.388-.026a6.644 6.644 0 00-.594-.027c-.241 0-.354-.071-.457-.24-.233-.384-.474-.758-.715-1.132l-2.017-3.189c-.069-.115-.155-.258-.344-.338-.035-.018-.078-.018-.112-.018a.22.22 0 00-.13.036.296.296 0 00-.155.196c-.112.392-.138.766-.164 1.13-.008.143-.025.286-.034.428-.112.971-.207 1.951-.31 2.922l-.147 1.38c0 .063-.017.125-.034.197l-.026.124c-.017.125-.069.17-.19.187-.155.018-.31.036-.465.036h-1.387c-.914 0-1.819 0-2.732.027-1.155.026-2.301.035-3.447.044-1.224 0-2.457.018-3.68.054-1.413.044-2.818.044-4.232.053-.904 0-1.818.009-2.723.027-.379 0-.44-.054-.448-.063-.017-.017-.052-.106-.009-.498.104-.909.225-1.809.345-2.717 0 0 .397-3.046.56-4.23.009-.108.026-.206.052-.313.026-.124.078-.169.207-.187l3.163-.347.706-.071c.405-.045.81-.08 1.215-.134.57-.071.716-.25.707-.837-.052-2.031-.086-4.062-.103-6.093 0-.178-.018-.356-.026-.534a4.88 4.88 0 01-.026-.615v-.24c.034-.285.112-.285.19-.285.043 0 .094 0 .155.018.37.089.74.196 1.111.294l3.835 1.042c.362.098.37.116.388.498.026.669.043 1.345.035 2.013-.018.98.008 1.978.043 2.931.025.81.051 1.621.051 2.44 0 .615.138.767.733.793l1.043.027c.525 0 .525-.383.534-.668v-1.666c.009-.436.017-.864-.009-1.3-.026-.401.095-.695.397-.971.224-.205.43-.428.646-.65.155-.16.31-.33.465-.481.267-.258.388-.561.388-.953v-3.207c0-1.603 0-3.206-.017-4.81 0-.41.095-.659.362-.908.913-.873 1.818-1.755 2.714-2.637l1.25-1.22c.103-.098.241-.223.258-.436.018-.152.06-.223.397-.294.827-.17 5.076-1.051 5.076-1.051l3.11-.65c.182-.036.285-.063.38-.072h.026c.12 0 .172.018.19.178.017.125.008.25.008.374v5.79c.017.303.215.508.508.508h.26c.102 0 .214 0 .326-.01.26-.026.526-.035.785-.035h.646c.388.018.396.027.405.419.009.837.026 1.665.043 2.503.026 1.345.052 2.69.052 4.026 0 .427.017.855.043 1.282l.026.58c0 .124.086.24.198.284.035.01.138.036.172.036a.475.475 0 00.388-.214l.173-.178a167.536 167.536 0 003.447-3.607c.206-.223.301-.472.31-.793l.017-.873c.017-1.167.043-2.325.086-3.492.07-1.95.13-3.9.164-5.842 0-.223.052-.41.155-.58a56.384 56.384 0 001.844-3.268c.233-.437.509-.606.957-.606.078 0 .155 0 .233.018.784.089 1.577.16 2.36.231l1.147.107 3.568.339c.284.026.56.053.844.089.19.024.288.142.293.356l.018.641c.034 1.158.06 2.307.077 3.456.009 1.025.043 2.058.07 3.082.016.722.042 1.434.06 2.156.017.739.017 1.487.025 2.226v1.363c.017.544.026 1.016.595 1.016 0 0 .293-.01.38-.01h.404c.405 0 .81 0 1.215-.008.474-.01.646-.178.664-.677V5.864c0-1.55.543-2.805 1.611-3.74.819-.713 1.819-1.15 3.051-1.328.534-.08 1.086-.089 1.594-.089h3.775c.095.01.19.01.284.018.287.012.434.172.44.481v4.632c.008.587.103.712.646.89 1.069.348 1.879.891 2.482 1.684.551.712.819 1.487.819 2.36v1.969c-.009 1.585-.018 3.162.008 4.747.043 2.628.06 5.255.07 7.883v2.627c.008.116.008.178.017.24.042.518.224.696.74.704.768.01 2.767.027 2.767.027.31 0 .629.01.94.036h.12c.534 0 .569-.472.586-.624l.258-3.277.32-3.795c.042-.534.085-1.069.111-1.603.017-.312.095-.543.25-.74.035-.044.173-.24.173-.24.5-.623.766-1.371.844-2.36.086-1.131.224-2.254.353-3.385l.138-1.202a.944.944 0 01.078-.285c.026-.054.043-.063.095-.063.069 0 .094.018.12.09.043.133.043.293.043.462v1.372c.018 1.23.026 2.458.018 3.688 0 .463.12.837.387 1.158.043.053.087.115.13.178.39.546.603 1.116.637 1.71l.044.802c.077 1.398.155 2.788.24 4.186v.16c.104 1.443.19 2.886.26 4.32l.06 1.238c.034.713.077 1.425.094 2.138.018.525.164.668.69.686h.508c.457 0 .914-.018 1.371-.036a34.27 34.27 0 011.353-.035h.422c.767 0 1.542-.01 2.309-.018.207 0 .371.053.543.16l.905.579a638.847 638.847 0 005.748 3.634c.362.223.491.454.483.882-.017 1.345.017 2.69.06 4.035.017.801.043 1.612.052 2.422.017 1.604.06 3.207.12 4.81 0 .134 0 .276-.008.419-.017.089-.043.196-.112.196-.026 0-.069 0-.147-.045a26.65 26.65 0 01-.982-.534l-4.774-2.654c-.328-.178-.655-.366-.983-.553l-.784-.445a1.171 1.171 0 01-.448-.454l-2.525-4.32c-.19-.32-.379-.65-.569-.98-.172-.312-.405-.463-.715-.472a.807.807 0 01-.198-.027 1.74 1.74 0 00-.302-.026h-.319c-.836 0-1.68-.036-2.516-.063-.552-.018-1.103-.044-1.655-.053a191.704 191.704 0 01-3.206-.107l-1.568-.063h-.767c-.224 0-.336-.089-.414-.311a11.581 11.581 0 00-.284-.766c-.147-.401-.302-.802-.422-1.212-.164-.516-.457-.908-.742-1.291l-.19-.258c-.439-.615-.895-1.22-1.36-1.826l-.492-.65c-.146-.197-.258-.348-.474-.348-.198 0-.319.142-.483.32l-5.403 6.164c-.267.303-.525.606-.784.909-.284.338-.284.534 0 .882l.258.294s2.913 3.144 3.853 4.168l.801.882c.328.365.646.73.974 1.078.155.16.18.356.19.623 0 0 .025 2.111.025 2.984v3.438c.043 2.04.078 4.088.095 6.128v.223c0 .312 0 .517.147.677.146.151.362.151.517.151 0 0 1.689-.018 1.965-.018h.818c.603 0 1.198-.017 1.801-.035.595-.018 1.19-.045 1.784-.045h.285c.715 0 .767-.303.775-.792.026-1.043 0-2.094-.026-3.118a94.818 94.818 0 01-.034-2.218c0-2.743 0-5.487-.009-8.239v-3.714c-.005-.41.187-.618.578-.624l4.248-.097h.173c.224.017.267.053.284.276.017.169.017.347.017.516v.33c.017.516.147.668.655.712l.543.045c.302.027.603.053.905.089.965.116 1.655.686 2.103 1.737.198.472.327.988.37 1.532.052.579.086 1.167.086 1.746.009 1.398.018 2.796.018 4.195v1.95c0 .152 0 .294.077.455a.28.28 0 00.207.151h.026c.293 0 .414-.151.474-.222l.388-.41c.146-.152.284-.303.431-.446 1.154-1.149 2.662-1.772 4.231-1.772 1.396 0 2.723.49 3.835 1.407.293.24.577.49.87.73l.621.526c.138.134.293.276.543.276a.329.329 0 00.284-.178c.095-.205.086-.4.078-.561v-1.23V42.57c0-.311.017-.623.043-.935.017-.231.025-.463.034-.704 0-.231.069-.231.129-.231.043 0 .086 0 .138.018.405.107.802.24 1.198.374l11.686 3.91c.448.151.896.294 1.344.445.253.09.379.27.379.544v1.915c0 1.38-.008 2.76 0 4.15.009.953 0 1.915 0 2.868 0 .936-.008 1.862 0 2.797v.49c.018.499.181.668.664.668h2.223c.408 0 .615.217.621.65 0 .838.008 1.675 0 2.503 0 .5.017.989.034 1.479.017.4.035.801.043 1.211 0 .08 0 .152.018.232.043.231.206.383.413.392a.446.446 0 00.457-.374c.017-.072.017-.143.026-.223.077-1.033.077-2.004.069-2.948v-1.042c0-.695.008-1.39 0-2.085 0-.534-.164-.721-.672-.775a18.154 18.154 0 00-.983-.044h-.25c-.181-.009-.345-.01-.482-.063a.193.193 0 01-.112-.08c0-.026 0-.07.034-.124.069-.116.164-.223.276-.348l1.887-2.048 3.335-3.634c.293-.321.586-.642.871-.971.577-.65 1.163-1.3 1.766-1.924l.112-.116c.147-.151.198-.151.198-.151s.052 0 .19.124c.483.428.965.873 1.439 1.31.983.9 5.059 4.685 5.059 4.685l.086.089c.103.116.241.25.448.312.026 0 .052.008.086.008a.284.284 0 00.147-.044c.25-.152.25-.4.25-.499l.086-1.719c0-.107.017-.205.034-.312.026-.133.061-.151.147-.151l.189-.018c.156-.018.311-.027.457-.027h4.645c.397 0 .405.018.414.41v3.937c0 .828.008 1.666-.017 2.494-.061 1.648-.052 3.313-.052 4.926v2.743c0 .383 0 .614.164.793.163.169.387.178.749.178h9.919c.13 0 .224 0 .302.044v.303h-11.281c-.112-.08-.146-.214-.138-.499l.018-14.26c-.018-.49-.13-.74-.707-.74h-3.861c-.491 0-.689.206-.706.714v.169c-.018.525-.035 1.05-.087 1.576-.043.41.087.748.388 1.025.276.258.535.525.802.792l.336.348c.224.222.181.267.146.311a.189.189 0 01-.094.027c-.061 0-.121-.035-.216-.116l-3.904-3.607-4.447-4.088c-.172-.16-.344-.321-.517-.464-.12-.098-.258-.213-.439-.213-.207 0-.345.142-.457.267-.5.525-.999 1.05-1.499 1.594-.716.784-4.895 5.371-5.283 5.799-.138.133-.388.365-.233.703.043.098.164.259.44.259h.577c.259 0 .647 0 .724.08.078.08.069.508.06.659 0 .267-.017.543-.025.81-.018.357-.026.704-.026 1.06v4.81c0 .475-.233.716-.698.722h-.526c-.293-.018-.327-.054-.362-.365-.017-.125-.017-.259-.017-.392v-.81c-.017-.918-.017-1.827-.017-2.744 0-.365-.026-.73-.044-1.105l-.025-.472c-.026-.49-.199-.659-.673-.668h-2.499c-.232-.018-.25-.026-.258-.276a4.288 4.288 0 010-.48v-11.75c0-.783-.095-.908-.802-1.13-1.456-.464-2.887-.954-4.326-1.444l-1.301-.445c-1.706-.579-3.413-1.14-5.128-1.71l-1.939-.641-.258-.08c-.026 0-.112-.018-.138-.018-.207 0-.414.142-.44.454v.365l-.025 15.24c0 .285 0 .454-.035.597-.009.036-.043.134-.103.134-.018 0-.052 0-.104-.036a2.43 2.43 0 01-.344-.267l-.759-.66a37.846 37.846 0 00-1.439-1.22c-1.181-.944-2.422-1.425-3.714-1.425-.905 0-1.836.232-2.775.704-.414.205-.81.499-1.198.9l-1.663 1.71c-.112.115-.198.205-.302.276a.156.156 0 01-.095.035c-.069 0-.103-.07-.112-.115-.026-.08-.026-.188-.026-.294v-.65c0-.384.009-.758 0-1.14-.051-1.39-.06-2.806-.068-4.178 0-.722 0-1.452-.018-2.173a7.857 7.857 0 00-.258-1.96 6.1 6.1 0 00-.224-.66c-.362-.845-1.026-1.308-1.965-1.37-.621-.045-1.25-.09-1.87-.152-.198-.018-.25-.045-.267-.054 0-.017-.026-.08-.052-.294a12.461 12.461 0 01-.052-.801c-.017-.383-.25-.615-.603-.615h-1.138c-.62 0-1.24 0-1.87.036l-.422.035c-.508.036-.655.196-.655.722V48.413c.07 3.376.078 6.814.078 10.146v2.449c0 .151.017.294.034.445.009.098.018.205.018.303.008.33-.026.437-.06.481-.035.036-.147.09-.458.09h-2.43c-.74 0-1.43.026-2.12.044-.69.017-1.37.044-2.06.044h-1.068c-.5 0-.5-.009-.508-.418a429.896 429.896 0 00-.044-3.35c-.025-1.55-.051-3.1-.06-4.649 0-.748-.017-1.496-.034-2.244-.018-1.051-.043-2.102-.026-3.154a1.25 1.25 0 00-.353-.873c-1.19-1.282-2.379-2.565-3.56-3.847-.344-.374-.68-.757-1.025-1.132-.293-.33-.595-.659-.888-.988-.163-.178-.293-.32-.491-.32s-.319.133-.491.32a367.144 367.144 0 00-5.076 5.772c-.233.267-.457.374-.793.374-1.172 0-2.3-.045-3.438-.09l-1.457-.053c-.405-.018-.81-.018-1.224-.027-.568-.008-1.137-.026-1.715-.044l-.482-.027c-.216-.009-.43-.026-.655-.035h-.13c-.594 0-.637.347-.637.766v1.371c0 1.23-.009 2.467.017 3.697.043 1.968.043 3.928.052 5.896v1.72c0 .133.009.186 0 .23-.017.241-.06.241-.198.241-.405.01-.819.018-1.224.018h-1.034c-.13 0-.138 0-.181-.178-.043-.151-.043-.312-.043-.472.008-1.247-.017-2.485-.052-3.723-.034-1.14-.06-2.28-.06-3.412 0-.258-.017-.516-.035-.775a8.599 8.599 0 01-.025-.819c0-.08 0-.33-.156-.499a.51.51 0 00-.379-.151c-.258 0-.5-.027-.741-.045a7.55 7.55 0 00-.776-.044c-.224 0-.448.017-.672.062-1.525.312-2.645 1.586-2.792 3.18-.034.368-.233.552-.595.552h-2.05c-.552 0-1.095 0-1.646.018-2.164.053-4.335.071-6.498.089-.586 0-.707.187-.741.73-.078 1.025-.07 2.049-.06 3.047v1.256c-.01 1.567 0 3.135 0 4.702v2.263c.042.365-.061.543-.389.623h-5.377l.18.027zm-9.221-32.03c-.44 0-.448.428-.448.74a67.77 67.77 0 00.043 3.26c.026.908.052 1.825.052 2.734 0 .178.008.356.025.534.018.205.035.41.018.615-.018.267-.153.416-.405.445l-2 .223c-.913.098-1.835.196-2.749.303l-.129.018c-.63.07-.776.151-.853.766l-.026.205c-.181 1.3-.345 2.61-.508 3.91l-.224 1.79c-.026.223-.06.445.086.615.146.178.37.178.586.187h.258c.328 0 .664-.01.991-.027l.655-.027a109.11 109.11 0 012.956-.035c1.043 0 2.086-.01 3.12-.045 1.215-.036 2.43-.044 3.654-.044 1.258-.01 2.516-.018 3.774-.054.362-.009.724-.009 1.077-.009.293 0 .595 0 .888-.009.474-.009.638-.169.68-.65 0 0 .027-.392.035-.472l.595-5.55.077-.712c.026-.187.095-.204.138-.213.06 0 .112.044.173.133.112.16.215.33.319.499l.655 1.033 2.352 3.714c.147.232.405.553.905.58l3.473.195h.25c.345 0 .586-.196.663-.543.044-.187.095-.365.156-.543.258-.722.646-1.3 1.189-1.773.741-.65 1.637-.997 2.663-1.033a215.19 215.19 0 004.154-.178 222.32 222.32 0 014.222-.17l.422-.017c.285-.01.518-.107.724-.294l1.69-1.595a280.55 280.55 0 003.309-3.153c.31-.303.603-.427.99-.427 1.362.044 2.664.062 3.965.08 0 0 2.542.027 2.81.036.904.017 1.809.035 2.722.07.38 0 .638-.115.854-.373.603-.704 1.223-1.399 1.835-2.102l4.998-5.7c.104-.117.181-.197.26-.25a.542.542 0 01.094-.054s.026 0 .095.063c.112.107.206.231.301.347l2.74 3.616c.113.152.207.339.294.597.094.285.508 1.452.612 1.755.12.365.37.552.75.552.154 0 .31.018.465.027.163.009.327.026.49.026 1.018.018 2.035.054 3.052.09.827.026 1.654.062 2.481.08.44.009.87.026 1.31.044.655.027 1.31.054 1.965.054h.431c.353 0 .543.115.733.463.603 1.069 1.215 2.12 1.827 3.18.396.685.801 1.38 1.197 2.066a1.9 1.9 0 00.819.784c.853.428 1.698.917 2.517 1.38.474.277.948.544 1.421.811.406.223 2.215 1.238 2.215 1.238.19.107.31.16.44.16.413 0 .422-.472.422-.703v-.624s-.052-1.247-.06-1.55a52.5 52.5 0 01-.026-1.683c0-.74-.017-1.47-.043-2.209-.035-.703-.035-1.407-.043-2.11 0-.642-.018-1.275-.035-1.916-.017-.57-.215-.926-.646-1.193a791.044 791.044 0 01-5.783-3.67l-.362-.232a1.308 1.308 0 00-.732-.222l-.336.017c-.328.018-.655.036-.983.036 0 0-3.197.027-3.86.036-.19 0-.388.018-.578.026-.198.01-.396.027-.603.027-.362 0-.396-.035-.414-.374l-.19-4.284c-.025-.517-.042-1.042-.085-1.559a114.085 114.085 0 01-.233-3.83l-.086-1.514-.164-2.806c-.009-.178-.035-.365-.164-.534l-.74-1.043c-.139-.195-.294-.24-.397-.24-.155 0-.302.09-.414.276l-.138.223a4.77 4.77 0 01-.345.508c-.275.347-.422.757-.456 1.291a131.26 131.26 0 01-.242 3.18c-.112 1.31-.215 2.618-.318 3.928l-.13 1.683c-.034.463-.06.463-.456.463h-1.138l-2.784-.026c-.353 0-.715-.036-1.068-.063-.216-.017-.224-.017-.25-.222-.009-.063-.009-.134-.009-.196 0-1.06-.017-2.102-.034-3.144l-.017-1.337c-.026-1.977-.026-3.954-.035-5.923 0-2.538-.008-5.086-.06-7.624-.026-1.194-.491-2.165-1.44-2.948-.379-.321-.853-.562-1.482-.757a.83.83 0 00-.25-.054c-.258 0-.404.178-.422.526v.267c.017 1.22.026 2.37.035 3.527.026 3.242.025 6.484.025 9.727v3.384c0 .125 0 .24-.034.33-.026.071-.052.089-.112.089-.069 0-.095-.018-.12-.063a.961.961 0 01-.078-.311S83.184 8.17 83.037 7.102c-.043-.311-.043-.32.267-.427.517-.187 1.06-.214 1.517-.214.595 0 .75-.17.75-.784 0-1.042-.017-3.919-.017-3.919-.035-.463-.207-.641-.664-.677h-.569c-.474 0-.948-.018-1.43-.044-.483-.018-.966-.045-1.457-.045h-.474c-1.051.036-1.947.214-2.731.544-1.56.659-2.482 1.834-2.758 3.5-.07.436-.07.864-.06 1.283v28.6c.008.419-.01.446-.414.454l-.37.018c-.156.01-.311.018-.457.018h-.285c-.569.018-1.146.027-1.715.027h-.344c-.199 0-.216-.01-.25-.25 0-.062-.009-.115-.009-.169l-.017-1.05c-.009-.589-.017-1.185-.043-1.773-.035-.802-.043-1.604-.06-2.414 0-.446-.01-.9-.018-1.345-.043-1.986-.078-3.982-.112-5.968v-.659c-.026-.526-.12-.695-.672-.757-1.06-.107-2.111-.214-3.171-.312-.552-.053-2.801-.24-2.801-.24l-.422-.045a8.57 8.57 0 00-.673-.062c-.586 0-.603.427-.62.588v.213c.069.918.069 1.853.06 2.762v1.46c0 .392 0 .784.026 1.185.043.909.043 1.808.052 2.717 0 .436 0 .864.008 1.3 0 .116-.017.303-.155.303 0 0-.103 0-.138-.303-.086-.623-.094-1.265-.103-1.888v-.401c-.026-.837-.069-1.683-.112-2.52-.052-1.078-.103-2.147-.112-3.225 0-.187.017-.463-.276-.695a.28.28 0 00-.18-.062h-.061a.303.303 0 00-.198.142l-.25.428c-.31.543-.62 1.078-.922 1.603a1.003 1.003 0 00-.104.428l-.017.25c-.026.427-.052.845-.052 1.273-.017.98-.034 1.95-.077 2.93-.087 1.995-.13 3.982-.173 5.977a.96.96 0 01-.301.74c-1.06 1.077-2.103 2.163-3.154 3.25l-1.353 1.399c-.095.098-.164.169-.242.231-.06.045-.095.045-.103.045-.052 0-.086-.08-.104-.107-.043-.098-.051-.214-.051-.374.017-1.372-.009-2.761-.043-4.097a155.358 155.358 0 01-.052-3.483v-1.096c-.009-.525-.181-.694-.69-.703h-1.68c-.38 0-.569-.196-.569-.588v-5.238c0-.41 0-.872-.5-.872-.094 0-.24.026-.439.07-2.344.49-4.688.99-7.023 1.48-.517.106-.655.275-.655.819.008 2.859-.026 5.718-.052 8.577l-.026 2.628v3.687c0 .134 0 .25-.026.357-.017.08-.086.124-.13.124-.077 0-.102-.089-.102-.124a3.851 3.851 0 01-.078-.624c-.009-1.122-.026-2.244-.043-3.376l-.017-1.3c-.009-.864-.035-1.737-.052-2.6a226.092 226.092 0 01-.069-4.837c0-.392 0-.784-.009-1.176 0-.152.026-.392-.206-.57a.28.28 0 00-.181-.063.314.314 0 00-.156.045c-.24.151-.43.347-.62.534l-.733.73a86.313 86.313 0 01-1.568 1.55c-.319.303-.457.642-.457 1.096V39c0 .338-.086.552-.301.766-.19.178-.362.365-.543.552-.19.205-.388.41-.586.597a1.5 1.5 0 00-.5 1.22c.026.935.017 1.87.009 2.806v.516c0 .365-.035.374-.354.374h-.164c-.672 0-1.335 0-1.999-.035-.327-.01-.353-.063-.345-.357 0-.383-.017-.766-.034-1.14-.017-.356-.034-.703-.034-1.06 0-1.13-.026-2.262-.052-3.393a153.43 153.43 0 01-.043-2.022c0-.561-.121-.704-.664-.846l-3.49-.944a1.48 1.48 0 00-.414-.08M84.786 6.79c-.223 0-.439 0-.663.017-.224.018-.483.054-.638.25-.155.196-.138.463-.103.712.112.811.233 1.622.353 2.441l1.155 7.812a.324.324 0 00.164.231.297.297 0 00.284 0c.095-.053.198-.187.198-.294V7.566v-.179c0-.365-.232-.605-.577-.605h-.155l-.017.009z" fill="#23234A"/></svg>