<svg width="24" height="24" viewBox="0 0 24 24" fill="none" xmlns="http://www.w3.org/2000/svg"><path d="M13.48 3v1.94M17.98 4.33l-1.37 1.38M8.98 4.33l1.38 1.38" stroke="#fff" stroke-width="1.5" stroke-linecap="round" stroke-linejoin="round"/><path clip-rule="evenodd" d="M8.835 9.33h1.768c.262 0 .513.104.699.289l1.397 1.397a.99.99 0 00.699.289h.956a.989.989 0 00.884-.546l.442-.884a.987.987 0 01.884-.546H21l-1.096 3.952-5.234 1.883a5.834 5.834 0 01-5.835 5.835 5.834 5.834 0 110-11.669z" stroke="#fff" stroke-width="1.5" stroke-linecap="round" stroke-linejoin="round"/><path d="M10.167 13.834a1.883 1.883 0 11-2.663 2.663 1.883 1.883 0 012.663-2.663" stroke="#fff" stroke-width="1.5" stroke-linecap="round" stroke-linejoin="round"/></svg>